<svg width="79" height="65" viewBox="0 0 79 65" fill="none" xmlns="http://www.w3.org/2000/svg">
<path d="M26.7871 53.4935C27.1023 53.4935 27.2082 53.2116 27.363 52.9596C28.4777 51.1453 29.9097 49.6177 31.2901 48.01C36.025 42.4957 40.9838 37.3327 45.9483 32.0258C48.3626 29.445 51.0636 27.1548 53.46 24.5629C56.512 21.2619 59.5844 17.9431 62.7179 14.7214C65.7887 11.5643 69.0677 8.59206 72.1909 5.48123C72.635 5.03879 75.2065 2.8888 73.4601 3.0045" stroke="black" stroke-opacity="0.21" stroke-width="6" stroke-linecap="round" stroke-linejoin="round"/>
<path d="M25.1758 40.5078C25.1758 40.1279 25.512 39.9266 25.7797 39.6758C27.7514 37.8286 29.7388 36.0047 31.7502 34.2007C36.9209 29.5632 42.4149 25.3993 48.0764 21.3741C53.3197 17.6464 58.8271 14.2786 64.2816 10.8696C67.9544 8.57422 71.5201 5.90915 75.2848 3.7832" stroke="black" stroke-opacity="0.21" stroke-width="6" stroke-linecap="round" stroke-linejoin="round"/>
<path d="M26.1063 52.4667C26.294 52.4667 26.4241 52.5564 26.5296 52.7139C26.6102 52.8343 25.1853 51.2673 24.9268 50.9708C20.5278 45.9249 8.54515 29.8028 12.384 35.2869" stroke="black" stroke-opacity="0.21" stroke-width="6" stroke-linecap="round" stroke-linejoin="round"/>
<path d="M13.0339 32.9021C11.6349 32.5602 12.7266 33.058 13.4891 33.386C17.7422 35.2151 21.6533 37.7591 25.891 39.5969" stroke="black" stroke-opacity="0.21" stroke-width="6" stroke-linecap="round" stroke-linejoin="round"/>
<path d="M51.5417 18.1283C52.272 18.1283 50.9039 16.1342 50.8271 16.0148C48.9079 13.0324 45.1135 11.6498 42.0996 10.1996C37.0409 7.76543 31.3195 7.77754 25.9604 9.1408C22.9125 9.91613 20.5334 11.12 18.0628 13.0441C15.2123 15.2641 12.2517 17.8708 9.91158 20.6217C7.43819 23.5294 5.90125 27.3931 4.75127 30.9933C3.40875 35.1963 2.52498 39.8475 3.27395 44.2575C4.83854 53.4698 14.3596 59.9566 22.9855 61.4263C28.565 62.377 33.7151 61.8548 39.0393 59.9871C43.9826 58.2531 49.1125 55.8863 52.7176 51.9726C59.2507 44.8803 59.5272 33.7942 53.5161 26.2939" stroke="#1016AA" stroke-opacity="0.44" stroke-width="6" stroke-linecap="round" stroke-linejoin="round"/>
<path d="M27.7871 53.4935C28.1023 53.4935 28.2082 53.2116 28.363 52.9596C29.4777 51.1453 30.9097 49.6177 32.2901 48.01C37.025 42.4957 41.9838 37.3327 46.9483 32.0258C49.3626 29.445 52.0636 27.1548 54.46 24.5629C57.512 21.2619 60.5844 17.9431 63.7179 14.7214C66.7887 11.5643 70.0677 8.59206 73.1909 5.48123C73.635 5.03879 76.2065 2.8888 74.4601 3.0045M26.1758 40.5078C26.1758 40.1279 26.512 39.9266 26.7797 39.6758C28.7514 37.8286 30.7388 36.0047 32.7502 34.2007C37.9209 29.5632 43.4149 25.3993 49.0764 21.3741C54.3197 17.6464 59.8271 14.2786 65.2816 10.8696C68.9544 8.57422 72.5201 5.90915 76.2848 3.7832M27.1063 52.4667C27.1982 52.4667 27.2763 52.4883 27.3445 52.5287M27.3445 52.5287C27.4155 52.5709 27.4758 52.6336 27.5296 52.7139C27.55 52.7444 27.4738 52.6666 27.3445 52.5287ZM27.3445 52.5287C26.9633 52.122 26.1198 51.1922 25.9268 50.9708C21.5278 45.9249 9.54515 29.8028 13.384 35.2869M14.0339 32.9021C12.6349 32.5602 13.7266 33.058 14.4891 33.386C18.7422 35.2151 22.6533 37.7591 26.891 39.5969M52.5417 18.1283C53.272 18.1283 51.9039 16.1342 51.8271 16.0148C49.9079 13.0324 46.1135 11.6498 43.0996 10.1996C38.0409 7.76543 32.3195 7.77754 26.9604 9.1408C23.9125 9.91613 21.5334 11.12 19.0628 13.0442C16.2123 15.2641 13.2517 17.8708 10.9116 20.6217C8.43819 23.5294 6.90125 27.3931 5.75127 30.9933C4.40875 35.1963 3.52498 39.8475 4.27395 44.2575C5.83854 53.4698 15.3596 59.9566 23.9855 61.4263C29.565 62.377 34.7151 61.8548 40.0393 59.9871C44.9826 58.2531 50.1125 55.8863 53.7176 51.9726C60.2507 44.8803 60.5272 33.7942 54.5161 26.2939" stroke="black" stroke-linecap="round" stroke-linejoin="round"/>
</svg>
