<svg width="2558" height="1723" viewBox="0 0 2558 1723" fill="none" xmlns="http://www.w3.org/2000/svg">
<path d="M386.757 769.67C355.289 775.357 355.469 791.341 397.112 769.996C637.181 646.942 880.59 525.733 1130.5 423.689C1266.91 367.989 1403.71 316.849 1537.33 254.861M1537.33 254.861C1546.62 250.551 1555.89 246.188 1565.15 241.768C1616.35 217.325 1667.51 193.109 1719.1 169.932M1537.33 254.861C1464.72 279.917 1392.19 305.257 1319.7 330.854C1229.69 362.643 1140.63 396.736 1052.22 432.409M1537.33 254.861C1687.47 203.05 1837.96 152.452 1989.12 103.292C2048.02 84.14 2107.65 65.665 2165.23 42.7679C2174.71 38.9995 2208.83 29.3589 2210.95 16.0731C2214.09 -3.61717 2068.1 30.6376 2057.49 33.3612M1719.1 169.932C1780.37 142.409 1842.25 116.351 1905.54 93.1179C1921.83 87.1371 1937.73 80.0204 1954.75 76.363C1969.24 73.2468 1927.3 87.5991 1913.64 93.3739C1849.39 120.543 1784.41 145.67 1719.1 169.932ZM1719.1 169.932C1661.69 191.261 1604.02 211.921 1546.35 232.714C1379.47 292.888 1215.34 361.321 1052.22 432.409M1052.22 432.409C849.505 520.755 648.337 613.2 445.344 698.987C443.614 699.718 441.793 700.495 439.888 701.315M1052.22 432.409C898.087 494.607 745.924 561.608 594.073 629.579C542.331 652.739 491.081 676.975 439.888 701.315M439.888 701.315C371.795 730.603 196.544 814.034 257.762 786.511C318.868 759.038 379.338 730.104 439.888 701.315ZM1234.85 455.957C1234.85 425.343 1225.72 457.873 1224.3 470.97C1210.13 601.342 1217.6 735.55 1211.63 866.543C1203.63 1042.28 1193.72 1217.76 1195.11 1393.75C1195.8 1481.98 1213.76 1583.97 1185.06 1669.71C1178.47 1689.39 1184.57 1628.2 1184.57 1607.44C1184.57 1532.24 1185 1457.04 1185 1381.83C1185 1260.37 1182.55 1138.77 1190.58 1017.5C1197.58 911.809 1209.56 806.231 1211.66 700.273C1214.42 561.054 1200.53 416.919 1250.93 283.883C1272.89 225.912 1263.74 367.678 1263.32 376.573C1246.15 744.65 1191.87 1120.22 1240.83 1487.77M1240.83 1487.77C1245.49 1522.82 1251.1 1557.8 1257.77 1592.69C1262.18 1615.76 1263.18 1633.69 1260.7 1598.22C1255.51 1524.11 1248.92 1450.4 1246.64 1376.07C1243.34 1268.87 1243.05 1161.67 1245.13 1054.5M1240.83 1487.77C1237.86 1343.29 1240 1198.85 1245.13 1054.5M1240.83 1487.77C1240.84 1488.26 1240.85 1488.75 1240.86 1489.24C1242.31 1559.3 1255.18 1768.93 1256.89 1698.87M1245.13 1054.5C1247.21 946.614 1251.7 838.766 1257.92 730.997C1260.23 691.024 1263.7 651.167 1267.22 611.316M1245.13 1054.5C1248.44 960.967 1253.01 867.474 1258.26 774.024C1261.3 719.828 1263.93 665.542 1267.22 611.316M1267.22 611.316C1270.3 576.554 1273.41 541.796 1275.83 506.97C1276.16 502.258 1276.31 497.412 1276.41 492.499M1267.22 611.316C1269.21 578.773 1271.43 546.251 1274.14 513.783C1274.57 508.518 1275.43 500.882 1276.41 492.499M1276.41 492.499C1276.75 476.459 1276.57 459.713 1280.31 444.604C1284.61 427.261 1279.74 464.152 1276.41 492.499Z" stroke="#FDC501" stroke-opacity="0.68" stroke-width="20" stroke-linecap="round" stroke-linejoin="round"/>
<path d="M508.77 1675.91C440.843 1673.26 532.321 1669.18 551.796 1667.08C619.586 1659.77 687.44 1652.46 755.342 1645.29M755.342 1645.29C918.087 1628.12 1081.11 1611.82 1244.18 1598.59M755.342 1645.29C923.529 1624.46 1092.38 1603.73 1261.24 1591.46C1310.91 1587.85 1360.62 1585.17 1410.36 1582.89M755.342 1645.29C734.249 1647.91 713.166 1650.52 692.095 1653.12C567.145 1668.54 442.334 1686.8 318.271 1708.3C255.427 1719.19 373.88 1707.99 386.13 1706.19C530.658 1684.94 674.094 1658.95 819.26 1641.7C960.591 1624.91 1102.39 1611.77 1244.18 1598.59M1244.18 1598.59C1306.18 1593.55 1368.19 1588.96 1430.2 1584.94C1467.5 1582.51 1504.84 1579.94 1542.22 1577.36M1244.18 1598.59C1299.59 1593.43 1354.99 1588.27 1410.36 1582.89M1542.22 1577.36C1703.36 1566.25 1865.06 1555.01 2026.3 1555.01C2130.55 1555.01 1817.94 1563.04 1713.88 1569.21C1656.69 1572.6 1599.46 1575.04 1542.22 1577.36ZM1542.22 1577.36C1498.26 1579.15 1454.3 1580.87 1410.36 1582.89M1410.36 1582.89C1437.87 1580.21 1465.37 1577.48 1492.86 1574.66C1673.61 1556.15 1854.8 1535.81 2036.61 1532.24C2066.27 1531.66 2163.28 1549.14 2186 1520M1222.74 544.474C1222.74 505.122 1223.05 465.756 1223.72 426.471M1223.72 426.471C1223.76 423.958 1223.8 421.445 1223.85 418.932C1224.49 383.606 1224.48 392.239 1224.17 424.321M1223.72 426.471C1218 454.351 1217.87 484.395 1213.53 511.539C1201.62 586.108 1193.68 659.217 1189.04 735.135C1181.37 860.309 1177.39 988.185 1181.89 1113.47C1187.16 1259.9 1215.13 1406.05 1217.11 1552.44M1223.72 426.471C1223.86 425.753 1224.01 425.036 1224.17 424.321M1224.17 424.321C1223.47 495.368 1221.27 681.41 1221.27 759.656C1221.27 880.733 1226.15 999.444 1217.59 1120.31C1211.57 1205.19 1213.83 1292.07 1216.3 1377.13C1217.92 1433.02 1219.4 1488.27 1217.4 1544.16L1217.33 1546.05C1217.26 1548.18 1217.18 1550.31 1217.11 1552.44M1224.17 424.321C1226.28 414.593 1229.1 405.146 1233.07 396.199C1253.42 350.282 1257.61 392.917 1259.32 422.797C1267.28 562.563 1255.65 704.829 1248.69 844.544C1239.8 1023.38 1230.57 1203.73 1230.57 1382.77C1230.57 1431.03 1228.27 1479.42 1228.27 1527.78C1228.27 1556.55 1231.82 1659.08 1221.27 1571.03M1217.11 1552.44C1216.58 1567.38 1216.11 1582.33 1216.11 1597.29C1216.11 1616.4 1217.22 1573.28 1217.22 1568.61C1217.22 1563.22 1217.18 1557.83 1217.11 1552.44ZM358.831 854.206C365.788 838.396 371.664 822.216 378.476 806.357C391.868 775.179 348.217 867.177 335.46 898.618C287.914 1015.8 222.773 1124.28 175.709 1241.16C163.101 1272.48 148.604 1302.85 135.808 1334.05C117.981 1377.5 135.498 1320.04 141.012 1304.99C194.144 1160.06 252.289 1019.55 321.938 881.758C334.489 856.928 348.503 832.107 359.318 806.459C364.458 794.272 343.647 827.819 336.786 839.128M367.666 811.128C366.921 805.136 361 788.246 361 794.284C361 809.769 369.194 825.323 374.889 839.413C395.312 889.939 423.45 937.268 450.275 984.561C473.393 1025.32 490.503 1068.92 511.471 1110.7M511.471 1110.7C514.211 1116.16 517.016 1121.59 519.909 1126.97C546.356 1176.2 585.136 1222.08 601.346 1276.27C604.808 1287.84 606.235 1284.9 602.544 1274.94C588.797 1237.87 572.122 1201.44 556.032 1165.36C506.689 1054.72 450.431 947.353 397.042 838.792C374.113 792.169 396.611 841.511 404.23 861.184C436.633 944.854 472.714 1028.77 511.471 1110.7ZM511.471 1110.7C527.802 1145.22 544.608 1179.39 561.815 1213.04C579.332 1247.29 597.919 1281.4 617.955 1314.27C630.479 1334.81 619.9 1293.95 618.401 1288.82M58.0201 1383.98C6.04687 1383.98 90.6294 1374.1 176.533 1364.22M176.533 1364.22C198.357 1361.7 220.265 1359.19 240.042 1356.84M176.533 1364.22C238.956 1348.48 303.492 1339.1 366.557 1326.75C422.293 1315.83 478.146 1307.4 534.434 1300.93M176.533 1364.22C171.322 1365.53 166.126 1366.89 160.947 1368.29C124.826 1378.11 87.2323 1392.6 49.8095 1396.13C26.797 1398.3 -27.275 1420.04 31.4725 1404.36C100.4 1385.96 170.073 1370.75 240.042 1356.84M240.042 1356.84C260.319 1354.43 278.355 1352.19 291.759 1350.3C379.058 1337.94 465.335 1320.77 551.488 1302.29C572.829 1297.71 598.372 1300.43 618.815 1293.89C635.51 1288.54 583.795 1295.7 566.359 1297.48C555.7 1298.56 545.059 1299.71 534.434 1300.93M240.042 1356.84C338.002 1337.37 436.543 1320.46 534.434 1300.93M534.434 1300.93C536.159 1300.59 537.884 1300.25 539.608 1299.9C588.635 1290.07 637.039 1276.95 686.259 1268.22C691.778 1267.24 664.893 1269.81 657.76 1269.81C618.494 1269.81 576.561 1281.54 538.164 1287.92C492.214 1295.56 446.243 1303.09 400.616 1312.52C387.68 1315.19 349.372 1318.2 362.087 1321.79M384.715 1081.12C394.949 1091.38 391.635 1080.82 388.706 1069.19C383.662 1049.15 369.825 995 342.22 995C314.72 995 335.574 1135.83 335.574 1156.22C335.574 1180.33 335.586 1203.98 338.127 1227.87C338.726 1233.5 338.434 1275.06 340.68 1273.98C362.34 1263.57 375.696 1255.06 403.521 1252.92C409.382 1252.47 421 1261.16 421 1255.27M301.897 1194.53H281.108C296.597 1194.53 315.016 1194.75 333.492 1193.93M333.492 1193.93C355.649 1192.95 377.887 1190.48 395.254 1184.37C428.593 1172.64 392.492 1177.91 379.163 1180C368.064 1181.74 350.851 1187.54 333.492 1193.93ZM333.492 1193.93C296.621 1207.5 259.094 1223.74 278.111 1209.44M1995.58 116.431C2005.62 102.108 2002.22 104.646 1996.66 120.341C1982.04 161.541 1965.41 201.582 1948.23 241.805C1907.99 336.064 1863.13 428.874 1827.44 525.008C1784.66 640.226 1739.64 751.105 1690.29 863.243C1681.17 883.958 1673.01 903.768 1666.41 925.372C1634.98 1028.14 1727.14 718.539 1770.75 620.324C1799.11 556.46 1831.76 494.509 1860.11 430.567C1884.82 374.835 1903.26 316.835 1931.91 262.847C1949.12 230.406 1968.96 199.859 1978.04 163.868C1986 132.307 1982.58 148.652 1969.55 163.853M2020.21 151.797C2020.16 151.797 2020.11 151.797 2020.06 151.797M2020.06 151.797C1998.78 151.65 1994.97 119.642 1999.59 116.438M2020.06 151.797C2020.43 152.325 2020.8 152.85 2021.17 153.371M2020.06 151.797C2012.46 140.834 2006.19 128.46 1999.59 116.438M1999.59 116.438C2000.84 115.567 2002.72 116.822 2005.04 121.419C2010.4 132.06 2015.78 142.713 2021.17 153.371M1999.59 116.438C1992.94 104.334 1985.97 92.5877 1977 83M2021.17 153.371C2065.95 241.916 2111.75 330.77 2162.52 415.836C2186.14 455.403 2209.89 495.496 2232.73 536.16M2021.17 153.371C2021.77 154.217 2022.39 155.055 2023.01 155.882C2058.17 202.62 2090.4 254.074 2118.3 305.499C2159.37 381.235 2195.4 458.988 2232.73 536.16M2232.73 536.16C2260.69 585.933 2287.27 636.563 2310.54 688.137M2232.73 536.16C2257.48 587.326 2282.8 638.238 2310.54 688.137M2310.54 688.137C2313.58 694.869 2316.56 701.616 2319.48 708.38C2335.27 744.94 2354.6 775.103 2377.84 806.966C2385.54 817.519 2405.81 850.594 2401.37 838.3C2386.31 796.552 2348.9 754.824 2326.74 716.664C2321.25 707.196 2315.85 697.685 2310.54 688.137ZM1974 84C1972.03 82.5674 1968.54 81.4708 1966 82.2692M1566.95 984.365C1566.86 984.359 1566.76 984.352 1566.66 984.343M1566.66 984.343C1563.12 984.019 1555.59 981.263 1563.13 980.132C1575.45 978.282 1587.74 976.243 1600.01 974.092M1566.66 984.343C1577.88 980.859 1589.02 977.305 1600.01 974.092M1566.66 984.343C1535.78 993.933 1504.33 1003 1474 1003M1600.01 974.092C1617.76 970.982 1635.47 967.637 1653.17 964.291L1655.28 963.894C1798.31 936.877 1942.24 914.259 2084.96 885.651C2202.9 862.008 2320.34 844.96 2439.03 826.43C2467.99 821.909 2496.84 815.689 2526.03 812.99C2534.44 812.212 2559.6 814.336 2551.37 812.414C2528.19 806.997 2496.67 812.02 2473.57 814.651C2400.07 823.02 2325.95 830.723 2253.3 844.853C2133.69 868.115 2012.59 889.452 1893.9 916.945C1805.47 937.427 1715.62 947.445 1627.16 966.996C1618.25 968.964 1609.19 971.41 1600.01 974.092ZM1922.7 735C1915.51 735.745 1914.44 743.047 1916.98 753.716M1916.98 753.716C1923.89 782.745 1957.54 836.704 1967.34 851.349C1972.06 858.389 1997.91 910.537 1989.23 888.686C1974.95 852.722 1957.74 818.116 1936.65 785.566C1935.66 784.031 1922.13 764.116 1916.98 753.716ZM1916.98 753.716C1915.13 749.99 1914.36 747.485 1915.62 747.485M2062.1 832.65C2061.73 825.178 2053.34 816.104 2049.73 809.623C2045.78 802.538 2046.28 814.866 2047.31 825.79M2047.31 825.79C2047.91 832.038 2048.68 837.827 2048.89 839.261C2051.8 858.67 2062.56 896.242 2054.31 854.184C2052.42 844.557 2049.9 835.161 2047.31 825.79ZM2047.31 825.79C2044.81 816.708 2042.23 807.649 2040.09 798.425C2038.77 792.715 2051.79 800.184 2057.67 800.796C2068.93 801.967 2086.04 804.036 2095.27 796.526C2102.8 790.4 2097.1 790.997 2097.1 808.526C2097.1 817.307 2101.73 901.491 2107 864.781M2164.09 856.435C2164.09 797.976 2169.03 740.859 2176.38 682.82C2182.12 637.559 2170.83 702.784 2169.51 712.805C2162.92 763.049 2155.55 813.072 2150.29 863.459C2149.36 872.362 2150.95 839.995 2150.95 835.114M1976.12 723.685C1976.12 698 1958.04 757.9 1975.84 762.885C1983.83 765.122 2032.47 734.073 2037.46 726.216C2046.62 711.781 2040.52 698.088 2031.53 684.5C2025.08 674.737 2018.49 696.408 2015.72 700.925C2009.16 711.631 1965.02 747.055 1980.14 737.767M2071.03 702.267C2071.03 698.054 2070.9 695.487 2070.69 694.211M2070.69 694.211C2070.45 692.705 2070.1 692.998 2069.74 694.508M2070.69 694.211C2083.81 690.123 2102.11 684.54 2109.86 679.084C2113.43 676.566 2122.7 661.494 2126.73 667.334C2135.96 680.722 2143.29 703.213 2128.83 713.686C2119.32 720.569 2083.31 738.091 2073.22 735.794C2066.19 734.195 2068.08 701.46 2069.74 694.508M2070.69 694.211C2070.37 694.311 2070.05 694.41 2069.74 694.508M2069.74 694.508C2058.3 698.079 2051.28 700.435 2059.73 700.435M1890.52 762.646C1881.86 762.646 1863.88 778.424 1870.39 768.997C1914.78 704.664 1960.72 640.376 2002.44 574.189M2002.44 574.189C2004.92 570.257 2007.39 566.319 2009.83 562.373M2002.44 574.189C2004.89 570.239 2007.35 566.298 2009.83 562.373M2002.44 574.189C1995.46 585.472 1988.59 596.827 1981.56 608.082C1950.7 657.498 1850.53 800.79 1882.86 752.328M2009.83 562.373C2009.9 562.27 2009.96 562.168 2010.03 562.065C2010.12 561.907 2010.28 561.669 2010.48 561.361M2009.83 562.373C2010.05 562.036 2010.26 561.699 2010.48 561.361M2010.48 561.361C2014.14 555.716 2033.85 526.507 2026.29 537.42C2020.84 545.285 2015.6 553.287 2010.48 561.361ZM2021 546.121C2021 548.356 2103.92 618.278 2121.29 633.054C2129.22 639.799 2137.65 645.386 2146.14 650.823M2146.14 650.823C2157.5 658.099 2168.98 665.107 2179.52 674.269C2182.61 676.949 2200.06 679.666 2194.93 677.699C2182.75 673.034 2170.84 657.429 2161.76 648.762C2137.38 625.486 2113.05 602.155 2088.61 578.936C2076.51 567.44 2061.19 560.955 2049.04 550.526C2049.03 550.52 2049.03 550.514 2049.02 550.508M2146.14 650.823C2116.51 622.462 2065.09 588.131 2049.02 550.508M2146.14 650.823C2148.28 652.872 2150.31 654.891 2152.2 656.877C2156.96 661.866 2224.17 732.138 2201.25 689.127M2049.02 550.508C2047.62 549.26 2046.46 543.582 2047.05 545.332C2047.63 547.064 2048.29 548.79 2049.02 550.508ZM355.935 794.857C354.1 795.619 323.471 807.769 336.003 812.71C338.753 813.795 341.614 814.402 344.555 814.605M344.555 814.605C348.349 814.867 352.276 814.457 356.272 813.535M344.555 814.605C346.212 812.224 350.974 808.083 359.141 802.254C426.021 754.517 508.836 712.589 583.531 678.866C791.759 584.855 997.731 486.872 1203.98 388.517C1244.85 369.024 1286.08 349.887 1327.61 331.138M344.555 814.605C342.131 818.088 346.35 817.806 356.272 813.535M356.272 813.535C368.18 810.785 380.704 803.483 392.155 795.839M356.272 813.535C358.711 812.485 361.494 811.194 364.608 809.659C373.824 805.115 383.003 800.503 392.155 795.839M392.155 795.839C402.524 788.917 412.014 781.716 419.369 777.361C583.518 680.185 755.286 605.642 929.211 528.579C1064.72 468.537 1194.63 396.862 1327.61 331.138M392.155 795.839C458.861 761.844 524.091 725.094 591.22 691.921C785.483 595.922 985.853 504.984 1184.59 418.65C1265.41 383.543 1348.44 354.621 1428.63 317.94C1499.43 285.555 1571.54 254.517 1644.87 228.345C1761.14 186.852 2101.69 40.9166 1988.36 89.8699M1327.61 331.138C1360.16 315.051 1392.89 299.32 1425.93 284.204C1549.91 227.486 1679.12 182.702 1803.33 126.391C1872.94 94.8354 1945.67 62.8377 2020.41 45.1941C2024.7 44.182 2054.62 35.1574 2038.03 43.5237C1996.71 64.3609 1956.96 84.8095 1912.89 99.7974C1715.66 166.876 1518.55 244.921 1327.61 331.138Z" stroke="black" stroke-width="10" stroke-linecap="round" stroke-linejoin="round"/>
</svg>
