<svg width="1807" height="969" viewBox="0 0 1807 969" fill="none" xmlns="http://www.w3.org/2000/svg">
<path d="M347.301 887.034L332.901 849.722C332.474 848.613 332.026 847.333 331.557 845.882C331.087 844.389 330.639 842.81 330.213 841.146C329.317 844.602 328.399 847.482 327.461 849.786L313.061 887.034H347.301ZM373.157 921.082H363.557C362.447 921.082 361.551 920.805 360.869 920.25C360.186 919.695 359.674 918.991 359.333 918.138L350.757 895.994H309.605L301.029 918.138C300.773 918.906 300.282 919.589 299.557 920.186C298.831 920.783 297.935 921.082 296.869 921.082H287.269L323.941 829.37H336.485L373.157 921.082ZM432.134 843.706C431.75 844.346 431.323 844.837 430.854 845.178C430.427 845.477 429.894 845.626 429.254 845.626C428.528 845.626 427.675 845.263 426.694 844.538C425.712 843.813 424.475 843.023 422.982 842.17C421.531 841.274 419.76 840.463 417.67 839.738C415.622 839.013 413.126 838.65 410.182 838.65C407.408 838.65 404.955 839.034 402.822 839.802C400.731 840.527 398.96 841.53 397.51 842.81C396.102 844.09 395.035 845.605 394.31 847.354C393.584 849.061 393.222 850.917 393.222 852.922C393.222 855.482 393.84 857.615 395.078 859.322C396.358 860.986 398.022 862.415 400.07 863.61C402.16 864.805 404.507 865.85 407.11 866.746C409.755 867.599 412.443 868.495 415.174 869.434C417.947 870.373 420.635 871.439 423.238 872.634C425.883 873.786 428.23 875.258 430.278 877.05C432.368 878.842 434.032 881.039 435.27 883.642C436.55 886.245 437.19 889.445 437.19 893.242C437.19 897.253 436.507 901.029 435.142 904.57C433.776 908.069 431.771 911.119 429.126 913.722C426.523 916.325 423.302 918.373 419.462 919.866C415.664 921.359 411.334 922.106 406.47 922.106C400.496 922.106 395.078 921.039 390.214 918.906C385.35 916.73 381.19 913.807 377.734 910.138L381.318 904.25C381.659 903.781 382.064 903.397 382.534 903.098C383.046 902.757 383.6 902.586 384.198 902.586C384.752 902.586 385.371 902.821 386.054 903.29C386.779 903.717 387.59 904.271 388.486 904.954C389.382 905.637 390.406 906.383 391.558 907.194C392.71 908.005 394.011 908.751 395.462 909.434C396.955 910.117 398.64 910.693 400.518 911.162C402.395 911.589 404.507 911.802 406.854 911.802C409.798 911.802 412.422 911.397 414.726 910.586C417.03 909.775 418.971 908.645 420.55 907.194C422.171 905.701 423.408 903.93 424.262 901.882C425.115 899.834 425.542 897.551 425.542 895.034C425.542 892.261 424.902 889.999 423.622 888.25C422.384 886.458 420.742 884.965 418.694 883.77C416.646 882.575 414.299 881.573 411.654 880.762C409.008 879.909 406.32 879.055 403.59 878.202C400.859 877.306 398.171 876.282 395.526 875.13C392.88 873.978 390.534 872.485 388.486 870.65C386.438 868.815 384.774 866.533 383.494 863.802C382.256 861.029 381.638 857.615 381.638 853.562C381.638 850.319 382.256 847.183 383.494 844.154C384.774 841.125 386.608 838.437 388.998 836.09C391.43 833.743 394.395 831.866 397.894 830.458C401.435 829.05 405.488 828.346 410.054 828.346C415.174 828.346 419.824 829.157 424.006 830.778C428.23 832.399 431.942 834.746 435.142 837.818L432.134 843.706ZM501.634 843.706C501.25 844.346 500.823 844.837 500.354 845.178C499.927 845.477 499.394 845.626 498.754 845.626C498.028 845.626 497.175 845.263 496.194 844.538C495.212 843.813 493.975 843.023 492.482 842.17C491.031 841.274 489.26 840.463 487.17 839.738C485.122 839.013 482.626 838.65 479.682 838.65C476.908 838.65 474.455 839.034 472.322 839.802C470.231 840.527 468.46 841.53 467.01 842.81C465.602 844.09 464.535 845.605 463.81 847.354C463.084 849.061 462.722 850.917 462.722 852.922C462.722 855.482 463.34 857.615 464.578 859.322C465.858 860.986 467.522 862.415 469.57 863.61C471.66 864.805 474.007 865.85 476.61 866.746C479.255 867.599 481.943 868.495 484.674 869.434C487.447 870.373 490.135 871.439 492.738 872.634C495.383 873.786 497.73 875.258 499.778 877.05C501.868 878.842 503.532 881.039 504.77 883.642C506.05 886.245 506.69 889.445 506.69 893.242C506.69 897.253 506.007 901.029 504.642 904.57C503.276 908.069 501.271 911.119 498.626 913.722C496.023 916.325 492.802 918.373 488.962 919.866C485.164 921.359 480.834 922.106 475.97 922.106C469.996 922.106 464.578 921.039 459.714 918.906C454.85 916.73 450.69 913.807 447.234 910.138L450.818 904.25C451.159 903.781 451.564 903.397 452.034 903.098C452.546 902.757 453.1 902.586 453.698 902.586C454.252 902.586 454.871 902.821 455.554 903.29C456.279 903.717 457.09 904.271 457.986 904.954C458.882 905.637 459.906 906.383 461.058 907.194C462.21 908.005 463.511 908.751 464.962 909.434C466.455 910.117 468.14 910.693 470.018 911.162C471.895 911.589 474.007 911.802 476.354 911.802C479.298 911.802 481.922 911.397 484.226 910.586C486.53 909.775 488.471 908.645 490.05 907.194C491.671 905.701 492.908 903.93 493.762 901.882C494.615 899.834 495.042 897.551 495.042 895.034C495.042 892.261 494.402 889.999 493.122 888.25C491.884 886.458 490.242 884.965 488.194 883.77C486.146 882.575 483.799 881.573 481.154 880.762C478.508 879.909 475.82 879.055 473.09 878.202C470.359 877.306 467.671 876.282 465.026 875.13C462.38 873.978 460.034 872.485 457.986 870.65C455.938 868.815 454.274 866.533 452.994 863.802C451.756 861.029 451.138 857.615 451.138 853.562C451.138 850.319 451.756 847.183 452.994 844.154C454.274 841.125 456.108 838.437 458.498 836.09C460.93 833.743 463.895 831.866 467.394 830.458C470.935 829.05 474.988 828.346 479.554 828.346C484.674 828.346 489.324 829.157 493.506 830.778C497.73 832.399 501.442 834.746 504.642 837.818L501.634 843.706ZM559.614 911.226C563.411 911.226 566.803 910.586 569.79 909.306C572.776 908.026 575.294 906.234 577.342 903.93C579.432 901.626 581.011 898.874 582.078 895.674C583.187 892.474 583.742 888.954 583.742 885.114V829.37H596.094V885.114C596.094 890.405 595.24 895.311 593.534 899.834C591.87 904.357 589.459 908.282 586.302 911.61C583.187 914.895 579.368 917.477 574.846 919.354C570.323 921.231 565.246 922.17 559.614 922.17C553.982 922.17 548.904 921.231 544.382 919.354C539.859 917.477 536.019 914.895 532.862 911.61C529.704 908.282 527.272 904.357 525.566 899.834C523.902 895.311 523.07 890.405 523.07 885.114V829.37H535.422V885.05C535.422 888.89 535.955 892.41 537.022 895.61C538.131 898.81 539.71 901.562 541.758 903.866C543.848 906.17 546.387 907.983 549.374 909.306C552.403 910.586 555.816 911.226 559.614 911.226ZM643.755 873.786C647.339 873.786 650.496 873.359 653.227 872.506C656 871.61 658.304 870.373 660.139 868.794C662.016 867.173 663.424 865.253 664.363 863.034C665.301 860.815 665.771 858.362 665.771 855.674C665.771 850.213 663.979 846.095 660.395 843.322C656.811 840.549 651.435 839.162 644.267 839.162H630.699V873.786H643.755ZM686.123 921.082H675.115C672.853 921.082 671.189 920.207 670.123 918.458L646.315 885.69C645.589 884.666 644.8 883.941 643.947 883.514C643.136 883.045 641.856 882.81 640.107 882.81H630.699V921.082H618.347V829.37H644.267C650.069 829.37 655.083 829.967 659.307 831.162C663.531 832.314 667.008 833.999 669.739 836.218C672.512 838.437 674.56 841.125 675.883 844.282C677.205 847.397 677.867 850.895 677.867 854.778C677.867 858.021 677.355 861.05 676.331 863.866C675.307 866.682 673.813 869.221 671.851 871.482C669.931 873.701 667.563 875.599 664.747 877.178C661.973 878.757 658.816 879.951 655.275 880.762C656.853 881.658 658.219 882.959 659.371 884.666L686.123 921.082ZM755.173 910.97L755.109 921.082H698.597V829.37H755.109V839.482H711.013V869.946H746.725V879.674H711.013V910.97H755.173ZM851.96 875.258C851.96 882.127 850.872 888.378 848.696 894.01C846.52 899.642 843.448 904.463 839.48 908.474C835.512 912.485 830.733 915.599 825.144 917.818C819.597 919.994 813.453 921.082 806.712 921.082H772.472V829.37H806.712C813.453 829.37 819.597 830.479 825.144 832.698C830.733 834.874 835.512 837.989 839.48 842.042C843.448 846.053 846.52 850.874 848.696 856.506C850.872 862.138 851.96 868.389 851.96 875.258ZM839.224 875.258C839.224 869.626 838.456 864.591 836.92 860.154C835.384 855.717 833.208 851.962 830.392 848.89C827.576 845.818 824.162 843.471 820.152 841.85C816.141 840.229 811.661 839.418 806.712 839.418H784.888V911.034H806.712C811.661 911.034 816.141 910.223 820.152 908.602C824.162 906.981 827.576 904.655 830.392 901.626C833.208 898.554 835.384 894.799 836.92 890.362C838.456 885.925 839.224 880.89 839.224 875.258ZM959.173 910.97L959.109 921.082H902.597V829.37H959.109V839.482H915.013V869.946H950.725V879.674H915.013V910.97H959.173ZM1046.42 921.082H1034.14C1033.2 921.082 1032.45 920.847 1031.9 920.378C1031.38 919.866 1030.96 919.311 1030.62 918.714L1006.04 880.186C1005.7 881.21 1005.31 882.085 1004.89 882.81L980.952 918.714C980.525 919.311 980.056 919.866 979.544 920.378C979.074 920.847 978.413 921.082 977.56 921.082H966.04L997.592 873.978L967.32 829.37H979.672C980.568 829.37 981.229 829.519 981.656 829.818C982.082 830.117 982.466 830.543 982.808 831.098L1006.74 867.834C1007.04 866.938 1007.49 865.957 1008.09 864.89L1030.68 831.354C1031.02 830.757 1031.43 830.287 1031.9 829.946C1032.37 829.562 1032.92 829.37 1033.56 829.37H1045.4L1015 873.402L1046.42 921.082ZM1120.23 902.138C1120.91 902.138 1121.51 902.415 1122.02 902.97L1126.95 908.282C1123.2 912.634 1118.63 916.026 1113.25 918.458C1107.92 920.89 1101.46 922.106 1093.86 922.106C1087.29 922.106 1081.32 920.975 1075.94 918.714C1070.57 916.41 1065.98 913.21 1062.18 909.114C1058.39 904.975 1055.44 900.026 1053.35 894.266C1051.26 888.506 1050.21 882.17 1050.21 875.258C1050.21 868.346 1051.3 862.01 1053.48 856.25C1055.65 850.49 1058.71 845.541 1062.63 841.402C1066.6 837.263 1071.33 834.063 1076.84 831.802C1082.34 829.498 1088.42 828.346 1095.08 828.346C1101.61 828.346 1107.37 829.391 1112.36 831.482C1117.35 833.573 1121.75 836.41 1125.54 839.994L1121.45 845.69C1121.19 846.117 1120.85 846.479 1120.42 846.778C1120.04 847.034 1119.51 847.162 1118.82 847.162C1118.05 847.162 1117.12 846.757 1116.01 845.946C1114.9 845.093 1113.45 844.154 1111.65 843.13C1109.86 842.106 1107.62 841.189 1104.93 840.378C1102.25 839.525 1098.94 839.098 1095.01 839.098C1090.28 839.098 1085.95 839.93 1082.02 841.594C1078.1 843.215 1074.71 845.583 1071.85 848.698C1069.03 851.813 1066.83 855.61 1065.25 860.09C1063.68 864.57 1062.89 869.626 1062.89 875.258C1062.89 880.975 1063.7 886.074 1065.32 890.554C1066.98 895.034 1069.22 898.831 1072.04 901.946C1074.9 905.018 1078.25 907.365 1082.09 908.986C1085.97 910.607 1090.15 911.418 1094.63 911.418C1097.36 911.418 1099.81 911.269 1101.99 910.97C1104.21 910.629 1106.24 910.117 1108.07 909.434C1109.95 908.751 1111.68 907.898 1113.25 906.874C1114.88 905.807 1116.48 904.549 1118.05 903.098C1118.78 902.458 1119.51 902.138 1120.23 902.138ZM1215.65 829.37V921.082H1203.23V879.354H1153.76V921.082H1141.35V829.37H1153.76V870.266H1203.23V829.37H1215.65ZM1287.8 887.034L1273.4 849.722C1272.97 848.613 1272.53 847.333 1272.06 845.882C1271.59 844.389 1271.14 842.81 1270.71 841.146C1269.82 844.602 1268.9 847.482 1267.96 849.786L1253.56 887.034H1287.8ZM1313.66 921.082H1304.06C1302.95 921.082 1302.05 920.805 1301.37 920.25C1300.69 919.695 1300.17 918.991 1299.83 918.138L1291.26 895.994H1250.1L1241.53 918.138C1241.27 918.906 1240.78 919.589 1240.06 920.186C1239.33 920.783 1238.44 921.082 1237.37 921.082H1227.77L1264.44 829.37H1276.98L1313.66 921.082ZM1400.03 829.37V921.082H1393.82C1392.84 921.082 1392 920.911 1391.32 920.57C1390.68 920.229 1390.04 919.653 1389.4 918.842L1336.35 849.722C1336.43 850.789 1336.5 851.834 1336.54 852.858C1336.58 853.882 1336.6 854.842 1336.6 855.738V921.082H1325.72V829.37H1332.12C1332.68 829.37 1333.15 829.413 1333.53 829.498C1333.91 829.541 1334.26 829.647 1334.55 829.818C1334.85 829.946 1335.15 830.159 1335.45 830.458C1335.75 830.714 1336.07 831.055 1336.41 831.482L1389.47 900.538C1389.38 899.429 1389.3 898.362 1389.21 897.338C1389.17 896.271 1389.15 895.269 1389.15 894.33V829.37H1400.03ZM1497.97 876.986V912.186C1493.36 915.514 1488.43 918.01 1483.18 919.674C1477.98 921.295 1472.26 922.106 1466.03 922.106C1458.65 922.106 1451.99 920.975 1446.06 918.714C1440.13 916.41 1435.06 913.21 1430.83 909.114C1426.65 904.975 1423.43 900.026 1421.17 894.266C1418.91 888.506 1417.78 882.17 1417.78 875.258C1417.78 868.261 1418.86 861.882 1421.04 856.122C1423.26 850.362 1426.39 845.434 1430.45 841.338C1434.5 837.199 1439.43 833.999 1445.23 831.738C1451.03 829.477 1457.52 828.346 1464.69 828.346C1468.31 828.346 1471.69 828.623 1474.8 829.178C1477.91 829.69 1480.79 830.458 1483.44 831.482C1486.09 832.463 1488.54 833.679 1490.8 835.13C1493.06 836.538 1495.17 838.138 1497.14 839.93L1493.62 845.562C1493.06 846.415 1492.34 846.97 1491.44 847.226C1490.59 847.439 1489.63 847.226 1488.56 846.586C1487.54 845.989 1486.36 845.263 1485.04 844.41C1483.72 843.557 1482.1 842.746 1480.18 841.978C1478.3 841.167 1476.06 840.485 1473.46 839.93C1470.9 839.375 1467.85 839.098 1464.3 839.098C1459.14 839.098 1454.47 839.951 1450.29 841.658C1446.11 843.322 1442.54 845.733 1439.6 848.89C1436.66 852.005 1434.39 855.802 1432.82 860.282C1431.24 864.719 1430.45 869.711 1430.45 875.258C1430.45 881.018 1431.26 886.181 1432.88 890.746C1434.54 895.269 1436.89 899.13 1439.92 902.33C1442.99 905.487 1446.7 907.898 1451.06 909.562C1455.41 911.226 1460.29 912.058 1465.71 912.058C1469.98 912.058 1473.75 911.589 1477.04 910.65C1480.37 909.669 1483.61 908.325 1486.77 906.618V886.458H1472.5C1471.69 886.458 1471.02 886.223 1470.51 885.754C1470.04 885.285 1469.81 884.709 1469.81 884.026V876.986H1497.97ZM1573.55 910.97L1573.48 921.082H1516.97V829.37H1573.48V839.482H1529.39V869.946H1565.1V879.674H1529.39V910.97H1573.55Z" fill="#060863"/>
<g filter="url(#filter0_d_48_649)">
<path d="M700.532 478.842L719.17 484.784L708.37 496.929L698.841 480.79C698.266 479.775 697.468 478.597 696.445 477.255C697.208 477.597 697.946 477.905 698.658 478.181C699.354 478.444 699.979 478.664 700.532 478.842Z" fill="url(#paint0_radial_48_649)"/>
<path fill-rule="evenodd" clip-rule="evenodd" d="M787.081 452.256C777.498 514.414 723.733 560.885 666.993 556.051C610.254 551.217 572.025 496.91 581.608 434.752C591.191 372.593 644.956 326.123 701.695 330.957C758.435 335.791 796.663 390.098 787.081 452.256ZM677.405 407.74C675.134 422.473 662.069 433.459 648.223 432.28C634.378 431.1 624.995 418.201 627.266 403.469C629.537 388.737 642.602 377.75 656.448 378.93C670.294 380.109 679.676 393.008 677.405 407.74ZM737.16 489.101L740.188 485.696L693.974 471.543L690.018 475.992L713.098 516.162L716.126 512.757C716.462 512.378 716.632 511.972 716.635 511.538C716.638 511.104 716.535 510.727 716.326 510.409L710.665 500.809L723.645 486.212L734.715 489.728C735.145 489.859 735.573 489.886 735.998 489.808C736.422 489.73 736.81 489.495 737.16 489.101ZM761.817 461.37L758.018 458.353L744.089 474.017L732.266 464.749L743.53 452.081L739.855 449.2L728.591 461.868L717.083 452.846L730.991 437.204L727.171 434.209L709.346 454.255L743.993 481.416L761.817 461.37Z" fill="url(#paint1_radial_48_649)"/>
<path d="M732.959 538.402L784.872 583.831L797.559 573.196L794.29 594.397L812.132 586.153L809.457 603.5L827.001 597.184L825.813 604.893L836.717 605.822L918.999 681.176L955.31 672.553L961.55 632.078L837.698 527.798L839.184 518.161L783.933 470.495C772.375 504.007 760.86 518.578 732.959 538.402Z" fill="url(#paint2_radial_48_649)"/>
</g>
<g filter="url(#filter1_d_48_649)">
<path d="M779.104 483.293L960.625 636.435L954.585 671.301L763.356 508.643L779.104 483.293Z" fill="url(#paint3_linear_48_649)"/>
</g>
<g filter="url(#filter2_d_48_649)">
<path fill-rule="evenodd" clip-rule="evenodd" d="M262.544 337.201L302.152 286.873L334.886 305.859L314.92 331.931L472.344 314.199L515.596 559.24L472.767 610.091L472.344 559.24L314.92 724.12L126.67 586.572L230.325 390.902L193.082 393.568L238.025 340.951L262.544 337.201ZM443.439 407.061C440.546 425.829 423.235 439.769 404.774 438.197C386.313 436.624 373.693 420.134 376.587 401.366C379.48 382.597 396.791 368.657 415.252 370.23C433.713 371.802 446.333 388.292 443.439 407.061ZM307.965 453.925L264.127 424.327L232.605 465.49L276.443 495.088L307.965 453.925Z" fill="url(#paint4_linear_48_649)"/>
</g>
<g filter="url(#filter3_d_48_649)">
<g filter="url(#filter4_d_48_649)">
<path d="M477.637 344.48C497.413 341.239 519.845 340.337 543.29 342.335C573.533 344.911 600.666 351.903 621.621 361.547M648.618 378.277C660.674 388.679 666.809 400.414 664.976 412.305C659.967 444.797 597.365 466.15 525.151 459.998C452.937 453.846 398.456 422.519 403.465 390.027C408.136 379.345 411.627 375.385 419.143 371.332" stroke="#969696"/>
</g>
<g filter="url(#filter5_d_48_649)">
<path d="M646.688 452.057C631.787 463.094 607.828 471.047 578.892 474.27C550.007 477.487 518.293 475.75 489.431 469.362C460.539 462.967 436.571 452.369 421.67 439.595C406.771 426.822 402.238 413.068 407.584 400.674C411.325 392.002 419.886 383.973 432.645 377.377M661.816 417.364C658.677 407.153 649.504 397.011 635.124 388.109M482.14 362.814C499.3 360.347 518.043 359.657 537.103 360.889C562.697 362.544 587.377 367.568 608.127 375.229" stroke="#969696"/>
</g>
<g filter="url(#filter6_d_48_649)">
<path d="M425.892 370.305C413.203 378.054 405.135 387.646 403.465 398.476C398.456 430.968 452.937 462.295 525.151 468.447C597.365 474.599 659.967 453.246 664.976 420.755C667.099 406.982 658.534 393.419 642.46 381.894M479.886 352.572C499.107 349.624 520.73 348.862 543.29 350.784C570.382 353.092 594.977 358.943 614.872 367.069" stroke="#969696"/>
</g>
</g>
<defs>
<filter id="filter0_d_48_649" x="574.237" y="324.711" width="401.212" height="370.364" filterUnits="userSpaceOnUse" color-interpolation-filters="sRGB">
<feFlood flood-opacity="0" result="BackgroundImageFix"/>
<feColorMatrix in="SourceAlpha" type="matrix" values="0 0 0 0 0 0 0 0 0 0 0 0 0 0 0 0 0 0 127 0" result="hardAlpha"/>
<feOffset dx="4" dy="4"/>
<feGaussianBlur stdDeviation="4.95"/>
<feComposite in2="hardAlpha" operator="out"/>
<feColorMatrix type="matrix" values="0 0 0 0 0 0 0 0 0 0 0 0 0 0 0 0 0 0 0.15 0"/>
<feBlend mode="normal" in2="BackgroundImageFix" result="effect1_dropShadow_48_649"/>
<feBlend mode="normal" in="SourceGraphic" in2="effect1_dropShadow_48_649" result="shape"/>
</filter>
<filter id="filter1_d_48_649" x="757.455" y="477.393" width="217.07" height="207.808" filterUnits="userSpaceOnUse" color-interpolation-filters="sRGB">
<feFlood flood-opacity="0" result="BackgroundImageFix"/>
<feColorMatrix in="SourceAlpha" type="matrix" values="0 0 0 0 0 0 0 0 0 0 0 0 0 0 0 0 0 0 127 0" result="hardAlpha"/>
<feOffset dx="4" dy="4"/>
<feGaussianBlur stdDeviation="4.95"/>
<feComposite in2="hardAlpha" operator="out"/>
<feColorMatrix type="matrix" values="0 0 0 0 0 0 0 0 0 0 0 0 0 0 0 0 0 0 0.15 0"/>
<feBlend mode="normal" in2="BackgroundImageFix" result="effect1_dropShadow_48_649"/>
<feBlend mode="normal" in="SourceGraphic" in2="effect1_dropShadow_48_649" result="shape"/>
</filter>
<filter id="filter2_d_48_649" x="120.77" y="280.973" width="408.726" height="457.046" filterUnits="userSpaceOnUse" color-interpolation-filters="sRGB">
<feFlood flood-opacity="0" result="BackgroundImageFix"/>
<feColorMatrix in="SourceAlpha" type="matrix" values="0 0 0 0 0 0 0 0 0 0 0 0 0 0 0 0 0 0 127 0" result="hardAlpha"/>
<feOffset dx="4" dy="4"/>
<feGaussianBlur stdDeviation="4.95"/>
<feComposite in2="hardAlpha" operator="out"/>
<feColorMatrix type="matrix" values="0 0 0 0 0 0 0 0 0 0 0 0 0 0 0 0 0 0 0.15 0"/>
<feBlend mode="normal" in2="BackgroundImageFix" result="effect1_dropShadow_48_649"/>
<feBlend mode="normal" in="SourceGraphic" in2="effect1_dropShadow_48_649" result="shape"/>
</filter>
<filter id="filter3_d_48_649" x="396.741" y="334.883" width="282.958" height="155.361" filterUnits="userSpaceOnUse" color-interpolation-filters="sRGB">
<feFlood flood-opacity="0" result="BackgroundImageFix"/>
<feColorMatrix in="SourceAlpha" type="matrix" values="0 0 0 0 0 0 0 0 0 0 0 0 0 0 0 0 0 0 127 0" result="hardAlpha"/>
<feOffset dx="4" dy="4"/>
<feGaussianBlur stdDeviation="4.95"/>
<feComposite in2="hardAlpha" operator="out"/>
<feColorMatrix type="matrix" values="0 0 0 0 0 0 0 0 0 0 0 0 0 0 0 0 0 0 0.15 0"/>
<feBlend mode="normal" in2="BackgroundImageFix" result="effect1_dropShadow_48_649"/>
<feBlend mode="normal" in="SourceGraphic" in2="effect1_dropShadow_48_649" result="shape"/>
</filter>
<filter id="filter4_d_48_649" x="398.641" y="340.783" width="271.158" height="128.766" filterUnits="userSpaceOnUse" color-interpolation-filters="sRGB">
<feFlood flood-opacity="0" result="BackgroundImageFix"/>
<feColorMatrix in="SourceAlpha" type="matrix" values="0 0 0 0 0 0 0 0 0 0 0 0 0 0 0 0 0 0 127 0" result="hardAlpha"/>
<feOffset dy="4"/>
<feGaussianBlur stdDeviation="2"/>
<feComposite in2="hardAlpha" operator="out"/>
<feColorMatrix type="matrix" values="0 0 0 0 0 0 0 0 0 0 0 0 0 0 0 0 0 0 0.25 0"/>
<feBlend mode="normal" in2="BackgroundImageFix" result="effect1_dropShadow_48_649"/>
<feBlend mode="normal" in="SourceGraphic" in2="effect1_dropShadow_48_649" result="shape"/>
</filter>
<filter id="filter5_d_48_649" x="400.918" y="359.797" width="265.381" height="124.547" filterUnits="userSpaceOnUse" color-interpolation-filters="sRGB">
<feFlood flood-opacity="0" result="BackgroundImageFix"/>
<feColorMatrix in="SourceAlpha" type="matrix" values="0 0 0 0 0 0 0 0 0 0 0 0 0 0 0 0 0 0 127 0" result="hardAlpha"/>
<feOffset dy="4"/>
<feGaussianBlur stdDeviation="2"/>
<feComposite in2="hardAlpha" operator="out"/>
<feColorMatrix type="matrix" values="0 0 0 0 0 0 0 0 0 0 0 0 0 0 0 0 0 0 0.25 0"/>
<feBlend mode="normal" in2="BackgroundImageFix" result="effect1_dropShadow_48_649"/>
<feBlend mode="normal" in="SourceGraphic" in2="effect1_dropShadow_48_649" result="shape"/>
</filter>
<filter id="filter6_d_48_649" x="398.641" y="349.232" width="271.158" height="128.766" filterUnits="userSpaceOnUse" color-interpolation-filters="sRGB">
<feFlood flood-opacity="0" result="BackgroundImageFix"/>
<feColorMatrix in="SourceAlpha" type="matrix" values="0 0 0 0 0 0 0 0 0 0 0 0 0 0 0 0 0 0 127 0" result="hardAlpha"/>
<feOffset dy="4"/>
<feGaussianBlur stdDeviation="2"/>
<feComposite in2="hardAlpha" operator="out"/>
<feColorMatrix type="matrix" values="0 0 0 0 0 0 0 0 0 0 0 0 0 0 0 0 0 0 0.25 0"/>
<feBlend mode="normal" in2="BackgroundImageFix" result="effect1_dropShadow_48_649"/>
<feBlend mode="normal" in="SourceGraphic" in2="effect1_dropShadow_48_649" result="shape"/>
</filter>
<radialGradient id="paint0_radial_48_649" cx="0" cy="0" r="1" gradientUnits="userSpaceOnUse" gradientTransform="translate(772.357 519.204) rotate(38.5315) scale(227.2 229.292)">
<stop stop-color="#A9A9A9"/>
<stop offset="1" stop-color="#646464"/>
</radialGradient>
<radialGradient id="paint1_radial_48_649" cx="0" cy="0" r="1" gradientUnits="userSpaceOnUse" gradientTransform="translate(772.357 519.204) rotate(38.5315) scale(227.2 229.292)">
<stop stop-color="#A9A9A9"/>
<stop offset="1" stop-color="#646464"/>
</radialGradient>
<radialGradient id="paint2_radial_48_649" cx="0" cy="0" r="1" gradientUnits="userSpaceOnUse" gradientTransform="translate(772.357 519.204) rotate(38.5315) scale(227.2 229.292)">
<stop stop-color="#A9A9A9"/>
<stop offset="1" stop-color="#646464"/>
</radialGradient>
<linearGradient id="paint3_linear_48_649" x1="844.347" y1="572.016" x2="890.477" y2="518.421" gradientUnits="userSpaceOnUse">
<stop stop-color="#767676"/>
<stop offset="1" stop-color="#B7B5B5"/>
</linearGradient>
<linearGradient id="paint4_linear_48_649" x1="321.133" y1="286.873" x2="366.716" y2="689.126" gradientUnits="userSpaceOnUse">
<stop stop-color="#1F009D"/>
<stop offset="1" stop-color="#000464"/>
</linearGradient>
</defs>
</svg>
