<svg width="1947" height="1475" viewBox="0 0 1947 1475" fill="none" xmlns="http://www.w3.org/2000/svg">
<path d="M527.716 1285.35C527.716 1281.5 526.05 1273.84 520.109 1275.99C515.03 1277.84 528.998 1312.56 529.792 1315.03C542.337 1353.91 552.647 1393.66 564.295 1432.83C564.322 1432.92 564.349 1433.01 564.376 1433.1M564.376 1433.1C566.295 1439.59 567.823 1446.14 569.103 1452.77C569.267 1453.63 565.87 1438.59 564.97 1435.28C564.772 1434.56 564.574 1433.83 564.376 1433.1ZM564.376 1433.1C550.683 1382.83 537.238 1332.84 531.044 1280.96C530.378 1275.38 526.6 1247.57 526.872 1248.01C533.507 1258.72 535.295 1273.77 537.877 1285.78C543.966 1314.11 549.074 1342.63 554.747 1371.04C560.126 1397.99 564.727 1426.2 573.487 1452.33C576.482 1461.27 578.429 1455.72 579 1449.47M530.038 1260.45C475.32 1260.45 639.003 1248 693.721 1248C724.156 1248 754.562 1249.57 785.004 1249.83C808.809 1250.03 833.857 1248.31 857.337 1253.03C886.944 1258.98 839.664 1263.45 833.257 1263.67C802.021 1264.76 745.493 1264.97 694.348 1264.83M694.348 1264.83C619.015 1264.62 555.359 1263.67 601.393 1263.67C632.437 1263.67 663.408 1263.73 694.348 1264.83ZM694.348 1264.83C719.048 1265.7 743.728 1267.24 768.41 1269.92C794.142 1272.72 819.386 1277.53 845.316 1278.32C848.71 1278.43 875.087 1278.01 859.456 1279M554.775 1276.99C554.896 1274.53 556.471 1270.89 557.348 1268.55C558.754 1264.81 550.626 1281.03 549.645 1283.76C530.585 1336.67 576.264 1262.49 577.427 1264.48C578.726 1266.71 568.799 1281.65 567.647 1284.37C563.426 1294.32 559.625 1304.63 556.976 1315.11C550.285 1341.59 573.697 1304.35 576.967 1298.72C580.192 1293.18 589.045 1270.2 595.683 1268.35C604.359 1265.93 589.271 1285.08 585.657 1293.27C582.671 1300.04 561.081 1361.75 569.004 1358.59C581.666 1353.53 591.758 1325.87 597.721 1315.33C605.845 1300.96 613.585 1286.39 621.652 1272C624.322 1267.24 630.143 1251.1 636.007 1249.01C637.187 1248.59 634.168 1258.6 634 1259C629.86 1268.87 625.105 1278.47 620.433 1288.1C608.59 1312.52 597.197 1337.16 586.641 1362.15C585.661 1364.47 573.069 1396.54 578.579 1396.77C589.522 1397.24 603.669 1363.39 607.758 1356.12C621.429 1331.84 633.356 1305.97 650.164 1283.6C661.711 1268.23 650.415 1290.71 647.869 1295.08C633.932 1318.98 620.243 1343 608.091 1367.86C599.287 1385.87 583.695 1411.78 584.91 1432.72C585.309 1439.59 610.057 1403.78 611.642 1401.07C634.349 1362.34 658.403 1324.53 685.052 1288.32C685.99 1287.05 709.601 1259.18 702.841 1271.12C688.906 1295.73 671.085 1318.51 656.452 1342.8C638.74 1372.19 620.58 1406.13 615.636 1440.47C612.131 1464.82 642.065 1422.64 644.73 1418.64C669.074 1382.15 691.411 1344.25 717.801 1309.13C727.016 1296.87 752.814 1260.09 748.445 1274.77C746.269 1282.07 738.993 1289.35 734.671 1295.44C724.745 1309.42 714.964 1323.47 705.619 1337.84C688.139 1364.73 666.905 1396.11 661.498 1428.27C658.511 1446.04 688.521 1408.4 690.248 1405.94C714.774 1370.95 737.237 1334.27 765.114 1301.73C766.771 1299.79 794.321 1274.64 791.544 1281.38C787.435 1291.35 778.269 1300.56 772.114 1309.32C761.884 1323.88 752.043 1338.71 742.468 1353.71C739.253 1358.74 705.745 1408.54 713.094 1413.12C722.561 1419.02 750.167 1374.57 753.814 1369.44C774.874 1339.84 796.278 1310.61 822.015 1284.77C839.857 1266.87 823.943 1287.48 818.05 1295.11L817.623 1295.66C796.801 1322.64 776.799 1350.67 761.058 1380.93C753.644 1395.18 746.26 1410.18 741.588 1425.59C740.501 1429.17 739.543 1434.87 744.421 1430.05C784.49 1390.47 797.482 1324.1 842.987 1289.06C853.158 1281.23 834.493 1304.89 833.582 1306.18C814.344 1333.42 795.129 1361.89 779.838 1391.52C774.376 1402.11 769.498 1420.5 783.977 1402.85C802.81 1379.88 818.381 1354.14 834.497 1329.3C835.834 1327.23 857.865 1299.63 852.013 1311.03C842.291 1329.97 829.553 1347.58 818.943 1366.05C814.604 1373.61 798.209 1396.16 801.786 1405.79C802.051 1406.5 818.54 1382.49 819.785 1380.36C821.644 1377.17 848.288 1336.42 845.114 1349.09C843.787 1354.38 815.867 1410.16 816.579 1410.18C822.999 1410.37 836.388 1381.27 839.23 1376.46C840.914 1373.61 855.644 1348.78 848.641 1363.01C840.815 1378.9 833.147 1394.91 826.598 1411.38L826.517 1411.58C824.954 1415.51 814.794 1441.03 822.613 1427.67M861.721 1282.93C861.727 1282.92 861.732 1282.91 861.737 1282.9M861.737 1282.9C865.929 1275.13 867.431 1248.29 864.411 1256.57C862.956 1260.55 862.179 1270.28 861.737 1282.9ZM861.737 1282.9C860.411 1320.83 862.117 1384.94 857.57 1398.24M857.57 1398.24C857.043 1399.78 856.432 1400.64 855.723 1400.69C848.679 1401.26 857.34 1304.18 858.937 1280.77M857.57 1398.24C857.923 1373.1 858.581 1306.36 858.937 1280.77M857.57 1398.24C857.425 1408.56 857.331 1411.86 857.331 1402.4M858.937 1280.77C859.093 1278.48 859.181 1276.9 859.181 1276.18C859.181 1266.59 859.085 1270.11 858.937 1280.77Z" stroke="#E97777" stroke-opacity="0.66" stroke-width="9" stroke-linecap="round" stroke-linejoin="round"/>
<path d="M1401.31 736.735C1419.2 725.296 1415.96 723.437 1403.23 741.545C1392.93 756.187 1381.28 771.741 1374.67 788.493C1369.87 800.675 1392.39 772.236 1394.13 770.152C1412.47 748.132 1431.51 726.38 1454.76 709.379C1474 695.314 1471.07 702.987 1459.67 718.7C1440.89 744.599 1422.19 770.096 1406.02 797.785C1404.3 800.745 1379.79 840.34 1391.4 840.7C1405.59 841.141 1430.21 803.09 1438.02 794.082C1462.29 766.114 1489.29 732.988 1521.99 714.39C1528.98 710.415 1526.48 714.468 1522.84 718.626C1512.33 730.615 1501.41 742.246 1490.86 754.199C1460.63 788.428 1436.45 825.773 1416.3 866.749C1415.76 867.858 1398.26 904.831 1403.5 905.121C1409.72 905.465 1417.6 890.232 1420.43 886.231C1434.01 867.05 1447.02 847.454 1461.1 828.63C1490.36 789.508 1523.83 751.226 1563.14 721.851C1588.09 703.205 1566.87 727.704 1558.32 738.362C1527.83 776.376 1499.58 816.181 1471.13 855.724C1447.21 888.972 1418.63 922.766 1402.06 960.582C1396.04 974.314 1401.87 977.023 1412.42 966.765C1437.73 942.135 1457.73 910.157 1479.69 882.67C1518.07 834.651 1555.51 787.886 1603.33 748.816C1606.75 746.021 1639.77 718.599 1624 734.305C1597.8 760.397 1575.3 790.528 1551.47 818.725C1511.33 866.203 1469.59 913.265 1436.57 966.129C1434.91 968.791 1410.69 1009.14 1429.79 1001.67C1442.52 996.69 1453.43 978.174 1461.54 968.139C1483.1 941.437 1504.38 914.54 1525.57 887.533C1570.55 830.192 1618.08 777.81 1678.22 736.262C1695.2 724.53 1707.71 715.467 1685.59 737.136C1640.81 780.997 1595.85 824.643 1553.74 871.107C1527.74 899.792 1503.24 929.35 1481.26 961.248C1472.91 973.372 1462.53 987.541 1460.8 1002.66C1459.8 1011.41 1473.5 1004.59 1476.53 1002.32C1497.88 986.354 1515.54 964.176 1533.26 944.46C1596.9 873.637 1656.58 801.469 1735.43 746.809C1749.17 737.281 1763.82 728.932 1779.33 722.612C1792.7 717.161 1779.21 728.431 1775.12 732.012C1727.62 773.624 1677.46 813.085 1636.21 861.17C1614.51 886.466 1593.13 912.694 1575.12 940.789C1571.24 946.834 1553.22 970.601 1558.59 979.293C1567.57 993.818 1654.58 883.431 1659.71 877.108C1701.24 825.917 1745.31 775.837 1801.57 740.382C1811.6 734.061 1807.59 738.744 1801.49 744.632C1781.61 763.83 1762.74 784.045 1743.79 804.148C1715.48 834.175 1686.83 864.436 1662.15 897.575C1649.81 914.134 1635.34 933.206 1629.61 953.517C1626.79 963.491 1640.18 952.448 1642.63 950.302C1666.67 929.195 1687.47 903.802 1710.03 881.128C1738.66 852.36 1766.76 822.022 1799.49 797.817C1813.87 787.183 1831.13 772.548 1848.89 767.801C1854.91 766.191 1834.26 788.425 1832.6 790.205C1808.18 816.307 1782.63 841.278 1757.53 866.706C1730.53 894.043 1702.45 921.738 1680.68 953.572C1680.19 954.291 1667.54 974.715 1673.15 973.234C1688.04 969.299 1703.85 945.008 1713.35 934.344C1740.05 904.36 1766.01 873.728 1793.4 844.361C1810.09 826.471 1827.26 806.286 1847.94 792.743C1850.8 790.872 1829.9 813.688 1826.13 817.84C1801.54 844.906 1775.86 871.04 1751.71 898.497C1735.62 916.797 1709.8 942.684 1703.76 967.378C1701.31 977.395 1713.83 968.966 1716.9 966.361C1737.58 948.779 1754.56 926.404 1772.76 906.37C1791.69 885.523 1811.56 865.546 1832.59 846.812C1844.67 836.05 1844.14 836.59 1833.42 847.734C1816.98 864.817 1801.06 882.425 1784.78 899.659C1768.69 916.687 1747.82 936.039 1739.09 958.295C1727.98 986.646 1780.28 934.969 1783.84 931.306C1797.62 917.147 1811.31 902.732 1826.01 889.522C1828.29 887.473 1846.75 874.084 1838.1 885.187C1816.47 912.96 1785.89 935.98 1769.1 967.272C1765.04 974.849 1775.59 969.297 1778.18 967.386C1790.34 958.425 1801.32 947.46 1812.2 937.027C1823.87 925.827 1835.19 914.287 1847.37 903.621C1855.47 896.527 1864.6 889.728 1852.87 903.346C1840.82 917.341 1828.66 931.295 1817.27 945.844C1810.61 954.351 1797.15 967.977 1796.44 979.546C1795.83 989.478 1828.01 956.999 1830.34 954.576C1837.8 946.822 1845.51 939.383 1853.56 932.249C1856.45 929.684 1865.89 921.337 1858.72 929.587C1850.01 939.618 1836.51 955.106 1835.54 969.111C1835.15 974.725 1857.52 951.207 1859.34 949.037C1870.46 935.758 1862.94 939.927 1857.84 951.214C1854.39 958.839 1853.02 967.146 1853.13 975.474C1853.22 983.054 1867.38 963.081 1868.14 962.04C1892.03 929.558 1865 966.051 1865 978.965" stroke="#E47D7D" stroke-opacity="0.66" stroke-width="25" stroke-linecap="round" stroke-linejoin="round"/>
<path d="M623.441 137.282C653.592 39.9199 514.522 309.719 455.344 392.703C394.536 477.971 338.058 566.134 281.072 653.944C279.085 657.006 277.085 660.061 275.073 663.108M275.073 663.108C233.808 725.607 187.771 785.096 151.779 851.039C138.7 875.002 121.227 896.281 108.157 920.297C95.3767 943.782 129.24 871.076 141.934 847.545C197.511 744.522 254.708 642.197 320.013 545.002C389.078 442.211 443.502 331.689 516.146 230.737C540.235 197.261 563.907 153.819 597.865 129.038C625.333 108.994 596.567 146.259 589.174 159.591C493.205 332.643 378.962 494.772 275.073 663.108ZM275.073 663.108C272.112 667.906 269.158 672.71 266.215 677.519C218.425 755.584 178.958 838.402 133.019 917.517C120.252 939.504 40.8946 1049.43 82.062 963.379M78.4269 1007.29C78.4269 996.242 120.214 997.112 134.312 995.692M134.312 995.692C135.651 995.557 136.74 995.402 137.52 995.214C144.13 993.618 150.706 991.941 157.251 990.189M134.312 995.692C147.294 990.098 160.703 984.531 173.465 979.428M134.312 995.692C81.2739 1018.55 35.3849 1041.86 70.0603 1035.88C96.9925 1031.23 128.756 1009.38 157.251 990.189M157.251 990.189C225.335 971.968 290.066 945.671 354.773 918.609M157.251 990.189C162.8 986.452 168.224 982.816 173.465 979.428M354.773 918.609C377.808 908.974 400.84 899.243 424.019 889.745C455.991 876.643 489.283 868.516 522.653 860.775M354.773 918.609C411.051 900.239 467.146 881.302 522.653 860.775M354.773 918.609C311.212 932.827 267.542 946.705 223.949 960.717C211.299 964.783 193.153 971.554 173.465 979.428M522.653 860.775C561.077 851.863 599.606 843.463 636.344 828.574C661.899 818.217 701.57 811.517 721.85 791.659C731.284 782.422 696.132 797.768 683.565 801.819C638.677 816.289 594.979 833.35 550.925 850.158C541.52 853.746 532.095 857.284 522.653 860.775ZM173.465 979.428C180.103 975.136 186.445 971.241 192.372 968.042C245.818 939.187 302.322 917.368 358.204 893.856M725.225 782.463C719.392 780.341 712.019 776.323 704.392 772.415M704.392 772.415C694.149 767.165 683.447 762.112 675.401 762.112C673.226 762.112 693.025 768.603 704.392 772.415ZM704.392 772.415C707.327 773.399 709.7 774.204 710.988 774.673C764.895 794.309 819.134 812.734 871.75 835.763C952.165 870.958 1032.87 902.171 1108.53 946.869C1110.05 947.769 1168.14 975.645 1161.49 955.48C1161.06 954.182 1160.39 952.889 1159.49 951.602M1159.49 951.602C1143.85 929.095 1060.74 908.643 1042.58 901.58C1039.5 900.384 1036.43 899.189 1033.34 897.994M1159.49 951.602C1132.6 949.843 1079.31 919.438 1065.37 913.027C1054.62 908.082 1043.95 903.064 1033.34 897.994M1159.49 951.602C1169 952.224 1175.21 949.265 1175.21 940.399M1033.34 897.994C950.059 865.696 865.169 833.728 786.561 791.183C761.889 777.829 738.508 761.553 713.365 749.532M1033.34 897.994C926.3 846.834 825.448 790.292 713.365 749.532M713.365 749.532C698.436 742.394 682.885 736.757 666.075 734.124C643.972 730.661 668.256 734.192 676.901 736.991C689.199 740.972 701.347 745.161 713.365 749.532ZM1162.61 939.912C1162.61 948.685 1160.17 937.865 1158.98 933.984C1145.52 890.178 1113.58 849.535 1088.34 812.291C1029.19 725.015 960.658 648.099 899.006 563.249C810.105 440.896 736.895 300.295 633.712 189.333C614.251 168.406 594.683 148.326 578.33 124.826M578.33 124.826C577.638 123.831 576.951 122.83 576.27 121.822C563.726 103.251 567.955 103.054 577.598 123.294C577.841 123.805 578.085 124.316 578.33 124.826ZM578.33 124.826C633.599 240.073 722.4 339.116 794.365 443.818C874.721 560.726 964.727 672.078 1039.55 792.525C1060.74 826.639 1085.16 859.158 1108.81 891.606C1112.41 896.547 1138.48 943.977 1129.77 918.393M580.597 171.265C579.893 171.265 579.279 171.178 578.747 171.013M578.747 171.013C566.488 167.213 597.969 122.191 586.165 153.046C583.865 159.059 581.385 165.048 578.747 171.013ZM578.747 171.013C551.679 232.205 507.962 290.791 471.283 344.889C440.036 390.974 421.079 439.749 393.776 485.482M875.045 427.448C875.045 419.982 873.724 380.093 870.086 371.17M870.086 371.17C868.518 367.322 866.519 369.231 864.01 381.976C843.48 486.255 846.873 603.89 846.873 710.387C846.873 824.674 867.414 512.202 870.086 371.17ZM870.086 371.17C870.236 363.266 870.329 355.9 870.36 349.178M870.36 349.178C870.368 347.557 870.371 345.973 870.371 344.428C870.371 319.344 860.315 337.95 870.36 349.178ZM870.36 349.178C871.897 350.896 873.903 352.441 876.488 353.63C895.491 362.376 934.953 362.778 968.525 360.558M968.525 360.558C970.224 360.446 971.908 360.327 973.574 360.202M968.525 360.558C969.951 354.017 971.621 353.298 973.574 360.202M968.525 360.558C957.339 411.847 961.12 821.101 961.12 721.314M973.574 360.202C986.86 359.204 998.969 357.826 1008.17 356.444M973.574 360.202C974.267 362.653 974.996 366.065 975.762 370.519C980.392 397.428 981.933 442.186 981.897 487.665M1008.17 356.444C1025.88 353.784 1032.79 351.109 1016.53 351.109C1013.54 351.109 1010.76 352.991 1008.17 356.444ZM1008.17 356.444C995.171 373.748 986.938 430.508 981.897 487.665M981.897 487.665C976.487 549.003 974.752 610.798 974.752 624.781C974.752 682.231 981.819 583.352 981.897 487.665ZM285.111 972.824C285.111 971.415 284.643 966.598 283.886 960.385M283.886 960.385C281.926 944.321 278.028 918.924 275.258 918.965M283.886 960.385C279.034 946.549 275.508 932.56 275.258 918.965M283.886 960.385C290.614 979.575 299.889 998.472 306.504 1015.62C308.799 1021.58 311.091 1027.53 313.38 1033.49M275.258 918.965C275.176 918.966 275.094 918.99 275.013 919.037C249.957 933.802 335.328 1131.16 340.944 1146.89C372.179 1234.38 390.768 1325.77 425.18 1412.23C437.674 1443.62 451.235 1475.96 430.546 1421.57C387.608 1308.71 359.37 1189.82 324.376 1074.35C321.252 1064.05 317.459 1049.61 313.38 1033.49M275.258 918.965C275.249 918.453 275.244 917.941 275.244 917.431C275.244 873.39 296.7 967.566 313.38 1033.49M313.38 1033.49C344.073 1113.41 374.051 1193.87 401.566 1274.9C404.364 1283.14 457.364 1467.56 462.585 1406.22M1042.65 901.158C1043.43 867.508 1043.46 897.295 1037.21 917.766C1025.86 954.996 1017.62 993.159 1009.78 1031.42M1009.78 1031.42C997.755 1090.16 986.666 1149.13 966.667 1205.32C945.089 1265.95 934.247 1330.37 911.758 1390.29C901.388 1417.91 912.562 1377.42 915.1 1368.23L915.256 1367.66C927.982 1321.52 942.123 1275.82 953.966 1229.41C970.639 1164.07 985.646 1095.09 1009.78 1031.42ZM1009.78 1031.42C1020.55 1003.04 1033.12 975.71 1048.47 950.236M1048.47 950.236C1048.51 950.167 1048.55 950.097 1048.6 950.028C1055.39 938.767 1058.74 924.326 1061.69 911.605L1061.75 911.328C1065.62 894.658 1056.57 922.937 1048.47 950.236ZM1048.47 950.236C1044.72 962.861 1041.18 975.276 1039.2 982.939C1005.43 1114.11 954.785 1242.85 930.64 1376.06C920.937 1429.6 914.05 1476.85 929.832 1393.66M438.567 1470C419.97 1470 430.595 1456.95 447.352 1456.95C478.085 1456.95 509.182 1456.61 540.451 1455.87M540.451 1455.87C551.255 1455.62 562.079 1455.32 572.916 1454.97M540.451 1455.87C594.427 1415.78 693.687 1424.29 755.503 1421.92C803.375 1420.09 851.412 1417.22 899.316 1417.22C933.694 1417.22 946.833 1415.69 903.448 1420.34C794.441 1432.02 683.264 1449.2 572.916 1454.97M540.451 1455.87C540.238 1456.03 540.026 1456.19 539.815 1456.35M572.916 1454.97C657.599 1452.27 743.049 1446.65 825.48 1437.38C832.223 1436.62 938.898 1426.56 907.055 1433.19C796.873 1456.15 676.448 1455.09 564.614 1460.06C549.966 1460.71 430.404 1456.95 500.869 1456.95C513.832 1456.95 526.815 1456.74 539.815 1456.35M572.916 1454.97C561.873 1455.55 550.838 1456.02 539.815 1456.35M539.815 1456.35C539.297 1456.74 538.783 1457.14 538.274 1457.54M557.099 1284.41C557.099 1277.72 553.983 1253.76 553.983 1276.07C553.983 1305.51 559.823 1332.71 565.509 1361.62C570.768 1388.35 570.96 1466.2 582.56 1441.55C585.365 1435.59 585.449 1411.37 583.941 1383.09M583.941 1383.09C581.362 1334.72 574.126 1274.46 567.875 1273.28C566.693 1273.06 576.799 1341.13 583.941 1383.09ZM583.941 1383.09C586.705 1399.32 589.025 1411.65 590.075 1414.6M716.916 1293.27C716.772 1285.27 707.798 1279.69 705.852 1271.11C695.93 1227.4 704.323 1450.42 704.323 1405.59V1312.41C704.323 1305.31 701.471 1261.04 705.246 1287.39C707.297 1301.7 714.561 1430.57 719.513 1428.71M861.414 1299.11C861.414 1311.32 867.433 1265.23 863.981 1264.58C854.911 1262.88 843.546 1310.74 841.882 1316.09C840.262 1321.29 838.626 1328.54 837.036 1336.71M837.036 1336.71C830.027 1372.7 823.894 1426.61 823.894 1402.6C823.894 1350.88 859.394 1198.78 849.874 1249.62C844.626 1277.64 839.975 1307.23 837.036 1336.71ZM837.036 1336.71C834.979 1357.33 833.761 1377.9 833.761 1397.85M754.955 1351.89C749.935 1351.89 745.666 1349.58 742.569 1348.85M742.569 1348.85C739.157 1348.05 737.169 1349.17 737.169 1357.39C737.169 1359.2 740.25 1354.17 742.569 1348.85ZM742.569 1348.85C743.967 1345.65 745.088 1342.34 745.088 1340.36C745.088 1333.5 734.572 1338.03 734.572 1344.59M654.729 1349.75C654.729 1348.78 654.711 1347.9 654.677 1347.09M654.677 1347.09C653.827 1327.07 643.02 1353.23 649.132 1359.08C649.181 1359.13 652.141 1353.49 654.677 1347.09ZM654.677 1347.09C659.279 1335.46 662.484 1321.31 644.343 1334.07M521.656 1282.37C502.918 1282.37 554.861 1275.84 558.513 1275.42C608.692 1269.71 659.248 1266.51 709.603 1262.73C748.292 1259.83 812.126 1247.59 848.922 1265.33C869.393 1275.2 779.605 1280.33 768.782 1281.05C724.403 1283.98 678.595 1284.83 634.202 1282.34C616.317 1281.34 583.427 1272.09 616.17 1285.48M433.893 1017.81C450.112 1017.81 425.884 931.945 425.585 1041.03C425.558 1050.69 427.142 1182.99 427.142 1134.36C427.142 1114.57 422.738 1091.47 445.448 1108.75M437.528 1158.9C374.054 1130.71 493.102 1142.67 513.6 1141.39C533.537 1140.16 621.115 1142.75 631.23 1115.57M622.402 1022.97C622.402 973.33 615.315 1021.06 613.704 1046.81C612.59 1064.6 623.96 1197.54 623.96 1155.78M430.777 1013.04C377.189 1013.04 444.107 1016.97 466.898 1014.94C509.307 1011.16 551.336 1002.53 593.616 997.41C607.667 995.708 647.621 984.705 635.788 992.471C631.033 995.591 626.185 998.474 620.844 1000.48M527.888 1004.66C503.768 1004.66 514.386 1012.67 514.386 1046.05C514.386 1059.1 511.66 1192.61 511.66 1148.48M412.472 1086.75C382.448 1086.75 447.466 1080.52 453.072 1080.52C504.743 1080.52 552.075 1081.69 601.962 1065.33C613.908 1061.41 611.168 1062.67 620.325 1065.91M743.531 1008.85C743.531 976.008 746.379 974.991 751.32 1013.95C753.679 1032.55 759.284 1155.77 775.858 1136.5M761.706 1144.29C718.477 1144.29 799.971 1134.4 809.887 1133.98C846.307 1132.46 879.948 1126.65 915.018 1117.13C921.651 1115.33 911.007 1126.61 911.007 1122.39M903.737 1029.3C901.642 1016.1 896.771 1003.85 887.769 994.245C886.841 993.256 884.912 1051.64 884.912 1061.17C884.912 1087.28 915.723 1186.94 899.583 1122.39M739.765 1004.18C736.563 1004.18 799.227 1001.13 815.541 1002.75C839.563 1005.13 945.162 992.833 881.796 1022M821.817 1028.23C821.817 1023.08 819.038 1018.55 814.417 1015.8C812.793 1014.83 815.462 1056.65 815.549 1061.52C816.084 1091.53 809.777 1134.66 824.673 1162.11C831.135 1174.01 834.28 1156.84 834.28 1151.11M1240.38 753.738C1240.38 742.814 1245.7 692.023 1245.7 728.433C1245.7 856.69 1230.08 986.533 1240.93 1114.58C1245.71 1170.94 1252.12 1226.47 1252.44 1283.02M1252.44 1283.02C1252.45 1284.46 1252.45 1285.91 1252.45 1287.36V1295.18C1252.45 1291.12 1252.45 1287.07 1252.44 1283.02ZM1252.44 1283.02C1252.31 1217.6 1251.2 1152.2 1250.92 1086.78C1250.84 1065.68 1250.78 1044.57 1250.74 1023.47M1250.74 1023.47C1250.58 924.643 1250.89 825.81 1250.89 726.983C1250.89 668.741 1245.31 747.027 1245.82 766.667C1247.39 827.185 1249.11 923.181 1250.74 1023.47ZM1250.74 1023.47C1254.68 1265.45 1258.17 1532.42 1258.17 1386.36M1282.18 786.65C1197.42 791.948 1364.96 792.847 1317.4 784.313C1304.04 781.916 1284.77 780.814 1271.51 780.354M1271.51 780.354C1270.98 780.335 1270.45 780.318 1269.93 780.301M1271.51 780.354C1270.91 780.35 1270.33 780.345 1269.77 780.341M1271.51 780.354C1276.86 780.392 1283.82 780.418 1292.63 780.418C1355.78 780.418 1288.56 775.706 1269.93 780.301M1269.93 780.301C1255.3 779.832 1249.23 780.174 1269.77 780.341M1269.93 780.301C1269.88 780.314 1269.83 780.327 1269.77 780.341M1269.77 780.341C1267.07 781.025 1265.44 781.912 1265.44 783.047M1263.36 961.334C1263.36 966.183 1265.05 956.702 1276.87 956.563C1303.62 956.25 1327.36 943.966 1353.49 941.016C1375.6 938.519 1336.31 939.505 1331.37 940.129C1307.24 943.179 1282.22 953.845 1258.68 960.263M1364.1 727.546C1364.1 706.565 1351.02 674.279 1348.29 714.092C1348.04 717.787 1347.81 721.484 1347.59 725.183M1347.59 725.183C1342.95 803.059 1345.22 882.091 1343.85 960.341M1347.59 725.183C1350.86 804.205 1354.58 959.167 1351.01 1027.83C1350.81 1031.66 1350.59 1034.87 1350.37 1037.53M1347.59 725.183C1345.64 678.173 1343.85 658.038 1343.85 698.94V960.341M1343.85 960.341C1343.67 970.922 1343.42 981.49 1343.07 992.038C1342.96 995.575 1343.12 1001.67 1343.46 1008.58M1343.85 960.341V991.356C1343.85 997.169 1343.69 1002.99 1343.46 1008.58M1343.46 1008.58C1344.13 1021.9 1345.51 1038.22 1347 1044.93M1343.46 1008.58C1342.29 1037.28 1339.32 1059.98 1347 1044.93M1347 1044.93C1348.15 1050.1 1349.36 1049.57 1350.37 1037.53M1347 1044.93C1347.95 1043.06 1349.07 1040.62 1350.37 1037.53M1350.37 1037.53C1352.03 1033.59 1354 1028.62 1356.31 1022.48M1340.61 710.312C1333.77 710.312 1307.58 701.451 1312.95 701.451C1330.27 701.451 1347.53 701.129 1364.78 700.59M1364.78 700.59C1395.34 699.634 1425.82 697.992 1456.35 696.237M1364.78 700.59C1315.78 699.312 1237.52 695.721 1241.79 691.411C1256.03 677.034 1296.82 685.287 1314.6 685.287C1387.25 685.287 1459.93 684.718 1532.58 685.395C1542.17 685.485 1551.76 685.625 1561.35 685.808M1364.78 700.59C1383.73 701.084 1398.3 701.232 1402.04 700.942C1420.15 699.541 1438.25 697.942 1456.35 696.237M1456.35 696.237C1474.68 695.183 1493.03 694.088 1511.41 693.077C1558.51 690.486 1641.13 690.409 1719.22 691.275M1456.35 696.237C1491.35 692.939 1526.34 689.244 1561.35 685.808M1719.22 691.275C1848.75 692.711 1965.81 696.74 1887.58 696.193C1831.51 695.8 1775.38 693.599 1719.22 691.275ZM1719.22 691.275C1666.6 689.097 1613.96 686.812 1561.35 685.808M1561.35 685.808C1613.35 680.705 1665.39 676.174 1717.55 674.371C1725.39 674.1 1823.05 668.107 1815.12 684.216M1886.66 742.249C1893.97 716.501 1901.01 652.747 1901.78 707.539M1901.78 707.539C1901.82 710.808 1901.85 714.5 1901.85 718.648C1901.85 729.946 1901.69 741.241 1901.42 752.532M1901.78 707.539C1902.09 712.981 1902.49 719.586 1903 725.437C1906.16 761.6 1906.49 798.694 1905.34 835.806M1901.78 707.539C1901.05 694.738 1900.81 688.364 1900.81 713.341C1900.81 726.406 1901.03 739.469 1901.42 752.532M1901.42 752.532C1899.44 834.025 1891.33 915.35 1891.33 996.913C1891.33 1027.31 1897.93 957.378 1898.44 950.748C1901.34 913.098 1904.14 874.442 1905.34 835.806M1901.42 752.532C1902.23 780.288 1903.76 808.042 1905.34 835.806M1905.34 835.806C1907.93 881.33 1910.68 926.883 1910.68 972.521C1910.68 1001.79 1912.42 1073.74 1923.79 1003.11M1330.22 1044.49C1206.78 1044.49 1575.18 1009.87 1698.57 1006.3C1754.15 1004.69 1809.77 1005.22 1865.38 1005.25M1865.38 1005.25C1866.62 1005.25 1867.86 1005.25 1869.1 1005.25C1889.13 1005.25 1883.91 1005.16 1865.38 1005.25ZM1865.38 1005.25C1825.05 1005.44 1721.68 1006.46 1678.33 1011.02C1589.86 1020.33 1491.92 1015.44 1405.04 1033.84C1377.46 1039.69 1450.79 1038.05 1455.7 1037.56C1599.14 1023.46 1743.63 1029.25 1886.8 1014.22C1918.03 1010.94 1976.6 1009.93 1914.83 1016.25M1379.19 770.256C1369.64 770.256 1373.3 768.037 1380.13 765.555M1380.13 765.555C1387.31 762.947 1397.99 760.048 1400.54 759.133C1410.13 755.686 1420.26 751.431 1430.6 747.492M1380.13 765.555C1404.12 760.63 1428.58 749.787 1451.75 743.185C1459.01 741.115 1480.76 735.267 1473.24 735.98C1463.89 736.866 1454.31 739.301 1444.76 742.427M1380.13 765.555C1376.69 766.262 1373.26 766.846 1369.85 767.279C1357.16 768.888 1393.78 758.251 1405.88 754.083C1411.31 752.209 1421.75 749.704 1430.6 747.492M1430.6 747.492C1435.29 745.703 1440.02 743.98 1444.76 742.427M1430.6 747.492C1440.72 744.959 1448.74 742.809 1444.76 742.427M1444.76 742.427C1444.35 742.388 1443.81 742.367 1443.12 742.367M1420.43 758.157C1420.43 755.453 1424.99 744.056 1424.99 750.934C1424.99 762.235 1419.87 774.565 1416.55 785.239C1416.06 786.81 1415.52 788.992 1414.96 791.445M1414.96 791.445C1412.53 802.144 1409.81 818.005 1409.81 810.829C1409.81 804.727 1411.94 798.156 1414.96 791.445ZM1414.96 791.445C1420.85 778.358 1430.1 764.738 1433.5 753.026C1437.97 737.584 1424.26 784.289 1424.26 800.367M1494.8 788.985C1494.8 785.467 1499.15 779.597 1494.33 778.61C1484.26 776.545 1474.19 777.135 1465.8 782.401M1465.8 782.401C1463.42 783.894 1461.17 785.764 1459.09 788.057C1454.05 793.632 1454.06 798.573 1457.06 802.476M1465.8 782.401C1467.82 780.168 1470.02 778.276 1472.24 776.944M1465.8 782.401C1460.65 788.094 1456.73 796 1457.06 802.476M1457.06 802.476C1467.08 815.521 1510.49 816.972 1510.02 791.803C1509.91 785.995 1505.29 781.787 1499.37 779.009M1457.06 802.476C1457.21 805.499 1458.29 808.211 1460.59 810.24C1474.07 822.082 1501.32 814.373 1510.4 800.161C1517.37 789.266 1509.96 782.473 1499.37 779.009M1499.37 779.009C1492.22 775.652 1483.17 774.379 1477.88 774.887C1476.07 775.06 1474.15 775.793 1472.24 776.944M1499.37 779.009C1490.31 776.043 1478.92 775.516 1472.24 776.944M1472.24 776.944C1471.36 777.131 1470.57 777.351 1469.87 777.604M1536.95 888.99C1536.95 884.46 1543.67 872.234 1541.37 876.139C1539.71 878.973 1538.18 881.882 1536.76 884.854M1536.76 884.854C1536.42 885.564 1536.09 886.279 1535.77 886.996M1536.76 884.854C1539.5 873.547 1538.17 878.106 1535.77 886.996M1536.76 884.854C1536.48 886.036 1536.15 887.392 1535.77 888.935C1529.84 913.103 1527.47 942.364 1512.31 963.043C1512.06 963.385 1511.82 963.704 1511.6 964M1535.77 886.996C1527.27 905.758 1523.21 926.813 1519.22 946.774C1514.98 967.976 1526.64 921.641 1527.79 917.168C1528.91 912.844 1533.03 897.115 1535.77 886.996ZM1511.6 964C1507.41 969.581 1508.23 967.172 1511.6 964ZM1511.6 964C1512.55 963.107 1513.7 962.154 1514.99 961.301C1531.3 950.586 1556.13 952.008 1574.77 948.469C1576.2 948.198 1586.08 945.187 1586.08 948.09C1586.08 949.263 1585.4 950.597 1585.71 950.306M1631.87 878.532C1638.84 877.806 1610.85 878.173 1605.4 879.172C1598.29 880.473 1600.84 913.848 1600.07 920.757C1599.01 930.193 1598.88 939.859 1598.88 949.356C1598.88 953.758 1607.69 947.544 1612.14 945.435M1612.14 945.435C1612.54 945.244 1612.91 945.086 1613.23 944.974C1622.05 941.882 1631.48 939.471 1640.85 939.471C1642.28 939.471 1641.27 942.957 1639.03 942.957C1635.97 942.957 1621.64 944.707 1612.14 945.435ZM1612.14 945.435C1607.15 945.817 1603.48 945.918 1603.48 945.334C1603.48 938.331 1605.9 931.384 1605.85 924.057C1605.85 923.14 1605.56 921.648 1605.21 920.057M1605.21 920.057C1605.1 919.572 1604.98 919.078 1604.87 918.587M1605.21 920.057C1602.26 920.491 1601.96 919.929 1604.87 918.587M1605.21 920.057C1607.17 919.768 1610.31 919.038 1614.47 917.802M1604.87 918.587C1604.17 915.657 1603.45 912.88 1603.94 913.137C1606.44 914.439 1610.55 914.931 1615.09 914.944M1604.87 918.587C1606.51 917.828 1609.19 916.819 1613 915.6C1613.68 915.379 1614.38 915.16 1615.09 914.944M1615.09 914.944C1628.22 914.981 1644.95 911.001 1636.8 911.001C1629.63 911.001 1622 912.822 1615.09 914.944ZM1670.7 898.526C1666.66 898.526 1662.68 898.185 1658.62 898.185C1652.79 898.185 1670.33 897.438 1675.99 896.039L1676.09 896.015C1680.45 894.938 1684.81 893.861 1689.17 892.801M1689.17 892.801C1695.61 891.236 1702.05 889.706 1708.52 888.266M1689.17 892.801C1694.47 890.83 1701.67 889.378 1708.52 888.266M1689.17 892.801C1684.75 894.442 1681.64 896.441 1681.14 898.902M1708.52 888.266C1716.07 886.584 1723.64 885.023 1731.26 883.667C1750.4 880.26 1741.14 882.445 1728.2 885.334C1725.17 886.008 1717.12 886.868 1708.52 888.266ZM1702.6 893.946C1702.6 882.651 1702.59 890.197 1701.18 898.176C1697.94 916.541 1698.63 938.053 1692.55 956.302M1692.55 956.302C1691.23 960.264 1689.59 964.072 1687.52 967.66C1685.41 971.318 1690.36 961.496 1692.55 956.302ZM1692.55 956.302C1692.79 955.733 1693 955.219 1693.16 954.785C1697.73 942.387 1698.68 929.025 1700.78 916.086C1701.22 913.328 1702.2 907.9 1703.08 903.777M1703.08 903.777C1703.99 899.524 1704.79 896.658 1704.79 899.54C1704.79 901.083 1704.4 902.827 1703.08 903.777ZM1703.08 903.777C1703.04 903.804 1703 903.831 1702.96 903.857" stroke="black" stroke-width="25" stroke-linecap="round" stroke-linejoin="round"/>
<path d="M20 1033C39.9117 973.101 145.333 827.472 196.413 749.057C272.158 632.777 334.059 509.86 413.268 395.308C468.345 315.656 502.596 213.669 571.516 144.846C596.103 120.294 632.622 71.0153 587.883 129.475C492.439 254.189 409.545 389.151 334.599 526.855C274.463 637.347 205.646 743.438 142.624 852.345C113.36 902.916 75.1231 950.754 50.2814 1003.64" stroke="black" stroke-opacity="0.21" stroke-width="40" stroke-linecap="round" stroke-linejoin="round"/>
<path d="M585.833 139.608C585.833 131.057 590.53 105.069 576.572 105.069C558.255 105.069 590.867 158.523 592.008 160.208C644.669 237.991 714.64 304.764 775.318 376.314C825.152 435.076 861.177 499.889 904.437 563.155C931.039 602.06 957.699 645.293 989.233 680.239C1020.91 715.342 1056.46 745.784 1085.79 783.152C1107.22 810.46 1121.42 844.193 1144.31 869.988C1149.48 875.817 1115.83 827.874 1109.5 817.595C1024.54 679.593 926.012 549.056 844.522 409.226C814.601 357.884 789.767 303.446 757.887 253.247C728.058 206.279 693.186 163.315 668.809 113.042C649.51 73.2428 566.832 -47.459 625.69 70.25C682.002 182.867 754.586 286.336 812.831 398.065C873.541 514.522 955.278 623.844 1031 731.153C1067.62 783.037 1107.9 846.17 1129.21 906.481C1133.03 917.266 1131.44 934 1145 934" stroke="black" stroke-opacity="0.21" stroke-width="40" stroke-linecap="round" stroke-linejoin="round"/>
<path d="M43.2858 1042.38C43.2858 1050.28 34.6766 1052.76 28.83 1056.66C3.12673 1073.8 87.0678 1035.58 114.662 1021.68C237.181 959.977 366.014 912.667 489.306 852.51C553.761 821.061 618.294 794.332 688.835 780.473C711.027 776.113 637.801 803.241 627.418 807.253C533.259 843.635 438.915 879.174 343.532 912.266C260.511 941.07 171.217 961.103 95.1014 1006.51C47.2885 1035.03 124.748 999.511 137.021 994.497" stroke="black" stroke-opacity="0.21" stroke-width="40" stroke-linecap="round" stroke-linejoin="round"/>
<path d="M849 462C849 457.209 850 452.82 850 448" stroke="black" stroke-opacity="0.21" stroke-width="40" stroke-linecap="round" stroke-linejoin="round"/>
<path d="M847.222 445.896C847.222 425.962 848.91 405.882 848.91 385.804C848.91 371.657 849.401 351.936 846.651 381.064C838.847 463.728 839.769 547.011 831.321 629.647C830.084 641.743 825.348 743.736 827.598 699.201C832.496 602.256 846.668 504.947 854.07 408.047C856.445 376.961 835.734 349.01 870.405 344.374C886.199 342.261 989.151 331.168 992.986 355.525C993.537 359.027 977.735 354.068 976.504 343.824C972.919 313.977 969.265 360.945 969.054 368.527C966.831 448.205 970.09 527.89 964.737 607.499C962.495 640.835 958.282 677.808 963.049 711.176C968.625 750.201 970.629 632.57 970.567 593.147C970.459 524.248 961.969 455.65 961.969 386.592C961.969 382.349 966.258 355.44 963.567 370.151C954.055 422.162 964.412 480.89 965.737 533.461C967.205 591.726 967.01 650.167 964.969 708.4C964.763 714.287 966.935 686.809 967.594 682.193" stroke="black" stroke-opacity="0.21" stroke-width="40" stroke-linecap="round" stroke-linejoin="round"/>
<path d="M699.203 782.06C698.655 776.805 654.032 771.098 679.125 778.632C723.889 792.072 768.429 803.972 813.947 814.858C868.12 827.813 918.53 851.353 972.912 863.403C1019.05 873.626 1063.19 883.307 1108.57 896.778C1119.7 900.084 1180.92 918.098 1138.56 906.348C1013.31 871.607 884.243 867.006 760.068 825.148C728.421 814.479 697.265 802.451 668.462 785.512C661.963 781.69 649.348 779.412 667.035 782.964C784.162 806.489 897.142 848.957 1013.22 876.008C1060.33 886.985 1107.21 898.961 1154.48 909.204C1180.39 914.817 1166.81 911.86 1150.94 901.396" stroke="black" stroke-opacity="0.21" stroke-width="40" stroke-linecap="round" stroke-linejoin="round"/>
<path d="M102.067 965.068C102.067 969.518 105.786 959.068 102.438 967.307C98.1884 977.762 87.1586 1015.2 104.235 986.203C120.206 959.083 129.857 928.184 141.342 899.044C146.436 886.119 158.493 860.247 148.409 888.629C141.24 908.804 133.569 928.855 127.857 949.51C125.925 956.497 122.046 970.888 129.956 957.415C142.056 936.805 148.85 912.47 156.73 890.081C163.426 871.055 169.754 851.896 176.672 832.948C179.659 824.766 186.298 800.048 186.545 808.754C187.082 827.719 167.625 856.029 161.099 873.683C152.934 895.767 145.278 918.138 144.739 941.869C144.389 957.249 156.284 929.394 157.708 926.344C176.491 886.097 193.131 844.758 209.229 803.384C220.614 774.121 230.575 744.379 241.603 714.992C245.721 704.018 249.837 687.958 258.145 679.105C274.757 661.406 243.341 725.34 234.833 748.064C216.976 795.759 200.178 844.739 195.253 895.702C192.754 921.561 198.64 918.67 207.413 897.19C228.599 845.32 243.128 790.261 260.864 737.147C274.506 696.293 285.572 647.189 310.482 611.039C321.709 594.746 298.991 648.916 292.292 667.529C271.585 725.065 255.135 784.034 246.042 844.552C244.849 852.491 241.337 917.551 242.776 916.12C251.149 907.792 254.986 891.127 258.832 880.499C269.844 850.072 279.876 819.258 289.785 788.458C314.574 711.407 331.453 630.425 363.243 555.841C369.387 541.425 376.178 527.273 382.817 513.08C387.056 504.017 385.42 509.158 382.546 515.219C336.432 612.487 308.211 721.093 304.482 828.803C303.81 848.215 309.611 853.279 319.856 833.757C343.007 789.642 354.68 738.328 369.112 690.995C394.33 608.285 416.782 524.122 447.806 443.327C455.278 423.866 464.029 404.939 471.817 385.607C472.173 384.723 479.419 363.957 478.617 363.984C472.719 364.183 465.153 384.224 463.31 388.089C451.622 412.608 441.586 437.846 432.809 463.542C403.224 550.156 385.696 639.209 367.033 728.624C358.505 769.486 342.597 817.129 347.32 859.542C347.967 865.349 353.521 861.011 355.051 858.311C365.165 840.464 368.59 817.38 373.516 797.793C398.157 699.803 421.567 601.163 452.497 504.917C475.093 434.605 504.313 369.506 534.345 302.393C537.48 295.387 557.872 253.226 541.57 278.783C514.411 321.362 499.816 371.973 485.258 419.836C456.035 515.91 437.158 615.738 420.127 714.604C416.212 737.331 411.609 760.233 409.493 783.224C409.402 784.206 407.415 795.976 411.61 792.34C419.446 785.549 421.838 768.404 424.371 759.196C431.617 732.852 437.471 706.041 443.751 679.455C465.138 588.923 486.03 498.281 511.179 408.695C529.326 344.047 597.845 154.962 569.731 215.949C549.133 260.631 538.163 310.834 525.62 358.149C499.113 458.136 482.135 560.85 469.886 663.481C466.363 693 462.82 722.608 461.34 752.317C461.163 755.881 458.179 775.659 462.075 778.068C469.27 782.517 491.688 689.2 492.99 684.098C516.439 592.221 539.182 500.178 566.923 409.46C577.044 376.363 587.983 343.524 599.205 310.785C603.246 298.997 618.447 265.178 611.358 275.431C582.1 317.747 567.801 373.724 553.139 422.081C523.659 519.307 506.542 620.421 494.962 721.257C493.411 734.762 487.988 784.899 501.803 745.517C526.264 675.784 542.605 602.341 561.78 531.054C577.062 474.238 590.214 411.745 618.847 359.611C631.634 336.331 600.511 409.482 592.561 434.82C566.447 518.05 550.568 603.155 535.71 688.975C532.007 710.359 527.58 731.933 525.911 753.605C525.095 764.204 530.411 749.869 531.72 746.872C554.579 694.506 567.166 634.982 581.481 579.888C599.982 508.683 607.024 428.209 638.702 361.152C640.503 357.339 643.834 350.545 642.705 359.024C640.179 377.98 632.028 396.927 626.761 415.237C604.266 493.439 585.473 573.488 575.223 654.255C574.877 656.986 566.309 740.677 572.727 739.178C577.983 737.95 580.83 721.523 581.991 717.655C589.361 693.084 595.179 668.031 601.323 643.136C610.368 606.488 618.95 569.735 627.41 532.949C634.506 502.097 640.024 468.785 653.408 439.847C656.238 433.726 663.114 416.411 672.526 417.542C679.471 418.377 675.726 446.25 675.378 449.91C668.859 518.431 653.538 586.722 643.125 654.734C638.566 684.509 633.78 714.353 631.77 744.434C631.7 745.492 629.999 767.72 633.792 765.68C642.13 761.197 644.909 741.348 647.111 733.589C655.707 703.3 663.268 672.693 670.385 642.027C686.359 573.203 691.2 492.144 724.659 428.858C741.093 397.772 734.526 462.256 733.59 469.031C723.652 540.882 709.985 612.164 699.054 683.863C698.088 690.199 693.041 758.811 695.174 757.152C701.717 752.061 703.129 733.875 704.806 726.723C712.108 695.596 718.159 664.137 723.737 632.662C734.137 573.975 734.938 509.083 754.397 452.52C762.735 428.283 758.414 485.867 757.846 489.559C753.844 515.57 713.344 768.767 722.797 768.767C731.175 768.767 738.126 695.39 738.961 689.756C747.378 632.927 750.328 575.366 759.211 518.646C759.623 516.014 770.384 473.423 770.436 493.715C770.537 533.096 762.623 574 759.5 613.292C755.324 665.832 747.94 720.062 751.083 772.856C752.359 794.297 760.702 749.89 761.21 746.731C773.987 667.274 786.375 427.129 792.671 507.358C796.109 551.175 786.734 596.923 781.84 640.304C778.636 668.716 774.827 697.235 773.511 725.815C773.023 736.395 770.742 750.837 775.587 760.815C782.432 774.911 788.006 758.484 789.4 751.666C797.544 711.837 798.663 670.471 799.088 629.972C799.283 611.453 798.998 592.931 799.207 574.413C799.298 566.362 800.916 582.477 800.998 583.964C803.64 631.982 801.816 680.603 801.816 728.674C801.816 733.268 797.372 807.411 804.674 808.466C808.673 809.044 816.672 730.024 817.289 724.629C820.342 697.947 822.748 671.22 825.034 644.463C826.526 627.004 825.076 604.591 831.676 588.012C834.899 579.918 836.852 597.382 836.95 598.809C838.292 618.269 837.43 638.039 837.379 657.53C837.239 710.465 830.598 763.041 828.781 815.894C828.308 829.63 830.414 847.693 834.581 822.968C841.716 780.625 846.809 737.983 851.747 695.342C852.241 691.084 860.4 629.986 864.816 657.46C869.974 689.552 866.971 723.983 866.971 756.332C866.971 768.74 860.073 822.459 872.494 831.563C874.037 832.693 882.644 778.317 883.135 774.075C887.248 738.576 881.995 695.564 892.709 661.556C895.465 652.808 897.929 670.318 898.116 672.046C899.904 688.604 899.555 705.415 899.832 722.046C900.376 754.797 900.179 788.454 907.517 820.585C908.941 826.824 911.666 841.791 914.144 827.706C919.195 798.998 920.294 769.688 922.27 740.663C923.067 728.962 925.617 697.447 932.819 725.327C940.732 755.954 944.231 787.739 951.237 818.601C953.522 828.671 955.903 855.087 966.41 861.005C971.44 863.837 971.946 834.424 972.077 831.718C972.99 812.827 970.204 790.009 975.701 771.715C977.918 764.338 985.662 789.36 986.598 791.775C994.243 811.504 1008.89 827.269 1010.32 848.852C1011.97 873.733 1011.25 829.411 1010.79 823.813C1008.99 801.949 997.385 779.143 989.573 759.039C979.329 732.677 969.522 700.434 947.708 681.026C929.139 664.505 904.11 656.973 884.525 641.604C863.966 625.47 848.323 601.024 826.222 587.3C820.012 583.444 811.075 583.282 805.685 578.45C799.976 573.332 813.449 572.914 815.756 573.659C839.703 581.398 859.363 624.973 870.574 644.743C894.446 686.838 910.337 734.365 941.817 771.825C957.472 790.455 973.99 809.181 990.517 827.063C996.889 833.957 1005.67 841.95 1006.07 827.551C1007.53 775.283 969.562 725.274 937.311 687.836C910.348 656.538 886.426 625.682 866.087 589.616C852.104 564.82 838.661 536.849 815.799 518.754C805.638 510.711 793.527 505.411 783.59 497.165C771.908 487.471 791.095 509.978 793.245 513.842C812.459 548.383 825.835 585.713 846.713 619.479C866.707 651.814 893.18 678.328 918.168 706.696C937.176 728.277 952.209 752.592 968.245 776.336C969.078 777.569 985.408 799.817 986.092 791.742C987.413 776.15 976.312 757.331 969.793 743.78C956.938 717.059 938.164 694.185 919.844 671.104C870.317 608.702 837.208 531.864 773.552 481.707C749.612 462.843 729.852 443.198 712.593 417.933C695.016 392.202 683.173 360.326 662.434 337.091C653.33 326.89 641.195 320.793 632.94 309.597C623.907 297.347 620.835 281.683 618.186 267.03C617.052 260.759 614.205 253.157 616.359 263.988C619.176 278.148 628.994 292.338 637.387 303.709C653.257 325.21 672.336 343.86 689.387 364.383C723.039 404.887 747.314 451.218 773.889 496.375C796.218 534.317 821.279 567.868 849.9 601.173C877.243 632.99 897.516 669.158 919.651 704.58C939.807 736.833 966.797 784.103 1010.1 783.778C1017.71 783.721 1008.11 773.29 1006.59 771.493C991.591 753.723 975.593 736.846 960.833 718.863C932.988 684.936 907.824 648.68 878.712 615.819C852.99 586.784 820.8 564.882 795.487 535.071C762.273 495.954 731.232 456.023 706.142 411.125C687.996 378.655 673.001 340.847 638.794 322.029C620.971 312.224 600.141 312.364 581.73 304.33C570.663 299.5 562.122 291.291 549.562 291.49C532.557 291.76 520.629 316.839 513.9 329.006C496.611 360.263 483.937 394.015 467.598 425.793C420.43 517.532 377.185 611.954 325.693 701.332C304.051 738.899 280.095 773.644 250.036 805.013C242.063 813.334 215.253 834.761 225.376 829.246C248.071 816.883 265.767 781.585 281.22 762.067C322.935 709.378 365.074 657.079 417.14 614.079C431.995 601.811 471.545 561.49 494.63 565.522C508.028 567.862 466.122 618.484 463.776 621.164C386.752 709.15 299.317 787.224 218.116 871.14C209.522 880.021 192.019 893.712 213.065 892.843C249.197 891.351 286.394 869.016 317.549 852.842C372.67 824.225 425.172 790.036 483.265 767.448C529.272 749.559 577.482 739.656 625.309 728.009C641.862 723.978 669.228 711.232 686.72 715.291C689.494 715.935 646.456 742.024 642.632 743.946C546.361 792.332 460.086 865.021 357.456 899.717C338.437 906.147 317.514 910.414 297.293 909.509C292.087 909.276 306.764 905.14 311.651 903.336C325.339 898.283 338.844 892.87 352.217 887.033C453.614 842.775 546.123 783.778 651.725 748.604C687.147 736.806 723.188 725.862 757.095 710.035C758.869 709.207 787.058 695.462 779.594 693.114C743.337 681.71 692.215 699.486 663.712 667.23C635.99 635.858 638.552 580.889 638.552 542.098C638.552 482.997 645.329 426.058 650.649 367.375C651.563 357.297 661.415 308.045 641.893 309.389C616.242 311.155 593.356 362.646 582.642 380.78C550.856 434.576 523.189 490.721 499.695 548.598C482.688 590.496 459.175 635.362 449.11 679.66C441.645 712.515 480.239 619.856 494.436 589.295C529.054 514.774 565.294 437.132 618.169 373.487C634.419 353.927 662.536 329.344 658.009 371.368C651.604 430.836 626.333 491.022 610.726 548.532C608.269 557.584 578.231 657.013 596.804 658.602C608.328 659.588 618.317 644.38 624.485 636.644C642.947 613.487 659.544 588.811 676.497 564.552C693.069 540.839 724.398 473.727 760.521 477.091C784.671 479.34 772.194 562.454 770.831 575.931C766.396 619.811 754.328 671.816 761.732 715.901C765.182 736.441 791.101 733.414 806.405 731.062C828.886 727.607 850.511 725.028 873.304 725.028C892.599 725.028 913.698 728.889 932.817 725.848C935.491 725.423 950.033 723.131 943.598 718.627C926.179 706.437 911.925 688.065 897.916 672.364C863.407 633.688 833.195 591.909 802.331 550.338C774.627 513.022 746.839 484.258 699.037 477.581C610.548 465.221 534.657 518.455 468.212 569.268C407.55 615.657 340.136 672.929 306.213 743.104C302.374 751.046 293.879 773.833 310.511 770.496C334.998 765.581 364.182 732.853 382.492 717.61C429.923 678.125 472.239 633.056 519.648 593.623C548.795 569.379 594.378 533.268 636.102 543.029C692.708 556.272 676.919 657.207 669.89 695.774C665.126 721.917 660.232 749.83 650.054 774.541C641.887 794.371 659.918 732.801 665.116 711.997C680.678 649.71 694.372 586.726 706.393 523.67C711.919 494.686 717.547 465.606 721.133 436.306C722.996 421.075 726.964 402.485 723.596 387.147C713.78 342.45 612.272 370.534 588.72 381.378C548.119 400.074 505.18 427.462 475.293 461.237C433.14 508.873 558.992 355.761 619.592 336.323C698.236 311.099 658.955 450.731 647.352 481.33C628.235 531.743 607.611 582.091 585.146 631.111C571.654 660.552 556.191 693.412 533.274 716.979C515.459 735.298 492.021 753.087 467.742 761.358C437.814 771.552 414.875 783.025 388.548 800.569C386.71 801.794 367.866 814.235 375.117 805.789C393.679 784.17 420.029 768.26 444.95 755.146C493.959 729.355 546.915 712.657 595.298 685.196C637.14 661.447 675.708 632.489 717.409 608.679C732.273 600.192 763.68 580.907 781.004 594.138C792.029 602.558 794.929 618.877 796.579 631.801C798.82 649.344 798.585 693.277 822.44 694.644C835.041 695.366 845.825 689.333 858.232 688.653C873.256 687.831 887.465 690.297 902.328 691.164C936.839 693.177 901.474 669.791 889.314 664.257C842.379 642.896 792.873 618.155 740.479 616.753" stroke="black" stroke-opacity="0.21" stroke-width="40" stroke-linecap="round" stroke-linejoin="round"/>
</svg>
