<svg width="1885" height="1370" viewBox="0 0 1885 1370" fill="none" xmlns="http://www.w3.org/2000/svg">
<path d="M1471.87 95.0547C1649.61 95.0547 1116.35 79.8374 938.721 86.0877C898.125 87.5162 857.197 91.6431 816.341 97.0647M816.341 97.0647C766.226 103.715 716.219 112.314 667.067 120.269C631.393 126.042 528.795 130.088 561.58 145.292C602.573 164.303 677.041 150.74 720.348 150.653C822.274 150.449 924.418 146.106 1026.25 141.778L1030.64 141.591C1110.17 138.211 1346.39 125.093 1267.72 112.921C1126.34 91.0436 970.254 98.1901 827.575 97.123C823.828 97.095 820.083 97.0755 816.341 97.0647ZM816.341 97.0647C706.994 96.7486 600.266 103.801 494.271 119.209M494.271 119.209C473.521 122.226 452.798 125.563 432.089 129.227M494.271 119.209C470.833 119.031 446.058 122.834 422.216 128.643M494.271 119.209C513.218 119.353 531.291 122.098 547.292 128.487C584.819 143.471 491.487 133.031 432.089 129.227M432.089 129.227C419.887 131.386 407.689 133.659 395.494 136.048M432.089 129.227C428.676 129.009 425.374 128.812 422.216 128.643M395.494 136.048C352.238 144.519 309.007 154.44 265.672 165.879C234.13 174.206 183.257 179.706 167.778 209.123C155.441 232.567 125.691 252.546 107.755 271.361C104.577 274.695 101.506 278.082 98.5393 281.521M395.494 136.048C375.411 142.258 356.722 149.44 340.977 156.246C207.059 214.129 101.353 300.718 66.3525 447.518C65.3617 451.674 64.4261 455.833 63.5427 459.995M395.494 136.048C404.182 133.361 413.131 130.857 422.216 128.643M98.5393 281.521C50.7716 336.887 30.2628 405.553 32.2975 478.801C32.8389 498.294 43.1327 533.348 55.1334 511.112M98.5393 281.521C111.846 248.648 130.783 219.961 158.833 200.707C231.198 151.033 316.526 127.793 402.903 127.997C408.303 128.01 414.872 128.251 422.216 128.643M98.5393 281.521C76.6596 335.569 69.9988 400.931 63.0715 454.275M55.1334 511.112C55.3511 510.709 55.5694 510.287 55.7882 509.845M55.1334 511.112C53.3927 525.495 52.1245 539.914 51.2079 554.369M55.1334 511.112C55.7071 506.372 56.3321 501.635 57.0128 496.903M55.7882 509.845C56.3754 508.66 56.9664 507.336 57.5601 505.864M55.7882 509.845C56.2193 506.122 56.6634 502.401 57.1214 498.685M55.7882 509.845C54.0752 524.64 52.5674 539.488 51.2079 554.369M57.5601 505.864C58.0434 504.667 58.5285 503.371 59.0149 501.974C63.6793 488.573 64.5031 474.361 63.5427 459.995M57.5601 505.864C57.4139 503.472 57.2674 501.079 57.1214 498.685M57.5601 505.864C58.0033 513.116 58.4447 520.361 58.8669 527.596C61.8838 579.287 65.8967 630.832 65.7708 682.648C65.7669 684.268 63.5723 722.235 54.2235 713.305C41.8889 701.523 48.9627 654.482 48.9627 640.085C48.9627 611.383 49.4046 582.808 51.2079 554.369M63.5427 459.995C63.4154 458.09 63.2568 456.183 63.0715 454.275M63.5427 459.995C61.8403 468.016 60.3317 476.049 58.9958 484.094M63.0715 454.275C61.2621 435.632 56.9176 416.876 54.5042 399.431C53.1285 389.488 52.9121 370.196 52.9121 392.859C52.9121 427.474 54.9031 462.253 57.0128 496.903M63.0715 454.275C62.2717 460.434 61.4683 466.433 60.6375 472.236C60.0723 476.183 59.5255 480.136 58.9958 484.094M57.0128 496.903C57.049 497.497 57.0852 498.091 57.1214 498.685M57.0128 496.903C57.6274 492.63 58.2873 488.36 58.9958 484.094M57.1214 498.685C57.7217 493.815 58.3458 488.951 58.9958 484.094M51.2079 554.369C45.4833 617.028 42.3867 680.273 37.6654 742.601C33.733 794.515 42.629 812.276 61.0151 754.208C65.7311 739.313 104.679 624.351 92.9628 695.691C76.8914 793.551 98.2849 882.665 98.2849 980.398C98.2849 1000.89 96.1791 1020.96 93.109 1040.94M93.109 1040.94C91.0519 1054.33 88.562 1067.69 85.9824 1081.12C81.5877 1104.01 83.3605 1090.71 85.9773 1075.24C96.5166 1012.94 95.7915 943.32 80.5889 881.855C77.4687 869.241 90.1696 906.33 91.6412 919.241C96.1555 958.848 95.1123 1000.66 93.109 1040.94ZM93.109 1040.94C92.7909 1047.34 92.4486 1053.7 92.1005 1060C89.1612 1113.22 91.3289 1159.84 106.082 1210.49C108.606 1219.16 114.25 1188.86 118.033 1163.95M118.033 1163.95C120.067 1150.56 121.563 1138.73 121.747 1135.36C122.025 1130.26 122.43 1122.04 122.858 1113.56M118.033 1163.95C118.032 1163.78 118.032 1163.61 118.032 1163.44C118.032 1146.66 120.828 1130.1 122.858 1113.56M118.033 1163.95C118.43 1342.82 326.444 1300.46 447.03 1300.46M122.858 1113.56C123.83 1094.29 124.921 1073.68 124.921 1085.29C124.921 1094.73 124.014 1104.14 122.858 1113.56ZM151.1 1044.39C131.612 1062.04 133.373 1082.57 133.373 1109.25C133.373 1156.61 143.025 1216.17 162.785 1259.48C186.779 1312.07 251.488 1313.93 301.72 1319.91C371.535 1328.22 472.69 1352.06 540.61 1325.84C545.069 1324.12 546.137 1322.92 544.748 1322.11M544.748 1322.11C538.573 1318.52 483.851 1322.63 462.606 1322.63C427.044 1322.63 320.961 1316.35 355.92 1322.87C413.506 1333.61 482.041 1327.81 544.748 1322.11ZM544.748 1322.11C563.884 1320.38 582.477 1318.65 600.051 1317.4C659.381 1313.18 718.459 1309.81 777.553 1307.43M777.553 1307.43C811.577 1306.06 845.608 1305.02 879.695 1304.34M777.553 1307.43C754.3 1310.75 731.138 1314.24 708.089 1317.89C652.144 1326.74 820.973 1308.35 877.482 1304.49C878.219 1304.44 878.957 1304.39 879.695 1304.34M777.553 1307.43C889.425 1291.46 1003.41 1279.37 1117.08 1272.36M879.695 1304.34C910.812 1303.72 941.977 1303.4 973.228 1303.4H976.198C944.088 1303.4 911.757 1302.3 879.695 1304.34ZM1117.08 1272.36C1190.13 1267.85 1263.05 1265.44 1335.2 1265.44C1408.37 1265.44 1204.82 1269.27 1117.08 1272.36ZM1117.08 1272.36C1112.04 1272.53 1107.37 1272.71 1103.17 1272.88C1062.82 1274.53 1022.46 1275.85 982.071 1275.85C955.342 1275.85 1014.52 1268.02 1019.25 1267.53C1154.07 1253.7 1289.11 1241.06 1424.32 1231.84C1440.84 1230.72 1457.34 1229.55 1473.85 1228.44M1473.85 1228.44C1486.64 1227.59 1499.43 1226.76 1512.23 1226.02M1473.85 1228.44C1473.97 1229.07 1475.38 1229.74 1478.39 1230.45C1483.04 1231.56 1488.23 1231.92 1493.61 1231.92M1473.85 1228.44C1473.24 1225.33 1504.05 1223.15 1527.86 1220.95M1512.23 1226.02C1545.06 1224.12 1577.92 1222.75 1610.85 1222.7C1630.22 1222.67 1683.88 1213.91 1668.86 1226.13C1644.91 1245.61 1555.48 1230.54 1524.49 1230.54C1515.24 1230.54 1504.07 1231.92 1493.61 1231.92M1512.23 1226.02C1506.03 1228.01 1499.82 1229.97 1493.61 1231.92M1512.23 1226.02C1517.45 1224.35 1522.66 1222.66 1527.86 1220.95M1493.61 1231.92C1478.53 1236.65 1463.43 1241.28 1448.34 1245.9L1443.3 1247.45C1410.39 1257.55 1498.29 1248.89 1512.14 1249.3C1569.56 1250.99 1631.88 1256.51 1688.9 1247.48C1726.57 1241.51 1749.38 1222.3 1758.17 1185.27C1760.44 1175.71 1762.52 1166.09 1764.43 1156.43M1527.86 1220.95C1535.65 1220.24 1542.69 1219.52 1547.63 1218.77C1613.19 1208.79 1689.81 1204.51 1747.66 1169.18C1753.86 1165.4 1759.42 1161.12 1764.43 1156.43M1527.86 1220.95C1531.94 1219.62 1536.02 1218.26 1540.09 1216.9M1764.43 1156.43C1785.78 1136.42 1796.98 1108.86 1803.79 1079.68M1764.43 1156.43C1767.68 1139.95 1770.46 1123.32 1772.91 1106.62M1803.79 1079.68C1809.03 1057.16 1811.66 1033.68 1814.32 1011.96C1822.17 947.694 1819.48 882.427 1822.62 817.796M1803.79 1079.68C1794.42 1089.25 1784.01 1098.22 1772.91 1106.62M1803.79 1079.68C1821.25 1061.83 1835.07 1041.88 1842.85 1019.59C1856.62 980.09 1836.11 955.331 1829.22 918.424C1821.27 875.889 1837.62 839.026 1845.46 798.159C1866.77 687.201 1840.82 556.102 1824.51 446.648C1821.08 423.64 1818.66 349.936 1801.4 319.222M1822.62 817.796C1823.76 794.478 1825.65 771.242 1829.07 748.166C1830.53 738.378 1846.93 669.711 1847.13 678.75C1848.19 725.88 1837.87 772.075 1822.62 817.796ZM1822.62 817.796C1816.1 837.346 1808.68 856.809 1800.86 876.222M1800.86 876.222C1784.51 916.847 1766.42 957.25 1751.23 997.761M1800.86 876.222C1810.55 804.863 1819.66 731.365 1813.15 661.979C1810.97 638.648 1800.87 688.337 1800.87 693.507C1800.87 796.268 1771 897.188 1751.23 997.761M1800.86 876.222C1797.12 903.82 1793.29 931.098 1790.24 957.694C1784.61 1006.89 1780.19 1057.1 1772.91 1106.62M1751.23 997.761C1739.26 1029.67 1729.1 1061.64 1722.99 1093.84C1710.56 1159.4 1676.72 1150.25 1622 1155.82C1567.82 1161.34 1514.85 1172.45 1460.28 1175.92C1423.63 1178.25 1333.19 1164.22 1303.35 1191.32C1286.94 1206.23 1394.48 1219.47 1401.38 1219.91C1448.33 1222.89 1494.57 1223.02 1540.09 1216.9M1751.23 997.761C1749.61 1005.97 1748.07 1014.18 1746.61 1022.38C1737.2 1075.37 1726.85 1119.6 1697.75 1152.33M1540.09 1216.9C1571.42 1212.69 1602.41 1205.51 1633.07 1194.27C1661.66 1183.78 1682.34 1169.67 1697.75 1152.33M1540.09 1216.9C1570.79 1206.61 1601.19 1195.52 1630.96 1182.86C1651.19 1174.25 1674.3 1164.16 1697.75 1152.33M1697.75 1152.33C1723.53 1139.32 1749.71 1124.2 1772.91 1106.62M1801.4 319.222C1798.8 314.596 1795.87 310.946 1792.54 308.59C1791.34 307.738 1780.36 366.938 1773.6 405.966M1801.4 319.222C1806.45 418.283 1811.7 525.245 1811.7 545.544C1811.7 554.027 1810.9 656.851 1796.62 639.296C1755.73 589.038 1762.97 498.298 1768.34 438.606C1768.63 435.408 1770.74 422.496 1773.6 405.966M1801.4 319.222C1796.63 225.794 1792.04 139.394 1792.19 139.359C1805.67 136.302 1771.14 111.669 1769.95 111.036C1759.92 105.701 1749.29 100.917 1738.24 96.606M1773.6 405.966C1770.89 398.189 1768.92 390.172 1768.84 381.619C1768.17 313.017 1768.73 246.124 1758.21 178.072C1753.89 150.129 1749.41 122.282 1738.24 96.606M1773.6 405.966C1779.82 423.842 1789.94 440.451 1789.94 459.384M1738.24 96.606C1684.69 75.7148 1621.2 65.948 1567.77 58.5336L1565.82 58.2633C1554.97 56.7579 1543.66 55.1877 1532.02 53.6874M1738.24 96.606C1735.46 90.2058 1732.26 83.9404 1728.54 77.842C1705.07 39.3272 1637.5 50.4725 1600.94 50.968C1578.02 51.2785 1555.03 52.2362 1532.02 53.6874M1532.02 53.6874C1510.52 50.9169 1487.9 48.3851 1465.04 46.9418M1532.02 53.6874C1475.79 57.2332 1419.43 63.7258 1363.67 70.9257M1465.04 46.9418C1455.46 46.3368 1445.84 45.9231 1436.24 45.7632M1465.04 46.9418C1434.91 54.012 1387.07 64.1247 1364.96 70.603C1364.61 70.7036 1364.18 70.8117 1363.67 70.9257M1465.04 46.9418C1488.29 41.4884 1501.01 37.8451 1483.28 39.0755C1467.59 40.1644 1451.91 42.5756 1436.24 45.7632M1436.24 45.7632C1392.51 45.0348 1349.25 49.5723 1312.57 65.2895C1292.65 73.8269 1303.14 75.8916 1319.9 75.4578M1436.24 45.7632C1397.41 53.6632 1358.64 66.3318 1319.9 75.4578M1319.9 75.4578C1325.26 75.3189 1331.27 74.924 1337.13 74.4034M1319.9 75.4578C1313.25 77.0251 1306.59 78.4879 1299.94 79.8041M1337.13 74.4034C1348.42 73.3999 1359.16 71.9294 1363.67 70.9257M1337.13 74.4034C1334.78 74.7144 1332.44 75.0261 1330.1 75.3383C1324.49 76.0853 1312.61 77.8631 1299.94 79.8041M1337.13 74.4034C1345.96 73.2323 1354.81 72.0701 1363.67 70.9257M1299.94 79.8041C1293.69 81.0422 1287.43 82.1506 1281.17 83.0943C1229.1 90.9494 1267.15 84.83 1299.94 79.8041ZM271.876 233.928C271.876 227.859 274.351 202.749 262.186 215.409C203.063 276.935 153.211 353.633 103.233 422.549C91.6017 438.589 52.1234 474.8 71.857 473.032C84.9953 471.854 107.189 441.769 115.439 433.326C158.008 389.762 201.739 347.148 244.805 303.951M244.805 303.951C271.496 277.18 297.931 250.185 323.678 222.6C385.14 156.751 321.182 213.741 296.756 241.167C278.715 261.424 261.341 282.36 244.805 303.951ZM244.805 303.951C205.188 355.682 170.379 411.177 142.717 470.12L142.584 470.403C139.308 477.377 113.706 531.862 125.21 537.509C141.624 545.566 170.658 507.476 179.028 498.735C267.067 406.798 340.615 302.064 426.419 208.061C429.89 204.259 480.619 157.395 470.991 172.874C455.038 198.52 429.57 220.006 409.622 242.446C309.944 354.573 217.958 472.993 140.748 601.931C116.415 642.565 76.5928 694.068 66.9687 741.594C61.1702 770.228 110.816 702.613 129.359 680.036C247.345 536.378 363.309 391.449 494.096 258.979C537.344 215.174 581.17 171.454 629.449 133.141C636.084 127.875 660.239 109.572 641.97 127.841C547.337 222.474 466.451 333.728 387.563 441.382C320.563 532.811 257.88 627.201 199.546 724.381C175.907 763.762 142.526 809.664 137.094 856.832C134.134 882.539 169.53 848.327 173.823 843.742C227.335 786.592 274.463 722.627 323.397 661.598C444.928 510.028 565.28 348.068 713.018 220.445M713.018 220.445C713.93 219.657 714.843 218.871 715.757 218.086M713.018 220.445C715.708 220.401 718.398 220.354 721.088 220.305M713.018 220.445C704.515 220.586 696.011 220.704 687.506 220.798C676.939 220.914 566.78 230.208 562.39 219.491C561.762 217.959 579.246 216.674 579.948 216.607C602.149 214.484 624.283 211.852 646.379 208.823C677.928 204.499 709.513 200.667 741.129 197.133M715.757 218.086C715.964 217.908 716.17 217.731 716.377 217.553M715.757 218.086C696.405 218.009 698.506 217.834 716.377 217.553M715.757 218.086C717.976 218.095 720.478 218.102 723.271 218.108M716.377 217.553C717.541 216.555 718.706 215.559 719.873 214.566C721.98 212.771 733.154 203.415 741.129 197.133M716.377 217.553C718.646 217.518 721.169 217.48 723.934 217.441M741.129 197.133C748.718 191.155 753.411 187.96 744.646 196.706C744.633 196.719 744.62 196.732 744.607 196.745M741.129 197.133C742.288 197.003 743.448 196.874 744.607 196.745M744.607 196.745C737.702 203.635 730.809 210.531 723.934 217.441M744.607 196.745C781.051 192.696 817.538 189.034 854.062 185.46C863.298 184.556 872.572 183.731 881.877 182.96M723.934 217.441C723.713 217.664 723.492 217.886 723.271 218.108M723.934 217.441C746.622 217.122 785.632 216.687 834.545 216.132M723.271 218.108C722.543 218.84 721.815 219.572 721.088 220.305M723.271 218.108C729.992 218.123 738.397 218.131 748.606 218.131C777.07 218.131 805.602 217.51 834.176 216.415M721.088 220.305C695.941 245.616 671.048 271.14 646.726 297.283C503.941 450.761 386.049 630.393 278.907 809.861C236.248 881.316 113.618 1095.57 170.369 1034.7C221.206 980.17 261.35 911.631 304.318 850.981C381.29 742.335 458.516 633.53 542.147 529.855C627.26 424.342 721.692 302.714 833.269 217.109M721.088 220.305C758.497 219.623 795.888 218.51 833.269 217.109M833.269 217.109C833.571 216.877 833.873 216.646 834.176 216.415M833.269 217.109C843.229 216.736 853.188 216.342 863.147 215.931M834.176 216.415C834.299 216.32 834.422 216.226 834.545 216.132M834.176 216.415C837.396 216.291 840.616 216.162 843.837 216.027M834.545 216.132C849.987 204.337 865.758 193.233 881.877 182.96M834.545 216.132C837.604 216.098 840.702 216.062 843.837 216.027M881.877 182.96C883.096 182.183 884.317 181.411 885.54 180.643C902.551 169.97 903.995 171.945 895.798 181.845M881.877 182.96C886.51 182.576 891.151 182.205 895.798 181.845M895.798 181.845C889.706 189.202 878.289 200.936 863.978 215.108M895.798 181.845C945.383 178 995.69 175.333 1045.39 170.172M863.978 215.108C863.744 215.34 863.51 215.572 863.274 215.805M863.978 215.108C857.263 215.438 850.549 215.745 843.837 216.027M863.978 215.108C912.446 212.725 961.006 209.128 1009.53 205.034M863.274 215.805C863.232 215.847 863.189 215.889 863.147 215.931M863.274 215.805C864.605 215.79 865.942 215.774 867.284 215.759M863.274 215.805C856.652 215.881 850.169 215.955 843.837 216.027M863.147 215.931C820.096 258.514 751.68 322.484 722.602 356.242C571.859 531.252 436.98 726.513 318.953 924.908C282.307 986.507 248.577 1052.77 229.993 1122.4C226.225 1136.52 218.396 1175.58 242.877 1150.4C285.919 1106.12 320.331 1051.77 355.886 1001.61C426.447 902.056 497.93 802.877 572.503 706.284C704.552 535.244 846.027 367.335 1000.31 214.153M863.147 215.931C864.526 215.874 865.905 215.816 867.284 215.759M1000.31 214.153C1001.99 212.479 1003.68 210.808 1005.37 209.138M1000.31 214.153C1000.55 214.15 1000.79 214.147 1001.02 214.144M1000.31 214.153C952.904 214.761 907.613 215.296 867.284 215.759M1005.37 209.138C1006.75 207.769 1008.14 206.401 1009.53 205.034M1005.37 209.138C1005.58 209.127 1005.8 209.116 1006.01 209.104M1005.37 209.138C959.346 211.538 913.322 213.834 867.284 215.759M1009.53 205.034C1021.4 193.323 1033.36 181.701 1045.39 170.172M1009.53 205.034C1009.72 205.017 1009.92 205.001 1010.12 204.984M1045.39 170.172C1070.81 145.816 1096.58 121.876 1122.7 98.4021C1131.03 90.9212 1167.08 60.0011 1138.82 85.0536C1107.19 113.088 1076.13 141.19 1045.82 170.128M1045.39 170.172C1045.53 170.157 1045.68 170.142 1045.82 170.128M1045.82 170.128C1033.8 181.599 1021.9 193.202 1010.12 204.984M1045.82 170.128C1076.41 166.942 1106.77 162.806 1136.6 156.865C1148.72 154.45 1142.82 144.285 1171.75 144.285C1175.09 144.285 1151.03 168.327 1123.31 194.854M1010.12 204.984C1008.75 206.355 1007.38 207.728 1006.01 209.104M1010.12 204.984C1028.94 203.395 1047.75 201.731 1066.55 200.035M1006.01 209.104C1004.35 210.78 1002.68 212.46 1001.02 214.144M1006.01 209.104C1023.82 208.175 1041.63 207.23 1059.44 206.286L1060.57 206.225M1001.02 214.144C990.211 225.11 979.508 236.239 968.922 247.569C743.437 488.917 539.072 751.854 362.82 1031.48C321.097 1097.67 268.396 1172.32 254.384 1251.12C248.475 1284.35 259.294 1301.94 288.367 1273.26C310.745 1251.19 331.734 1227.38 351.927 1202.7M1001.02 214.144C1018.4 213.921 1036.05 213.688 1053.85 213.444M351.927 1202.7C357.55 1195.82 363.112 1188.88 368.625 1181.88M351.927 1202.7C321.645 1195.08 340.29 1187.4 368.625 1181.88M351.927 1202.7C357.452 1204.09 364.606 1205.47 373.627 1206.85C381.591 1208.06 389.571 1209.14 397.567 1210.09M368.625 1181.88C406.585 1133.72 442.224 1083.16 479.722 1036.17C493.544 1018.85 507.444 1001.61 521.434 984.459M368.625 1181.88C393.574 1177.02 426.036 1173.84 439.227 1173.84C447.932 1173.84 456.629 1174.01 465.321 1174.29M521.434 984.459C616.932 867.374 716.618 754.401 824.212 648.072M521.434 984.459C509.745 997.239 498.081 1010.04 486.452 1022.88C477.905 1032.31 403.146 1107.83 413.163 1086.68C436.721 1036.91 471.319 991.411 506.779 947.378M521.434 984.459C593.926 905.199 667.37 826.829 739.258 747.01C768.405 714.646 796.581 681.563 824.212 648.072M824.212 648.072C829.298 643.045 834.402 638.034 839.525 633.037C844.256 628.421 848.99 623.807 853.725 619.193M824.212 648.072C881.135 579.075 935.742 508.347 991.756 438.608M853.725 619.193C958.955 516.672 1064.98 414.825 1171.61 313.788C1206.73 280.519 1255.25 246.951 1292.92 209.475M853.725 619.193C887.905 577.039 923.29 535.928 960.325 496.34C1038.59 412.684 1121.85 333.953 1209.16 259.85C1222.42 248.599 1244.12 229.027 1265.64 210.026M853.725 619.193C770.229 722.17 693.929 831.372 618.376 939.794C566.771 1013.85 509.993 1092.1 465.321 1174.29M1292.92 209.475C1296.35 206.063 1299.69 202.619 1302.92 199.139M1292.92 209.475C1326.9 208.765 1358.68 208.008 1386.96 207.202M1292.92 209.475C1283.97 209.662 1274.87 209.846 1265.64 210.026M1302.92 199.139C1309.14 192.434 1314.97 185.599 1320.26 178.613M1302.92 199.139C1336.02 198.13 1369.12 196.769 1402.03 194.652M1302.92 199.139C1294.35 199.4 1285.78 199.638 1277.21 199.859M1320.26 178.613C1322.93 175.088 1325.46 171.525 1327.84 167.921C1340.44 148.85 1324.73 159.626 1300.3 180.048M1320.26 178.613C1313.43 179.099 1306.76 179.578 1300.3 180.048M1320.26 178.613C1355.02 176.144 1394.09 173.526 1431.66 171.263M1300.3 180.048C1293.19 185.999 1285.33 192.77 1277.21 199.859M1300.3 180.048C1277.98 181.673 1258.17 183.182 1242.68 184.419C1203.04 187.585 1163.22 191.197 1123.31 194.854M1277.21 199.859C1273.4 203.195 1269.52 206.601 1265.64 210.026M1277.21 199.859C1222.36 201.274 1167.61 202.009 1113.82 203.896M1265.64 210.026C1214.53 211.026 1159.47 211.925 1104.49 212.729M465.321 1174.29C462.417 1179.63 459.563 1184.99 456.766 1190.37M465.321 1174.29C479.738 1174.75 494.141 1175.48 508.545 1176.12M456.766 1190.37C452.631 1198.32 448.619 1206.3 444.743 1214.32M456.766 1190.37C435.218 1194.71 414.083 1200.85 397.567 1210.09M456.766 1190.37C483.661 1184.96 511.202 1182.37 531.212 1180.11C535.166 1179.66 551.283 1178.78 557.204 1178.14M444.743 1214.32C444.492 1214.84 444.24 1215.36 443.99 1215.88M444.743 1214.32C428.967 1213.35 413.237 1211.96 397.567 1210.09M444.743 1214.32C445.947 1214.39 447.151 1214.47 448.355 1214.54M443.99 1215.88C441.22 1221.65 438.522 1227.43 435.9 1233.23M443.99 1215.88C428.713 1220.67 413.676 1226.1 399.008 1232.35M443.99 1215.88C445.443 1215.43 446.898 1214.98 448.355 1214.54M435.9 1233.23C431.13 1243.78 426.615 1254.39 422.39 1265.07M435.9 1233.23C437.012 1233.2 437.713 1233.18 437.905 1233.18C457.743 1232.72 477.564 1231.86 497.366 1230.69M435.9 1233.23C430.077 1233.36 413.002 1233.61 399.008 1232.35M422.39 1265.07C420.913 1268.8 419.471 1272.54 418.066 1276.28C408.923 1300.66 399.867 1350.2 438.712 1315C455.798 1299.51 472.057 1282.78 487.699 1265.19M422.39 1265.07C424.94 1265.23 427.022 1265.31 428.425 1265.33C448.163 1265.58 467.923 1265.52 487.699 1265.19M422.39 1265.07C400.885 1263.71 346.129 1256.91 385.302 1238.49C389.832 1236.36 394.402 1234.31 399.008 1232.35M487.699 1265.19C497.77 1253.87 507.584 1242.2 517.199 1230.28M487.699 1265.19C671.638 1262.14 856.966 1235.5 1039.21 1211.46M517.199 1230.28C517.447 1229.97 517.694 1229.66 517.941 1229.35M517.199 1230.28C588.572 1223.95 659.585 1217.44 731.512 1216.32C833.781 1214.72 936.692 1215.63 1039.21 1211.46M517.199 1230.28C503.385 1231.5 489.557 1232.71 475.706 1233.88C473.041 1234.11 470.572 1234.32 468.289 1234.52M517.941 1229.35C518.423 1228.76 518.904 1228.16 519.385 1227.56M517.941 1229.35C566.081 1225.99 614.117 1220.93 662.055 1215.5C718.853 1209.06 775.822 1201.06 832.121 1190.49M517.941 1229.35C511.085 1229.83 504.227 1230.28 497.366 1230.69M519.385 1227.56C522.468 1223.71 525.531 1219.84 528.576 1215.94M519.385 1227.56C512.045 1228.59 504.705 1229.64 497.366 1230.69M519.385 1227.56C574.164 1219.81 628.977 1212.42 683.852 1205.69M528.576 1215.94C534.816 1207.96 540.979 1199.89 547.08 1191.76M528.576 1215.94C501.749 1216.44 474.988 1216.07 448.355 1214.54M528.576 1215.94C580.242 1214.99 632.151 1210.84 683.852 1205.69M547.08 1191.76C550.473 1187.24 553.847 1182.7 557.204 1178.14M547.08 1191.76C513.949 1197.66 480.645 1204.71 448.355 1214.54M547.08 1191.76C556.931 1190 566.766 1188.35 576.555 1186.75C652.734 1174.31 729.992 1165.85 807.174 1163.66C813.664 1163.47 821.028 1162.91 828.93 1162.19M557.204 1178.14C557.359 1177.93 557.514 1177.72 557.668 1177.51M557.204 1178.14C559.674 1177.88 560.37 1177.65 557.668 1177.51M557.668 1177.51C585.566 1139.65 612.36 1100.86 639.635 1064.1M557.668 1177.51C556.404 1177.45 554.397 1177.41 551.48 1177.39C539.712 1177.31 527.953 1176.93 516.196 1176.44M639.635 1064.1C646.951 1054.23 654.302 1044.52 661.718 1035C739.147 935.66 819.788 839.088 904.302 745.954M639.635 1064.1C623.753 1080.06 541.374 1160.72 516.196 1176.44M639.635 1064.1C640.794 1062.93 641.598 1062.11 642.001 1061.69C684.092 1017.2 726.291 972.706 768.647 928.283M904.302 745.954C956.405 688.537 1009.98 632.426 1065.18 577.779C1185.07 459.101 1314.34 350.747 1432.34 229.982C1440.66 221.475 1449.01 212.985 1457.34 204.465M904.302 745.954C914.785 732.702 925.197 719.588 935.464 706.61C1047.31 565.241 1172.67 438.863 1309.89 322.177C1351.61 286.692 1401.23 239.39 1453.65 204.738M904.302 745.954C858.334 804.064 811.01 864.819 768.647 928.283M1457.34 204.465C1459.18 202.579 1461.02 200.691 1462.86 198.8M1457.34 204.465C1475.46 203.064 1495.39 200.66 1515.66 199.057M1457.34 204.465C1456.1 204.561 1454.87 204.652 1453.65 204.738M1462.86 198.8C1466.11 195.464 1469.36 192.122 1472.59 188.77M1462.86 198.8C1469.03 194.933 1475.22 191.259 1481.44 187.815M1462.86 198.8C1459.78 200.733 1456.71 202.714 1453.65 204.738M1472.59 188.77C1479.27 181.854 1485.9 174.9 1492.46 167.882M1472.59 188.77C1475.55 188.461 1478.5 188.142 1481.44 187.815M1472.59 188.77C1449.22 191.22 1425.67 193.131 1402.03 194.652M1492.46 167.882C1498.13 161.82 1503.74 155.71 1509.28 149.537L1509.46 149.336C1511.86 146.676 1530.31 126.195 1524.19 126.528C1496.06 128.055 1462.79 148.003 1431.66 171.263M1492.46 167.882C1473.34 168.838 1452.74 169.994 1431.66 171.263M1492.46 167.882C1506.16 167.197 1519.09 166.616 1530.89 166.171M1431.66 171.263C1421.47 178.881 1411.5 186.854 1402.03 194.652M1402.03 194.652C1396.85 198.917 1391.81 203.129 1386.96 207.202M1386.96 207.202C1375.14 217.128 1364.43 226.226 1355.45 233.241C1084.32 444.9 862.706 712.41 646.553 978.003L643.23 982.085C607.324 1026.2 571.139 1070.65 538.836 1117.48C530.193 1130 506.333 1157.82 508.545 1176.12M1386.96 207.202C1407.22 206.624 1425.68 206.022 1441.88 205.394C1445.69 205.246 1449.62 205.021 1453.65 204.738M508.545 1176.12C508.632 1176.84 508.762 1177.56 508.934 1178.25C509.343 1179.9 511.96 1179.09 516.196 1176.44M508.545 1176.12C511.095 1176.23 513.646 1176.34 516.196 1176.44M768.647 928.283C977.257 709.492 1189.68 492.525 1411.8 288.363C1434.65 267.36 1484.19 227.863 1515.66 199.057M768.647 928.283C724.808 993.959 686.28 1062.54 660.065 1134.09C632.391 1209.62 703.009 1156.82 730.654 1132.59C826.704 1048.4 913.728 953.141 1000.36 858.781M1515.66 199.057C1523.07 192.28 1529.47 186.094 1534.29 180.881M1515.66 199.057C1578.64 194.08 1644.96 196.839 1671.08 261.428C1674.38 269.585 1676.29 278.892 1677.25 288.832M1534.29 180.881C1541.05 173.57 1544.7 168.171 1543.62 165.73M1534.29 180.881C1548.02 178.779 1561.68 176.438 1575.23 173.826C1617.02 165.773 1594.05 164.161 1543.62 165.73M1534.29 180.881C1516.8 183.558 1499.17 185.848 1481.44 187.815M1543.62 165.73C1542.75 163.756 1538.79 163.718 1530.89 166.171M1543.62 165.73C1539.55 165.857 1535.3 166.004 1530.89 166.171M1530.89 166.171C1530.88 166.173 1530.87 166.176 1530.86 166.179C1514.31 171.324 1497.79 178.772 1481.44 187.815M1000.36 858.781C1019.38 838.066 1038.38 817.394 1057.45 796.893C1185.09 659.686 1312.56 522.27 1439.3 384.232C1473.59 346.88 1508.04 309.821 1543.69 273.763C1553.42 263.924 1585.26 238.6 1572.45 243.834C1500.87 273.09 1428.46 355.721 1375.7 408.684C1249.18 535.686 1131.52 670.162 1029.23 817.508C1019.78 831.109 1010.12 844.868 1000.36 858.781ZM1000.36 858.781C936.392 949.975 868.36 1047.81 832.192 1151.54C830.81 1155.5 829.731 1159.05 828.93 1162.19M828.93 1162.19C827.614 1167.36 827.049 1171.47 827.125 1174.65M828.93 1162.19C844.002 1160.83 861.033 1158.92 877.692 1158.06M827.125 1174.65C827.468 1188.99 840.814 1184.54 857.178 1173.59M827.125 1174.65C836.718 1174.28 846.781 1173.93 857.178 1173.59M827.125 1174.65C750.418 1177.65 703.782 1181.85 757.362 1187.57C777.829 1189.75 798.642 1190.66 819.689 1190.62M857.178 1173.59C863.745 1169.2 870.798 1163.75 877.692 1158.06M857.178 1173.59C880.209 1172.84 904.876 1172.19 929.685 1171.62M877.692 1158.06C894.032 1144.56 909.477 1129.64 915.431 1123.87C1162.72 884.147 1380.45 616.247 1634.33 382.3L1634.94 381.743C1642.08 375.161 1649.24 368.566 1656.44 362.012M877.692 1158.06C898.809 1156.97 919.329 1157.58 934.51 1163.14C942.496 1166.07 938.755 1168.93 929.685 1171.62M1656.44 362.012C1662.84 356.185 1669.28 350.39 1675.77 344.662M1656.44 362.012C1660.63 321.248 1667.11 283.385 1676.93 288.656C1677.04 288.714 1677.15 288.773 1677.25 288.832M1656.44 362.012C1656.07 365.586 1655.72 369.183 1655.39 372.774M1675.77 344.662C1676.85 343.711 1677.93 342.762 1679.02 341.815M1675.77 344.662C1675.4 348.412 1674.99 352.126 1674.59 355.782M1675.77 344.662C1677.66 325.977 1678.95 306.413 1677.25 288.832M1679.02 341.815C1684.41 337.089 1689.86 332.414 1695.35 327.809M1679.02 341.815C1679.11 341.168 1679.21 340.52 1679.31 339.873C1681.08 328.133 1683.49 313.599 1686.34 297.289M1679.02 341.815C1678.44 345.674 1677.87 349.533 1677.31 353.391M1695.35 327.809C1703.72 320.799 1712.22 313.953 1720.9 307.343M1695.35 327.809C1695.64 330.917 1695.82 334.065 1695.92 337.204M1695.35 327.809C1694.29 316.222 1691.77 305.192 1686.34 297.289M1720.9 307.343C1726.68 302.939 1732.55 298.639 1738.5 294.466C1754.48 283.259 1761.24 282.18 1743.06 297.283C1735.44 303.617 1727.85 309.979 1720.3 316.369M1720.9 307.343C1720.7 310.352 1720.5 313.361 1720.3 316.369M1720.9 307.343C1726.62 222.002 1732.69 136.688 1741.83 51.6755C1751.06 -34.2568 1707.08 178.565 1686.34 297.289M1720.3 316.369C1712.13 323.281 1704.01 330.225 1695.92 337.204M1720.3 316.369C1712.54 432.443 1705.25 548.548 1691.54 663.993C1691.34 665.685 1691.13 667.377 1690.92 669.068M1695.92 337.204C1689.7 342.58 1683.49 347.975 1677.31 353.391M1695.92 337.204C1696.41 351.813 1695.24 366.216 1695.24 375.408C1695.24 377.246 1695.24 379.084 1695.24 380.922M1677.31 353.391C1676.4 354.188 1675.5 354.984 1674.59 355.782M1677.31 353.391C1674.26 374.631 1671.55 395.868 1669.12 417.104M1674.59 355.782C1668.16 361.424 1661.76 367.088 1655.39 372.774M1674.59 355.782C1673.19 368.417 1671.73 380.355 1671.02 390.641C1670.4 399.464 1669.77 408.285 1669.12 417.104M1655.39 372.774C1591.36 429.868 1529.71 489.187 1469.36 550.939C1343.89 679.321 1223.29 815.662 1121.32 963.716C1117.69 968.993 1033.41 1102.76 1049.68 1103.77C1095.72 1106.64 1165.57 1014.37 1193.37 987.29C1291.42 891.777 1386.84 793.841 1482.8 696.255C1522.86 655.519 1562.54 614.341 1603.54 574.547C1611.9 566.432 1626.36 549.341 1641.29 536.187M1655.39 372.774C1651.96 409.705 1650.31 446.126 1649.65 452.553C1646.81 480.426 1644.01 508.303 1641.29 536.187M1641.29 536.187C1647.24 530.938 1653.27 526.317 1659.01 523.142M1641.29 536.187C1640.68 542.4 1640.07 548.614 1639.47 554.829M1659.01 523.142C1659.43 522.909 1659.85 522.684 1660.27 522.467M1659.01 523.142C1661.82 487.788 1665.08 452.447 1669.12 417.104M1659.01 523.142C1658.7 527.075 1658.39 531.009 1658.09 534.942M1660.27 522.467C1663.67 520.703 1666.95 519.475 1670.06 518.957M1660.27 522.467C1659.91 526.218 1659.55 529.968 1659.19 533.717M1660.27 522.467C1663.58 487.379 1666.52 452.255 1669.12 417.104M1670.06 518.957C1670.5 518.883 1670.94 518.823 1671.38 518.778C1671.77 518.739 1671.15 519.73 1669.83 521.404M1670.06 518.957C1671.83 499.676 1674.13 480.485 1677.13 461.459C1680.59 439.508 1688.72 382.102 1695.24 380.922M1670.06 518.957C1669.98 519.773 1669.91 520.588 1669.83 521.404M1669.83 521.404C1667.66 524.168 1663.61 528.796 1659.19 533.717M1669.83 521.404C1665.13 573.658 1664.19 626.554 1663.41 678.62C1663.38 680.491 1663.35 682.364 1663.32 684.239M1659.19 533.717C1658.82 534.124 1658.46 534.532 1658.09 534.942M1659.19 533.717C1658.01 545.937 1656.78 558.153 1655.5 570.363M1658.09 534.942C1650.33 543.541 1641.8 552.632 1640.31 554.034C1640.03 554.299 1639.75 554.564 1639.47 554.829M1658.09 534.942C1657.18 546.747 1656.32 558.554 1655.5 570.363M1639.47 554.829C1600.37 591.763 1562.78 630.117 1526.08 669.436C1435.78 766.161 1348.12 864.933 1269.36 971.417C1232.32 1021.5 1162.12 1092.11 1139.94 1157.85M1639.47 554.829C1635.21 598.858 1631.13 642.904 1627.3 686.975C1626.89 691.754 1625.05 701.844 1623.19 713.636M1139.94 1157.85C1138.76 1161.35 1137.71 1164.84 1136.82 1168.3M1139.94 1157.85C1106.6 1160.57 1072.43 1164.93 1037.89 1169.58M1139.94 1157.85C1145.08 1157.43 1150.2 1157.05 1155.3 1156.72C1161.46 1156.31 1167.8 1155.79 1174.29 1155.2M1136.82 1168.3C1136.37 1170.04 1135.96 1171.77 1135.58 1173.5M1136.82 1168.3C1143.56 1168.21 1150.36 1168.11 1157.21 1167.99M1136.82 1168.3C1125.43 1168.46 1114.19 1168.6 1103.15 1168.72C1085.8 1168.91 1063.27 1169.2 1037.89 1169.58M1135.58 1173.5C1135.32 1174.74 1135.07 1175.98 1134.84 1177.22C1134.83 1177.29 1134.82 1177.35 1134.81 1177.42M1135.58 1173.5C1117.02 1173.07 1102.44 1172.89 1099.97 1172.94C1057.59 1173.91 1015.29 1175.75 973.06 1178.32M1135.58 1173.5C1139.75 1173.6 1144.11 1173.71 1148.58 1173.83M1134.81 1177.42C1134.36 1180.48 1137.33 1180.09 1142.49 1177.4M1134.81 1177.42C1072.96 1177.56 1011.35 1178.26 949.69 1181.26M1134.81 1177.42C1137.37 1177.41 1139.93 1177.41 1142.49 1177.4M1142.49 1177.4C1144.27 1176.47 1146.32 1175.26 1148.58 1173.83M1142.49 1177.4C1150.66 1177.39 1158.83 1177.39 1167.01 1177.39C1187.27 1177.39 1207.9 1178.07 1228.66 1178.72M1148.58 1173.83C1151.2 1172.16 1154.1 1170.19 1157.21 1167.99M1148.58 1173.83C1182.15 1174.74 1221.82 1176.35 1228.66 1178.72M1157.21 1167.99C1162.45 1164.27 1168.27 1159.89 1174.29 1155.2M1157.21 1167.99C1225.21 1166.8 1298.06 1164.19 1369.63 1155.85M1174.29 1155.2C1199.73 1135.41 1228.75 1110.15 1232.67 1106.24C1318.12 1021.02 1401.56 933.953 1487.54 849.239C1530 807.396 1573.92 754.522 1623.19 713.636M1174.29 1155.2C1215.78 1151.42 1263.42 1144.71 1307.35 1146.03M1623.19 713.636C1628.7 709.067 1634.27 704.647 1639.92 700.409M1623.19 713.636C1620.84 728.639 1618.46 746.397 1618.98 759.47M1639.92 700.409C1642.45 698.506 1645 696.639 1647.57 694.812M1639.92 700.409C1637.85 715.022 1635.62 729.615 1633.15 744.186C1633.13 744.303 1633.08 744.576 1633 744.982M1639.92 700.409C1643.77 673.121 1647.04 645.764 1650.21 618.355C1652.06 602.367 1653.82 586.369 1655.5 570.363M1647.57 694.812C1652.76 691.118 1658 687.586 1663.32 684.239M1647.57 694.812C1650.13 653.289 1652.6 611.814 1655.5 570.363M1647.57 694.812C1646.79 707.385 1646.01 719.963 1645.2 732.545M1663.32 684.239C1665.12 683.102 1666.94 681.986 1668.76 680.892M1663.32 684.239C1663.15 694.148 1662.92 704.122 1662.69 714.138M1668.76 680.892C1671.55 679.218 1674.35 677.597 1677.18 676.032M1668.76 680.892C1666.7 691.962 1664.66 703.039 1662.69 714.138M1668.76 680.892C1676.37 639.889 1684.15 598.987 1688.83 557.443C1690.42 543.272 1692.98 527.181 1695.51 510.279M1677.18 676.032C1679.86 674.546 1682.56 673.111 1685.27 671.729C1687.4 670.644 1689.28 669.763 1690.92 669.068M1677.18 676.032C1674.01 687.778 1670.49 699.404 1666.65 710.954M1677.18 676.032C1687.14 639.048 1693.52 600.878 1694.66 560.185C1695.12 543.559 1695.38 526.922 1695.51 510.279M1690.92 669.068C1707.06 662.225 1700.17 673.535 1688.37 687.444M1690.92 669.068C1690.14 675.192 1689.28 681.317 1688.37 687.444M1688.37 687.444C1681.61 695.401 1673.25 704.208 1666.65 710.954M1688.37 687.444C1682.42 727.295 1674.15 767.211 1671.49 807.329M1666.65 710.954C1665.23 712.409 1663.89 713.768 1662.67 715.002M1666.65 710.954C1665.3 715.022 1663.91 719.08 1662.49 723.13M1662.67 715.002C1662.62 715.057 1662.56 715.111 1662.51 715.166M1662.67 715.002C1662.68 714.714 1662.68 714.426 1662.69 714.138M1662.67 715.002C1662.61 717.708 1662.55 720.418 1662.49 723.13M1662.51 715.166C1659.26 718.443 1656.86 720.814 1655.96 721.714C1652.36 725.314 1648.78 728.925 1645.2 732.545M1662.51 715.166C1661.56 720.551 1660.57 725.929 1659.56 731.3M1662.51 715.166C1662.51 715.144 1662.52 715.123 1662.52 715.101C1662.58 714.78 1662.63 714.459 1662.69 714.138M1645.2 732.545C1641.12 736.678 1637.05 740.823 1633 744.982M1645.2 732.545C1644.29 746.667 1643.36 760.795 1642.37 774.929M1633 744.982C1628.31 749.794 1623.64 754.624 1618.98 759.47M1633 744.982C1631.94 750.361 1625.93 779.068 1623.09 775.72C1620.47 772.644 1619.27 766.792 1618.98 759.47M1618.98 759.47C1559.64 821.262 1503.2 885.788 1448.86 952.054C1403.27 1007.66 1333.42 1076.22 1307.35 1146.03M1307.35 1146.03C1306.61 1148.01 1305.9 1150 1305.23 1151.98C1303.68 1156.59 1310.14 1153.17 1319.4 1146.61M1307.35 1146.03C1311.4 1146.15 1315.42 1146.34 1319.4 1146.61M1319.4 1146.61C1336.25 1134.66 1362.35 1112.26 1366.26 1108.74C1433.29 1048.4 1496.74 983.986 1561.26 921.01C1571.39 911.125 1581.42 900.903 1591.43 890.504M1319.4 1146.61C1334.53 1147.62 1349.09 1149.75 1362.66 1153.45C1365.53 1154.24 1367.83 1155.04 1369.63 1155.85M1591.43 890.504C1606.22 875.139 1620.95 859.386 1635.85 843.759M1591.43 890.504C1588.03 898.921 1584.73 907.353 1581.48 915.797M1591.43 890.504C1598.46 873.1 1605.88 855.76 1613.93 838.503C1623.91 817.121 1633.5 796.02 1642.37 774.929M1635.85 843.759C1635.93 843.674 1636.02 843.588 1636.1 843.502M1635.85 843.759C1636.87 838.013 1638.31 829.251 1638.84 822.549C1640.1 806.666 1641.27 790.793 1642.37 774.929M1635.85 843.759C1634.66 850.465 1634.04 853.067 1636.1 843.502M1636.1 843.502C1644.91 834.258 1653.79 825.059 1662.78 816.012M1636.1 843.502C1636.55 841.377 1637.14 838.652 1637.88 835.238C1645.42 800.631 1653.03 766.106 1659.56 731.3M1662.78 816.012C1665.67 813.1 1668.57 810.205 1671.49 807.329M1662.78 816.012C1661.33 785.146 1661.82 753.969 1662.49 723.13M1662.78 816.012C1663.03 821.408 1663.34 826.796 1663.72 832.17M1671.49 807.329C1678.23 800.678 1685.04 794.129 1691.93 787.727M1671.49 807.329C1671.09 813.261 1670.82 819.198 1670.7 825.14M1691.93 787.727C1707.36 773.403 1723.23 759.812 1739.75 747.445C1753.06 737.484 1710.48 783.732 1691.88 803.476M1691.93 787.727C1691.95 778.83 1692 771.033 1692.52 765.502L1692.75 763.084C1698.83 698.52 1704.93 633.784 1713.54 569.506C1716.61 546.589 1723.23 522.89 1728.78 499.322M1691.93 787.727C1691.93 792.701 1691.93 798.018 1691.88 803.476M1691.88 803.476C1688.3 807.272 1685.61 810.088 1684.37 811.337C1679.82 815.94 1675.26 820.541 1670.7 825.14M1691.88 803.476C1691.62 827.956 1690.14 855.255 1680.7 866.99C1673.96 875.372 1670.62 833.729 1670.62 832.326C1670.62 829.93 1670.65 827.534 1670.7 825.14M1670.7 825.14C1668.37 827.483 1666.05 829.827 1663.72 832.17M1663.72 832.17C1636.19 859.911 1608.61 887.644 1581.48 915.797M1663.72 832.17C1664.96 849.708 1666.93 867.108 1669.94 884.25C1670.81 889.198 1671.92 894.053 1673.2 898.842M1581.48 915.797C1553.77 944.562 1526.52 973.767 1500.27 1003.87C1471.09 1037.34 1443.07 1071.86 1415.34 1106.54C1405.61 1118.7 1385.41 1137.4 1376.93 1154.98M1581.48 915.797C1566.54 954.733 1552.99 993.942 1538.23 1033.21M1376.93 1154.98C1376.08 1156.73 1375.36 1158.47 1374.76 1160.2M1376.93 1154.98C1385.56 1153.93 1394.17 1152.79 1402.75 1151.55M1376.93 1154.98C1374.5 1155.28 1372.07 1155.57 1369.63 1155.85M1374.76 1160.2C1374.39 1161.28 1374.08 1162.35 1373.82 1163.41M1374.76 1160.2C1374.37 1158.73 1372.77 1157.28 1369.63 1155.85M1374.76 1160.2C1375.05 1161.27 1374.7 1162.34 1373.82 1163.41M1373.82 1163.41C1373.55 1164.52 1373.35 1165.62 1373.22 1166.71C1372.54 1172.33 1387.05 1163.08 1402.75 1151.55M1373.82 1163.41C1369.06 1169.22 1349 1174.74 1335.1 1177.99M1402.75 1151.55C1419.6 1139.19 1437.82 1124.2 1440.16 1122.13C1473.21 1092.86 1505.89 1063.22 1538.23 1033.21M1402.75 1151.55C1423.22 1148.61 1443.51 1145.14 1463.46 1141.03M1538.23 1033.21C1566.68 1006.83 1594.87 980.157 1622.83 953.224C1638.03 938.587 1654.99 918.39 1673.2 898.842M1538.23 1033.21C1534.35 1043.55 1530.38 1053.9 1526.28 1064.24C1512.48 1099.07 1490.76 1123.68 1463.46 1141.03M1673.2 898.842C1694.1 876.4 1716.63 854.813 1739.99 843.474M1673.2 898.842C1675.27 906.583 1677.78 914.152 1680.44 921.658M1739.99 843.474C1742.71 842.154 1745.44 840.973 1748.18 839.946C1752.34 838.388 1746.11 847.471 1737.61 858.331M1739.99 843.474C1739.21 848.43 1738.42 853.383 1737.61 858.331M1739.99 843.474C1751.25 771.973 1759.39 699.766 1759.87 628.492C1760.19 581.696 1734.08 543.789 1728.78 499.322M1737.61 858.331C1727.3 871.501 1713.66 887.282 1711.16 889.87C1700.92 900.476 1690.67 911.059 1680.44 921.658M1737.61 858.331C1732.05 892.313 1725.86 926.11 1719.53 959.544M1680.44 921.658C1642.49 961.009 1604.89 1000.58 1569.53 1042.43C1547.08 1069 1516.3 1099.95 1497.68 1133.25M1680.44 921.658C1686.66 939.19 1693.66 956.385 1697.65 974.656C1698.1 976.724 1698.47 978.769 1698.75 980.79M1497.68 1133.25C1492.43 1142.63 1488.15 1152.2 1485.29 1161.92C1477.41 1188.73 1525.8 1148.69 1530.99 1144.41L1531.06 1144.35C1544.26 1133.43 1557.31 1122.28 1570.2 1110.94M1497.68 1133.25C1522.64 1127.02 1546.91 1119.65 1570.2 1110.94M1497.68 1133.25C1486.4 1136.07 1474.99 1138.65 1463.46 1141.03M1570.2 1110.94C1601.49 1083.41 1631.87 1054.76 1661.42 1025.49C1666.4 1020.56 1682.94 998.89 1698.75 980.79M1570.2 1110.94C1581.6 1106.67 1592.77 1102.08 1603.67 1097.14C1619.22 1090.09 1635.86 1081.13 1650.83 1070.21M1698.75 980.79C1706.29 972.168 1713.66 964.354 1719.53 959.544M1698.75 980.79C1700.27 991.507 1699.48 1001.57 1696.91 1010.98M1719.53 959.544C1723.52 956.279 1726.82 954.397 1729.02 954.585C1732.56 954.888 1723.12 971.331 1714.7 984.844M1719.53 959.544C1718.03 967.478 1716.52 975.392 1715.01 983.282C1714.91 983.804 1714.81 984.324 1714.7 984.844M1714.7 984.844C1709.13 993.799 1704 1001.47 1703.39 1002.3C1701.27 1005.18 1699.11 1008.08 1696.91 1010.98M1714.7 984.844C1703.35 1043.51 1687.42 1094.01 1649.63 1141.44C1638.91 1154.89 1576.32 1230.84 1595.42 1168.75C1606.23 1133.58 1627.55 1101.1 1650.83 1070.21M1696.91 1010.98C1682.32 1030.24 1666.15 1049.88 1650.83 1070.21M1696.91 1010.98C1690.38 1034.84 1672.32 1054.54 1650.83 1070.21M1728.78 499.322C1727.91 491.985 1727.6 484.469 1728.07 476.705C1728.46 470.306 1737.79 440.737 1737.56 445.341C1736.71 462.975 1733.07 481.109 1728.78 499.322ZM1686.34 297.289C1683.93 293.777 1680.94 290.883 1677.25 288.832M1642.37 774.929C1648.48 760.411 1654.25 745.897 1659.56 731.3M1659.56 731.3C1660.56 728.58 1661.53 725.857 1662.49 723.13M1695.51 510.279C1701.8 468.163 1707.9 421.017 1698.5 386.028C1697.49 382.25 1696.39 380.715 1695.24 380.922M1695.51 510.279C1695.83 467.165 1695.29 424.014 1695.24 380.922M1463.46 1141.03C1436.74 1158.01 1404.67 1168.03 1369.44 1173.86C1358.12 1175.74 1346.66 1177.07 1335.1 1177.99M1037.89 1169.58C1004.91 1170.08 967.136 1170.75 929.685 1171.62M1037.89 1169.58C1016.38 1172.48 994.737 1175.5 973.06 1178.32M929.685 1171.62C913.96 1176.28 882.215 1180.41 867.783 1183.43C859.607 1185.14 851.413 1186.79 843.204 1188.38M819.689 1190.62C822.037 1190.62 824.388 1190.6 826.741 1190.58M819.689 1190.62C774.356 1195.07 729.083 1200.15 683.852 1205.69M819.689 1190.62C827.526 1189.86 835.364 1189.11 843.204 1188.38M826.741 1190.58C828.533 1190.56 830.326 1190.53 832.121 1190.49M826.741 1190.58C779.531 1195.3 731.781 1200.92 683.852 1205.69M826.741 1190.58C830.191 1190.23 833.637 1189.89 837.081 1189.56M832.121 1190.49C870.823 1189.76 910.24 1186.03 949.69 1181.26M832.121 1190.49C833.775 1190.18 835.428 1189.87 837.081 1189.56M949.69 1181.26C957.481 1180.31 965.272 1179.33 973.06 1178.32M949.69 1181.26C923.372 1182.53 897.043 1184.23 870.681 1186.48C859.517 1187.43 848.315 1188.46 837.081 1189.56M973.06 1178.32C929.708 1180.95 886.427 1184.36 843.204 1188.38M1335.1 1177.99C1328.9 1179.44 1323.92 1180.44 1322.07 1180.81C1228.67 1199.4 1134.11 1207.61 1039.21 1211.46M1335.1 1177.99C1300.07 1180.79 1264.18 1179.82 1228.66 1178.72M1039.21 1211.46C1054 1209.51 1068.77 1207.58 1083.52 1205.68C1103.53 1203.09 1218.68 1201.8 1229.66 1179.56C1229.81 1179.27 1229.45 1178.99 1228.66 1178.72M468.289 1234.52C430.256 1237.8 444.021 1237.28 468.289 1234.52ZM468.289 1234.52C474.915 1233.76 482.325 1232.84 489.677 1231.79C492.24 1231.42 494.803 1231.05 497.366 1230.69M843.204 1188.38C841.164 1188.77 839.123 1189.17 837.081 1189.56M399.008 1232.35C385.232 1231.11 374.441 1228.41 380.307 1222.67C385.152 1217.93 390.994 1213.77 397.567 1210.09M1104.49 212.729C1092.11 212.91 1079.73 213.086 1067.4 213.258M1104.49 212.729C1107.59 209.803 1110.71 206.849 1113.82 203.896M1104.49 212.729C1078.77 236.997 1054.42 259.327 1049.56 263.286C1024.55 283.669 999.922 304.615 975.689 326.07M1067.4 213.258C1062.87 213.321 1058.36 213.383 1053.85 213.444M1067.4 213.258C1069.49 210.692 1071.58 208.125 1073.66 205.557M1067.4 213.258C1036.72 250.917 1006.04 288.357 975.689 326.07M1053.85 213.444C1000.87 270.981 951.327 331.621 902.828 393.238M1053.85 213.444C1054.6 212.629 1055.35 211.815 1056.1 211C1057.57 209.409 1059.07 207.813 1060.57 206.225M1066.55 200.035C1070.71 199.659 1074.88 199.282 1079.04 198.904M1066.55 200.035C1064.56 202.06 1062.56 204.135 1060.57 206.225M1066.55 200.035C1089.1 177.069 1109.72 160.465 1079.04 198.904M1079.04 198.904C1093.81 197.561 1108.57 196.204 1123.31 194.854M1079.04 198.904C1077.69 200.588 1076.25 202.378 1074.71 204.279C1074.36 204.705 1074.01 205.131 1073.66 205.557M1123.31 194.854C1120.18 197.846 1117.01 200.871 1113.82 203.896M1113.82 203.896C1100.37 204.368 1086.98 204.912 1073.66 205.557M1073.66 205.557C1069.9 205.74 1066.14 205.93 1062.39 206.129L1060.57 206.225M975.689 326.07C950.98 347.948 926.685 370.356 902.828 393.238M975.689 326.07C942.67 367.099 910.045 408.451 878.259 450.757C773.062 590.766 672.673 734.337 566.115 873.337C547.298 897.883 526.899 922.394 506.779 947.378M902.828 393.238C838.547 454.891 777.44 519.985 719.959 587.426C647.886 671.989 568.44 755.718 507.205 848.77C493.468 869.644 496.097 875.517 515.711 857.485C564.031 813.062 605.335 759.212 648.777 710.175C738.498 608.9 819.102 499.611 902.828 393.238ZM506.779 947.378C522.994 931.354 539.194 915.383 555.481 899.64C674.38 784.711 783.043 659.008 895.944 538.271C927.353 504.682 959.568 471.673 991.756 438.608M506.779 947.378C457.276 996.299 407.64 1045.71 355.008 1090.62C322.011 1118.78 387.11 1050.69 394.217 1043.9M991.756 438.608C1013.77 411.201 1036 383.947 1058.67 357.011C1084.03 326.891 1110.54 297.177 1140.02 270.98C1162.2 251.272 1151.45 266.674 1139.4 280.628C1092.37 335.048 1042.09 386.897 991.756 438.608Z" stroke="#0505D1" stroke-opacity="0.42" stroke-width="63" stroke-linecap="round" stroke-linejoin="round"/>
</svg>
