<svg width="1221" height="902" viewBox="0 0 1221 902" fill="none" xmlns="http://www.w3.org/2000/svg">
<path d="M1052.05 722.461C1050.69 722.461 1050.56 722.033 1052.22 722.151C1062.59 722.888 1073.08 722.415 1083.47 722.415C1086.15 722.415 1088.97 722.359 1091.62 722.829C1092.94 723.064 1090.4 723.042 1090.17 723.042C1080.9 723.042 1071.67 723.164 1062.41 723.559C1060.52 723.639 1058.64 723.719 1056.75 723.749C1056.32 723.756 1054.82 723.996 1054.44 723.721C1054.15 723.513 1057.68 723.235 1057.99 723.231C1063.24 723.152 1068.52 723.066 1073.75 723.568C1078.73 724.044 1083.68 724.863 1088.68 724.996C1091.07 725.059 1085.09 724.427 1084.51 724.329C1078.53 723.328 1072.71 722.137 1066.61 722.007C1062.7 721.924 1050.98 722.622 1054.89 722.622" stroke="#DC5353" stroke-opacity="0.69" stroke-width="17" stroke-linecap="round" stroke-linejoin="round"/>
<path d="M1011.19 701.373C1011.14 701.192 1010.55 699.109 1010.62 699.982C1010.79 702.032 1012.96 704.722 1013.91 706.422C1018.96 715.449 1024.28 724.426 1030.21 732.883C1034.15 738.504 1022.7 721.375 1019.17 715.476C1016.16 710.442 1013.44 705.151 1011.29 699.662C1011.17 699.346 1009.77 696.297 1010.03 697.15C1011.09 700.508 1013.61 703.81 1015.28 706.863C1018.45 712.658 1021.4 718.725 1024.99 724.257C1025.13 724.471 1026.82 727.017 1026.39 726.11C1024.77 722.699 1022.57 719.425 1020.68 716.17C1019.17 713.58 1017.62 711.018 1016.14 708.415C1015.48 707.256 1013.83 703.64 1014.14 704.945C1014.6 706.872 1015.66 708.739 1016.56 710.461C1019.69 716.423 1023.53 722.079 1027.2 727.697C1027.64 728.374 1031.95 734.127 1032 733.643" stroke="#DC5353" stroke-opacity="0.69" stroke-width="17" stroke-linecap="round" stroke-linejoin="round"/>
<path d="M658.379 775.936C658.417 777.096 659.115 781.748 657.307 778.266C651.061 766.237 650.64 752.215 651.162 738.915C651.524 729.694 654.74 724.157 659.625 716.985C664.072 710.458 671.517 724.99 673.167 728.341C677.335 736.805 672.03 725.623 671.111 722.828C667.521 711.906 664.159 697.986 670.571 687.379C673.918 681.842 679.08 689.929 680.839 692.716C684.879 699.117 681.619 687.925 681.338 685.335C680.18 674.674 682.452 664.874 687.888 655.639C691.477 649.542 695.718 648.487 700.903 653.425C702.678 655.115 704.353 661.866 704.353 657.843C704.353 649.141 707.817 641.046 713.29 634.423C716.961 629.983 724.291 624.473 730.417 625.041C735.681 625.529 730.697 640.017 730.264 642.612C730.234 642.788 733.234 638.56 734.102 637.511C737.205 633.764 741.126 630.496 745.198 627.861C748.459 625.75 755.307 623.754 758.567 627.035C761.405 629.891 760.962 633.048 757.817 634.988C754.673 636.928 752.845 638.37 757.622 638.37C760.548 638.37 763.476 638.052 766.395 638.125C768.817 638.185 770.141 642.034 771.663 643.526C775.862 647.645 781.392 651.252 784.267 656.576C786.574 660.848 785.472 667.391 783.863 671.762C783.503 672.741 781.264 673.033 782.127 673.547C786.65 676.24 787 681.55 787 686.345C787 691.494 784.626 693.703 780.537 696.424C776.887 698.852 780.761 705.801 779.406 709.318C778.377 711.991 774.298 715.536 774.298 718.217C774.298 720.076 775.256 721.601 776.186 723.171C778.383 726.877 779.928 731.006 780.845 735.218C782.119 741.077 781.877 746.27 777.901 750.922C775.705 753.492 773.958 753.626 776.33 757.109C780.102 762.647 783.796 767.068 783.829 774.223C783.866 782.063 775.371 782.629 769.232 784" stroke="#1FDE3D" stroke-opacity="0.66" stroke-width="19" stroke-linecap="round" stroke-linejoin="round"/>
<path d="M662.703 740.834C662.703 739.512 660.565 735.498 658.933 737.583C655.009 742.596 655.867 752.816 656.736 758.592C658.376 769.5 661.239 758.063 662.38 753.502C663.495 749.044 664.617 744.489 665.114 739.911C665.621 735.228 664.915 739.72 664.621 741.695C663.542 748.932 661.949 765.904 670.801 769.324C680.58 773.101 685.272 744.52 686.609 739.152C688.025 733.47 689.077 727.714 689.789 721.9C690.148 718.968 688.582 727.685 688.065 730.593C686.771 737.869 685.924 745.289 685.453 752.664C685.291 755.194 683.652 764.143 685.456 766.228C685.71 766.522 687.218 758.04 687.292 757.325C688.223 748.293 688.661 739.146 688.759 730.07C688.856 721.016 689.368 711.602 688.207 702.596C687.881 700.072 686.724 697.251 684.361 700.175C682.489 702.491 671.681 722.439 675.679 724.581C681.536 727.719 693.03 701.207 694.568 698.202C697.62 692.241 700.899 686.347 703.78 680.301C704.21 679.399 705.91 676.216 703.902 678.002C698.914 682.437 694.654 687.461 689.16 691.355C686.932 692.934 688.29 691.273 689.208 690.058C693.088 684.927 696.403 679.432 699.819 673.987C704.398 666.691 709.222 659.56 715.022 653.176C715.301 652.869 719.082 648.504 719.116 650.29C719.184 653.954 716.562 658.278 715.115 661.502C711.977 668.5 708.569 675.43 706.433 682.827C705.729 685.264 703.272 693.259 706.261 695.096C709.601 697.148 713.354 691.557 714.842 689.444C724.882 675.187 731.108 657.78 742.69 644.641C744.191 642.939 745.999 641.431 745.662 644.685C745.143 649.684 742.307 654.865 740.671 659.577C738.678 665.315 731.965 682.74 739.309 687.275C747.001 692.024 759.129 674.601 763.425 670.411C767.399 666.536 775.214 660.48 775.281 669.946C775.319 675.43 773.971 680.611 773.069 685.995C771.858 693.216 771.366 700.516 770.942 707.819C770.29 719.082 769.225 730.277 766.781 741.301C766.327 743.35 764.429 755.185 764.51 747.573C764.628 736.513 766.28 724.601 768.453 713.781C769.505 708.544 768.778 714.467 768.369 716.296C766.737 723.58 765.328 730.911 763.696 738.195C761.125 749.668 757.752 766.704 746.691 773.39C738.08 778.596 730.722 756.94 728.696 752.071C723.789 740.28 720.375 727.915 715.548 716.099C710.66 704.136 702.33 729.156 701.089 732.317C700.212 734.552 690.636 760.46 695.585 761.001C698.793 761.352 702.313 753.954 703.509 751.876C709.474 741.501 714.917 730.848 721.092 720.59C722.986 717.443 743.975 682.481 751.079 695.749C754.053 701.303 753.51 709.057 753.605 715.133C753.753 724.574 753.307 733.966 753.091 743.399C753.024 746.338 751.062 770.618 759.38 764.637C763.609 761.597 765.666 755.656 767.491 751.031C771.261 741.479 774.039 731.722 776.344 721.718C777.065 718.588 777.782 715.458 778.635 712.361C778.983 711.096 779.348 707.497 779.964 708.655C780.494 709.652 774.993 717.397 774.481 718.371C769.865 727.15 765.634 736.14 760.744 744.771C756.149 752.882 751.031 762.796 743.588 768.707C731.507 778.302 732.274 748.793 732.123 743.524C731.824 733.124 732.015 722.687 732.076 712.284C732.096 708.907 733.809 698.65 729.483 696.842C725.308 695.097 720.717 699.997 717.964 702.438C710.993 708.621 705.188 716.447 700.142 724.246C694.862 732.408 690.229 741.169 688.295 750.791C687.23 756.087 685.5 765.103 689.303 769.788C696.522 778.681 710.679 748.397 712.277 745.244C718.535 732.896 723.817 720.241 728.69 707.288C731.778 699.078 734.178 688.251 740.161 681.562C747.34 673.537 747.789 694.115 748.235 697.215C749.998 709.479 752.484 721.643 754.705 733.829C755.661 739.078 756.511 744.381 757.756 749.571C758.122 751.093 758.478 753.695 759.966 754.636C762.241 756.075 762.852 748.989 762.894 748.143C763.352 738.981 762.235 729.854 760.615 720.852C757.448 703.256 754.355 685.046 749.523 667.822C748.471 664.07 747.314 660.357 746.012 656.686C745.739 655.916 744.482 654.536 745.387 654.536C751.119 654.536 757.003 654.561 761.375 658.877C764.794 662.253 766.999 667.101 768.668 671.545C770.244 675.739 771.151 681.722 774.049 685.247C775.489 686.997 776.199 684.226 776.371 683.158C777.298 677.415 777.009 671.043 776.713 665.263C776.353 658.236 775.395 650.999 773.997 644.102C773.494 641.618 772.563 641.432 770.738 643.036C763.426 649.464 758.98 658.58 751.615 665.063C747.065 669.067 736.871 679.081 731.206 671.757C729.508 669.562 726.5 653.755 725.217 653.917C722.25 654.291 718.938 660.485 717.476 662.595C712.273 670.101 707.566 678.114 703.511 686.298C698.911 695.579 694.677 705.035 692.274 715.152C690.984 720.585 688.821 728.691 692.306 733.763C703.35 749.834 749.717 683.098 757.949 709.808C761.995 722.938 754.449 740.017 750.159 752.15C747.475 759.74 744.92 767.386 742.314 775" stroke="#1FDE3D" stroke-opacity="0.66" stroke-width="19" stroke-linecap="round" stroke-linejoin="round"/>
<path d="M17.299 440.225C17.3869 441.632 17.1335 441.813 15.7882 442.649C12.3383 444.791 21.1734 436.567 23.8035 433.472C52.1234 400.146 83.5924 370.808 113.436 338.923C132.604 318.445 151.621 297.27 172.397 278.4C194.272 258.532 216.253 238.216 236.018 216.224C272.738 175.369 305.72 131.459 342.088 90.3269C363.068 66.5982 385.343 42.9975 403.252 16.7673C408.029 9.7717 388.611 25.4352 382.126 30.8836C361.69 48.0545 344.198 67.5689 326.018 87.0376C268.817 148.293 204.203 203.228 151.281 268.434C128.092 297.006 105.86 326.369 82.2948 354.633C73.8811 364.724 65.9512 375.211 56.758 384.625C56.0756 385.324 48.0812 392.567 47.9892 391.912" stroke="black" stroke-opacity="0.21" stroke-width="29" stroke-linecap="round" stroke-linejoin="round"/>
<path d="M85 429C83.9019 430.137 82.6516 430.412 82 432" stroke="black" stroke-opacity="0.21" stroke-width="29" stroke-linecap="round" stroke-linejoin="round"/>
<path d="M27.6213 433.386C25.9994 436.119 27.6961 434.554 31.0491 434.554C38.7969 434.554 46.4919 434.517 54.2138 433.745C92.148 429.954 129.84 422.89 167.664 418.078C224.55 410.842 280.825 401.811 338.145 398.348C397.014 394.792 455.63 388.09 514.401 383.285C559.613 379.588 604.264 373.069 649.33 368.141C677.59 365.051 705.723 362.396 733.835 358.085C739.295 357.247 749.268 358.168 754.204 355.359C754.957 354.93 755.552 353.552 754.163 354.147" stroke="black" stroke-opacity="0.21" stroke-width="29" stroke-linecap="round" stroke-linejoin="round"/>
<path d="M369.384 46.5664C367.251 44.3016 359.639 39.6375 362.728 40.0224C369.341 40.8466 378.935 50.837 383.761 54.5992C409.629 74.7619 435.39 95.0629 460.875 115.701C486.984 136.844 510.864 160.45 535.631 183.093C576.229 220.209 622.346 251.264 663.661 287.648C680.91 302.838 696.587 319.38 713.305 335.071C714.958 336.623 727.858 349.5 724.928 347.411C684.777 318.787 646.212 287.692 607.357 257.378C588.251 242.473 570.264 225.307 555.78 205.817C554.263 203.775 541.03 184.921 546.159 188.335C562.617 199.288 576.858 215.04 591.526 228.199C614.192 248.535 635.793 269.985 657.923 290.891C676.101 308.064 693.625 325.874 711.651 343.198C717.163 348.496 722.289 354.183 727.787 359.488C728.111 359.801 731.937 363.213 732 362.99" stroke="black" stroke-opacity="0.21" stroke-width="29" stroke-linecap="round" stroke-linejoin="round"/>
<path d="M90 395.963C90.8897 395.874 91.0525 391.426 91.3314 390.705C94.9586 381.331 103.532 372.977 109.727 365.381C128.549 342.302 145.436 317.419 166.859 296.587C180.713 283.117 194.218 266.912 210.431 256.246C219.91 250.01 220.215 248.226 211.868 257.987C192.393 280.763 174.786 305.048 155.358 327.89C138.691 347.485 119.74 366.339 105.696 387.977C103.385 391.537 101.06 395.359 106.612 391.244C116.989 383.553 125.449 373.072 134.203 363.698C167.241 328.321 200.653 293.348 233.479 257.755C258.384 230.751 281.981 199.517 312.074 177.877C321.215 171.304 299.519 189.962 297.264 192.205C273.443 215.904 250.074 239.713 230.383 267.045C220.008 281.445 209.31 295.973 200.686 311.511C198.372 315.68 192.221 324.883 193.911 330.164C195.169 334.096 206.821 321.856 207.37 321.251C221.404 305.77 234.209 289.181 246.475 272.293C277.674 229.338 306.909 185.366 336.499 141.32C338.207 138.779 364.348 97.3484 351.355 107.087C328.61 124.135 309.796 150.816 291.724 172.454C271.691 196.44 249.789 221.541 235.674 249.635C226.924 267.051 262.201 221.012 275.233 206.493C305.323 172.967 337.342 141.615 372.038 112.804C373.183 111.853 386.365 100.433 388.277 105.128C390.577 110.778 380.143 121.936 377.458 125.872C354.123 160.072 327.052 191.193 301.148 223.403C292.048 234.718 282.987 246.001 273.57 257.055C271.083 259.974 269.328 262.533 274.566 260.038C285.512 254.825 294.744 245.002 303.382 236.803C319.171 221.816 335.538 207.593 352.508 193.949C355.992 191.147 413.326 150.121 411.727 163.881C410.734 172.423 399.966 181.758 394.507 187.582C381.997 200.927 368.25 213.111 355.329 226.056C342.834 238.576 330.109 250.778 317.261 262.936C312.68 267.271 298.703 279.287 304.58 276.971C314.064 273.233 322.769 263.959 330.631 257.792C348.018 244.155 365.331 230.359 383.357 217.562C387.051 214.939 449.076 172.056 453.962 187.122C455.985 193.358 444.49 202.99 441.067 206.673C428.553 220.137 415.245 233.042 401.748 245.522C388.92 257.385 375.417 268.526 362.311 280.082C358.375 283.553 346.553 293.464 351.392 291.416C359.768 287.872 367.447 280.65 374.734 275.395C390.719 263.869 406.606 252.185 423.336 241.736C438.523 232.25 454.691 224.292 471.083 217.094C476.535 214.701 483.142 211.33 489.327 211.679C491.232 211.787 459.711 250.698 456.229 254.073C444.298 265.64 431.675 276.477 419.627 287.922C414.045 293.225 405.457 299.544 402.11 306.765C401.128 308.884 411.635 304.597 412.057 304.363C424.996 297.218 436.938 287.948 449.202 279.737C471.203 265.007 498.553 241.83 526.438 240.76C536.09 240.389 504.947 266.154 501.999 268.539C485.59 281.81 461.552 295.398 449.984 313.494C448.009 316.583 459.167 311.822 459.876 311.467C473.253 304.773 486.121 297.103 499.387 290.196C525.263 276.725 555.699 258.239 585.232 254.788C602.457 252.775 588.744 271.113 583.974 276.964C569.742 294.419 550.889 306.944 536.272 323.769C525.301 336.397 567.39 318.897 570.422 317.369C593.445 305.768 617.303 291.531 642.737 285.79C659.148 282.086 640.935 296.524 636.702 300.201C621.528 313.388 604.476 324.231 589.704 337.933C574.171 352.34 588.787 346.3 599.34 340.44C617.165 330.541 634.501 316.568 653.742 309.634C667.211 304.78 634.762 316.81 631.716 317.729C548.747 342.765 463.668 367.501 376.351 370.173C352.896 370.891 330.128 369.54 309.275 357.864C304.264 355.059 292.563 346.444 300.191 340.312C317.212 326.629 343.366 320.417 363.541 313.224C402.737 299.249 443.991 291.87 485.536 289.949C490.091 289.738 535.783 284.857 536.481 292.137C537.647 304.302 482.473 320.736 474.757 323.647C425.11 342.376 373.542 356.501 322.243 369.948C274.337 382.506 225.269 394.55 175.715 398.2C168.448 398.735 129.626 404.535 126.95 391.981C125.278 384.141 172.688 370.643 177.485 369.016C223.887 353.279 271.685 342.888 319.548 332.652C369.928 321.879 419.847 307.456 471.4 303.451C483.554 302.507 496.295 301.33 508.49 302.363C511.33 302.604 518.621 304.971 513.831 308.559C505.217 315.011 492.405 317.773 482.398 321.109C462.999 327.575 443.317 332.735 423.395 337.332C333.865 357.991 242.168 369.735 150.36 372.785C134.361 373.317 173.245 352.952 176.486 351.113C222.348 325.076 269.055 301.856 316.426 278.668C360.446 257.119 404.956 229.786 452.278 215.916C454.478 215.271 472.415 209.504 473.979 213.445C476.345 219.402 457.759 229.209 454.41 231.228C413.48 255.902 368.29 275.599 324.544 294.687C300.845 305.027 276.931 314.809 252.086 322.099C241.085 325.327 228.102 329.632 216.429 327.657C197.968 324.535 243.352 276.346 246.579 272.594C277.677 236.44 312.715 203.744 344.608 168.281C346.28 166.422 367.421 141.37 364.047 141.328C355.051 141.216 345.784 154.4 342.491 161.783C319.538 213.24 425.144 240.271 458.18 243.492C475.764 245.207 500.04 247.774 514.071 234.219C525.802 222.886 522.481 204.343 515.597 191.507C495.946 154.862 442.827 114.9 398.915 118.105C395.962 118.321 403.137 126.068 403.512 126.493C411.92 136.004 419.889 145.891 428.104 155.564C456.022 188.439 485.614 216.535 521.039 241.285C543.796 257.185 567.155 272.252 588.873 289.566C592.795 292.692 596.885 296.216 601.41 298.481C601.92 298.736 595.688 291.584 594.444 289.994C577.437 268.26 564.085 244.725 545.023 224.418C518.625 196.298 485.449 182.003 455.455 158.989C440.867 147.796 428.414 135.238 415.085 122.838C402.868 111.472 438.979 146.18 449.932 158.758C498.491 214.525 544.038 271.606 607.294 311.933C619.467 319.693 619.126 316.968 611.234 306.675C592.227 281.884 571.811 257.889 548.307 237.191C513.056 206.148 474.155 182.12 430.521 164.547C400.8 152.577 372.801 141.514 340.25 142.311C323.107 142.731 303.736 146.44 294.228 162.203C285.939 175.947 295.214 191.056 307.237 198.814C326.33 211.134 355.285 208.073 375.831 201.925C397.768 195.361 426.882 184.287 443.341 167.566C447.588 163.252 437.964 165.525 435.855 165.965C422.521 168.75 409.816 174.221 397.285 179.388C350.575 198.646 306.623 222.409 261.713 245.357C245.99 253.392 230.039 261.11 214.799 270.04C209.587 273.094 198.749 277.619 196.189 283.708C194.375 288.021 245.637 280.312 248.991 279.594C295.415 269.668 341.459 259.275 388.848 254.908C427.52 251.345 467.322 249.133 504.593 261.99C518.285 266.713 539.225 281.4 529.235 298.646C516.915 319.911 478.621 326.786 457.069 331.819C377.865 350.317 299.518 327.145 220.238 335.972C213.243 336.751 186.602 335.279 181.579 341.948C178.845 345.578 208.92 349.137 210.369 349.202C302.955 353.399 391.833 318.347 483.594 312.045C514.708 309.909 545.935 305.185 577.148 305.106C592.249 305.068 561.335 311.582 558.442 312.321C520.984 321.893 484.148 333.939 446.22 341.635C389.555 353.132 331.512 356.727 274.405 365.516C235.991 371.429 198.061 378.787 160.878 390.142C145.159 394.943 136.94 398.614 158.486 398.995C193.203 399.61 227.794 391.246 261.904 385.611C315.981 376.678 370.216 368.082 424.755 362.443C484.586 356.256 544.467 353.704 603.888 343.744C606.501 343.306 618.909 342.339 619.217 338.248C619.299 337.155 616.891 334.682 616.198 335.91" stroke="black" stroke-opacity="0.21" stroke-width="29" stroke-linecap="round" stroke-linejoin="round"/>
<path d="M843.224 692.382C843.263 691.565 843.442 690.766 843.442 689.913C843.442 687.508 843.193 693.014 843.186 693.339C842.983 702.248 843.247 711.17 843.247 720.081C843.247 722.374 843.46 724.807 842.978 727.062C842.953 727.178 842.599 728.458 842.379 727.825C841.95 726.596 842.006 725.087 842.003 723.802C841.996 720.347 842.003 716.891 842.003 713.436C842.003 705.197 842.224 697.075 843.003 688.88C843.419 684.499 842.496 697.675 842.493 702.077C842.489 707.659 842.216 713.357 842.833 718.912C842.881 719.347 843.167 722.22 844 721.49" stroke="#1016AA" stroke-opacity="0.44" stroke-width="19" stroke-linecap="round" stroke-linejoin="round"/>
<path d="M923 691.232C923 690.503 922.748 689.905 922.668 689.202C922.553 688.193 922.58 691.234 922.516 692.248C921.948 701.236 922.311 710.313 921.247 719.27C921.032 721.08 920.738 726.41 920.297 724.648C919.72 722.347 920.155 719.353 920.19 717.008C920.265 712.085 920.246 707.148 920.78 702.25" stroke="#1016AA" stroke-opacity="0.44" stroke-width="19" stroke-linecap="round" stroke-linejoin="round"/>
<path d="M844.944 730C843.567 730 843.714 728.619 845.27 728.563C852.6 728.301 859.886 727.816 867.228 727.816C883.439 727.816 899.583 726.489 915.8 727.343C917.399 727.427 919.39 728.027 920.949 727.536C921.294 727.427 919.789 727.375 919.64 727.367C916.753 727.215 913.852 727.192 910.962 727.11C899.917 726.796 888.917 727.198 877.888 727.75C872.4 728.025 866.996 728.636 861.536 729.195C857.86 729.571 853.693 730.089 850.014 729.449" stroke="#1016AA" stroke-opacity="0.44" stroke-width="19" stroke-linecap="round" stroke-linejoin="round"/>
<path d="M841.654 693C840.753 692.829 838.765 691.895 841.083 692.538C842.822 693.019 844.815 692.851 846.581 692.772C851.468 692.554 856.331 691.809 861.226 691.634C878.609 691.012 895.985 691.492 913.357 690.193C914.091 690.138 921.888 689.242 921.999 690.45C922.052 691.024 919.255 691.359 918.834 691.402C913.862 691.909 908.822 691.401 903.866 690.945C896.709 690.287 889.58 689.514 882.406 689.153C878.461 688.954 874.617 688.751 870.775 689.924" stroke="#1016AA" stroke-opacity="0.44" stroke-width="19" stroke-linecap="round" stroke-linejoin="round"/>
<path d="M867.511 692.187C867.51 692.037 867.206 689.995 867.187 690C866.994 690.049 867.171 693.211 867.171 693.429C867.171 701.403 867.363 709.376 867.373 717.348C867.376 719.345 867.576 721.447 867.341 723.438C867.282 723.933 867.102 724.339 867.066 723.578C866.799 717.94 867.391 712.328 868 706.721" stroke="#1016AA" stroke-opacity="0.44" stroke-width="19" stroke-linecap="round" stroke-linejoin="round"/>
<path d="M903 692.408C902.836 691.023 902.128 689.817 901.942 688.452C901.701 686.681 901.89 690.663 901.89 690.986C901.89 701.664 901 712.334 901 723" stroke="#1016AA" stroke-opacity="0.44" stroke-width="19" stroke-linecap="round" stroke-linejoin="round"/>
<path d="M132.236 464.327C132.236 453.109 124.815 441.941 123.011 430.658C122.847 429.633 122.535 422.987 122.535 427.248C122.535 440.497 125.931 454.693 129.428 468.349M129.428 468.349C129.734 469.545 130.041 470.738 130.347 471.925M129.428 468.349C130.137 475.49 131.009 483.411 131.705 487.748C139.048 533.548 146.547 579.356 155.906 624.796C162.337 656.021 167.759 688.983 177.24 719.696M129.428 468.349C128.396 457.961 127.71 449.225 128.418 455.574C129.026 461.025 129.67 466.475 130.347 471.925M130.347 471.925C131.762 477.42 133.146 482.805 134.279 487.981C143.846 531.687 151.966 575.693 161.362 619.44C167.948 650.101 175.181 681.284 179.332 712.389C179.808 715.958 184.787 742.385 179.847 727.77C178.944 725.098 178.076 722.406 177.24 719.696M130.347 471.925C139.424 544.981 154.538 617.816 170.837 689.429C173.104 699.389 175.159 709.525 177.24 719.696M177.24 719.696C178.624 726.459 180.019 733.237 181.495 739.989M181.495 739.989C184.603 754.205 188.071 768.304 192.552 781.9C195.755 791.619 203.549 820.953 203.107 810.729C202.398 794.318 192.84 775.185 188.261 759.275C186.375 752.721 183.858 746.377 181.495 739.989ZM181.495 739.989C179.936 735.776 178.445 731.545 177.245 727.221M119.572 419.781C124.09 420.25 137.082 418.919 126.419 422.998C113.835 427.812 100.196 430.185 86.5193 431.884M86.5193 431.884C77.1179 433.051 67.6988 433.9 58.5923 435.004C53.7722 435.588 68.195 433.183 72.695 431.359C81.9691 427.602 91.4654 423.293 101.199 420.865C108.285 419.097 93.688 428.518 92.1743 429.306C90.3133 430.275 88.4273 431.128 86.5193 431.884ZM86.5193 431.884C77.4052 435.494 67.7874 436.899 57.9774 438.218C42.1408 440.347 34.3889 442.353 41.3099 427.338C52.1046 403.918 76.1517 383.797 93.2985 365.449C145.65 309.43 199.253 254.111 253.159 199.586C287.975 164.371 327.598 133.173 356.57 92.6045C363.259 83.238 352.529 90.2958 349.023 93.1859C333.444 106.025 319.218 120.672 304.399 134.364C256.534 178.59 213.963 229.251 170.58 277.852C160.764 288.849 151.536 300.353 141.764 311.376C139.982 313.386 151.671 298.607 153.788 296.028C202.975 236.102 254.241 178.54 307.015 121.722C325.759 101.543 344.094 80.9696 361.25 59.4152C366.379 52.9712 360.054 56.2025 357.144 59.429M378.027 48.6238C378.027 41.646 366.916 25.3108 383.607 39.824C407.988 61.0235 429.169 87.097 451.764 110.149C485.405 144.47 518.837 179.654 554.556 211.854M554.556 211.854C554.982 212.238 555.409 212.622 555.836 213.006C583.05 237.447 612.816 260.677 642.455 282.107L643.147 282.607C660.61 295.231 678.897 308.451 692.352 325.535C700.627 336.04 672.606 315.865 670.472 313.956C642.014 288.506 612.939 263.836 584.176 238.732C574.063 229.905 564.193 220.964 554.556 211.854ZM554.556 211.854C528.542 187.263 504.223 161.444 481.402 133.343C470.933 120.451 457.636 108.167 450.328 92.9883C445.443 82.8403 461.568 98.2437 462.996 99.646C490.564 126.719 517.446 154.482 545.029 181.541C595.84 231.385 648.463 279.597 700.228 328.479C718.493 345.726 773.185 397.451 753.753 381.532M736.342 389.095C742.99 388.955 742.461 377.414 746.257 372.631M746.257 372.631C747.172 371.477 748.338 370.717 749.918 370.604C753.764 370.329 751.17 371.281 746.257 372.631ZM746.257 372.631C739.687 374.436 728.97 376.951 723.964 378.19C717.744 379.729 698.14 385.632 688.293 383.581M688.293 383.581C686.577 383.223 685.156 382.624 684.156 381.717C681.525 379.335 706.129 374.319 698.799 379.392C696.458 381.011 692.634 382.401 688.293 383.581ZM688.293 383.581C673.888 387.495 653.781 389.095 663.225 389.095M657.76 385.391C658.107 382.515 661.46 359.245 659.309 365.587C654.458 379.892 652.656 395.181 650.555 410.065C640.709 479.805 640.802 552.458 638.25 622.791C637.3 648.978 636.143 675.306 636.877 701.516C636.935 703.61 639.756 725.132 641.134 720.021C642.344 715.533 643.169 710.842 643.712 706.022M643.712 706.022C645.981 685.871 643.312 663.476 643.195 644.33C643.156 638.05 643.108 631.788 643.07 625.54M643.712 706.022C642.076 679.408 642.198 652.409 643.07 625.54M643.712 706.022C644.356 716.492 645.271 726.903 646.521 737.223C648.468 753.3 650.708 769.748 651.275 785.95C651.366 788.552 651.46 790.757 651.273 786.547C650.872 777.576 649.585 768.571 648.939 759.604M643.07 625.54C642.828 586.048 642.983 547.093 648.461 507.673C652.431 479.105 657.974 392.967 659.003 421.791C659.478 435.082 656.642 448.767 655.146 461.945C651.43 494.667 647.934 527.338 646.156 560.238C644.994 581.731 643.782 603.592 643.07 625.54ZM499.997 624.329C499.944 618.959 493.887 602.808 493.563 616.399C493.491 619.449 493.478 622.505 493.515 625.565M493.515 625.565C493.811 650.204 497.321 675.143 498.693 699.648C498.83 702.099 499.604 720.16 500.088 725.324M493.515 625.565C488.398 625.637 485.303 625.886 485.326 626.477C486.57 658.539 490.486 693.875 499.862 724.626C499.941 724.884 500.016 725.116 500.088 725.324M493.515 625.565C515.517 625.259 574.909 628.233 584.619 621.39C591.426 616.592 590.892 617.695 597.961 620.285C602.741 622.036 600.456 621.285 605.177 618.68C606.288 618.067 606.416 617.208 606.866 616.111C609.629 609.375 607.404 630.666 607.404 637.947C607.404 663.64 602.786 695.612 610.766 720.44C615.569 735.383 611.526 689.043 611.137 673.352C610.668 654.486 606.544 598.447 611.194 616.737C614.911 631.355 611.506 650.626 611.525 665.596C611.548 683.54 616.248 702.892 616.248 720.152C616.248 730.148 600.752 727.071 594.711 725.924C576.71 722.508 558.107 724.883 540.26 720.961C534.346 719.661 513.261 711.879 508.61 718.977C508.383 719.323 508.866 719.699 509.892 720.093M500.088 725.324C500.219 726.721 500.329 727.174 500.399 726.117M500.088 725.324C500.2 725.647 500.303 725.91 500.399 726.117M500.399 726.117C500.453 725.315 500.484 723.644 500.484 720.856V691.281M500.399 726.117C502.79 731.272 500.484 701.709 500.484 691.281M500.484 691.281V664.134M509.892 720.093C516.936 722.794 549.606 726.309 554.785 726.48C567.46 726.899 529.198 728.26 516.745 725.863C503.357 723.285 502.097 724.693 509.892 720.093ZM509.892 720.093C511.131 719.362 512.599 718.479 514.283 717.404M536.672 627.416C536.672 625.041 535.818 623.08 535.553 620.724C535.289 618.377 536.04 633.443 537.5 637.521C542.624 651.827 554.722 680.679 540.546 694.687C537.29 697.904 527.752 702.771 529.466 702.771C533.535 702.771 523.75 715.759 523.113 716.3C520.208 718.765 499.857 730.547 509.074 720.275M572.488 632.88C571.869 622.43 571.262 618.641 572.164 633.397C573.495 655.144 573.974 679.651 591.178 695.016C596.59 699.85 594.246 696.937 599.207 696.937C606.664 696.937 603.359 728.677 619.35 716.169M401.042 683.292C400.714 680.942 400.357 677.543 399.377 674.573M399.377 674.573C398.661 672.404 397.613 670.464 396 669.328C394.754 668.451 395.184 674.48 395.184 674.828C395.184 675.536 395.188 676.243 395.195 676.95M399.377 674.573C397.758 675.143 396.323 675.91 395.195 676.95M399.377 674.573C404.955 672.609 412.72 672.974 417.676 672.474C428.875 671.342 440.276 667.394 451.497 667.394C455.156 667.394 459.816 668.883 462.69 666.221C463.835 665.16 465.939 662 465.939 665.053C465.939 675.365 465.585 685.744 466.336 696.031C468.095 720.151 469.15 746.335 475.251 769.793C476.613 775.033 478.969 790.82 479.6 785.443M395.195 676.95C395.325 689.774 396.595 702.443 397.691 715.229C399.328 734.327 400.87 753.427 402.153 772.553C402.233 773.75 404.662 790.425 403.347 791.126C402.129 791.776 396.786 753.805 396.562 751.362C396.378 749.356 395.761 741.395 395.054 734.515M395.195 676.95C393.579 678.441 392.591 680.494 392.591 683.34C392.591 700.446 394.85 717.42 395.054 734.515M395.054 734.515C394.091 725.152 392.961 717.792 392.528 730.172C392.118 741.87 389.646 757.634 392.457 769.078C395.021 779.517 395.068 747.684 395.068 736.935C395.068 736.128 395.063 735.321 395.054 734.515ZM358.649 626.922C358.649 626.392 358.6 625.476 358.519 624.382M358.519 624.382C358.135 619.174 357.028 609.934 357.028 619.194C357.028 620.585 357.043 621.98 357.072 623.379M358.519 624.382C360.582 626.401 360.764 630.046 361.556 635.934C364.514 657.922 365.939 680.697 367.123 703.077M358.519 624.382C358.115 623.987 357.639 623.654 357.072 623.379M357.072 623.379C357.613 649.344 363.004 676.721 366.972 702.126C367.022 702.443 367.072 702.76 367.123 703.077M357.072 623.379C355.56 622.645 353.403 622.322 350.244 622.322C330.47 622.322 312.113 628.682 292.328 628.682C270.32 628.682 248.494 631.398 226.532 631.398C215.008 631.398 205.528 633.023 194.376 635.627C183.215 638.233 192.613 654.456 194.784 663.234C200.972 688.256 203.411 713.822 209.912 738.752C210.712 741.82 215.422 765.877 219.492 763.586C224.746 760.627 232.117 762.109 237.918 761.116C248.743 759.264 258.834 755.591 269.848 754.17C280.407 752.809 289.247 747.018 300.035 747.2C310.597 747.38 319.253 749.704 330.03 748.151C343.448 746.217 355.283 741.325 367.521 735.497C368.533 735.015 369.347 734.864 369.938 734.862M367.123 703.077C368.918 714.275 371.452 725.27 371.452 736.639C371.452 736.692 368.152 722.984 367.961 719.294C367.684 713.923 367.41 708.511 367.123 703.077ZM369.938 734.862C371.368 734.857 371.487 735.725 369.938 734.862ZM369.938 734.862C369.267 734.489 368.284 733.792 366.961 732.561M307.665 632.386C306.473 633.552 305.535 634.229 304.805 634.534M304.805 634.534C299.446 636.772 305.357 618.934 304.864 627.569C304.735 629.828 304.711 632.162 304.805 634.534ZM304.805 634.534C305.341 648.044 309.679 662.748 319.913 671.518C328.397 678.788 337.48 680.861 344.728 689.551C346.739 691.962 352.275 691.809 355.1 693.078C355.347 693.188 346.432 681.909 344.512 679.982C333.718 669.147 322.98 658.529 311.467 648.449C301.764 639.953 307.438 648.282 312.018 653.131M334.894 688.632C334.894 686.664 335.74 680.891 332.502 680.791C327.686 680.643 329.366 695.31 329.451 698.07C329.825 710.205 345.183 743.163 362.475 733.796C370.5 729.448 360.163 733.105 357.895 733.172C341.432 733.653 328.69 708.177 333.644 693.819M253.326 644.796C252.934 642.378 251.601 640.636 250.538 638.703M250.538 638.703C249.751 637.272 249.112 635.736 249.112 633.744C249.112 627.292 249.768 630.914 250.538 638.703ZM250.538 638.703C250.92 642.563 251.33 647.445 251.703 652.632M251.703 652.632C251.874 655.017 252.038 657.466 252.187 659.909M251.703 652.632C258.965 661.587 258.192 674.066 253.547 685.39M251.703 652.632C250.636 651.317 249.396 650.078 247.97 648.929C245.138 646.65 250.958 655.585 251.957 659.081C252.036 659.355 252.112 659.631 252.187 659.909M252.187 659.909C252.732 668.846 253.085 677.71 252.935 683.084C252.891 684.662 252.758 686.204 252.538 687.702M252.187 659.909C254.333 667.928 254.755 677.255 253.547 685.39M252.538 687.702C250.762 699.794 243.308 709.082 230.907 712.017C224.894 713.44 233.564 710.609 236.181 708.66C242.492 703.962 248.574 696.268 252.538 687.702ZM252.538 687.702C252.891 686.938 253.228 686.167 253.547 685.39M253.547 685.39C253.539 685.441 253.532 685.491 253.524 685.542C252.378 693.111 250.085 704.621 244.767 710.609C243.772 711.729 241.403 713.525 241.147 711.199M243.88 705.982C243.514 704.527 239.979 701.289 240.183 702.085C240.547 703.499 241.215 704.948 242.078 706.42M242.078 706.42C245.566 712.369 252.234 718.679 254.773 724.516C255.708 726.665 256.69 729.274 257.561 732.122M242.078 706.42C247.102 708.987 255.57 718.771 256.262 720.467C257.705 724.006 257.952 728.026 257.561 732.122M242.078 706.42C240.116 705.417 238.68 705.515 238.436 707.625C237.715 713.876 243.591 719.83 247.376 724.133M257.561 732.122C260.219 740.821 261.837 751.748 257.908 758.602C257.45 759.401 252.305 764.891 251.048 762.571C249.172 759.106 252.545 752.368 253.523 749.205C255.077 744.178 256.992 738.07 257.561 732.122ZM194.402 511.003C195.351 507.206 194.016 501.321 192.295 507.768C190.52 514.423 190.161 521.565 190.687 528.882M190.687 528.882C191.959 546.591 198.41 565.325 202.488 580.664C207.042 597.794 198.007 547.153 190.687 528.882ZM190.687 528.882C190.463 528.323 190.24 527.795 190.02 527.299C184.065 513.905 183.452 520.995 185.702 531.381C188.608 544.801 191.752 558.851 199.38 570.46M398.796 497.235C398.796 494.181 399.408 476.555 394.704 476.25C387.233 475.764 390.28 492.88 390.852 496.218C393.783 513.325 403.403 564.107 403.403 546.751C403.403 544.48 402.031 545.511 402.269 536.564M179.607 514.214C179.607 517.018 180.883 514.297 182.49 513.226C188.533 509.197 196.521 507.224 203.484 505.601C233.722 498.55 264.418 497.09 294.868 491.769C308.908 489.316 323.358 490.076 337.263 486.952C352.815 483.457 367.843 476.228 383.952 475.776C391.346 475.569 398.449 477.478 405.836 477.478C411.123 477.478 411.516 475.127 406.505 477.354M196.392 593.675C193.865 596.317 194.869 591.943 199.63 591.243C233.134 586.317 266.563 582.139 299.991 576.254C327.186 571.465 354.865 565.939 382.153 562.07C387.202 561.354 406.112 564.61 407.755 557.309M201 542.769C201 538.976 200.118 540.254 202.366 536.564M209.821 517.702C210.133 515.988 211.034 505.981 210.907 508.441C210.376 518.714 211.924 528.477 213.607 538.589C215.833 551.963 217.065 566.282 221.681 579.121C224.1 585.85 225.048 571.5 225.125 570.213M225.867 539.311C226.532 531.164 227.233 523.213 227.233 515.03C227.233 509.906 227.314 516.499 227.974 518.265C231.459 527.592 234.719 536.675 237.088 546.401C239.468 556.17 239.213 568.985 243.139 578.147M253.465 507.515C254.025 506.866 254.146 505.024 255.202 505.176C261.988 506.154 266.19 553.83 267.265 560.643M278.332 502.915C281.401 495.663 280.73 487.124 282.935 500.054C284.743 510.655 288.184 569.137 299.956 569.719M306.3 506.28C306.3 505.485 306.127 498.593 306.492 498.593C310.714 498.593 314.116 559.462 316.742 566.231M326.929 500.569C328.084 500.159 328.605 498.404 328.818 497.036M328.818 497.036C329.083 495.339 328.875 494.238 328.818 497.036ZM328.818 497.036C328.81 497.443 328.805 497.934 328.805 498.518C328.805 519.466 327.761 544.984 337.001 564.255M347.812 500.198C347.812 514.227 351.619 536.762 358.509 548.727M367.955 486.801C368.318 486.837 369.991 507.8 370.156 508.827C372.949 526.171 378.593 542.984 381.384 560.273M471.774 493.746C473.473 489.352 466.633 475.553 467.413 483.415C469.668 506.147 475.299 528.787 477.997 551.563C480.35 571.439 481.138 553.335 481.475 544.374M458.97 482.448C453.397 487.88 463.347 481.698 466.623 480.774C490.157 474.139 516.615 473.983 540.805 471.108C556.695 469.219 577.286 465.471 591.976 473.711C599.657 478.02 605.357 479.212 613.476 474.576C613.997 474.278 620.77 468.439 621.272 470.635C624.413 484.372 622.198 500.719 622.198 514.641C622.198 517.68 617.46 550.124 619.466 550.703M489.81 557.927C488.758 558.584 478.741 561.295 478.901 560.753C480.379 555.738 505.612 556.708 508.692 556.532C518.691 555.961 614.488 545.391 614.488 555.797M480.479 493.129C480.736 492.87 480.964 492.613 481.163 492.36M481.163 492.36C484.075 488.667 481.097 485.928 481.163 492.36ZM481.163 492.36C481.175 493.533 481.288 495.01 481.557 496.842C483.579 510.641 485.255 524.475 487.179 538.286C487.492 540.533 489.628 555.468 491.662 546.134M497.01 485.165C498.194 474.592 497.368 500.124 497.411 502.154C497.63 512.594 498.834 523.578 501.483 533.703C502.141 536.218 504.343 542.775 505.831 537.058M514.283 483.436C516.88 467.691 513.328 490.179 513.452 495.524C513.586 501.313 514.281 543.523 520.14 544.004M531.693 486.554C532.797 485.23 534.357 481.206 534.258 481.556C532.928 486.245 534.054 492.625 534.054 497.425C534.054 503.585 531.3 540.276 538.037 542.522M548.618 489.517C549.264 488.274 551.096 482.041 551.096 483.36V502.222C551.096 506.909 552.282 540.774 554.453 538.416M570.104 488.283C572.209 486.953 571.346 505.349 571.297 507.927C571.228 511.502 572.304 548.242 574.457 546.875M587.886 487.541C591.647 485.154 591.817 484.322 591.498 489.27C591.133 494.92 591.382 500.648 591.382 506.307C591.382 510.304 589.436 541.16 593.975 526.13M602.448 492.882C604.35 486.492 606.636 476.629 607.537 489.201C608.903 508.274 607.797 527.64 607.797 546.751M660.122 781.797C661.864 785.153 662.293 788.119 657.957 785.538C648.503 779.912 650.861 759.169 651.438 750.39C651.98 742.132 654.002 731.092 657.94 723.714C659.149 721.448 662.508 724.458 663.665 725.366C665.04 726.445 672.577 731.655 676.459 735.594M676.459 735.594C677.968 737.126 678.925 738.466 678.752 739.296C678.34 741.27 677.371 738.677 676.459 735.594ZM676.459 735.594C675.853 733.546 675.272 731.282 674.896 729.996C671.884 719.677 668.858 709.13 671.944 698.519C673.062 694.671 677.804 676.576 683.714 685.139C684.561 686.366 685.649 688.498 686.676 690.746M686.676 690.746C688.999 695.834 691.006 701.521 689.188 698.676C688.045 696.886 687.192 694.077 686.676 690.746ZM686.676 690.746C684.69 677.928 687.701 657.375 698.463 657.375C703.212 657.375 705.969 664.778 707.549 668.447C710.1 674.372 707.691 663.44 707.691 661.279C707.691 654.022 709.737 645.388 716.076 640.913C718.943 638.889 726.728 637.836 729.907 639.677C733.772 641.914 734.921 646.538 736.731 650.261C738.253 653.39 738.772 643.549 739.696 641.312C741.814 636.185 746.41 628.781 753.01 631.933L753.186 632.017C758.109 634.368 763.1 636.751 765.755 641.762C767.305 644.686 766.167 647.758 764.253 650.261C762.763 652.208 768.922 646.405 770.693 645.683C776.719 643.228 781.639 648.323 783.765 653.643C786.589 660.709 784.258 665.706 778.631 670.174C775.323 672.801 781.364 671.991 783.585 672.75C792.041 675.641 788.75 686.725 786.123 692.789C785.721 693.717 780.301 700.521 780.909 700.977C785.049 704.083 787.264 705.377 787.264 711.33C787.264 718.627 784.122 721.099 777.74 723.368C772.528 725.221 777.341 727.257 779.607 729.786C783.447 734.072 784.412 741.045 784.412 746.568C784.412 750.353 779.777 752.909 780.261 756.394C780.653 759.219 786.134 762.186 786.641 766.558C787.367 772.809 786.695 779.18 784.821 785.173C784.146 787.332 781.806 792.666 781.637 787.318M795.577 783.415C798.918 783.415 803.558 718.297 804.205 713.066C807.296 688.089 811.486 662.917 816.957 638.353C818.72 630.44 820.966 622.662 823.105 614.874M823.105 614.874C824.378 610.238 825.614 605.599 826.687 600.926C826.931 599.866 827.768 591.265 827.247 594.274C826.051 601.18 824.613 608.034 823.105 614.874ZM823.105 614.874C820.919 624.787 818.584 634.669 816.619 644.631C809.474 680.844 807.878 717.879 803.705 754.491C802.28 767 801.022 779.646 801.022 792.248C801.022 794.055 800.867 803.197 801.113 796.277M942.014 598.178C941.557 595.414 938.842 584.725 943.202 583.234C945.132 582.574 945.317 598.698 945.358 599.716C945.51 603.468 945.69 607.216 945.897 610.962M945.897 610.962C946.887 628.946 948.485 646.859 950.563 664.773C951.979 676.972 953.549 689.125 955.297 701.243M945.897 610.962C945.854 611.116 945.821 611.247 945.797 611.349C943.597 620.836 945.16 631.996 946.497 641.54L946.542 641.861C952.089 681.47 954.262 721.485 963.936 760.414C964.084 761.01 964.233 761.607 964.383 762.203M945.897 610.962C946.486 608.81 948.769 602.172 949.476 607.244C950.936 617.721 950.038 628.794 950.54 639.352C951.522 659.987 953.086 680.665 955.297 701.243M955.297 701.243C958.427 722.937 962.129 744.52 966.543 766.058C967.327 769.888 972.716 781.946 971.016 785.682C970.026 787.855 969.643 781.108 968.946 778.824C967.269 773.331 965.785 767.774 964.383 762.203M955.297 701.243C956.192 709.573 957.193 717.887 958.304 726.175C959.928 738.284 962.088 750.252 964.383 762.203M964.383 762.203C965.891 770.053 967.457 777.896 968.969 785.767C969.456 788.307 970.94 800.07 970.94 791.141M841.841 596.964C839.65 596.964 833.509 596.635 832.935 593.528C832.395 590.602 840.631 591.723 842.174 591.755C855.974 592.043 869.209 592.927 883.089 591.918L883.116 591.916C891.598 591.3 900.519 590.651 908.989 591.92M908.989 591.92C909.436 591.987 909.882 592.059 910.326 592.137C917.14 593.332 923.891 595.097 930.842 595.227C937.416 595.35 945.019 595.023 951.033 591.926C953.064 590.88 941.718 590.945 940.623 591.059C930.116 592.151 919.544 591.835 908.989 591.92ZM908.989 591.92C904.69 591.954 900.395 592.055 896.108 592.345C885.686 593.049 854.953 599.219 865.367 598.42M854.537 610.697C854.537 603.346 854.399 596 854.37 588.65C854.335 579.834 853.659 587.962 853.583 592.057C853.427 600.455 853.673 608.806 854.203 617.129M854.203 617.129C854.306 618.74 854.419 620.35 854.542 621.959M854.203 617.129C857.035 633.95 861.994 666.679 862.344 682.849M854.203 617.129C852.473 606.854 851.537 602.514 852.931 611.51C853.47 614.996 854.009 618.478 854.542 621.959M854.542 621.959C855.749 637.735 857.9 653.427 860.198 669.166C860.455 670.926 862.364 689.627 862.364 684.573C862.364 684.022 862.357 683.447 862.344 682.849M854.542 621.959C856.965 637.786 859.263 653.59 860.963 669.548C861.435 673.977 861.875 678.415 862.344 682.849M862.344 682.849C862.792 687.076 863.266 691.299 863.822 695.509C864.364 699.606 865.461 693.391 865.625 692.424M909.688 599.472C909.742 594.003 916.721 571.499 916.772 588.261C916.777 590.119 916.081 597.552 915.059 607.47M915.059 607.47C914.95 608.526 914.837 609.61 914.722 610.718M915.059 607.47C913.931 612.605 913.186 617.803 912.637 623.042M915.059 607.47C915.672 604.675 916.399 601.899 917.269 599.145M914.722 610.718C913.711 620.395 912.454 631.935 911.253 642.858M914.722 610.718C915.477 606.809 916.32 602.945 917.269 599.145M914.722 610.718C913.937 614.784 913.248 618.899 912.637 623.042M911.253 642.858C909.821 655.885 908.467 668.034 907.706 675.098M911.253 642.858C910.796 653.874 909.584 679.333 907.355 681.319M911.253 642.858C911.366 640.132 911.433 638.29 911.458 637.908C911.779 632.931 912.121 627.969 912.637 623.042M907.706 675.098C907.278 679.077 907.037 681.442 907.076 681.442C907.171 681.442 907.264 681.401 907.355 681.319M907.706 675.098C907.713 674.993 907.721 674.889 907.728 674.784C908.895 658.043 910.092 640.294 912.637 623.042M907.706 675.098C907.565 677.165 907.446 679.24 907.355 681.319M907.355 681.319C907.029 688.744 907.05 696.224 907.602 703.609C907.98 708.654 908.332 707.144 909.214 703.358L909.279 703.083M917.269 599.145C917.495 598.43 917.73 597.716 917.976 597.004C919.513 592.549 919.618 590.274 918.093 595.96C917.81 597.016 917.535 598.078 917.269 599.145ZM847.043 703.891C847.043 703.33 846.936 702.32 846.764 701.168M846.764 701.168C846.141 696.987 844.671 690.929 844.401 697.596C844.35 698.857 844.338 700.368 844.359 702.054M846.764 701.168C845.821 701.352 845.023 701.652 844.359 702.054M846.764 701.168C847.471 701.031 848.258 700.959 849.133 700.959C854.866 700.959 860.459 700.069 866.185 700.069C876.475 700.069 884.28 698.145 894.164 695.518C901.321 693.616 910.667 695.518 918.103 695.518C919.671 695.518 919.841 702.371 919.853 707.422M844.359 702.054C844.43 707.935 844.892 715.947 845.434 722.935M844.359 702.054C841.393 703.847 841.073 707.661 842.342 712.152C843.316 715.6 844.474 719.242 845.434 722.935M845.434 722.935C846.302 734.136 847.376 742.706 847.376 735.648C847.376 731.487 846.536 727.177 845.434 722.935ZM919.853 707.422C919.859 709.918 919.827 711.975 919.905 712.548C920.144 714.288 921.624 731.535 921.418 726.264C921.346 724.435 921.54 722.766 921.778 720.958C922.045 718.928 922.707 702.597 920.515 702.597C920.064 702.597 919.902 704.946 919.853 707.422ZM919.853 707.422C919.804 709.876 919.866 712.454 919.866 712.992M917.667 732.267C918.283 732.267 919.123 731.602 919.123 730.932C919.123 730.195 915.153 730.35 910.909 730.726M910.909 730.726C906.248 731.14 901.257 731.82 900.833 731.88C888.896 733.565 872.74 738.243 860.966 734.39C860.811 734.339 860.655 734.286 860.5 734.232M910.909 730.726C900.403 727.104 886.45 730.962 876.272 732.222C874.212 732.477 867.261 733.72 860.5 734.232M910.909 730.726C912.373 731.231 913.769 731.88 915.08 732.703C918.209 734.666 921.978 735.08 919.381 729.84M860.5 734.232C856.467 732.811 852.437 730.163 848.11 730.163C847.361 730.163 845.239 730.821 845.959 732.024C847.46 734.532 853.889 734.732 860.5 734.232ZM872.298 702.839C870.991 697.059 868.108 696.92 867.879 703.109C867.733 707.062 866.028 734.49 870.751 734.956M894.049 702.355C896.458 696.781 895.054 701.038 894.778 705.268C894.43 710.591 891.749 726.428 896.81 730.083M1023.39 721.791C1023.39 718.655 1021.36 715.517 1018.86 713.484M1018.86 713.484C1018.3 713.03 1017.72 712.632 1017.13 712.301C1016.8 712.115 1016.43 711.764 1016.04 711.327M1018.86 713.484C1019.83 715.478 1020.82 717.988 1021.54 719.321C1024.24 724.311 1026.77 729.363 1028.94 734.606C1030.58 738.542 1033.15 746.241 1028.45 738.387C1022.9 729.118 1017.51 719.502 1013.55 709.427C1011.43 704.036 1013.93 708.95 1016.04 711.327M1018.86 713.484C1017.75 711.192 1016.67 709.581 1016.08 711.218C1016.06 711.254 1016.05 711.29 1016.04 711.327M1016.04 711.327C1014.74 715.464 1022.64 725.023 1024.6 728.444M1030.23 739.912C1030.19 738.857 1029.53 737.839 1028.83 736.789M1028.83 736.789C1028.77 736.7 1028.71 736.61 1028.66 736.521M1028.83 736.789C1028.79 739.28 1028.46 747.869 1028.21 751.584M1028.83 736.789C1028.84 736.633 1028.84 736.501 1028.84 736.396C1028.84 736.091 1028.77 736.165 1028.66 736.521M1028.66 736.521C1028.02 735.552 1027.4 734.551 1027.25 733.464C1026.75 729.716 1027.23 736.076 1027.6 742.364M1028.66 736.521C1028.4 737.351 1027.92 739.716 1027.6 742.364M1027.6 742.364C1027.79 745.439 1027.94 748.496 1027.94 750.345C1027.94 750.633 1027.94 750.897 1027.94 751.139M1027.6 742.364C1027.22 745.653 1027.08 749.379 1027.94 751.139M1027.94 751.139C1027.96 754.237 1028.07 753.704 1028.21 751.584M1027.94 751.139C1028.02 751.306 1028.11 751.454 1028.21 751.584M1028.21 751.584C1028.41 751.841 1028.65 752.021 1028.93 752.107M1067.53 742.116C1067.53 740.121 1068.22 738.076 1068.44 735.981M1068.44 735.981C1068.48 735.581 1068.5 735.18 1068.5 734.777C1068.5 730.061 1068.47 732.145 1068.44 735.981ZM1068.44 735.981C1068.4 740.484 1068.35 747.403 1068.35 748.573C1068.35 749.399 1068.32 758.874 1068.87 754.117C1069.7 747.052 1070.59 739.976 1071.23 732.892C1072.01 724.285 1069.81 750.138 1069.81 758.781M1056.05 731.376C1054.35 731.376 1051.73 731.6 1051.73 729.21C1051.73 729.085 1083.24 728.233 1086.45 727.617C1093.41 726.282 1084.68 726.756 1081.08 726.601C1078.01 726.469 1054.99 725.746 1054.99 726.421M1020.69 765.536C1017.72 765.756 1017.28 767.988 1013.89 766.102C1008.53 763.115 1020.5 762.604 1020.89 762.604C1040.78 762.604 1060.7 762.356 1080.57 763.332C1084.42 763.521 1103.21 764.723 1089.09 763.489C1074.01 762.17 1058.94 762.024 1043.81 761.835C1037.2 761.753 1030.6 761.747 1024 761.57C1022.03 761.517 1016.69 760.264 1018.1 761.633M1039.52 771.543C1037.91 771.543 1037.98 769.856 1038.91 768.711C1042.37 764.455 1050.84 764.124 1055.69 763.745C1061.12 763.321 1070.65 762.704 1067.54 771.17C1066.11 775.04 1061.85 776.287 1057.79 776.801M1057.79 776.801C1056.3 776.99 1054.84 777.08 1053.55 777.165C1052.54 777.232 1041.34 777.79 1041.81 776.761C1042.79 774.628 1052.8 775.942 1057.79 776.801ZM1057.79 776.801C1059.01 777.01 1059.92 777.192 1060.34 777.291C1065.23 778.457 1073.97 782.004 1064.42 783.96C1059.71 784.926 1053.95 785.554 1048.79 785.204M1048.79 785.204C1047.64 785.126 1046.52 784.998 1045.45 784.815C1042.87 784.373 1045.12 784.596 1048.79 785.204ZM1048.79 785.204C1053.08 785.914 1059.3 787.149 1062.05 788.471C1069.99 792.281 1064.58 794.267 1059.36 795.257M1059.36 795.257C1058.5 795.421 1057.64 795.558 1056.85 795.671C1055.3 795.892 1042.54 797.774 1043.11 794.239C1043.5 791.724 1056.68 793.984 1058.32 794.725C1058.68 794.885 1059.03 795.064 1059.36 795.257ZM1059.36 795.257C1063.16 797.434 1065.56 801.554 1059.89 803.635C1059.32 803.845 1058.74 804.029 1058.16 804.189M1058.16 804.189C1051.93 805.905 1045.26 804.803 1039.48 802.086C1028.91 797.125 1052.18 801.278 1058.16 804.189ZM1058.16 804.189C1060.08 805.126 1060.22 805.934 1056.87 806.268M48.0906 853.125C47.9133 856.364 40.7854 852.86 44.6204 850.417C50.7826 846.493 59.4929 844.948 66.3608 842.858C87.9098 836.3 109.377 829.411 131.054 823.286C187.218 807.416 246.382 803.283 304.334 798.862C372.469 793.664 440.796 787.505 509.018 783.813C575.149 780.234 640.631 783.393 706.622 787.515C770.758 791.522 835.075 791.259 899.123 796.871C956.966 801.94 1014.39 807.487 1072.35 811.371C1115.1 814.236 1159.11 814.78 1201.51 821.196C1204.66 821.672 1229.08 827.844 1214.27 827.844C1180.31 827.844 1146.22 824.462 1112.47 820.921C964.135 805.357 817.962 792.293 668.574 792.293C528.098 792.293 385.88 802.922 249.274 838.315C205.377 849.688 162.314 863.665 118.617 875.68C103.816 879.75 89.3224 883.536 75.048 889.315C69.8392 891.424 56.3857 893.927 53.5548 899.545M741.988 663.715C743.37 663.89 737.502 667.589 736.588 669.864C734.154 675.924 736.395 683.97 738.783 689.68C741.008 695.003 745.116 699.49 747.604 704.761C749.216 708.176 750.339 707.448 752.941 705.953M749.116 719.721C747.097 721.549 755.942 724.597 757.566 725.751C762.199 729.041 763.904 734.801 762.458 740.228M729.551 745.73C727.491 743.852 722.506 741.81 723.971 746.605C725.875 752.836 733.937 756.964 739.421 759.083C742.925 760.437 746.967 761.294 750.069 763.506C751.717 764.682 752.889 766.849 754.708 767.735C756.201 768.462 757.757 767.288 759.287 767.717M730.72 717.002C730.72 710.906 728.52 729.404 724.98 734.367C721.153 739.732 714.664 741.701 710.004 746.075C705.927 749.901 701.119 753.664 698.198 758.532M673.649 769.647C664.767 769.647 673.451 751.262 674.935 748.119L674.94 748.11M693.855 717.791C694.087 717.768 697.021 715.867 697.699 715.613C706.117 712.456 713.211 705.411 715.841 696.689C717.996 689.545 714.423 678.998 719.839 673.221M51.5502 437.578C48.7764 437.578 32.1737 438.19 41.1626 437.278C56.4766 435.726 71.631 431.356 86.7245 428.464C107.291 424.522 128.087 421.765 148.811 418.809C177.484 414.718 206.267 411.738 234.97 408.158M234.97 408.158C238.672 407.696 242.372 407.225 246.071 406.739M234.97 408.158C238.667 407.659 242.368 407.189 246.071 406.739M234.97 408.158C224.716 409.542 214.489 411.148 204.304 413.143C177.516 418.392 150.507 420.61 123.668 425.801C91.4413 432.035 58.8751 434.743 27 443.089M246.071 406.739C254.53 405.629 262.98 404.448 271.415 403.151C285.895 400.926 300.577 399.694 315.312 398.848M246.071 406.739C266.074 404.312 286.161 402.492 306.218 400.034C309.254 399.662 312.285 399.264 315.312 398.848M315.312 398.848C335.278 397.703 355.343 397.268 375.137 396.034C404.547 394.201 433.697 388.688 463.152 386.793C487.863 385.204 512.647 383.335 537.36 381.979C581.695 379.547 626.359 379.528 670.848 379.528C687.74 379.528 738.408 378.711 721.516 378.711C694.859 378.711 668.221 378.198 641.567 378.198C601.498 378.198 561.188 377.817 521.205 380.759C484.515 383.458 448.302 386.763 411.476 387.394C378.977 387.95 347.358 394.443 315.312 398.848Z" stroke="black" stroke-width="3" stroke-linecap="round" stroke-linejoin="round"/>
</svg>
