<svg width="3080" height="2522" viewBox="0 0 3080 2522" fill="none" xmlns="http://www.w3.org/2000/svg">
<path d="M349.592 194.181C342.498 194.627 335.951 194.934 330.383 195.141M330.383 195.141C309.862 195.902 302.649 195.289 330.383 195.141ZM330.383 195.141C333.908 195.122 337.997 195.111 342.695 195.111C498.463 195.111 653.551 177.642 808.467 163.233C825.497 161.649 844.756 160.139 865.81 158.705M865.81 158.705C949.499 153.003 1061.56 148.504 1174.74 145.364M865.81 158.705C867.315 160.527 869.127 161.94 871.161 163.028M865.81 158.705C864.792 157.474 863.914 156.056 863.2 154.424M1174.74 145.364C1239.56 143.566 1304.74 142.214 1365.18 141.338M1174.74 145.364C1073.43 150.02 972.255 155.871 871.161 163.028M1174.74 145.364C1184.1 144.934 1193.46 144.514 1202.83 144.104C1315.97 139.151 1429.1 134.944 1542.23 131.407M1365.18 141.338C1581.26 138.205 1736.73 141.15 1597.95 151.531C1274.65 175.713 948.824 164.876 625.088 184.558C595.659 186.347 566.333 189.485 536.885 190.926C508 192.339 594.509 185.938 623.305 183.267C705.888 175.606 788.497 168.88 871.161 163.028M1365.18 141.338C1424.13 137.659 1483.15 134.355 1542.23 131.407M1365.18 141.338C1320.09 144.152 1275.04 147.185 1230.05 150.446C1123.31 158.183 1016.25 165.316 909.157 165.584C898.062 165.612 881.648 168.637 871.161 163.028M1542.23 131.407C1905.77 120.041 2269.31 115.598 2633.21 115.598H2693.27C2676.59 115.598 2659.97 115.486 2643.31 114.565C2557.34 109.808 2471.04 111.413 2384.98 111.413C2104.79 111.413 1822.94 117.396 1542.23 131.407ZM699.813 208.596C702.371 208.457 646.627 194.875 635.451 193.148C527.005 176.4 421.229 182.752 318.581 223.127C258.081 246.925 187.184 276.842 145.742 329.261C102.191 384.346 85.456 463.874 80.1396 532.422C78.1337 558.284 83.955 762.635 158.568 697.066M198.85 405.402C127.577 298.021 102.552 511.365 98.7275 547.901C85.9309 670.145 43.7096 1034.77 74.8145 915.862C89.1947 860.887 93.63 803.685 99.8512 747.387C103.249 716.643 109.013 641.854 103.818 716.246C92.9621 871.72 112.711 1027.93 112.711 1183.49C112.711 1201.72 125.377 1252.24 113.815 1238.16C109.15 1232.47 105.774 1225.02 103.332 1216.6M103.332 1216.6C95.6287 1190.03 97.2037 1153.77 96.8917 1132.7C96.6857 1118.79 98.4988 1029.81 101.387 1087.13C103.562 1130.29 103.465 1173.45 103.332 1216.6ZM103.332 1216.6C103.154 1273.95 102.912 1331.3 107.853 1388.7C123.145 1566.32 167.174 1738.38 174.409 1917.3C175.426 1942.44 163.951 2099.76 196.496 2109.58M204.952 1878.25C204.813 1853.62 192.521 1834.33 168.305 1826.62C159.066 1823.68 173.959 1867.43 175.028 1874.53C190.133 1974.83 194.064 2077.06 220.214 2175.49C234.571 2229.54 251.852 2316.57 298.72 2353.71C395.432 2430.34 533.573 2359.19 641.421 2396.23C668.227 2405.44 693.091 2418.71 720.294 2426.94C724.654 2428.26 685.868 2442.25 680.635 2443.79M462.933 2416.71C455.817 2415.26 433.157 2402.18 451.735 2402.18C524.929 2402.18 601.789 2424.44 673.379 2437.51C795.286 2459.76 917.671 2462.74 1041.14 2453.82C1108.43 2448.95 1192.17 2432.17 1258.32 2451.7M582.727 2411.48C579.275 2411.48 558.166 2411.13 571.586 2412.17C610.754 2415.22 649.917 2414.85 689.18 2414.85C913.984 2414.85 1133.47 2384.76 1356.43 2358.96C1386.68 2355.46 1416.95 2352.15 1447.23 2349.05M1447.23 2349.05C1641.48 2329.15 1836.18 2317.58 2031.6 2315.79C2063.96 2315.5 2161.07 2315.69 2128.7 2315.69C2082.38 2315.69 2036.17 2315.8 1989.89 2318.12C1808.93 2327.17 1628.22 2340.48 1447.23 2349.05ZM1447.23 2349.05C1442.89 2349.26 1438.55 2349.46 1434.22 2349.66C1426.34 2350.02 1369.65 2351.88 1405.93 2346.55C1470.93 2337 1537.02 2333.11 1602.32 2325.96C1867.84 2296.86 2132.45 2278.66 2399.63 2278.84C2471.57 2278.89 2542 2283.8 2613.2 2293.87C2635.97 2297.09 2665.16 2305.13 2688.08 2299.76M2331.31 143.614C2331.31 93.2791 2481.6 98.2716 2510.81 95.7206C2602.65 87.6984 2702.45 78.1159 2794.42 88.9266C2849.98 95.4576 2897.7 114.19 2917.68 169.499C2989.35 367.833 2992.41 589.869 2971.8 796.838C2960.3 912.273 2966.81 1028.29 2954.66 1143.69C2945.25 1233.11 2932.06 1322.29 2928.27 1412.22M2998.98 750.307C2996.07 758.212 2994.2 762.098 2993.02 763.613M2993.02 763.613C2988.89 768.96 2993.55 744.803 2993.02 763.613ZM2993.02 763.613C2992.89 768.243 2992.45 775.477 2991.48 786.395C2978.92 927.998 2986.34 1072.22 2986.34 1214.17C2986.34 1433.57 2983.5 1652.11 2995.73 1871.21C2999.27 1934.67 3007.77 2012.82 2992.38 2078.69M2992.38 2078.69C2989.93 2089.19 2986.86 2099.39 2983.08 2109.16C2981.81 2112.44 2975.33 2020.76 2973.04 2001.41C2971.14 1985.4 2969.17 1969.38 2967.12 1953.36M2992.38 2078.69C2983.83 2022.94 2972.83 1973.86 2971.03 1967.4C2969.73 1962.73 2968.43 1958.05 2967.12 1953.36M2992.38 2078.69C3005.03 2161.14 3012.3 2258.16 2976.46 2253.44C2961.7 2251.5 2956.15 2239.63 2937.33 2246.26C2895.01 2261.17 2858.73 2296.37 2817.4 2315C2778.81 2332.38 2629.57 2373.3 2629.57 2296.51M2967.12 1953.36C2953.49 1847.15 2936.21 1740.74 2913.71 1636.29C2903.73 1589.95 2879.53 1450.83 2879.53 1498.24C2879.53 1651.64 2926.03 1806.48 2967.12 1953.36ZM2596.79 2245.13C2611.19 2228.43 2694.3 2267.04 2709.08 2271.67C2788.64 2296.59 2877.99 2323.15 2956.76 2282.77C3016.9 2251.93 2900.04 2287.96 2899.67 2258.96C2899.44 2240.91 2914.47 2225.62 2924.11 2211.61C2947.46 2177.65 2967.91 2142.52 2980.78 2103.12C3012.64 2005.65 3016.24 1893.67 3016.24 1791.74C3016.24 1749.25 3000.78 1799.79 2997.9 1813.35C2980.17 1896.82 2988.66 1988.43 2989.56 2073.08M263.975 329.26C281.776 289.112 285.768 275.721 249.313 313.728C210.659 354.028 176.9 399.136 144.376 444.435C135.905 456.233 67.5941 558.744 121.504 509.804C148.243 485.531 173.315 459.094 197.238 431.576M197.238 431.576C225.606 398.946 252.357 364.796 278.355 330.933C297.04 306.595 315.56 282.166 334.895 258.347M197.238 431.576C207.496 417.603 217.308 404.708 225.342 393.545C259.217 346.474 295.997 301.671 334.725 258.537C334.781 258.474 334.838 258.411 334.895 258.347M197.238 431.576C165.689 474.552 129.919 527.733 128.663 572.151C127.901 599.119 221.97 499.684 226.785 494.163C256.318 460.295 285.978 426.745 315.276 392.926M334.895 258.347C337.094 255.638 339.304 252.937 341.526 250.244C357.516 230.868 341.615 250.824 334.895 258.347ZM315.276 392.926C356.517 345.321 397.038 297.185 435.473 246.886C454.541 221.931 496.924 174.28 449.088 225.374C400.294 277.491 357.415 335.215 315.276 392.926ZM315.276 392.926C308.584 402.091 301.911 411.256 295.235 420.398C236.001 501.518 179.999 591.039 143.436 685.04C115.964 755.671 189.977 666.421 203.945 649.578L204.538 648.862C316.714 513.672 637.47 96.8238 543.103 244.994C501.707 309.991 439.418 366.565 393.139 428.851C318.532 529.265 251.952 635.261 201.254 749.874C197.268 758.885 131.562 904.937 172.275 871.203C211.207 838.946 245.138 796.251 276.587 751.442M276.587 751.442C308.146 706.477 337.206 659.383 366.311 618.573C445.709 507.241 518.046 390.955 603.885 284.259C606.267 281.299 609.189 277.03 612.338 272.268M276.587 751.442C318.81 671.463 368.446 594.391 415.832 521.119C469.78 437.699 532.318 352.934 601.662 281.444C603.197 279.862 607.316 276.466 612.338 272.268M276.587 751.442C246.95 807.582 220.966 865.154 201.976 923.85C194.564 946.761 172.504 1011.36 213.959 970.478C254.007 930.981 289.521 884.728 322.897 836.708M612.338 272.268C624.609 253.71 640.321 227.667 640.876 242.462C641.083 247.982 624.194 262.359 612.338 272.268ZM322.897 836.708C336.359 817.339 349.473 797.682 362.396 778.065M322.897 836.708C329.004 794.505 339.315 754.478 357.398 721.128C370.203 697.514 382.757 706.148 392.811 722.726M322.897 836.708C321.626 845.492 320.537 854.37 319.598 863.302M362.396 778.065C373.557 761.124 384.575 744.212 395.552 727.541M362.396 778.065C372.254 759.493 382.398 741.042 392.811 722.726M362.396 778.065C347.456 806.213 333.172 834.641 319.598 863.302M395.552 727.541C405.396 712.59 415.208 697.832 425.059 683.419C497.723 577.11 569.112 469.694 648.366 368.196M395.552 727.541C404.079 743.443 410.456 763.857 413.09 771.586C422.809 800.099 432.488 828.867 441.79 857.856M395.552 727.541C394.661 725.88 393.747 724.269 392.811 722.726M648.366 368.196C663.623 348.656 679.171 329.336 695.076 310.286C706.93 296.088 719.26 282.348 731.671 268.668M648.366 368.196C654.881 357.175 662.049 345.856 669.791 334.781M648.366 368.196C634.51 391.633 623.605 413.716 616.406 429.206C576.305 515.493 548.798 606.65 529.11 699.552M731.671 268.668C737.096 262.688 742.536 256.719 747.959 250.729C756.59 241.194 741.811 256.507 727.055 272.05M731.671 268.668C759.005 249.39 789.289 241.394 820.914 255.876C853.547 270.82 761.457 309.56 784.286 336.028C785.047 336.91 785.84 337.764 786.663 338.589M731.671 268.668C730.123 269.76 728.584 270.888 727.055 272.05M727.055 272.05C719.578 279.927 712.106 287.863 707.689 292.655C694.936 306.492 682.299 320.537 669.791 334.781M727.055 272.05C705.823 288.19 686.474 310.916 669.791 334.781M669.791 334.781C566.44 452.471 471.845 583.717 392.811 722.726M319.598 863.302C287.398 931.29 259.197 1000.59 235.717 1070.59C231.69 1082.59 190.064 1212.23 245.298 1172.19C256.821 1163.84 267.277 1153.5 276.976 1142.09M319.598 863.302C312.8 927.966 313.862 995.443 310.58 1050.33C309.584 1066.98 308.601 1083.64 307.629 1100.29M276.976 1142.09C279.262 1139.4 281.506 1136.65 283.712 1133.86M276.976 1142.09C279.239 1121.12 281.799 1100.18 284.134 1079.17C284.307 1077.61 284.457 1076.2 284.585 1074.95M276.976 1142.09C274.835 1161.93 272.959 1181.8 271.792 1201.79C265.855 1303.44 267.903 1406.13 274.821 1508.24M283.712 1133.86C292.167 1123.14 300.062 1111.73 307.629 1100.29M283.712 1133.86C283.796 1161.44 284.488 1188.99 285.597 1216.5M283.712 1133.86C283.66 1116.48 283.849 1099.09 284.327 1081.67C284.397 1079.15 284.488 1076.89 284.585 1074.95M307.629 1100.29C317.439 1085.46 326.696 1070.59 335.897 1057.15C347.016 1040.9 357.991 1024.57 368.878 1008.18M307.629 1100.29C306.41 1121.14 305.207 1142 304.011 1162.85M368.878 1008.18C396.22 967.017 423.006 925.497 450.103 884.172M368.878 1008.18C369.791 1006.18 370.705 1004.19 371.619 1002.19C393.676 954.097 417.056 905.86 441.79 857.856M368.878 1008.18C345.653 1058.98 323.126 1110.33 304.011 1162.85M450.103 884.172C461.16 867.31 472.268 850.48 483.488 833.72C493.041 819.449 502.602 805.182 512.172 790.923M450.103 884.172C460.92 919.003 471.053 954.136 479.925 989.514M450.103 884.172C447.372 875.381 444.598 866.608 441.79 857.856M512.172 790.923C610.69 644.12 710.15 497.995 812.326 353.711M512.172 790.923C517.096 760.352 522.687 729.859 529.11 699.552M512.172 790.923C510.008 804.35 507.974 817.792 506.054 831.24C499.068 880.172 492.134 929.276 485.816 978.498M812.326 353.711C821.691 340.486 831.079 327.276 840.492 314.083C868.673 274.582 900.053 237.726 929.081 198.908C942.202 181.363 938.514 183.862 924.335 196.893C876.176 241.153 830.305 288.615 786.663 338.589M812.326 353.711C849.389 366.426 903.815 360.04 938.051 358.32M812.326 353.711C802.23 350.247 793.423 345.367 786.663 338.589M786.663 338.589C690.13 449.125 604.497 571.945 529.11 699.552M529.11 699.552C498.308 751.691 469.216 804.63 441.79 857.856M304.011 1162.85C302.65 1166.58 301.307 1170.33 299.982 1174.08C295.575 1186.55 289.636 1201.38 285.597 1216.5M304.011 1162.85C302.185 1194.69 300.375 1226.52 298.554 1258.35M285.597 1216.5C281.707 1231.06 279.58 1245.88 282.283 1259.09C282.994 1262.57 284.947 1263.93 287.869 1263.58M285.597 1216.5C286.23 1232.2 286.999 1247.9 287.869 1263.58M287.869 1263.58C290.637 1263.25 294.276 1261.39 298.554 1258.35M287.869 1263.58C289.437 1291.89 291.332 1320.18 293.343 1348.46M298.554 1258.35C331.177 1235.16 400.932 1143.2 404.905 1137.49C406.336 1135.43 407.768 1133.37 409.2 1131.31M298.554 1258.35C296.835 1288.39 295.106 1318.43 293.343 1348.46M409.2 1131.31C432.508 1097.81 455.891 1064.35 479.35 1030.93M409.2 1131.31C431.461 1083.51 455.083 1036.2 479.925 989.514M409.2 1131.31C385.723 1181.72 363.759 1232.66 343.468 1283.96C327.217 1325.06 310.935 1367.04 297.809 1409.82M479.35 1030.93C481.959 1027.21 484.569 1023.49 487.181 1019.78M479.35 1030.93C480.503 1021.14 481.688 1011.36 482.901 1001.59M479.35 1030.93C468.551 1122.56 460.569 1214.53 459.022 1306.5C458.578 1332.94 458.184 1359.3 458.849 1385.48M487.181 1019.78C555.94 921.925 625.344 824.473 695.401 727.619C779.673 611.112 870.797 499.696 957.171 384.875M487.181 1019.78C498.327 1068.6 506.781 1117.85 511.048 1167.39C514.163 1203.56 515.504 1239.92 515.715 1276.35M487.181 1019.78C485.795 1013.71 484.367 1007.64 482.901 1001.59M957.171 384.875C964.008 375.787 970.814 366.678 977.585 357.543M957.171 384.875C984.18 383.3 1011.18 381.58 1038.2 380.15C1062.72 378.853 1087.24 377.615 1111.77 376.423M957.171 384.875C941.501 385.789 925.829 386.654 910.15 387.386M977.585 357.543C978.134 356.802 978.683 356.062 979.232 355.321M977.585 357.543C1029.89 356.645 1082.19 354.907 1134.47 352.741M977.585 357.543C974.45 357.597 971.315 357.648 968.18 357.696M979.232 355.321C990.087 340.657 1000.85 325.927 1011.5 311.113C1063.54 238.69 998.007 297.578 970.62 325.153C959.707 336.141 948.847 347.195 938.051 358.32M979.232 355.321C975.548 356.11 971.864 356.902 968.18 357.696M979.232 355.321C1039.49 342.402 1099.84 329.994 1160.57 319.405C1163.87 318.829 1167.17 318.257 1170.48 317.688M938.051 358.32C935.639 360.805 933.23 363.294 930.825 365.787M938.051 358.32C942.013 358.121 945.704 357.984 949.066 357.947C955.438 357.877 961.809 357.792 968.18 357.696M930.825 365.787C923.905 372.957 917.013 380.156 910.15 387.386M930.825 365.787C927.283 366.557 923.74 367.328 920.198 368.099C888.595 374.98 851.528 377.241 821.175 388.804C805.897 394.624 853.879 389.369 870.222 388.908C883.537 388.531 896.846 388.007 910.15 387.386M930.825 365.787C943.275 363.079 955.726 360.378 968.18 357.696M910.15 387.386C820.936 481.375 736.755 580.542 663.428 687.326C599.51 780.41 539.844 877.96 485.816 978.498M485.816 978.498C483.845 982.166 481.881 985.838 479.925 989.514M485.816 978.498C484.829 986.192 483.856 993.888 482.901 1001.59M479.925 989.514C480.934 993.535 481.926 997.56 482.901 1001.59M297.809 1409.82C294.068 1422.02 290.583 1434.28 287.428 1446.6M297.809 1409.82C302.031 1467.53 306.107 1525.27 308.255 1583.2C308.482 1589.32 308.698 1595.45 308.903 1601.58M297.809 1409.82C296.312 1389.37 294.797 1368.91 293.343 1348.46M287.428 1446.6C282.237 1466.88 277.941 1487.32 274.868 1507.93C274.852 1508.03 274.837 1508.14 274.821 1508.24M287.428 1446.6C289.46 1413.89 291.422 1381.18 293.343 1348.46M287.428 1446.6C284.901 1487.27 282.264 1527.93 279.458 1568.59M274.821 1508.24C271.534 1529.94 258.744 1581.94 277.165 1601.27M274.821 1508.24C276.185 1528.38 277.739 1548.5 279.458 1568.59M277.165 1601.27C277.617 1601.75 278.088 1602.2 278.578 1602.64C279.933 1603.84 281.344 1604.8 282.809 1605.56M277.165 1601.27C277.942 1590.38 278.707 1579.48 279.458 1568.59M277.165 1601.27C275.862 1619.54 274.522 1637.8 273.139 1656.06C264.683 1767.72 244.262 1899.73 272.809 2010.14C287.155 2065.62 297.312 1992.58 299.333 1973.73C304.718 1923.5 307.988 1872.66 309.689 1821.65M282.809 1605.56C290.319 1609.41 299.215 1607.52 308.903 1601.58M282.809 1605.56C281.633 1593.25 280.515 1580.92 279.458 1568.59M282.809 1605.56C285.046 1628.98 287.49 1652.34 290.101 1675.63C295.471 1723.52 301.535 1772.64 309.689 1821.65M308.903 1601.58C359.049 1570.81 430.402 1431.25 440.399 1415.16C446.547 1405.27 452.696 1395.37 458.849 1385.48M308.903 1601.58C311.333 1674.37 312.138 1748.18 309.689 1821.65M458.849 1385.48C459.487 1384.46 460.126 1383.43 460.764 1382.4M458.849 1385.48C458.853 1385.67 458.858 1385.86 458.863 1386.04M460.764 1382.4C479.048 1353.02 497.356 1323.65 515.73 1294.34M460.764 1382.4C466.981 1370.51 473.055 1358.86 478.881 1347.49C491.037 1323.78 503.311 1300.06 515.715 1276.35M460.764 1382.4C460.132 1383.61 459.498 1384.83 458.863 1386.04M515.73 1294.34C619.851 1128.24 726.057 963.732 841.625 805.033C947.622 659.476 1058.29 517.524 1166.69 373.824M515.73 1294.34C515.425 1371.38 510.547 1448.66 507.183 1525.17C505.905 1554.22 509.827 1604.93 488.874 1553.37C466.878 1499.24 460.343 1443.08 458.863 1386.04M515.73 1294.34C515.753 1288.34 515.749 1282.35 515.715 1276.35M1166.69 373.824C1172.54 366.076 1178.38 358.323 1184.21 350.564M1166.69 373.824C1218.78 371.422 1270.87 369.18 1322.96 366.966M1166.69 373.824C1148.38 374.669 1130.07 375.533 1111.77 376.423M1184.21 350.564C1190.74 341.877 1197.26 333.183 1203.76 324.481C1206.57 320.724 1210.45 315.788 1214.81 310.265M1184.21 350.564C1239.66 348.022 1295.11 345.147 1350.54 342.432M1184.21 350.564C1167.63 351.324 1151.05 352.054 1134.47 352.741M1214.81 310.265C1223.32 299.489 1233.67 286.476 1241.55 275.605M1214.81 310.265C1200.03 312.671 1185.25 315.144 1170.48 317.688M1214.81 310.265C1286 298.676 1357.33 288.626 1428.8 279.651M1241.55 275.605C1241.62 275.506 1241.69 275.407 1241.76 275.308M1241.55 275.605C1248.45 275.265 1257.61 274.803 1269.38 274.198C1282.67 273.514 1295.95 272.754 1309.23 271.935M1241.55 275.605C1214.68 276.928 1221.91 276.402 1241.76 275.308M1241.76 275.308C1257.98 252.879 1263.41 239.809 1219.69 274.998C1202.93 288.489 1186.53 302.769 1170.48 317.688M1241.76 275.308C1254.15 274.625 1271.46 273.721 1288.46 272.906C1295.38 272.574 1302.31 272.251 1309.23 271.935M1170.48 317.688C1158.28 329.026 1146.28 340.732 1134.47 352.741M1134.47 352.741C1126.82 360.514 1119.26 368.415 1111.77 376.423M1111.77 376.423C1040.48 452.652 976.173 538.698 916.643 618.96C764.725 823.787 634.308 1049.63 515.715 1276.35M458.863 1386.04C401.976 1494.88 334.094 1623.96 333.82 1744.75C333.768 1767.31 349.527 1777.74 370.215 1765.32C417.285 1737.08 449.134 1672.69 478.67 1628.45M478.67 1628.45C478.981 1627.98 479.292 1627.52 479.603 1627.05C613.306 1428.42 734.764 1221.61 873.128 1026.08C1027.68 807.676 1205.93 611.226 1374.38 404.084C1376.61 401.342 1389.22 384.538 1404.69 363.498M478.67 1628.45C480.713 1624.04 482.759 1619.65 484.805 1615.27C549.627 1476.45 621.806 1340.97 697.343 1207.74C845.486 946.436 1003.25 695.483 1211.33 477.462C1247.12 439.963 1284.21 402.358 1322.96 366.966M478.67 1628.45C467.288 1652.98 455.991 1677.88 445.293 1703.11M1404.69 363.498C1410.41 355.717 1416.52 347.357 1422.64 338.914M1404.69 363.498C1427.59 362.523 1450.5 361.539 1473.4 360.537M1404.69 363.498C1377.45 364.659 1350.21 365.809 1322.96 366.966M1422.64 338.914C1440.65 314.081 1458.74 288.536 1467.25 274.925M1422.64 338.914C1450.21 337.456 1477.76 335.766 1505.29 333.838M1422.64 338.914C1412.93 339.427 1403.21 339.912 1393.49 340.368C1379.17 341.04 1364.86 341.73 1350.54 342.432M1467.25 274.925C1470.03 270.471 1471.79 267.295 1472.18 265.84M1467.25 274.925C1454.43 276.467 1441.61 278.042 1428.8 279.651M1467.25 274.925C1501.35 270.822 1535.48 266.945 1569.64 263.243M1472.18 265.84C1472.33 265.279 1472.28 264.974 1472 264.95C1467.14 264.513 1462.16 265.042 1457.13 266.302M1472.18 265.84C1467.16 265.991 1462.14 266.145 1457.13 266.302M1472.18 265.84C1504.66 264.861 1537.15 264.006 1569.64 263.243M1457.13 266.302C1447.66 268.677 1438.03 273.646 1428.8 279.651M1457.13 266.302C1407.82 267.848 1358.52 269.689 1309.23 271.935M1428.8 279.651C1413.34 289.694 1398.97 302.633 1388.22 311.164C1375.48 321.269 1362.92 331.715 1350.54 342.432M1350.54 342.432C1341.25 350.468 1332.06 358.656 1322.96 366.966M445.293 1703.11C420.701 1761.11 399.274 1820.86 387.25 1881.96C383.928 1898.84 369.812 1954.12 389.977 1966.83C415.551 1982.95 446.862 1952.32 463.514 1936.04L464.462 1935.11C471.364 1928.36 478.081 1921.4 484.637 1914.26M445.293 1703.11C450.71 1700.11 455.975 1698.77 460.868 1699.8C504.53 1709 485.203 1853.07 484.66 1881.56C484.463 1891.87 484.519 1902.84 484.637 1914.26M445.293 1703.11C419.983 1717.15 391.369 1767.54 382.052 1782.32C327.674 1868.6 332.149 1943.48 399.543 2020.67C413.387 2036.52 428.831 2050.66 445.475 2063.22M484.637 1914.26C490.696 1907.66 496.618 1900.91 502.42 1894.03M484.637 1914.26C484.725 1922.75 484.848 1931.49 484.927 1940.4M502.42 1894.03C540.653 1848.71 573.734 1797.97 607.106 1749.97C674.985 1652.33 744.34 1555.74 813.6 1459.08C881.793 1363.9 951.429 1269.83 1021.55 1176.13M502.42 1894.03C545.637 1782.74 596.456 1674.15 650.312 1567.77C800.861 1270.39 957.779 966.628 1161.75 701.883C1253.54 582.742 1356.7 461.204 1473.4 360.537M502.42 1894.03C496.44 1909.43 490.604 1924.89 484.927 1940.4M1021.55 1176.13C1125.97 1036.58 1231.47 897.84 1334.86 757.469C1366.16 714.962 1398.22 672.497 1430.13 629.737M1021.55 1176.13C1128.08 1005.49 1246.78 842.104 1376.7 691.156C1394.13 670.912 1411.94 650.373 1430.13 629.737M1021.55 1176.13C943.813 1300.65 872.558 1429.03 808.146 1559.26C756.991 1662.68 706.822 1770.42 671.869 1880.96M1430.13 629.737C1497.06 540.056 1563.38 449.08 1620.94 353.707M1430.13 629.737C1517.25 530.91 1613.23 429.885 1718.67 348.57M1620.94 353.707C1627.18 343.373 1633.31 332.988 1639.33 322.547M1620.94 353.707C1653.53 352.092 1686.1 350.39 1718.67 348.57M1620.94 353.707C1571.77 356.145 1522.59 358.384 1473.4 360.537M1639.33 322.547C1645.42 311.989 1651.4 301.374 1657.24 290.698C1664.13 278.117 1668.01 268.433 1669.48 261.159M1639.33 322.547C1685 318.042 1730.59 312.864 1776.11 306.993M1639.33 322.547C1594.72 326.948 1550.03 330.706 1505.29 333.838M1669.48 261.159C1670.14 257.918 1670.32 255.154 1670.07 252.826M1669.48 261.159C1647.61 261.566 1625.75 262.001 1603.89 262.472M1669.48 261.159C1734.11 259.955 1798.74 258.993 1863.38 258.028M1670.07 252.826C1669.8 250.184 1668.98 248.102 1667.7 246.517M1670.07 252.826C1650.13 254.812 1630.19 256.841 1610.25 258.923M1670.07 252.826C1710.24 248.829 1750.43 245.005 1790.66 241.276M1667.7 246.517C1662.26 239.771 1648.43 242.025 1632.4 248.404M1667.7 246.517C1681 245.873 1694.31 245.308 1707.63 244.839C1735.26 243.864 1762.94 242.652 1790.66 241.276M1667.7 246.517C1655.93 247.088 1644.16 247.72 1632.4 248.404M1632.4 248.404C1625.27 251.239 1617.71 254.888 1610.25 258.923M1632.4 248.404C1524.54 254.677 1417.04 265.283 1309.23 271.935M1610.25 258.923C1608.12 260.078 1605.99 261.264 1603.89 262.472M1610.25 258.923C1596.71 260.338 1583.17 261.777 1569.64 263.243M1603.89 262.472C1596.59 266.667 1589.54 271.122 1583.28 275.418C1556.65 293.701 1530.66 313.249 1505.29 333.838M1603.89 262.472C1592.47 262.719 1581.05 262.975 1569.64 263.243M1505.29 333.838C1494.55 342.557 1483.92 351.462 1473.4 360.537M484.927 1940.4C484.42 1941.78 483.914 1943.16 483.41 1944.55C469.5 1982.76 455.475 2022.64 445.475 2063.22M484.927 1940.4C485.343 1987.1 484.568 2038.21 471.345 2080.91M445.475 2063.22C439.558 2087.23 435.049 2111.49 432.807 2135.79M445.475 2063.22C453.814 2069.51 462.455 2075.4 471.345 2080.91M432.807 2135.79C432.129 2143.15 431.658 2150.51 431.419 2157.86C430.726 2179.14 439.035 2204.16 465.116 2191.8C494.246 2178 518.027 2146.83 538.042 2113.83M432.807 2135.79C407.785 2136.76 384.183 2082.21 376.594 2064.67L376.453 2064.35C343.536 1988.28 323.58 1905.14 309.689 1821.65M432.807 2135.79C439.719 2135.53 446.738 2131.02 453.559 2120.33C461.148 2108.44 466.938 2095.14 471.345 2080.91M538.042 2113.83C554.165 2087.25 567.845 2059.49 579.91 2038.65C610.375 1986.04 640.937 1933.4 671.869 1880.96M538.042 2113.83C514.854 2104.86 492.398 2093.96 471.345 2080.91M538.042 2113.83C559.772 2122.24 582.145 2128.95 604.607 2134.14C721.441 2161.12 843.824 2172.44 963.768 2180.84M671.869 1880.96C787.328 1685.18 907.941 1492.05 1047.95 1312.91C1216.18 1097.65 1394.45 890.232 1577.71 687.701C1651.62 606.018 1727.54 526.386 1800.7 443.996C1830.73 410.184 1863.56 375.706 1889.91 337.721M671.869 1880.96C669.252 1889.23 666.721 1897.52 664.281 1905.83C649.836 1954.99 625.763 2029.72 645.749 2081.13C685.087 2182.32 816.255 2031.19 845.107 1997.95L846.008 1996.91C859.221 1981.69 872.296 1966.36 885.251 1950.93M1889.91 337.721C1899.34 324.13 1907.93 310.09 1915.27 295.471C1916.94 292.146 1918.35 289.039 1919.51 286.138M1889.91 337.721C2032.91 327.449 2175.66 313.79 2317.98 294.009M1889.91 337.721C1832.87 341.819 1775.78 345.377 1718.67 348.57M1919.51 286.138C1925.16 271.993 1924.97 262.762 1920.95 257.161M1919.51 286.138C1937.08 283.29 1954.64 280.335 1972.18 277.272L1979.12 276.062C2018.69 269.157 2058.27 262.251 2097.6 254.087M1919.51 286.138C1871.8 293.871 1824 300.815 1776.11 306.993M1920.95 257.161C1912.48 245.369 1887.02 249.657 1863.38 258.028M1920.95 257.161C1901.76 257.454 1882.57 257.741 1863.38 258.028M1920.95 257.161C1979.84 256.26 2038.72 255.297 2097.6 254.087M1863.38 258.028C1850.09 262.735 1837.37 268.733 1828.57 273.888C1810.84 284.271 1793.35 295.336 1776.11 306.993M1776.11 306.993C1756.66 320.139 1737.51 334.04 1718.67 348.57M885.251 1950.93C1030.87 1777.5 1161.46 1591.49 1303.76 1415.1M885.251 1950.93C871.009 1948.88 862.269 1936.35 864.778 1906.37C869.101 1854.7 896.311 1804.77 921.167 1760.49C969.253 1674.83 1025.72 1595.38 1082.87 1515.62C1280.63 1239.62 1487.56 966.306 1732.39 729.95C1905.02 563.295 2101.91 405.083 2317.98 294.009M885.251 1950.93C918.985 1955.8 983.588 1901.91 1002.7 1882.02C1031.67 1851.86 1060.28 1821.36 1088.64 1790.61M1303.76 1415.1C1325.59 1388.03 1347.7 1361.2 1370.18 1334.67C1452.39 1237.64 1537.93 1143.77 1625.96 1052.32M1303.76 1415.1C1430.12 1213.87 1572.23 1020.31 1720.93 838.841C1893.31 628.468 2103.22 431.815 2338.86 291.094M1303.76 1415.1C1249.48 1501.53 1198.11 1589.38 1150.37 1678.29C1131.2 1714 1109.63 1751.62 1088.64 1790.61M1625.96 1052.32C1776.4 896.033 1934.12 746.805 2094.95 600.916C2204.36 501.669 2318.83 405.74 2427.69 305.145M1625.96 1052.32C1691.96 965.574 1760.56 881.136 1831.04 799.298C1991.44 613.068 2168.87 440.425 2361.94 287.838M1625.96 1052.32C1497.5 1221.16 1378.84 1398.76 1275.09 1582.98M2427.69 305.145C2439.22 294.488 2450.69 283.778 2462.09 273.007M2427.69 305.145C2444.43 310.928 2460.56 316.195 2476.55 320.707M2427.69 305.145C2415.43 300.908 2402.84 296.394 2389.74 291.696L2387.16 290.769C2382.71 289.173 2378.25 287.635 2373.78 286.15M2462.09 273.007C2472.2 263.447 2482.26 253.837 2492.24 244.173M2462.09 273.007C2485 269.434 2507.89 265.716 2530.74 261.798C2531.69 261.636 2534.69 261.017 2538.82 260.116M2462.09 273.007C2432.69 277.591 2403.24 281.935 2373.78 286.15M2492.24 244.173C2496.96 239.607 2501.66 235.029 2506.35 230.437C2506.95 229.845 2507.76 229.08 2508.68 228.191M2492.24 244.173C2468.68 244.233 2445.13 244.552 2421.57 245.044M2492.24 244.173C2493.18 244.171 2494.12 244.169 2495.05 244.167C2511.59 244.14 2536.7 240.291 2558.19 241.498M2508.68 228.191C2511.92 225.061 2516.65 220.397 2519.49 216.316M2508.68 228.191C2492.69 229.053 2474.69 229.906 2455.51 230.739M2508.68 228.191C2571.24 224.816 2602.94 221.29 2553.92 218.218C2542.45 217.499 2530.97 216.867 2519.49 216.316M2519.49 216.316C2522.04 212.645 2523.06 209.448 2520.09 208.266M2519.49 216.316C2512.05 215.96 2504.62 215.638 2497.18 215.348M2520.09 208.266C2518.84 207.772 2516.9 207.631 2514.07 207.956C2504.06 209.11 2493.88 211.538 2483.69 214.859M2520.09 208.266C2551.81 199.336 2581.92 194.927 2597.13 203.747M2520.09 208.266C2512.48 210.407 2504.78 212.808 2497.18 215.348M2483.69 214.859C2470.64 219.109 2457.55 224.821 2444.72 231.2M2483.69 214.859C2488.18 215.01 2492.68 215.173 2497.18 215.348M2483.69 214.859C2475.32 214.577 2466.95 214.336 2458.57 214.133M2444.72 231.2C2435.85 235.605 2427.11 240.328 2418.59 245.107M2444.72 231.2C2441.52 231.335 2438.29 231.469 2435.04 231.603M2444.72 231.2C2448.35 231.047 2451.95 230.893 2455.51 230.739M2418.59 245.107C2416.67 246.184 2414.76 247.263 2412.86 248.342M2418.59 245.107C2418.08 245.118 2417.58 245.129 2417.08 245.14M2418.59 245.107C2419.58 245.085 2420.58 245.064 2421.57 245.044M2412.86 248.342C2411.42 249.161 2409.99 249.979 2408.57 250.795M2412.86 248.342C2414.27 247.274 2415.67 246.206 2417.08 245.14M2412.86 248.342C2412.27 248.79 2411.69 249.237 2411.1 249.684M2408.57 250.795C2398.17 256.76 2388.17 262.649 2378.75 267.953C2371.31 272.14 2363.9 276.385 2356.51 280.685M2408.57 250.795C2409.41 250.424 2410.26 250.054 2411.1 249.684M2408.57 250.795C2388.55 259.599 2368.69 268.832 2348.98 278.466M2356.51 280.685C2350.61 284.119 2344.73 287.589 2338.86 291.094M2356.51 280.685C2359.99 281.729 2363.46 282.805 2366.92 283.912M2356.51 280.685C2354 279.929 2351.49 279.19 2348.98 278.466M2338.86 291.094C2346.55 290.015 2354.25 288.931 2361.94 287.838M2338.86 291.094C2332.05 292.049 2325.24 292.999 2318.43 293.947C2318.28 293.967 2318.13 293.988 2317.98 294.009M1088.64 1790.61C1035.81 1888.69 986.533 1995.38 987.815 2101.78C988.707 2175.75 1065.34 2147.7 1100.55 2113.99C1119.62 2095.74 1137.14 2075.63 1153.68 2054.51M1088.64 1790.61C1151.67 1722.26 1213.44 1652.67 1275.09 1582.98M1153.68 2054.51C1189.76 2008.43 1221.15 1957.53 1253.72 1910.5C1336.56 1790.88 1417.51 1670.03 1502.92 1552.2C1722.68 1249.08 1969.39 964.475 2227.79 693.785C2318.34 598.925 2411.12 504.49 2494.27 402.922C2511.43 381.959 2530.94 359.125 2549.12 335.108M1153.68 2054.51C1143.39 2056.22 1132.76 2055.62 1121.93 2051.58C1035.48 2019.33 1182.06 1757.64 1201.34 1720.06C1224.97 1673.99 1249.58 1628.28 1275.09 1582.98M1153.68 2054.51C1173.5 2051.22 1192.06 2039.35 1208.36 2026.97C1278.26 1973.9 1332.6 1900.3 1388.34 1833.51C1411.31 1805.99 1434.25 1778.44 1457.19 1750.87M2549.12 335.108C2571.31 305.813 2591.53 274.758 2603.15 243.186C2610.95 221.996 2607.53 209.778 2597.13 203.747M2549.12 335.108C2574.62 337.736 2601.47 337.759 2631.36 334.323C2697.95 326.671 2764.21 306.537 2831.43 306.359C2848.85 306.313 2860.2 307.096 2875.39 298.81C2951.4 257.35 2933.29 420.645 2932.45 451.306C2929.4 563.091 2907.76 676.186 2889.06 786.919M2549.12 335.108C2524.17 332.535 2500.52 327.469 2476.55 320.707M2597.13 203.747C2584.24 216.441 2571.22 228.989 2558.19 241.498M2597.13 203.747C2630.81 170.564 2663.52 136.386 2692.55 99.3106C2698.44 91.7788 2727.96 57.308 2699.68 64.8369C2642.2 80.1361 2584.21 125.363 2536.39 158.532C2510.19 176.702 2484.25 195.24 2458.57 214.133M2497.18 215.348C2482.51 220.246 2468.18 225.662 2455.51 230.739M2455.51 230.739C2441.65 236.289 2429.77 241.431 2421.57 245.044M2421.57 245.044C2416.85 247.124 2413.36 248.696 2411.41 249.547C2411.31 249.593 2411.2 249.639 2411.1 249.684M2411.1 249.684C2396.28 260.977 2381.56 272.387 2366.92 283.912M2348.98 278.466C2338.6 283.538 2328.27 288.72 2317.98 294.009M2348.98 278.466C2302.33 265.046 2255.03 257.024 2207.09 251.508M1275.09 1582.98C1347.14 1501.53 1419.03 1419.94 1492.57 1339.99C1731.56 1080.18 1972.75 822.763 2221.79 572.526C2306.03 487.872 2391.1 404.126 2476.55 320.707M2476.55 320.707C2491.34 306.267 2506.14 291.837 2520.95 277.414C2526.88 271.638 2532.84 265.876 2538.82 260.116M2538.82 260.116C2545.27 253.911 2551.73 247.709 2558.19 241.498M2538.82 260.116C2554.83 256.628 2587.81 248.912 2584.12 247.112C2576.99 243.64 2567.97 242.046 2558.19 241.498M2458.57 214.133C2450.7 219.923 2442.86 225.746 2435.04 231.603M2458.57 214.133C2349.43 211.488 2239.74 215.345 2130.07 221.259M2435.04 231.603C2429.03 236.096 2423.05 240.608 2417.08 245.14M2435.04 231.603C2350.56 235.072 2249.99 238.121 2196.78 239.982C2181.86 240.504 2166.93 240.909 2152 241.218M2417.08 245.14C2380.91 245.928 2344.75 247.111 2308.61 248.378C2274.77 249.564 2240.93 250.596 2207.09 251.508M2366.92 283.912C2365.26 285.219 2363.6 286.528 2361.94 287.838M2366.92 283.912C2369.21 284.644 2371.5 285.39 2373.78 286.15M2361.94 287.838C2365.89 287.278 2369.84 286.715 2373.78 286.15M1457.19 1750.87C1632.38 1540.34 1807.53 1329.01 1992.88 1127.55C1994.34 1125.97 1995.8 1124.38 1997.26 1122.79M1457.19 1750.87C1475.08 1721.61 1489.23 1700.04 1493.86 1692.57C1735.08 1303.04 2042.82 961.495 2392.91 668.251M1457.19 1750.87C1396.71 1849.77 1293.43 2036.46 1370.35 2063.03C1414.7 2078.34 1463.05 2034.43 1493.43 2008.95C1504.34 1999.81 1515.06 1990.42 1525.62 1980.83M1997.26 1122.79C2184.83 919.304 2383.03 728.381 2586.96 541.624C2606.93 523.334 2665.76 486.16 2672.58 457.177C2673.49 453.305 2655.07 464.738 2654.77 464.933C2633.63 478.463 2613.54 493.779 2593.51 508.874C2525.27 560.311 2458.35 613.438 2392.91 668.251M1997.26 1122.79C2098.82 978.642 2211.66 842.72 2338.49 720.644C2356.09 703.7 2374.24 686.111 2392.91 668.251M1997.26 1122.79C1901.25 1259.08 1815.32 1402.72 1737.18 1548.97L1736.39 1550.46C1672.74 1669.6 1608.59 1789.67 1556.41 1914.38C1550.16 1929.32 1536.36 1954.73 1525.62 1980.83M2392.91 668.251C2503.99 561.993 2633.46 446.162 2775.94 399.622C2889.51 362.525 2798.14 476.475 2773.03 514.532C2467.32 977.777 2088.75 1395.72 1706.38 1796.33C1647.3 1858.22 1589.26 1923.1 1525.62 1980.83M1525.62 1980.83C1514.83 2007.08 1507.13 2034.04 1513.31 2051.79C1520.45 2072.26 1561.52 2031.68 1565.65 2027.59C1626.15 1967.56 1678.14 1899.27 1731.17 1832.79C1881.58 1644.17 2039.73 1461.95 2199.53 1281.24M2199.53 1281.24C2261.26 1211.44 2323.24 1141.87 2385.11 1072.23C2510.94 930.629 2632.01 778.455 2767.35 643.56M2199.53 1281.24C2343.26 1085.19 2500.96 901.236 2674.63 728.626C2704.49 698.944 2735.78 671.089 2767.35 643.56M2199.53 1281.24C2144.47 1356.36 2091.45 1433.25 2040.37 1511.96C1912.49 1709.01 1778.55 1913.14 1684.45 2130.43M2767.35 643.56C2778.37 632.576 2789.49 621.706 2800.71 610.966M2767.35 643.56C2778.21 634.093 2789.1 624.665 2799.97 615.214M2800.71 610.966C2810.06 602.013 2819.49 593.15 2828.99 584.386M2800.71 610.966C2807.05 574.408 2813.48 537.866 2819.73 501.293C2821.96 488.273 2821.92 464.733 2829.23 453.115C2829.59 452.53 2832.61 500.539 2832.47 506.549C2831.86 532.543 2830.52 558.473 2828.99 584.386M2800.71 610.966C2800.46 612.382 2800.22 613.798 2799.97 615.214M2828.99 584.386C2843.25 571.236 2857.69 558.309 2872.33 545.634C2879.66 539.283 2883.45 536.347 2884.84 535.664M2828.99 584.386C2828.88 586.304 2828.77 588.222 2828.65 590.14M2884.84 535.664C2885.74 535.226 2885.64 535.716 2884.86 536.825M2884.84 535.664C2884.37 490.283 2880.84 445.04 2869 402.767C2863.49 383.087 2868.27 381.061 2876.15 399.899C2915.61 494.329 2903.26 606.848 2895.82 706.062C2893.8 733.026 2891.54 759.979 2889.06 786.919M2884.84 535.664C2884.85 536.051 2884.85 536.438 2884.86 536.825M2884.86 536.825C2882.37 540.35 2872.94 550.131 2866.25 556.303C2853.84 567.751 2841.28 578.998 2828.65 590.14M2884.86 536.825C2885.24 578.011 2883.15 619.291 2882.53 658.549C2880.41 792.923 2863.97 924.947 2842.29 1056.17M2828.65 590.14C2819.12 598.543 2809.55 606.888 2799.97 615.214M2828.65 590.14C2825.61 640.905 2822.02 691.615 2821.99 742.608C2821.92 847.752 2831.67 952.012 2842.29 1056.17M2799.97 615.214C2796.23 636.827 2792.52 658.446 2788.9 680.08C2758.53 861.569 2732.71 1043.22 2711.26 1225.91M1684.45 2130.43C1682.09 2135.89 1679.75 2141.35 1677.44 2146.82M1684.45 2130.43C1726.84 2128.42 1769.24 2126.54 1811.64 2124.67M1684.45 2130.43C1586.77 2135.07 1489.13 2140.42 1391.62 2148.07C1248.92 2159.27 1106.5 2171.6 963.768 2180.84M1677.44 2146.82C1677.06 2147.73 1676.67 2148.64 1676.29 2149.55M1677.44 2146.82C1649.7 2148.24 1621.96 2149.69 1594.23 2151.2M1677.44 2146.82C1717.8 2144.77 1758.16 2142.82 1798.53 2140.94M1676.29 2149.55C1676.27 2149.6 1676.25 2149.65 1676.23 2149.69M1676.29 2149.55C1675.09 2149.62 1673.89 2149.69 1672.69 2149.77M1676.29 2149.55C1716.39 2147.13 1756.52 2145 1796.71 2143.19M1676.23 2149.69C1675.09 2152.41 1673.95 2155.12 1672.83 2157.84M1676.23 2149.69C1705.61 2149.12 1736.07 2148.99 1766.01 2150.93M1676.23 2149.69C1675.05 2149.72 1673.87 2149.74 1672.69 2149.77M1672.83 2157.84C1672.09 2159.61 1671.36 2161.39 1670.62 2163.17M1672.83 2157.84C1690 2156.45 1711.74 2155.06 1725.36 2153.99C1738.91 2152.92 1752.46 2151.9 1766.01 2150.93M1672.83 2157.84C1646.72 2159.95 1631.16 2162.08 1670.62 2163.17M1670.62 2163.17C1667.26 2171.35 1663.95 2179.55 1660.7 2187.76C1658.67 2192.9 1654.96 2201.43 1651.22 2211.33M1670.62 2163.17C1675.15 2163.29 1680.39 2163.4 1686.42 2163.49C1717.98 2163.99 1749.52 2163.5 1781.05 2162.35M1651.22 2211.33C1642.6 2234.15 1633.84 2264.23 1645.26 2276.66C1666.4 2299.66 1714.45 2240.76 1724.24 2229.51C1729 2224.05 1733.73 2218.57 1738.45 2213.07M1651.22 2211.33C1592.52 2209.42 1533.85 2206.33 1475.49 2203.95C1373.17 2199.77 1270.86 2196.77 1168.6 2192.34M1651.22 2211.33C1680.3 2212.28 1709.39 2212.93 1738.45 2213.07M1738.45 2213.07C1752.81 2196.32 1767 2179.41 1781.05 2162.35M1738.45 2213.07C1770.05 2213.22 1801.62 2212.75 1833.1 2211.37C1839.63 2211.08 1939.49 2204.86 1902.56 2184.56C1881.66 2173.07 1858.34 2165.2 1833.67 2159.87M1781.05 2162.35C1783.65 2159.19 1786.24 2156.02 1788.84 2152.85M1781.05 2162.35C1798.59 2161.71 1816.13 2160.86 1833.67 2159.87M1788.84 2152.85C1789.84 2151.62 1790.85 2150.38 1791.86 2149.15M1788.84 2152.85C1804.1 2154.46 1819.12 2156.72 1833.67 2159.87M1788.84 2152.85C1781.28 2152.06 1773.66 2151.43 1766.01 2150.93M1791.86 2149.15C1793.48 2147.16 1795.09 2145.18 1796.71 2143.19M1791.86 2149.15C1866.35 2144.17 1940.9 2140.63 2015.49 2138.18M1791.86 2149.15C1783.24 2149.72 1774.63 2150.32 1766.01 2150.93M1796.71 2143.19C1797.31 2142.44 1797.92 2141.69 1798.53 2140.94M1796.71 2143.19C1801.71 2142.97 1806.72 2142.75 1811.73 2142.53C1879.75 2139.61 1948.03 2138.01 2016.36 2136.27M1798.53 2140.94C1802.91 2135.53 1807.29 2130.11 1811.64 2124.67M1798.53 2140.94C1871.88 2137.54 1945.24 2134.4 2018.59 2131.42M1811.64 2124.67C1942.81 1960.97 2061.7 1785.35 2183.17 1615.66C2268.21 1496.88 2353.85 1378.56 2443.54 1263.23C2491.36 1201.73 2538.75 1128.32 2600.54 1079.43C2629.1 1056.82 2618.4 1088.06 2608.75 1103.9C2569.38 1168.54 2524.75 1230.02 2484.68 1294.28C2343.47 1520.73 2205.04 1747.55 2088.62 1988.09C2068.24 2030.19 2046.58 2072.12 2026.44 2114.63M1811.64 2124.67C1883.25 2121.51 1954.86 2118.37 2026.44 2114.63M2026.44 2114.63C2023.79 2120.22 2021.17 2125.81 2018.59 2131.42M2026.44 2114.63C2042.29 2113.8 2058.13 2112.95 2073.97 2112.05M2018.59 2131.42C2017.84 2133.04 2017.1 2134.65 2016.36 2136.27M2018.59 2131.42C2032.6 2130.85 2046.61 2130.29 2060.61 2129.73M2016.36 2136.27C2016.07 2136.91 2015.78 2137.54 2015.49 2138.18M2016.36 2136.27C2029.68 2135.93 2043.01 2135.59 2056.33 2135.23M2015.49 2138.18C2014.18 2141.04 2012.88 2143.92 2011.59 2146.79M2015.49 2138.18C2028.64 2137.74 2041.8 2137.34 2054.95 2136.98M2011.59 2146.79C2010.27 2149.73 2008.97 2152.67 2007.67 2155.62M2011.59 2146.79C1952.32 2151.42 1893.02 2156.5 1833.67 2159.87M2011.59 2146.79C2024.2 2145.81 2036.81 2144.84 2049.42 2143.92M2007.67 2155.62C2004.84 2162.07 2002.06 2168.53 1999.34 2175.02M2007.67 2155.62C2000.62 2157.26 1993.57 2158.89 1986.51 2160.5C1933.21 2172.68 1968.53 2174.8 1999.34 2175.02M2007.67 2155.62C2020.98 2152.53 2034.28 2149.39 2047.57 2146.21M1999.34 2175.02C1997.13 2180.29 1994.97 2185.57 1992.85 2190.86C1982.12 2217.71 1995.94 2203.4 2008.34 2190.58L2009.44 2189.44C2014.05 2184.68 2018.57 2179.84 2023.01 2174.93M1999.34 2175.02C2007.63 2175.08 2015.59 2175 2021.41 2174.94L2022.94 2174.93C2022.96 2174.93 2022.99 2174.93 2023.01 2174.93M2023.01 2174.93C2031.47 2165.58 2039.63 2155.99 2047.57 2146.21M2023.01 2174.93C2154.49 2173.64 2283.99 2160.52 2414.29 2143.73C2440.78 2140.31 2467.39 2136.47 2494.06 2132.83M2047.57 2146.21C2048.19 2145.45 2048.8 2144.68 2049.42 2143.92M2047.57 2146.21C2051.84 2145.19 2056.11 2144.16 2060.38 2143.13M2049.42 2143.92C2051.28 2141.62 2053.12 2139.3 2054.95 2136.98M2049.42 2143.92C2053.07 2143.65 2056.73 2143.39 2060.38 2143.13M2054.95 2136.98C2055.41 2136.39 2055.87 2135.81 2056.33 2135.23M2054.95 2136.98C2066.41 2136.66 2077.87 2136.36 2089.32 2136.09M2056.33 2135.23C2057.77 2133.4 2059.19 2131.57 2060.61 2129.73M2056.33 2135.23C2070.1 2134.85 2083.87 2134.46 2097.63 2134.04M2060.61 2129.73C2065.13 2123.89 2069.58 2117.99 2073.97 2112.05M2060.61 2129.73C2076.61 2129.09 2092.6 2128.46 2108.59 2127.83C2114.17 2127.61 2119.75 2127.39 2125.34 2127.16M2073.97 2112.05C2094.91 2083.78 2114.64 2054.56 2134.53 2025.65C2204.43 1924.08 2275.22 1823.12 2344.41 1721.07C2418.08 1612.42 2490.95 1502.66 2569.09 1397.14C2611.75 1339.54 2656.78 1274.26 2711.26 1225.91M2073.97 2112.05C2079.19 2111.76 2084.41 2111.46 2089.62 2111.16C2134.57 2108.55 2179.62 2105.08 2224.71 2101.82M2711.26 1225.91C2714.37 1223.15 2717.5 1220.45 2720.67 1217.81C2746.2 1196.53 2745.73 1213.31 2735.11 1236.76C2724.67 1259.81 2713.49 1282.61 2701.9 1305.24M2711.26 1225.91C2710.11 1235.75 2708.96 1245.6 2707.83 1255.45C2705.93 1272.05 2703.95 1288.65 2701.9 1305.24M2701.9 1305.24C2682.94 1342.29 2662.89 1378.88 2643.25 1415.32C2551.03 1586.46 2457.41 1756.67 2374.06 1932.42C2365.09 1951.34 2342.28 1984.33 2342.28 2006.6C2342.28 2030.33 2374.69 1971.85 2389.3 1953.15C2486.8 1828.39 2577.79 1697.99 2667.86 1567.65M2701.9 1305.24C2691.14 1392.75 2678.77 1480.13 2667.86 1567.65M2667.86 1567.65C2676.2 1555.59 2684.53 1543.53 2692.85 1531.47L2702.06 1518.13C2726.44 1482.82 2750.85 1447.45 2776.97 1413.44M2667.86 1567.65C2659.52 1634.58 2652.03 1701.59 2646.76 1768.81C2641.84 1831.61 2639.62 1894.46 2639.43 1957.43M2776.97 1413.44C2782.76 1405.89 2788.64 1398.41 2794.62 1391.01M2776.97 1413.44C2798.52 1294.24 2822.57 1175.53 2842.29 1056.17M2776.97 1413.44C2760.04 1507.06 2744.66 1601 2734.14 1695.81C2733.64 1700.31 2731.93 1719.47 2730.55 1738.83M2794.62 1391.01C2800.1 1384.23 2805.66 1377.53 2811.32 1370.9M2794.62 1391.01C2793.66 1397.47 2792.69 1403.92 2791.73 1410.38L2790.64 1417.66C2776.23 1514.22 2761.78 1611.02 2744.9 1707.25M2794.62 1391.01C2810.62 1284.2 2827.07 1177.51 2843.79 1070.85M2811.32 1370.9C2818.21 1362.84 2825.26 1354.89 2832.47 1347.08C2835.77 1343.5 2851.62 1325.58 2865.42 1315.9M2811.32 1370.9C2795.12 1473.29 2777.95 1575.66 2758.03 1677.46M2811.32 1370.9C2811.71 1368.43 2812.1 1365.95 2812.5 1363.47C2825.17 1283.13 2837.58 1202.6 2849.03 1121.91M2865.42 1315.9C2876.39 1308.2 2886.07 1305.71 2887.13 1319.76C2889.49 1351.16 2880.19 1383.26 2868.74 1413.95M2865.42 1315.9C2867.26 1348.52 2868.46 1381.2 2868.74 1413.95M2865.42 1315.9C2861.77 1251.09 2855.59 1186.49 2849.03 1121.91M2868.74 1413.95C2862.44 1430.85 2855.49 1447.32 2849.47 1463C2821.63 1535.6 2789.45 1606.38 2758.03 1677.46M2868.74 1413.95C2868.78 1418.96 2868.81 1423.97 2868.81 1428.99C2868.81 1521.03 2862.7 1612.66 2854.64 1704.17M2758.03 1677.46C2754.65 1685.1 2751.28 1692.74 2747.93 1700.39C2746.93 1702.67 2745.92 1704.96 2744.9 1707.25M2758.03 1677.46C2743.01 1754.2 2726.42 1830.62 2707.5 1906.47L2706.44 1910.72C2699.26 1939.5 2692.06 1968.39 2683.6 1996.87M2744.9 1707.25C2740.28 1717.66 2735.47 1728.2 2730.55 1738.83M2744.9 1707.25C2741.41 1727.2 2737.8 1747.13 2734.08 1767.02C2726.75 1806.12 2728.17 1772.17 2730.55 1738.83M2730.55 1738.83C2698.38 1808.42 2661.41 1882.55 2639.43 1957.43M2639.43 1957.43C2635.48 1970.9 2632.01 1984.39 2629.15 1997.89M2639.43 1957.43C2639.43 1960.24 2639.42 1963.04 2639.42 1965.84C2639.42 1975.24 2638.93 1985.38 2638.54 1995.78M2629.15 1997.89C2629.14 1997.91 2629.14 1997.93 2629.13 1997.96M2629.15 1997.89C2632.28 1997.18 2635.41 1996.47 2638.54 1995.78M2629.15 1997.89C2625.74 1998.66 2622.33 1999.45 2618.93 2000.25M2629.13 1997.96C2626.02 2012.6 2623.62 2027.24 2622.07 2041.86M2629.13 1997.96C2625.48 1998.77 2621.98 1999.56 2618.93 2000.25M2629.13 1997.96C2632.22 1997.27 2635.41 1996.56 2638.54 1995.86M2622.07 2041.86C2622.03 2042.16 2622 2042.47 2621.97 2042.77C2619.88 2062.95 2628.26 2061.33 2640.45 2050.05M2622.07 2041.86C2595.69 2045.11 2569.38 2048.61 2543.15 2052.28C2459.14 2064.04 2363.78 2093.94 2277.88 2087.97M2622.07 2041.86C2627.73 2041.17 2633.4 2040.48 2639.07 2039.81M2640.45 2050.05C2643.92 2046.84 2647.71 2042.84 2651.65 2038.33M2640.45 2050.05C2639.87 2046.69 2639.42 2043.27 2639.07 2039.81M2640.45 2050.05C2641.69 2057.28 2643.51 2064.24 2646.15 2070.75C2652.43 2086.26 2662.06 2059.74 2663.74 2055.44C2666.23 2049.05 2668.61 2042.62 2670.9 2036.16M2651.65 2038.33C2662.16 2026.32 2673.79 2010.72 2683.6 1996.87M2651.65 2038.33C2647.46 2038.82 2643.26 2039.31 2639.07 2039.81M2651.65 2038.33C2658.06 2037.59 2664.48 2036.87 2670.9 2036.16M2683.6 1996.87C2695.32 1980.31 2704.45 1966.26 2705.98 1963.85C2759.45 1879.31 2806.28 1791.33 2854.64 1704.17M2683.6 1996.87C2679.67 2010.07 2675.48 2023.19 2670.9 2036.16M2854.64 1704.17C2874.96 1667.55 2895.55 1631.07 2917.01 1595.06C2961.08 1521.13 2917.08 1702.03 2913.09 1717.18C2888.27 1811.38 2860.57 1904.29 2827.3 1995.71M2854.64 1704.17C2846.07 1801.36 2835.3 1898.42 2827.3 1995.71M2827.3 1995.71C2823.91 2005.03 2820.46 2014.33 2816.95 2023.62M2827.3 1995.71C2826.55 2004.86 2825.82 2014.01 2825.12 2023.16M2816.95 2023.62C2815.84 2026.58 2814.71 2029.53 2813.59 2032.48C2805.7 2053.08 2781.3 2098.47 2768.4 2139.23M2816.95 2023.62C2768.2 2026.48 2719.46 2030.82 2670.9 2036.16M2816.95 2023.62C2819.67 2023.46 2822.4 2023.31 2825.12 2023.16M2768.4 2139.23C2760.48 2164.26 2756.9 2187.55 2764.13 2202.3C2774.43 2223.3 2802.96 2155.21 2804.67 2151.07C2808.38 2142.1 2811.29 2133.07 2813.61 2123.95M2768.4 2139.23C2783.54 2134.34 2798.62 2129.24 2813.61 2123.95M2768.4 2139.23C2708.07 2158.74 2646.67 2175.06 2585.43 2187.51C2538.87 2196.96 2462.83 2226.96 2415.18 2219.9M2813.61 2123.95C2818.71 2103.87 2820.92 2083.36 2822.33 2062.15C2823.19 2049.15 2824.13 2036.15 2825.12 2023.16M2813.61 2123.95C2852.78 2110.14 2891.37 2095.02 2929.03 2078.8C2989.4 2052.81 3020.79 2019.55 2934.88 2019.84C2898.33 2019.96 2861.72 2021.14 2825.12 2023.16M2849.03 1121.91C2847.29 1104.89 2845.54 1087.87 2843.79 1070.85M2849.03 1121.91C2864.83 1010.52 2878.79 898.831 2889.06 786.919M2843.79 1070.85C2843.29 1065.96 2842.79 1061.06 2842.29 1056.17M2843.79 1070.85C2856.45 990.145 2869.26 909.459 2882.17 828.76C2884.39 814.856 2886.7 800.906 2889.06 786.919M2638.54 1995.78C2638.54 1995.81 2638.54 1995.83 2638.54 1995.86M2638.54 1995.78C2640.16 1995.42 2641.78 1995.07 2643.39 1994.72C2675.89 1987.66 2658.6 1991.41 2638.54 1995.86M2638.54 1995.86C2637.99 2010.39 2637.64 2025.46 2639.07 2039.81M2207.09 251.508C2184.39 248.898 2161.54 246.849 2138.55 245.055M2207.09 251.508C2170.59 252.492 2134.1 253.337 2097.6 254.087M2138.55 245.055C2132.81 244.607 2127.06 244.175 2121.31 243.754C2110.03 242.929 2092.33 242.396 2073.66 242.061M2138.55 245.055C2138.79 245 2139.02 244.945 2139.25 244.89C2140.4 244.62 2146.18 243.242 2152 241.218M2138.55 245.055C2124.94 248.253 2111.28 251.247 2097.6 254.087M2073.66 242.061C2026.38 241.212 1972.87 241.638 2001.5 241.842C2025.54 242.014 2049.6 242.116 2073.66 242.061ZM2073.66 242.061C2099.77 242.001 2125.89 241.757 2152 241.218M2152 241.218C2161.53 237.898 2171.14 232.841 2160.5 228.086C2151.71 224.157 2141.26 222.131 2130.07 221.259M2130.07 221.259C2016.7 227.371 1903.35 235.681 1790.66 241.276M2130.07 221.259C2102.11 219.079 2069.52 224.091 2046.52 224.599C1962.18 226.464 1878.07 233.183 1794.09 240.957C1792.95 241.064 1791.8 241.17 1790.66 241.276M284.585 1074.95C285.102 1064.67 285.811 1062.97 284.585 1074.95ZM963.768 2180.84C975.552 2181.67 987.313 2182.46 999.043 2183.24C1022.77 2184.82 1046.51 2186.25 1070.24 2187.55M963.768 2180.84C918.684 2183.76 873.568 2186.37 828.402 2188.54C806.381 2189.6 779.441 2186.84 757.917 2192.81C739.118 2198.03 796.808 2196.5 816.317 2196.74C900.928 2197.78 985.614 2193.54 1070.24 2187.55M1070.24 2187.55C1083.99 2188.31 1097.73 2189.02 1111.48 2189.7M1070.24 2187.55C1147.42 2182.09 1224.55 2175.16 1301.53 2169.44M1111.48 2189.7C1130.52 2190.64 1149.56 2191.51 1168.6 2192.34M1111.48 2189.7C1174.91 2183.23 1238.19 2175.93 1301.53 2169.44M1111.48 2189.7C1067.61 2194.17 1023.67 2198.25 979.581 2201.39C839.71 2211.35 699.735 2215.27 559.571 2217.01C488.056 2217.89 584.809 2226.74 604.665 2227.96C771.451 2238.19 940.514 2216.12 1106.08 2198.8C1126.92 2196.62 1147.76 2194.47 1168.6 2192.34M1168.6 2192.34C1336.54 2175.2 1504.3 2159.99 1672.69 2149.77M1672.69 2149.77C1646.34 2150.32 1620.91 2151.19 1597.57 2151.2C1596.45 2151.2 1595.34 2151.2 1594.23 2151.2M1594.23 2151.2C1496.01 2151.43 1398.7 2159.48 1301.53 2169.44M1594.23 2151.2C1509.75 2155.8 1425.32 2160.89 1340.96 2166.63C1327.82 2167.52 1314.68 2168.46 1301.53 2169.44M2097.63 2134.04C2180.67 2131.5 2263.63 2127.89 2346.08 2120.56C2358.57 2119.45 2371.07 2118.28 2383.54 2116.9M2097.63 2134.04C2094.86 2134.73 2092.09 2135.41 2089.32 2136.09M2097.63 2134.04C2106.87 2131.76 2116.11 2129.47 2125.34 2127.16M2383.54 2116.9C2413.2 2113.63 2442.72 2109.21 2471.66 2101.77C2478.17 2100.1 2505.05 2093.69 2484.07 2092.98C2397.69 2090.1 2311.12 2095.57 2224.71 2101.82M2383.54 2116.9C2297.17 2119.17 2210.8 2123.68 2125.34 2127.16M2383.54 2116.9C2465.52 2114.75 2547.49 2114.6 2628.67 2119.26M2224.71 2101.82C2191.62 2110.4 2158.5 2118.87 2125.34 2127.16M2224.71 2101.82C2242.44 2097.23 2260.16 2092.6 2277.88 2087.97M2628.67 2119.26C2637.13 2119.74 2645.58 2120.28 2654.02 2120.87C2659.08 2121.23 2665.18 2121.73 2671.66 2122.32M2628.67 2119.26C2654.64 2118.12 2680.62 2118.18 2706.59 2119.99C2729.89 2121.62 2706.64 2122.13 2671.66 2122.32M2628.67 2119.26C2612.63 2119.96 2596.6 2121.11 2580.57 2122.58M2671.66 2122.32C2710.46 2125.9 2762.92 2132.95 2687.85 2132.95C2623.26 2132.95 2558.66 2132.84 2494.06 2132.83M2671.66 2122.32C2642.74 2122.48 2605.81 2122.42 2580.57 2122.58M2494.06 2132.83C2410.9 2132.82 2327.74 2132.95 2244.58 2133.65C2233.91 2133.73 2223.24 2133.84 2212.57 2133.96M2494.06 2132.83C2522.83 2128.91 2551.68 2125.23 2580.57 2122.58M2212.57 2133.96C2171.48 2134.42 2130.39 2135.11 2089.32 2136.09M2212.57 2133.96C2166.67 2136.29 2120.78 2139 2074.92 2142.12C2070.07 2142.45 2065.23 2142.79 2060.38 2143.13M2212.57 2133.96C2330.35 2127.96 2448.25 2124.42 2566.16 2122.72C2570.3 2122.66 2575.17 2122.61 2580.57 2122.58M2089.32 2136.09C2079.68 2138.45 2070.03 2140.8 2060.38 2143.13M2277.88 2087.97C2321.74 2076.48 2365.57 2064.9 2409.42 2053.42M2277.88 2087.97C2275.39 2087.79 2272.9 2087.59 2270.43 2087.35C2222.84 2082.83 2356.84 2064.62 2409.42 2053.42M2409.42 2053.42C2476.32 2035.9 2543.27 2018.6 2610.47 2002.22C2612.32 2001.76 2615.31 2001.07 2618.93 2000.25M2409.42 2053.42C2411.26 2053.03 2412.99 2052.64 2414.61 2052.27C2483.11 2036.56 2550.53 2016.29 2618.93 2000.25" stroke="#adadad" stroke-opacity="0.24" stroke-width="127" stroke-linecap="round" stroke-linejoin="round"/>
</svg>
