<svg width="1579" height="2133" viewBox="0 0 1579 2133" fill="none" xmlns="http://www.w3.org/2000/svg">
<path d="M387.614 921.719C398.204 919.997 404.445 915.245 405.608 911.764M405.608 911.764C406.923 907.831 401.756 905.519 389.058 911.034C346.494 929.521 303.994 960.175 269.651 997.54M405.608 911.764C374.936 923.052 348.825 942.196 325.764 965.568M405.608 911.764C413.042 909.028 420.744 906.754 428.735 904.993M269.651 997.54C250.469 1018.41 233.831 1041.38 221.149 1065.49M269.651 997.54C286.953 986.668 304.113 977.304 318.61 969.393L319.322 969.005C321.449 967.844 323.597 966.698 325.764 965.568M269.651 997.54C224.426 1025.96 178.23 1064.69 176.092 1114.73C175.184 1135.98 181.102 1135.82 189.042 1127.25M221.149 1065.49C214.133 1078.82 208.328 1092.51 203.972 1106.39M221.149 1065.49C243.956 1035.41 273.79 1009.39 298.404 993.391C300.263 992.183 302.123 990.995 303.984 989.827M221.149 1065.49C206.412 1084.92 194.608 1106.04 189.042 1127.25M203.972 1106.39C202.698 1110.45 201.547 1114.52 200.527 1118.61C200.12 1120.24 194.444 1142.58 194.723 1154.16M203.972 1106.39C198.941 1114.47 193.651 1122.28 189.042 1127.25M203.972 1106.39C211.915 1093.62 219.213 1080.14 222.171 1075.95C241.814 1048.19 265.594 1024.22 292.281 1003.93M194.723 1154.16C194.852 1159.5 196.252 1162.55 200.031 1160.19C204.639 1157.32 207.262 1149.35 209.21 1140.73M194.723 1154.16C189.469 1158.09 185.675 1159.24 185.585 1154.48C185.413 1145.47 186.653 1136.35 189.042 1127.25M194.723 1154.16C198.989 1150.96 204.218 1145.93 209.21 1140.73M209.21 1140.73C211.366 1131.17 212.694 1120.8 214.969 1115.62C231.604 1077.79 257.187 1041.36 288.421 1008.53M209.21 1140.73C218.082 1131.48 226.202 1121.7 226.826 1120.78C237.034 1105.61 246.161 1090 255.378 1074.57M288.421 1008.53C290.436 1006.41 292.475 1004.31 294.537 1002.22M288.421 1008.53C259.87 1042.63 221.699 1089.2 216.76 1127.87C216.709 1128.28 231.319 1108.16 234.096 1104.08C240.929 1094.01 248.033 1084.19 255.378 1074.57M288.421 1008.53C289.729 1006.97 291.018 1005.43 292.281 1003.93M294.537 1002.22C300.663 996.02 306.99 989.953 313.493 984.04M294.537 1002.22C293.783 1002.79 293.031 1003.36 292.281 1003.93M294.537 1002.22C311.88 989.245 330.423 977.793 349.832 967.83M313.493 984.04C325.032 973.547 337.127 963.536 349.648 954.092M313.493 984.04C332.233 972.987 351.049 963.972 369.964 956.867M313.493 984.04C310.321 985.91 307.151 987.839 303.984 989.827M349.648 954.092C374.655 935.233 401.362 918.637 428.735 904.993M349.648 954.092C367.449 946.223 386.233 939.362 405.568 933.673M349.648 954.092C341.465 957.71 333.49 961.54 325.764 965.568M428.735 904.993C465.447 886.694 503.357 873.703 539.969 867.677C596.79 858.325 672.172 853.633 690.408 910.893M428.735 904.993C429.78 904.763 430.83 904.541 431.885 904.329C455.578 899.554 464.027 902.098 461.591 909.157M690.408 910.893C690.609 911.524 690.802 912.162 690.989 912.807M690.408 910.893C675.954 916.149 661.865 922.562 647.993 929.297M690.408 910.893C692.613 910.091 694.828 909.316 697.051 908.571C698.716 908.013 695.821 909.9 690.989 912.807M690.989 912.807C693.227 920.541 694.457 929.364 694.503 939.407C694.537 946.553 695.398 953.909 695.896 959.509M690.989 912.807C681.55 918.487 664.717 928.059 660.046 930.894C658.558 931.796 656.978 932.729 655.314 933.691M695.896 959.509C695.968 960.318 696.032 961.09 696.085 961.819M695.896 959.509C696.625 959.949 697.35 960.392 698.07 960.837M695.896 959.509C689.128 955.431 681.959 951.62 674.604 948.089M696.085 961.819C696.597 968.836 696.077 971.92 691.336 965.806C691.033 965.414 690.726 965.024 690.418 964.636M696.085 961.819C694.195 962.756 692.306 963.695 690.418 964.636M696.085 961.819C696.747 961.492 697.408 961.164 698.07 960.837M690.418 964.636C685.692 958.696 680.389 953.182 674.604 948.089M690.418 964.636C687.294 966.194 684.173 967.758 681.054 969.325M674.604 948.089C668.651 942.848 662.188 938.052 655.314 933.691M674.604 948.089C670.89 946.306 667.129 944.594 663.348 942.955M655.314 933.691C652.922 932.174 650.48 930.709 647.993 929.297M655.314 933.691C654.739 934.024 654.154 934.36 653.56 934.7M647.993 929.297C634.338 921.543 619.315 915.369 603.637 910.719M647.993 929.297C647.396 929.587 646.8 929.877 646.203 930.168M603.637 910.719C599.304 909.434 594.921 908.266 590.503 907.212M603.637 910.719C612.791 905.742 629.619 896.745 629.614 896.745C616.654 898.643 603.576 902.298 590.503 907.212M603.637 910.719C601.761 911.739 600.207 912.59 599.186 913.161C596.981 914.394 594.781 915.638 592.587 916.893M590.503 907.212C577.63 904.142 564.459 902.049 551.361 900.903M590.503 907.212C583.38 909.889 576.259 912.94 569.158 916.285M551.361 900.903C545.126 900.357 538.907 900.026 532.745 899.906M551.361 900.903C578.36 884.098 600.567 869.772 545.888 893.923C541.48 895.87 537.1 897.866 532.745 899.906M551.361 900.903C543.788 905.616 535.839 910.524 529.103 914.833M532.745 899.906C507.317 899.411 482.849 902.513 462.15 908.982C461.963 909.04 461.777 909.098 461.591 909.157M532.745 899.906C521.808 905.03 511.033 910.435 500.381 916.055M461.591 909.157C441.855 915.37 423.218 923.694 405.568 933.673M461.591 909.157C460.368 912.697 456.408 917.372 450.26 922.83M405.568 933.673C393.23 940.648 381.374 948.431 369.964 956.867M405.568 933.673C420.213 929.363 435.173 925.725 450.26 922.83M369.964 956.867C369.629 957.114 369.295 957.362 368.961 957.61M369.964 956.867C371.254 956.382 372.545 955.906 373.837 955.439M368.961 957.61C367.828 958.453 366.699 959.303 365.575 960.159M368.961 957.61C362.537 960.582 356.16 963.976 349.832 967.83M368.961 957.61C370.583 956.86 372.209 956.136 373.837 955.439M365.575 960.159C339.107 980.311 315.054 1003.93 292.933 1029.02C291.219 1030.96 289.514 1032.91 287.817 1034.86M365.575 960.159C360.27 962.61 355.02 965.167 349.832 967.83M365.575 960.159C372.466 956.976 379.45 953.971 386.514 951.142M287.817 1034.86C285.186 1037.89 282.576 1040.94 279.989 1044M287.817 1034.86C335.031 1005.44 381.152 974.286 426.059 941.442M287.817 1034.86C287.221 1035.24 286.624 1035.61 286.026 1035.98C281.726 1038.65 278.109 1040.94 275.109 1042.86M279.989 1044C271.531 1054 263.314 1064.17 255.378 1074.57M279.989 1044C276.899 1045.58 274.066 1046.99 271.635 1048.17M279.989 1044C296.621 1035.52 320.699 1022.4 329.648 1017.26C373.108 992.301 415.045 964.848 458.218 939.596M255.378 1074.57C260.692 1065.67 266.037 1056.83 271.635 1048.17M292.281 1003.93C296.089 999.381 299.677 995.091 302.931 991.111C303.281 990.682 303.632 990.254 303.984 989.827M303.984 989.827C310.951 981.371 318.193 973.242 325.764 965.568M450.26 922.83C446.937 925.779 442.974 928.957 438.458 932.308C437.369 933.116 436.278 933.924 435.187 934.73M450.26 922.83C466.897 919.637 483.688 917.347 500.381 916.055M435.187 934.73C432.219 936.925 429.244 939.112 426.265 941.292M435.187 934.73C421.562 938.516 408.105 942.896 394.903 947.88M435.187 934.73C452.235 929.993 469.545 926.186 486.944 923.288M426.265 941.292C426.196 941.342 426.127 941.392 426.059 941.442M426.265 941.292C438.453 939.088 450.692 937.608 462.987 936.819M426.265 941.292C425.483 941.433 424.701 941.577 423.919 941.725M426.059 941.442C425.345 941.533 424.632 941.627 423.919 941.725M426.059 941.442C436.688 940.093 447.412 939.53 458.218 939.596M275.109 1042.86C258.028 1053.85 260.957 1053.33 271.635 1048.17M275.109 1042.86C273.939 1044.62 272.782 1046.39 271.635 1048.17M275.109 1042.86C287.267 1024.58 300.782 1007.2 317.817 991.841C328.333 982.361 339.01 974.422 349.832 967.83M458.218 939.596C459.806 938.668 461.396 937.742 462.987 936.819M458.218 939.596C467.896 939.656 477.64 940.221 487.441 941.178M462.987 936.819C470.922 932.219 478.902 927.699 486.944 923.288M462.987 936.819C473.759 936.128 484.573 935.968 495.436 936.316M486.944 923.288C491.403 920.842 495.881 918.429 500.381 916.055M486.944 923.288C499.066 921.269 511.231 919.691 523.381 918.548M500.381 916.055C510.004 915.31 519.594 914.897 529.103 914.833M529.103 914.833C527.071 916.133 525.149 917.379 523.381 918.548M529.103 914.833C541.187 914.753 553.14 915.237 564.862 916.323M523.381 918.548C523.201 918.667 523.023 918.785 522.846 918.903C514.013 924.772 504.835 930.557 495.436 936.316M523.381 918.548C537.257 917.243 551.113 916.505 564.862 916.323M495.436 936.316C492.787 937.938 490.121 939.559 487.441 941.178M495.436 936.316C506.134 936.658 516.878 937.494 527.673 938.802M487.441 941.178C432.317 974.485 370.957 1007.46 327.588 1051.38C299.75 1079.57 400.681 1020.08 434.419 999.31C459.749 983.72 487.897 963.573 517.318 945.168M487.441 941.178C497.344 942.146 507.306 943.514 517.318 945.168M517.318 945.168C520.753 943.018 524.205 940.893 527.673 938.802M517.318 945.168C524.627 946.375 531.963 947.734 539.322 949.2M527.673 938.802C541.058 930.728 554.665 923.157 568.353 916.666M527.673 938.802C535.243 939.719 542.839 940.868 550.46 942.242M568.353 916.666C568.621 916.538 568.89 916.411 569.158 916.285M568.353 916.666C572.799 917.125 577.21 917.672 581.581 918.31C583.624 918.608 585.838 918.977 588.201 919.417M568.353 916.666C567.191 916.545 566.028 916.431 564.862 916.323M569.158 916.285C567.727 916.292 566.295 916.304 564.862 916.323M569.158 916.285C569.652 916.282 570.146 916.281 570.64 916.28C577.714 916.267 585.108 916.403 592.587 916.893M592.587 916.893C591.123 917.73 589.661 918.571 588.201 919.417M592.587 916.893C611.138 918.107 630.207 921.495 646.203 930.168M588.201 919.417C575.495 926.78 562.951 934.466 550.46 942.242M588.201 919.417C601.663 921.923 619.983 926.711 639.336 933.549M550.46 942.242C546.743 944.555 543.032 946.877 539.322 949.2M550.46 942.242C566.8 945.188 583.26 949.167 599.854 954.109M539.322 949.2C527.715 956.468 516.126 963.754 504.468 970.869C494.23 977.117 383.906 1047.43 426.303 1036.53C482.674 1022.03 536.573 989.346 588.976 960.128M539.322 949.2C555.774 952.477 572.339 956.288 588.976 960.128M588.976 960.128C592.609 958.103 596.235 956.094 599.854 954.109M588.976 960.128C593.419 961.154 597.868 962.181 602.321 963.202M599.854 954.109C610.103 948.487 620.297 943.056 630.443 937.981C633.399 936.502 636.363 935.022 639.336 933.549M599.854 954.109C603.799 955.283 607.751 956.512 611.712 957.795M639.336 933.549C641.619 932.417 643.909 931.289 646.203 930.168M639.336 933.549C642.592 934.699 645.878 935.908 649.175 937.174M646.203 930.168C648.737 931.542 651.194 933.049 653.56 934.7M653.56 934.7C652.15 935.505 650.686 936.33 649.175 937.174M653.56 934.7C657.035 937.126 660.312 939.865 663.348 942.955M649.175 937.174C638.445 943.164 625.297 950.104 611.712 957.795M649.175 937.174C653.895 938.985 658.637 940.914 663.348 942.955M611.712 957.795C608.597 959.558 605.458 961.362 602.321 963.202M611.712 957.795C623.915 961.747 636.192 966.205 648.548 971.143C649.548 971.542 651.502 972.513 654.103 973.865M602.321 963.202C572.29 980.814 542.334 1001.82 533.378 1024.09C529.811 1032.96 621.775 998.534 628.477 995.353C640.005 989.882 651.429 984.208 662.829 978.488M602.321 963.202C616.795 966.517 631.316 969.754 645.855 972.58C648.483 973.091 651.26 973.492 654.103 973.865M662.829 978.488C664.615 977.592 666.4 976.695 668.185 975.798M662.829 978.488C670.069 982.363 678.813 987.083 686.431 991.014M662.829 978.488C659.523 976.719 656.531 975.126 654.103 973.865M668.185 975.798C672.475 973.64 676.763 971.48 681.054 969.325M668.185 975.798C663.557 975.002 658.742 974.472 654.103 973.865M668.185 975.798C677.875 977.465 686.744 980.301 691.457 987.476M681.054 969.325C676.84 961.787 672.811 954.107 667.461 947.549C666.147 945.937 664.774 944.407 663.348 942.955M681.054 969.325C684.478 975.45 688.024 981.482 692.498 986.742M698.07 960.837C701.862 958.965 705.66 957.105 709.467 955.263C711.522 954.27 748.298 937.036 748.708 939.407C749.495 943.96 732.632 957.596 713.597 971.594M698.07 960.837C703.574 964.245 708.789 967.833 713.597 971.594M713.597 971.594C706.601 976.739 699.312 981.932 692.498 986.742M713.597 971.594C725.453 980.87 734.825 991.198 739.91 1002.47M692.498 986.742C692.15 986.988 691.803 987.233 691.457 987.476M692.498 986.742C694.555 989.158 696.807 991.412 699.333 993.437C709.085 1001.25 704.278 999.815 694.46 995.052M691.457 987.476C689.745 988.684 688.065 989.865 686.431 991.014M691.457 987.476C692.849 989.596 693.878 992.094 694.46 995.052M686.431 991.014C675.313 998.828 666.297 1005.11 663.311 1007.66C591.451 1068.88 699.205 1020.39 739.91 1002.47M686.431 991.014C689.316 992.502 692.04 993.878 694.46 995.052M739.91 1002.47C744.295 1000.54 747.901 998.96 750.422 997.913C792.949 980.255 755.664 1024.07 737.218 1053.7M739.91 1002.47C742.235 1007.62 743.663 1012.97 744.023 1018.5C744.461 1025.23 741.111 1039.95 737.218 1053.7M737.218 1053.7C732.962 1060.53 729.71 1066.61 728.671 1071C722.339 1097.79 730.57 1077.16 737.218 1053.7ZM386.514 951.142C389.298 950.027 392.095 948.94 394.903 947.88M386.514 951.142C398.934 947.212 411.4 944.085 423.919 941.725M386.514 951.142C382.283 952.481 378.057 953.912 373.837 955.439M394.903 947.88C387.83 949.95 380.806 952.454 373.837 955.439M394.903 947.88C404.487 945.074 414.162 943.063 423.919 941.725M694.46 995.052C694.636 995.949 694.771 996.889 694.862 997.873C695.488 1004.61 696.69 1007.38 703.197 1001.36" stroke="#271B0D" stroke-opacity="0.21" stroke-width="42" stroke-linecap="round" stroke-linejoin="round"/>
<path d="M21.7404 2097.62C36.6253 2097.62 19.0455 2055.93 18.5689 2049.13C15.2244 2001.48 27.0257 1956.3 43.5004 1912.42M43.5004 1912.42C49.5872 1896.21 56.312 1880.18 63.1465 1864.27C63.8366 1862.66 64.5382 1861.06 65.2509 1859.46M43.5004 1912.42C34.607 1948.7 29.8502 1986.02 29.8502 2023.94V2043.61C29.8502 2008.94 30.4168 1989.17 40.6368 1955.06C50.2171 1923.09 56.9654 1890.98 65.2509 1859.46M43.5004 1912.42C51.6452 1879.2 63.2593 1846.84 77.8667 1815.67M65.2509 1859.46C66.8735 1855.82 68.5542 1852.19 70.289 1848.57M65.2509 1859.46C68.5667 1846.85 72.1286 1834.33 76.2168 1821.95M70.289 1848.57C77.3424 1833.88 85.2914 1819.43 93.8735 1805.25M70.289 1848.57C71.9658 1839.68 73.9542 1830.8 76.2168 1821.95M70.289 1848.57C67.8415 1861.55 66.0579 1874.55 65.0547 1887.52C64.6947 1892.17 64.2789 1897.51 63.8177 1903.39M93.8735 1805.25C97.9124 1798.58 102.092 1791.97 106.384 1785.42M93.8735 1805.25C81.3385 1835.27 71.3785 1868.78 63.8177 1903.39M93.8735 1805.25C97.4596 1796.67 101.257 1788.37 105.268 1780.41C111.105 1768.84 110.314 1773.13 106.384 1785.42M106.384 1785.42C126.704 1754.42 149.555 1724.83 172.033 1696.9C187.944 1677.13 205.343 1649.77 225.966 1627.36M106.384 1785.42C98.4707 1810.18 77.8312 1867.41 72.9172 1893.04C71.6134 1899.84 64.8928 1928.97 59.2938 1959.64M225.966 1627.36C228.524 1624.58 231.133 1621.88 233.794 1619.28M225.966 1627.36C176.531 1668.82 135.93 1710.87 100.078 1773.1C92.7829 1785.76 85.9817 1798.66 79.7103 1811.78M225.966 1627.36C229.164 1624.68 232.399 1622 235.673 1619.32M233.794 1619.28C243.28 1610 253.438 1601.99 264.42 1596.35M233.794 1619.28C234.417 1619.29 235.043 1619.31 235.673 1619.32M233.794 1619.28C225.681 1619.09 218.059 1618.87 210.871 1619.02M264.42 1596.35C272.312 1592.29 280.629 1589.45 289.427 1588.24C342.444 1580.91 393.098 1544.92 445.37 1544.52C476 1544.28 504.237 1551.89 534.547 1555.1C542.543 1555.94 551.789 1555.96 561.336 1556.1M264.42 1596.35C254.515 1604.11 244.941 1611.73 235.673 1619.32M264.42 1596.35C270.234 1591.79 276.162 1587.19 282.21 1582.51C343.084 1535.41 405.963 1544.37 476.125 1531.73M561.336 1556.1C580.147 1556.39 600.126 1557.19 614.016 1565.93C626.103 1573.53 636.213 1584.31 645.707 1596.07M561.336 1556.1C577.512 1562.42 593.322 1569.65 608.644 1577.77C621.357 1584.5 633.703 1590.43 645.707 1596.07M561.336 1556.1C535.163 1545.87 508.035 1538 480.477 1532.55C479.025 1532.27 477.574 1531.99 476.125 1531.73M645.707 1596.07C660.606 1614.52 673.988 1635.38 691.117 1650.13C691.129 1650.14 691.14 1650.15 691.152 1650.16M645.707 1596.07C688.55 1616.2 727.05 1632.67 762.394 1669.05M691.152 1650.16C700.982 1658.63 711.318 1666.2 721.699 1673.57M691.152 1650.16C702.9 1645.98 713.372 1650.86 720.698 1670.78C721.039 1671.7 721.373 1672.63 721.699 1673.57M691.152 1650.16C689.652 1650.7 688.13 1651.38 686.592 1652.2M721.699 1673.57C722.182 1673.91 722.665 1674.25 723.149 1674.6M721.699 1673.57C722.025 1674.5 722.343 1675.44 722.654 1676.38M723.149 1674.6C725.094 1675.97 727.039 1677.34 728.983 1678.71M723.149 1674.6C722.979 1675.17 722.814 1675.77 722.654 1676.38M723.149 1674.6C724.096 1671.39 725.22 1669.01 726.803 1670.78C728.275 1672.41 728.925 1675.19 728.983 1678.71M728.983 1678.71C754.645 1696.78 779.931 1714.57 797.901 1742.44C804.821 1753.17 810.929 1764.34 816.782 1775.64M728.983 1678.71C729.001 1679.8 728.962 1680.97 728.873 1682.19M816.782 1775.64C819.956 1781.77 823.055 1787.94 826.167 1794.1M816.782 1775.64C820.415 1780.93 823.926 1786.3 827.343 1791.72M816.782 1775.64C815.358 1773.57 813.914 1771.5 812.451 1769.45C787.401 1734.3 760.177 1706.72 728.873 1682.19M826.167 1794.1C831.502 1804.66 836.878 1815.2 842.743 1825.48M826.167 1794.1C826.568 1793.27 826.96 1792.48 827.343 1791.72M826.167 1794.1C826.005 1794.44 825.841 1794.78 825.676 1795.13C794.449 1860.52 777.151 1931.68 752.84 2000.06M842.743 1825.48C842.781 1825.55 842.819 1825.62 842.857 1825.68M842.743 1825.48C842.692 1827.04 842.655 1828.51 842.638 1829.84C842.631 1830.37 842.624 1830.9 842.617 1831.43M842.743 1825.48C842.744 1825.44 842.746 1825.4 842.747 1825.36M842.857 1825.68C843.377 1826.59 843.9 1827.5 844.428 1828.41M842.857 1825.68C842.821 1825.58 842.784 1825.47 842.747 1825.36M842.857 1825.68C843.243 1826.81 843.629 1827.94 844.015 1829.07M844.428 1828.41C847.508 1833.69 850.73 1838.9 854.156 1844M844.428 1828.41C844.291 1828.62 844.154 1828.84 844.015 1829.07M844.428 1828.41C845.3 1827.02 846.14 1825.8 846.939 1824.77M854.156 1844C855.216 1845.58 856.295 1847.15 857.395 1848.7C862.482 1855.9 867.362 1862.82 871.879 1869.77M854.156 1844C854.332 1842 854.468 1840.15 854.567 1838.43M854.156 1844C854.142 1844.16 854.128 1844.32 854.113 1844.48C853.775 1848.25 853.407 1852.01 853.013 1855.77M871.879 1869.77C876.685 1877.16 881.08 1884.6 884.878 1892.44M871.879 1869.77C876.132 1877.37 880.442 1884.95 884.878 1892.44M871.879 1869.77C866.058 1859.36 860.346 1848.88 854.567 1838.43M884.878 1892.44C889.246 1901.46 892.823 1911.02 895.325 1921.69C897.25 1929.9 899.377 1937.33 901.297 1943.26M884.878 1892.44C886.685 1895.49 888.512 1898.53 890.365 1901.56M901.297 1943.26C906.39 1958.99 910.022 1964.13 904.537 1945.03M901.297 1943.26C900.349 1942.61 899.311 1941.8 898.179 1940.82C877.588 1922.93 864.443 1889.2 853.013 1855.77M901.297 1943.26C902.522 1944.1 903.598 1944.68 904.537 1945.03M904.537 1945.03C903.521 1941.49 902.192 1937.12 900.502 1931.83C897.326 1921.89 893.948 1911.78 890.365 1901.56M904.537 1945.03C913.296 1948.29 910.118 1931.67 904.769 1923.86C899.762 1916.55 894.985 1909.1 890.365 1901.56M890.365 1901.56C877.445 1864.7 861.868 1826.45 843.521 1789.99M843.521 1789.99C841.355 1785.69 839.15 1781.41 836.907 1777.16M843.521 1789.99C843.896 1798.21 843.427 1808.78 843.04 1817.92M843.521 1789.99C843.07 1780.12 841.4 1773.66 836.907 1777.16M836.907 1777.16C818.21 1741.75 796.819 1708.44 772.626 1680.26C769.245 1676.32 765.834 1672.59 762.394 1669.05M836.907 1777.16C834.795 1778.81 832.058 1782.66 828.531 1789.4M762.394 1669.05C734.09 1625.39 700.281 1586.1 655.625 1560.28C630.086 1545.52 603.694 1531.65 577.844 1517.41C555.797 1505.27 520.2 1521.46 498.755 1526.87C491.125 1528.8 483.584 1530.39 476.125 1531.73M762.394 1669.05C787.069 1707.11 807.561 1748.49 827.407 1787.16C827.784 1787.89 828.159 1788.64 828.531 1789.4M476.125 1531.73C377.449 1513.9 284.805 1553.71 210.871 1619.02M210.871 1619.02C204.054 1625.04 197.397 1631.28 190.908 1637.71C156.783 1671.52 128.974 1715.86 104.809 1757.13C94.4121 1774.89 86.3699 1793.16 79.7103 1811.78M210.871 1619.02C183.428 1619.58 162.304 1625.44 144.28 1658.48C117.886 1706.88 92.7397 1760.67 77.8667 1815.67M79.7103 1811.78C78.5022 1815.16 77.3396 1818.55 76.2168 1821.95M79.7103 1811.78C79.0906 1813.07 78.476 1814.37 77.8667 1815.67M76.2168 1821.95C76.7516 1819.85 77.3017 1817.76 77.8667 1815.67M235.673 1619.32C240.131 1619.42 244.735 1619.5 249.496 1619.5C251.424 1619.5 253.318 1619.58 255.183 1619.73M828.531 1789.4C830.762 1793.95 832.907 1798.91 835.005 1804.19M828.531 1789.4C828.144 1790.14 827.749 1790.91 827.343 1791.72M835.005 1804.19C837.637 1810.82 840.194 1817.95 842.747 1825.36M835.005 1804.19C837.729 1808.74 840.402 1813.32 843.04 1817.92M835.005 1804.19C832.498 1800.01 829.948 1795.85 827.343 1791.72M842.747 1825.36C842.823 1823.06 842.928 1820.55 843.04 1817.92M844.015 1829.07C846.965 1837.74 849.926 1846.74 853.013 1855.77M844.015 1829.07C843.557 1829.82 843.09 1830.6 842.617 1831.43M853.013 1855.77C849.725 1887.13 844.619 1918.36 839.714 1949.62M854.567 1838.43C852.042 1833.87 849.504 1829.31 846.939 1824.77M854.567 1838.43C855.66 1819.54 852.186 1818 846.939 1824.77M846.939 1824.77C845.647 1822.48 844.348 1820.2 843.04 1817.92M728.873 1682.19C726.961 1680.69 725.034 1679.2 723.091 1677.73M728.873 1682.19C728.64 1685.37 728.067 1688.97 727.273 1692.76M723.091 1677.73C722.873 1677.56 722.654 1677.39 722.435 1677.23M723.091 1677.73C724.67 1682.63 726.057 1687.65 727.273 1692.76M723.091 1677.73C722.947 1677.28 722.801 1676.83 722.654 1676.38M722.435 1677.23C711.054 1668.61 699.135 1660.33 686.592 1652.2M722.435 1677.23C721.916 1679.26 721.434 1681.27 720.928 1682.58C714.088 1700.33 708.9 1718.67 703.533 1736.9L703.423 1737.27C687.798 1790.35 672.157 1843.49 653.156 1895.49C643.22 1922.68 632.135 1959.99 608.821 1979.35C550.082 2028.12 616.822 1794.98 647.44 1692.87M722.435 1677.23C722.508 1676.95 722.58 1676.66 722.654 1676.38M686.592 1652.2C683.287 1650.06 679.938 1647.92 676.545 1645.8C638.78 1622.13 595.928 1575.35 551.699 1566.78C521.341 1560.89 492.308 1567.59 463.347 1575.59C446.448 1580.26 429.063 1582.15 411.865 1584.86M686.592 1652.2C673.964 1658.92 660.194 1674.77 647.44 1692.87M411.865 1584.86C409.851 1585.18 407.839 1585.51 405.831 1585.86M411.865 1584.86C425.241 1553.32 430.741 1539.07 416.862 1564.7C413.087 1571.67 409.413 1578.73 405.831 1585.86M411.865 1584.86C390.067 1636.27 347.352 1733.61 333.519 1779.06C330.458 1789.12 316.352 1837.19 305.577 1887.08M405.831 1585.86C398.829 1587.07 391.872 1588.48 385.005 1590.36C365.537 1595.67 348.097 1605.3 330.083 1613.83M405.831 1585.86C360.502 1676.05 329.802 1777.97 294.295 1871.61C277.972 1914.65 264.343 1962.66 238.136 2001.09C237.452 2002.1 233.55 2007.42 228.957 2012.41M330.083 1613.83C329.565 1614.07 329.047 1614.32 328.528 1614.56M330.083 1613.83C329.708 1615.16 329.333 1616.5 328.955 1617.83M330.083 1613.83C330.718 1611.56 331.348 1609.3 331.973 1607.03C335.879 1592.89 332.912 1596.29 326.589 1608.82M328.528 1614.56C326.505 1615.51 324.474 1616.44 322.432 1617.35M328.528 1614.56C328.717 1615.6 328.857 1616.69 328.955 1617.83M328.528 1614.56C328.123 1612.33 327.496 1610.38 326.589 1608.82M322.432 1617.35C318.58 1619.06 314.687 1620.69 310.727 1622.19C304.875 1624.4 299.303 1625.2 293.841 1625.19M322.432 1617.35C323.932 1614.19 325.328 1611.32 326.589 1608.82M322.432 1617.35C308.109 1647.53 284.169 1704.79 274.921 1731.15C254.839 1788.39 238.779 1846.86 226.364 1906.25C225.792 1908.98 225.094 1911.98 224.31 1915.2M293.841 1625.19C291.957 1625.19 290.086 1625.09 288.222 1624.93M293.841 1625.19C292.823 1627.22 291.717 1629.38 290.523 1631.67C260.56 1689.32 229.393 1746.5 198.05 1803.61M293.841 1625.19C295.542 1621.81 296.997 1618.82 298.207 1616.2M288.222 1624.93C286.215 1624.75 284.216 1624.48 282.215 1624.17M288.222 1624.93C291.462 1621.79 294.789 1618.87 298.207 1616.2M288.222 1624.93C261.55 1650.75 240.766 1691.12 223.559 1722.86M282.215 1624.17C274.322 1622.93 266.406 1620.9 257.938 1619.98M282.215 1624.17C302.203 1598.6 307.627 1595.84 298.207 1616.2M282.215 1624.17C281.93 1624.53 281.643 1624.9 281.353 1625.28C264.73 1646.63 249.048 1668.64 233.907 1691.01M257.938 1619.98C257.026 1619.88 256.108 1619.8 255.183 1619.73M257.938 1619.98C257.336 1621.75 256.67 1623.68 255.937 1625.78C248.384 1647.47 241.065 1669.22 233.907 1691.01M257.938 1619.98C266.223 1595.7 262.371 1603.06 255.183 1619.73M255.183 1619.73C246.348 1640.21 232.474 1674.76 229.902 1681.95C226.098 1692.57 222.284 1703.31 218.52 1714.13M63.8177 1903.39C62.5735 1919.25 60.9986 1939 59.2938 1959.64M63.8177 1903.39C51.1261 1961.49 45.1953 2022.66 45.1953 2075.5C45.1953 2105.28 48.5468 2078.94 52.5947 2036.25M59.2938 1959.64C57.1332 1985.79 54.764 2013.37 52.5947 2036.25M59.2938 1959.64C53.5857 1990.9 49.0433 2023.78 52.5947 2036.25M52.5947 2036.25C53.2705 2038.62 54.2394 2040.25 55.5491 2041C60.5341 2043.83 82.7497 1978.79 95.9913 1938.16M95.9913 1938.16C101.453 1921.41 105.388 1908.8 105.957 1906.83C114.954 1875.64 123.347 1844.25 133.114 1813.29C133.533 1811.96 133.906 1810.81 134.233 1809.82M95.9913 1938.16C102.863 1895.99 113.488 1852.14 132.248 1814.13C133.025 1812.55 133.688 1811.09 134.233 1809.82M95.9913 1938.16C95.1689 1943.21 94.4002 1948.23 93.6777 1953.22C93.0555 1957.51 90.8955 1978.21 90.1135 1998.26M134.233 1809.82C136.735 1802.28 136.597 1804.29 134.233 1809.82ZM90.1135 1998.26C90.0675 1999.44 90.0262 2000.62 89.9903 2001.79M90.1135 1998.26C93.9577 1988.91 101.715 1971.69 105.949 1961.57C111.803 1947.57 117.783 1933.62 123.9 1919.73M90.1135 1998.26C87.5121 2004.59 86.7027 2007.31 89.9903 2001.79M89.9903 2001.79C89.1192 2030.25 91.4132 2055.34 105.383 2027.27C109.145 2019.71 112.638 2011.98 115.897 2004.12M89.9903 2001.79C91.6975 1998.93 94.5093 1993.84 98.7486 1985.88C105.834 1972.58 112.969 1959.29 120.141 1946.02M115.897 2004.12C130.283 1969.4 140.101 1931.98 148.351 1894.15M115.897 2004.12C115.819 2000.4 115.906 1995.91 116.183 1990.55C116.945 1975.81 118.289 1960.95 120.141 1946.02M115.897 2004.12C116.823 2048.18 140.973 1983.83 148.645 1960.27C156.889 1934.95 164.935 1909.59 172.901 1884.2M148.351 1894.15C151.362 1880.35 154.164 1866.49 156.903 1852.69M148.351 1894.15C138.905 1911.42 129.492 1928.71 120.141 1946.02M148.351 1894.15C160.048 1872.76 171.795 1851.39 183.54 1830.02M156.903 1852.69C157.388 1850.24 157.872 1847.8 158.354 1845.36M156.903 1852.69C155.531 1854.12 154.109 1855.62 152.651 1857.15M156.903 1852.69C160.708 1848.71 164.125 1845.19 166.843 1842.55M158.354 1845.36C161.981 1827 165.542 1808.78 169.382 1790.96M158.354 1845.36C172.727 1815.88 187.838 1786.77 203.807 1758.11M158.354 1845.36C156.44 1849.28 154.539 1853.21 152.651 1857.15M169.382 1790.96C170.911 1783.87 172.484 1776.84 174.123 1769.89C180.193 1744.16 194.15 1712.67 194.15 1685.94C194.15 1668.88 179.848 1716.96 174.07 1733.01C162.838 1764.2 152.319 1796.85 143.38 1830.13M169.382 1790.96C172.08 1786.86 174.719 1782.78 177.268 1778.73C190.879 1757.1 204.518 1735.49 218.52 1714.13M169.382 1790.96C160.966 1803.76 151.979 1816.82 143.38 1830.13M143.38 1830.13C139.025 1846.34 135.045 1862.7 131.539 1879.12M143.38 1830.13C130.707 1849.75 118.88 1869.93 110.971 1890.66C106.308 1902.88 117.444 1893.32 131.539 1879.12M131.539 1879.12C128.652 1892.64 126.087 1906.19 123.9 1919.73M131.539 1879.12C138.369 1872.24 145.893 1864.26 152.651 1857.15M123.9 1919.73C122.483 1928.51 121.225 1937.27 120.141 1946.02M123.9 1919.73C133.157 1898.72 142.727 1877.85 152.651 1857.15M172.901 1884.2C181.328 1857.35 189.665 1830.47 198.05 1803.61M172.901 1884.2C175.632 1866.08 179.259 1848 183.54 1830.02M172.901 1884.2C169.46 1907.04 167.439 1929.94 167.32 1952.8C166.987 2017.01 208.421 1946.91 224.31 1915.2M198.05 1803.61C206.459 1776.66 214.915 1749.74 223.559 1722.86M198.05 1803.61C193.216 1812.41 188.378 1821.22 183.54 1830.02M223.559 1722.86C226.976 1712.24 230.423 1701.62 233.907 1691.01M223.559 1722.86C220.402 1728.69 217.364 1734.22 214.433 1739.33C210.849 1745.56 207.307 1751.83 203.807 1758.11M233.907 1691.01C228.72 1698.68 223.596 1706.39 218.52 1714.13M218.52 1714.13C213.478 1728.64 208.525 1743.31 203.807 1758.11M203.807 1758.11C196.257 1781.79 189.305 1805.81 183.54 1830.02M224.31 1915.2C226.864 1910.1 228.758 1906 229.712 1903.6C266.477 1811.3 301.862 1713.75 328.955 1617.83M224.31 1915.2C217.065 1944.92 202.516 1992.91 212.728 2019.18C215.149 2025.41 222.695 2019.22 228.957 2012.41M328.955 1617.83C330.141 1631.63 325.166 1652.34 324.111 1658.77C304.336 1779.17 258.703 1894.29 228.957 2012.41M326.589 1608.82C324.069 1604.49 319.392 1603.2 311.332 1607.55C306.812 1609.99 302.439 1612.9 298.207 1616.2M228.957 2012.41C228.5 2014.23 228.046 2016.05 227.596 2017.86C204.57 2110.93 261.63 1978.32 269.864 1960.34C281.204 1935.59 293.098 1911.17 305.577 1887.08M305.577 1887.08C292.545 1947.41 284.387 2010.41 306.544 2012.01C359.565 2015.84 404.573 1832.82 416.976 1799.89C427.177 1772.8 445.558 1725.58 462.983 1680.93M305.577 1887.08C326.169 1847.31 348.352 1808.42 372.257 1770.39C394.609 1734.83 419.484 1680.42 458.312 1659.24C463.388 1656.48 467.644 1656.12 471.194 1657.72M462.983 1680.93C466.002 1673.19 468.991 1665.54 471.904 1658.07M462.983 1680.93C465.661 1673.17 468.399 1665.44 471.194 1657.72M462.983 1680.93C436.766 1756.87 416.277 1834.74 403.654 1914.22C399.194 1942.31 389.935 2080.62 441.584 1997.44C449.957 1983.96 457.783 1969.97 465.158 1955.6M471.904 1658.07C497 1593.78 516.448 1543.93 499.912 1583.82C489.794 1608.23 480.196 1632.87 471.194 1657.72M471.904 1658.07C501.468 1674.05 479.853 1831.52 478.207 1850.69C475.186 1885.85 470.293 1920.73 465.158 1955.6M471.904 1658.07C471.671 1657.95 471.434 1657.83 471.194 1657.72M465.158 1955.6C484.239 1918.41 500.303 1878.6 515.005 1838.08M465.158 1955.6C462.53 1973.45 459.838 1991.29 457.3 2009.16C454.597 2028.21 437.883 2077.44 453.881 2066.77C469.052 2056.65 481.791 2027.59 492.103 2001.23M515.005 1838.08C537.696 1775.53 557.143 1711.28 579.43 1652.29C586.643 1633.19 606.631 1575.32 599.289 1594.36C586.376 1627.86 572.897 1660.74 561.704 1694.99C547.384 1738.81 529.266 1787.93 515.005 1838.08ZM515.005 1838.08C499.354 1893.11 488.347 1949.38 492.103 2001.23M492.103 2001.23C492.214 2002.76 492.337 2004.29 492.474 2005.81C493.706 2019.52 508.78 2018.37 516.892 2010.57C542.668 1985.8 555.25 1945.15 567.804 1912.9C595.109 1842.74 618.282 1771.15 642.575 1699.95M492.103 2001.23C498.293 1985.41 503.608 1970.57 508.049 1961.38C538.8 1897.76 568.947 1833.77 601.683 1771.14C606.401 1762.12 622.873 1729.32 642.575 1699.95M642.575 1699.95C647.031 1686.89 651.525 1673.84 656.089 1660.82C666.332 1631.6 659.856 1651.46 647.44 1692.87M642.575 1699.95C644.177 1697.56 645.8 1695.2 647.44 1692.87M727.273 1692.76C723.685 1709.88 715.598 1731.03 714.17 1736.95C692.235 1827.78 671.468 1921.47 672.357 2015.34C672.452 2025.36 672.828 2054.02 690.149 2051.2C698.435 2049.85 704.903 2039.23 709.944 2026.51M727.273 1692.76C740.173 1746.95 733.749 1811.36 731.759 1864.36C729.69 1919.44 721.4 1972.87 709.944 2026.51M709.944 2026.51C716.456 2010.08 720.589 1990.16 723.19 1982.23C739.508 1932.43 745.114 1851.17 776.964 1809.23C800.642 1778.04 772.265 1887.6 765.196 1926.12C764.138 1931.89 756.301 1969.33 752.84 2000.06M709.944 2026.51C709.042 2030.73 708.121 2034.96 707.182 2039.18C705.991 2044.54 686.938 2111.42 694.673 2114.83C703.036 2118.51 727.716 2062.38 729.917 2057.52C738.446 2038.73 745.926 2019.5 752.84 2000.06M752.84 2000.06C750.322 2022.41 750.12 2041.21 756.526 2041.68C781.066 2043.49 810.893 1908.82 816.859 1891.3C819.8 1882.66 832.678 1848.76 842.617 1831.43M842.617 1831.43C842.108 1870.79 841.396 1910.24 839.714 1949.62M839.714 1949.62C835.397 1977.13 831.236 2004.67 828.609 2032.36C826.945 2049.88 824.16 2128.47 831.003 2067.38C835.384 2028.27 838.033 1988.97 839.714 1949.62Z" stroke="#1016AA" stroke-opacity="0.44" stroke-width="35" stroke-linecap="round" stroke-linejoin="round"/>
<path d="M134.851 2023.01V2028.11L134.259 2028.72L133.666 2029H132.185L131.889 2027.78L131.592 2025.4L131.296 2022.46V2019.18L131 2015.02V1941.76L131.296 1931.01L132.185 1921.8L133.37 1911.98L136.629 1890.24L138.406 1881.87L141.146 1869.06L143.813 1858.35L147.071 1846.43L150.33 1834.84L154.551 1820.81L157.514 1811.6L161.958 1797.63L165.513 1787.76L169.438 1777.66L172.993 1769.01L177.14 1758.31L179.806 1752.32L183.732 1742.23L186.694 1735.07L189.953 1727.31L193.212 1720.49L197.137 1712.44L199.507 1707.67L203.654 1699.91L206.617 1694.25L210.468 1688.04L213.801 1682.39L218.54 1674.9L221.799 1670.13L226.909 1662.09L231.057 1656.15L236.093 1649.28L241.203 1642.73L247.424 1634.69L251.868 1629.04L259.348 1620.11L265.273 1612.95L272.457 1605.52L279.271 1598.7L287.64 1590.94L293.268 1586.44L302.23 1579.62L308.747 1574.85L316.524 1570.08L323.337 1565.92L332.002 1561.15L337.335 1558.49L346 1554M129.901 2031.23C129.209 2033.12 117.481 2046.82 117.085 2045.07C112.104 2023.08 118.5 1992.62 119.628 1970.43C123.619 1891.96 153.133 1802.67 204.189 1741.54C239.979 1698.68 262.92 1640.9 309.814 1608.11C348.92 1580.77 376.586 1563.18 423.199 1554.02C477.589 1543.32 540.686 1547.19 595.402 1568.79M595.402 1568.79C627.951 1581.63 657.534 1600.76 680.554 1626.83C696.127 1644.46 710.956 1662.63 724.94 1681.35M595.402 1568.79C616.241 1584.01 635.173 1602.12 649.466 1617.26C667.926 1636.83 686.492 1658.72 710.549 1671.59C715.729 1674.36 720.501 1677.65 724.94 1681.35M595.402 1568.79C572.774 1552.26 547.898 1539.13 524.279 1536.91C469.75 1531.77 430.948 1549.63 379.379 1561.69C328.991 1573.47 265.903 1593.07 227.057 1628.47C169.125 1681.28 132.626 1770.39 117.107 1845.33C105.191 1902.87 105.453 1963.2 104.65 2021.73C104.509 2031.97 94.508 2095.88 104.278 2068.03M724.94 1681.35C770.208 1741.95 806.618 1808.35 830.713 1881.28C833.423 1889.48 844.396 1959.02 852.644 1959.4C860.168 1959.76 852.809 1922.86 851.981 1919.58C837.917 1863.96 815.793 1813.6 783.831 1765.95C765.515 1738.65 750.929 1703 724.94 1681.35ZM586.201 918.227C584.293 918.882 582.396 919.489 580.508 920.053M580.508 920.053C548.331 929.675 518.923 926.903 486.017 935.137C453.395 943.299 424.582 954.101 398.69 968.81M580.508 920.053C599.938 930.869 615.725 947.766 628.372 969.653C653.016 1012.3 697.187 1070.03 699.013 1120.8C699.352 1130.23 699.278 1139.49 698.817 1148.6M580.508 920.053C564.708 911.258 546.499 906.484 525.61 906.317C523.721 906.302 521.836 906.326 519.953 906.386M398.69 968.81C365.65 987.58 337.365 1012.71 311.989 1046.85C267.65 1106.5 237.655 1152.06 223.166 1226.39C211.135 1288.12 199.337 1369.79 226.682 1428.94C233.784 1444.31 243.332 1459.16 254.693 1472.06M398.69 968.81C425.069 943.178 456 922.799 496.909 911.764C504.494 909.717 512.198 907.859 519.953 906.386M398.69 968.81C362.091 1004.37 334.253 1050.04 300.688 1094.9C243.367 1171.49 223.191 1266.94 232.904 1361.37C235.817 1389.69 241.578 1433.06 254.693 1472.06M254.693 1472.06C287.163 1508.92 334.439 1529.83 381.708 1500.99C421.728 1476.57 460.606 1450.3 500.696 1425.99C528.041 1409.41 562.84 1395.99 586.116 1373.74C639.939 1322.3 670.028 1261.63 688.591 1190.6C692.289 1176.45 695.873 1162.54 698.817 1148.6M254.693 1472.06C271.492 1522.01 300.356 1564.78 350.758 1559.57C395.646 1554.93 433.056 1519.71 469.196 1496.37C507.329 1471.75 542.357 1447.94 572.182 1413.22C638.776 1335.69 693.6 1251.8 698.817 1148.6M698.817 1148.6C703.717 1125.41 706.849 1102.15 705.797 1077.65C704.281 1042.34 694.56 986.012 672.306 957.771C658.751 940.569 621.472 924.407 601.982 914.278C575.992 900.77 547.643 901.125 519.953 906.386M519.953 906.386C466.497 908.093 415.858 939.53 372.191 967.84C316.692 1003.82 269.117 1045.3 249.412 1110.64M362.225 1880.03C362.225 1867.11 366.996 1824.84 366.996 1862.28C366.996 1891.92 369.076 1921.13 371.096 1950.69C373.128 1980.43 372.622 2069.73 375.121 2040.03C378.245 2002.9 378.259 1965.14 377.755 1927.91C377.294 1893.85 376.985 1840.07 360.336 1809.33C347.788 1786.16 357.752 1862.21 357.752 1888.67C357.752 1922.78 354.397 1958.71 361.628 1992.23M608.899 1904.33C606.65 1899.54 600.024 1885.77 595.497 1872.21M595.497 1872.21C591.024 1858.81 588.6 1845.6 594.468 1841.43C598.715 1838.42 594.656 1851.93 594.768 1857.17C594.876 1862.21 595.131 1867.21 595.497 1872.21ZM595.497 1872.21C596.465 1885.42 598.216 1898.53 600.11 1911.7C606.343 1955.04 613.652 1998.27 621.393 2041.37C631.892 2099.81 625.92 1922 617.571 1863.2C611.202 1818.35 611.903 1856.83 611.903 1878.25C611.903 1910.78 610.402 1944.15 614.608 1976.46M717 690.622C716.836 673.807 712.969 656.519 711.013 639.792C708.802 620.887 709.548 677.836 709.194 696.867C708.072 757.334 709.41 817.562 713.287 877.886C713.827 886.304 713.061 914.043 710.491 889.304C704.966 836.113 703.854 781.389 702.538 727.991C701.911 702.577 701.388 677.111 701.388 651.686C701.388 638.823 700.825 663.887 700.799 666.488C700.018 743.922 690.842 975.042 704.192 898.775M713.587 910.979C709.756 911.099 700.364 916.208 702.247 912.87C713.335 893.207 753.372 875.732 771.415 864.653C819.755 834.974 869.657 806.102 922.602 785.39C938.036 779.352 954.834 775.496 970.569 769.585M970.569 769.585C976.55 767.338 982.378 764.795 987.918 761.722C1004.95 752.275 993.111 758.088 970.569 769.585ZM970.569 769.585C939.346 785.509 887.586 812.338 863.568 824.621C835.578 838.934 806.285 854.384 784.747 877.706C772.721 890.727 787.721 882.346 793.499 876.38M711.119 662C692.554 662 678.145 640.648 666.113 627.414C648.478 608.018 626.737 587.458 609.009 565.11M609.009 565.11C598.783 552.219 589.893 538.734 583.896 524.534C568.94 489.114 558.904 447.521 553.332 405.753M609.009 565.11C618.673 573.446 633.657 584.344 633.498 573.231C632.946 534.806 604.338 496.72 591.206 461.895C573.443 414.785 569.692 368.85 569.692 319.235C569.692 299.471 570.676 279.492 565.579 260.209C565.136 258.534 563.787 260.542 562.023 264.575M609.009 565.11C605.14 561.773 602.124 558.847 601.273 557.907C577.136 531.259 558.575 499.922 555.979 463.488C554.651 444.853 553.713 425.495 553.332 405.753M553.332 405.753C548.969 373.047 547.343 340.233 548.236 310.195C548.4 304.697 556.936 276.211 562.023 264.575M553.332 405.753C552.434 359.336 554.611 310.802 562.023 264.575M562.023 264.575C566.653 235.703 573.324 207.731 582.565 181.737C608.772 108.013 671.152 81.1813 736 49M584.751 205C558.678 88.3946 724.204 22.5318 816.407 15.7125C837.836 14.1275 859.066 12.7371 880.22 11.6044M880.22 11.6044C880.473 11.5908 880.727 11.5773 880.98 11.5638M880.22 11.6044C805.838 24.1087 734.84 53.1439 664.079 84.3407C599.757 112.698 658.28 102.025 689.762 89.757C752.191 65.4296 814.435 26.8616 880.98 11.5638M880.22 11.6044C880.937 11.4838 881.654 11.3648 882.372 11.2473M880.98 11.5638C918.821 9.54834 956.423 8.35991 994.499 8.35991C1008.77 8.35991 965.302 6.06523 944.932 5.26858M880.98 11.5638C881.444 11.4572 881.908 11.3517 882.372 11.2473M944.932 5.26858C940.653 5.10124 937.393 5 935.902 5C917.705 5 899.889 7.30989 882.372 11.2473M944.932 5.26858C923.774 5.78675 902.942 7.88072 882.372 11.2473M944.932 5.26858C966.807 4.73285 989.031 5.88152 1011.68 9.04961C1057.82 15.5036 1102.52 26.1989 1146.56 41.2029C1172.77 50.1367 1200.63 54.6756 1228 49.0205M1119.77 13C1113.86 13 1143.8 17.0478 1146.85 17.4016C1197.57 23.2874 1266.3 34.7415 1317.76 61.822M1317.76 61.822C1333.41 70.0552 1347.45 79.7328 1358.91 91.1375C1367 99.1887 1373.62 108.061 1379.42 117.372M1317.76 61.822C1337.15 81.1064 1359.93 97.7744 1379.42 117.372M1317.76 61.822C1311.64 55.7316 1305.85 49.3803 1300.62 42.5933C1282.27 18.8014 1353.58 72.265 1375.32 93.0085C1442.81 157.435 1476.25 244.095 1507.53 330.395C1516.99 356.477 1544.3 434.259 1529.87 410.569M1379.42 117.372C1396.67 145.023 1406.81 176.547 1427.42 201.951C1442.66 220.718 1411.02 155.621 1396.29 136.453C1391.11 129.708 1385.42 123.402 1379.42 117.372ZM1482.61 329.662C1482.61 324.466 1481.07 282.897 1496.87 289.764C1511.94 296.317 1523.23 331.045 1528.64 344.233C1548.43 392.528 1558.05 446.468 1566.25 497.79C1575.52 555.748 1584.28 654.471 1543.15 704.115C1532.39 717.108 1526.26 714.548 1522.95 704.494M1522.95 704.494C1515.6 682.11 1522.23 622.581 1522.83 614.865C1525.47 580.998 1530.17 548.019 1537.8 514.884C1538.75 510.787 1550.39 472.417 1551.59 478.132C1562.56 530.585 1557.48 587.896 1546.63 639.789C1541.18 665.838 1533.54 686.582 1522.95 704.494ZM1522.95 704.494C1507.01 731.466 1484.39 752.015 1452.54 774.579C1432.5 788.768 1380.47 846.707 1352 825.309M1443 811.585C1443 829.966 1359.86 865.623 1346.52 873.102C1310.42 893.328 1290.18 897.101 1251.27 890.387C1220.11 885.01 1188.57 893.319 1157.89 883.734C1129.62 874.902 1101.83 868.402 1073.3 860.832C1046.61 853.75 1039.4 841.725 1019.58 825.473C1011.63 818.96 966.061 789.541 969.396 798.686M969.396 798.686C969.548 799.102 969.801 799.598 970.164 800.18C999.517 847.277 1161.03 913.14 1110.96 889.143C1081.67 875.104 1051.52 856.596 1025.02 837.945C1020.11 834.49 989.947 813.194 969.396 798.686ZM969.396 798.686C958.296 790.85 950 784.994 950 785C950 796.402 962.003 803.455 969.517 810.847C1002.27 843.07 1035.11 879.561 1079.24 895.95C1138.29 917.88 1211.01 914.062 1273.07 914.062C1304.72 914.062 1358.79 927.745 1378.43 896.052M757.887 496.699C757.435 496.021 757 495.378 756.582 494.77M756.582 494.77C743.758 476.142 746.762 490.495 756.068 507.172C778.673 547.68 801.955 594.799 829.834 633.548M756.582 494.77C757.017 496.665 757.87 499.627 759.235 503.892C768.184 531.86 785.122 557.255 802.16 581.695M756.582 494.77C753.423 481.029 772.21 523.412 776.751 531.649C785.808 548.078 793.845 564.992 802.16 581.695M829.834 633.548C834.332 639.799 838.949 645.832 843.702 651.585C850.235 659.491 855.829 665.972 855.109 661.616M829.834 633.548C829.576 632.457 829.32 631.345 829.065 630.217M829.834 633.548C835.308 656.701 841.436 671.113 844.443 654.941M855.109 661.616C854.873 660.185 853.955 657.584 852.166 653.481C845.902 639.119 835.655 626.835 825.83 614.459M855.109 661.616C851.839 658.271 846.909 654.418 844.881 651.945C839.154 644.961 833.929 637.692 829.065 630.217M855.109 661.616C856.328 662.863 857.316 664.039 857.838 665.047M825.83 614.459C821.983 609.613 818.201 604.752 814.749 599.748C810.627 593.773 806.391 587.763 802.16 581.695M825.83 614.459C821.777 592.763 818.833 568.898 819.145 555.277C819.616 534.698 843.705 539.25 854.686 550.519M825.83 614.459C826.85 619.915 827.939 625.233 829.065 630.217M802.16 581.695C810.429 598.305 818.972 614.707 829.065 630.217M857.838 665.047C857.973 665.308 858.077 665.558 858.145 665.795C861.245 676.557 860.42 674.39 857.838 665.047ZM857.838 665.047C851.733 642.961 835.808 580.774 838.7 554.458C838.912 552.53 852.277 550.481 854.686 550.519M854.686 550.519C854.738 550.519 854.785 550.521 854.827 550.524C861.709 550.985 869.39 562.634 875.608 574.522M854.686 550.519C854.739 550.573 854.791 550.627 854.844 550.682C860.317 556.397 867.874 564.791 875.608 574.522M875.608 574.522C880.802 584.451 884.975 594.546 886.811 598.43C894.164 613.984 906.682 662.213 908.775 645.135C911.244 624.986 892.981 596.38 875.608 574.522ZM940.756 579.073C932.321 579.073 927.083 577.828 921.437 584.896C914.046 594.149 939.024 561.69 942.042 557.45C961.15 530.606 975.378 521.418 942.042 510.576C929.549 506.512 911.338 498.639 904.9 514.525C893.954 541.535 902.914 576.029 916.379 600.487C941.421 645.974 1013 611.981 1013 566.532M958.085 401.542C955.388 398.928 951.606 394.066 948.847 390.839M948.847 390.839C945.027 386.369 943.167 385.034 948.869 397.148C968.544 438.952 999.479 473.341 1027.95 508.403M948.847 390.839C949.645 392.532 950.27 393.841 950.62 394.413C963.791 415.929 978.424 436.389 993.461 456.65C1005.82 473.298 1017.4 490.557 1027.95 508.403M948.847 390.839C946.098 384.997 941.297 374.576 938.644 374.012C935.7 373.386 943.705 397.365 945.495 399.385M1027.95 508.403C1030.03 510.972 1032.11 513.545 1034.16 516.124C1036.43 518.978 1036.94 524.14 1033.72 518.414C1031.83 515.057 1029.91 511.72 1027.95 508.403ZM986.761 361.907C968.922 348.564 986.961 377.312 990.304 382.534C1006.27 407.463 1022.66 432.101 1038.37 457.2C1047.66 472.034 1056.68 492.895 1070.61 504.261C1086.51 517.234 1068.14 492.752 1064.8 486.871C1039.68 442.566 1017.39 398.045 986.761 357M1118.44 383.964C1118.44 369.661 1105.69 364.805 1100.94 380.424C1092.08 409.543 1097.38 482.309 1144.66 470.771C1163.24 466.237 1166 427.957 1166 413.527C1166 388.801 1148.8 370.163 1124.63 365.514C1103.44 361.438 1058.31 382.059 1076.04 411.259M1244 363.223C1243.86 362.551 1243.7 361.989 1243.51 361.527M1243.51 361.527C1240.5 354.122 1231.3 372.442 1231.3 376.578C1231.3 379.267 1244.48 368.496 1243.51 361.527ZM1243.51 361.527C1243.08 358.374 1239.75 356 1231 356M1306 319C1306.11 320.123 1303.59 323.776 1300.91 327.984M1300.91 327.984C1296.95 334.223 1292.66 341.681 1296.18 343.921C1297.97 345.059 1300.16 333.629 1300.91 327.984ZM1300.91 327.984C1301.1 326.593 1301.19 325.553 1301.17 325.139C1301 321.466 1292 323.074 1292 321.47M1372.63 276.305C1372.63 260.566 1352.38 287.164 1363.09 295.069C1371.58 301.336 1376.53 274.081 1374.57 269.239C1369.18 255.935 1348 277.447 1348 285.824" stroke="black" stroke-width="25" stroke-linecap="round" stroke-linejoin="round"/>
</svg>
