<svg width="32769" height="4834" viewBox="0 0 32769 4834" fill="none" xmlns="http://www.w3.org/2000/svg">
<path d="M28503.4 4396.45C28492.7 4398.18 28481.8 4400.23 28470.9 4402.31C28404.6 4395.54 28370.7 4206.24 28354.4 4161.23C28308.5 4034.35 28399.6 3836.79 28511.9 3776.77C28561.8 3750.11 28633.2 3739.94 28681.8 3776.35C28726.4 3809.77 28650.7 3669.25 28638.6 3614.85C28614.6 3506.86 28599.3 3351.24 28632.1 3243.71C28677.5 3095.43 28799.6 3004.13 28933.1 2939.34C29070.3 2872.73 29232.9 2886.45 29372.1 2944.63C29430.8 2969.17 29578.4 3059.34 29580.5 3139.11C29581.8 3191.1 29582.7 3035.09 29585.6 2983.16C29593.1 2846.94 29610.9 2707.4 29642.2 2574.49C29680.3 2412.72 29749 2284.69 29922.7 2241.5C30125.3 2191.08 30330.4 2313.51 30478.2 2439.47C30628.3 2567.38 30795 2752.81 30858.4 2942.24C30880.9 3009.39 30876.2 3220.14 30894.2 3151.64C30927.1 3026.27 31037.3 2902.14 31109.7 2798.26C31165.5 2718.28 31235.1 2654.12 31303.4 2585.2C31352.6 2535.48 31397.7 2477.88 31453.7 2435.48C31564.1 2351.76 31716 2424.73 31811.5 2494.48C31966.4 2607.53 32031.9 2724.06 32074.6 2909.08C32119.1 3101.82 32085.3 3295.75 32041.7 3483.75C32031.6 3527.21 32042.1 3498.34 32055.3 3476.44C32105.3 3393.76 32222.1 3398.06 32305.8 3421.09C32362.8 3436.77 32402.4 3490.22 32449.3 3523.71C32508.7 3566.09 32568.7 3606.86 32615.2 3664.06C32690.9 3757.09 32743.8 3886.5 32764.2 4004.58C32776.9 4077.72 32751.9 4140.33 32706.1 4195.57C32671 4237.84 32598.1 4212.56 32540.7 4212.56C32101 4212.56 31664.2 4203.01 31224.6 4224.23C30649.6 4251.99 30076.6 4300.67 29502.3 4338.2C29282.8 4352.54 29062.9 4366.3 28843.3 4377.69C28730.8 4383.53 28614.9 4378.41 28503.4 4396.45Z" fill="#B3B3B3"/>
<path d="M28351.3 4431.41C28368.7 4431.09 28363.1 4414.59 28376.1 4414.59C28418.4 4414.59 28461.8 4403.18 28503.4 4396.45C28614.9 4378.41 28730.8 4383.53 28843.3 4377.69C29062.9 4366.3 29282.8 4352.54 29502.3 4338.2C30076.6 4300.67 30649.6 4251.99 31224.6 4224.23C31664.2 4203.01 32101 4212.56 32540.7 4212.56C32598.1 4212.56 32671 4237.84 32706.1 4195.57C32751.9 4140.33 32776.9 4077.72 32764.2 4004.58C32743.8 3886.5 32690.9 3757.09 32615.2 3664.06C32568.7 3606.86 32508.6 3566.09 32449.3 3523.71C32402.4 3490.22 32362.8 3436.77 32305.8 3421.09C32222.1 3398.06 32105.3 3393.76 32055.3 3476.44C32042.1 3498.34 32031.6 3527.21 32041.7 3483.75C32085.3 3295.75 32119.1 3101.82 32074.6 2909.08C32031.9 2724.06 31966.4 2607.53 31811.5 2494.48C31716 2424.73 31564.1 2351.76 31453.7 2435.48C31397.7 2477.88 31352.6 2535.48 31303.4 2585.2C31235.1 2654.12 31165.5 2718.28 31109.7 2798.26C31037.3 2902.14 30927.1 3026.27 30894.2 3151.64C30876.2 3220.14 30880.9 3009.39 30858.4 2942.24C30795 2752.81 30628.3 2567.38 30478.2 2439.47C30330.4 2313.51 30125.3 2191.08 29922.7 2241.5C29749 2284.69 29680.3 2412.72 29642.2 2574.49C29610.9 2707.4 29593.1 2846.94 29585.6 2983.16C29582.7 3035.09 29581.8 3191.1 29580.5 3139.11C29578.4 3059.34 29430.8 2969.17 29372.1 2944.63C29232.9 2886.45 29070.3 2872.73 28933.1 2939.34C28799.6 3004.13 28677.5 3095.43 28632.1 3243.71C28599.3 3351.24 28614.6 3506.86 28638.6 3614.85C28650.7 3669.25 28726.4 3809.77 28681.8 3776.35C28633.2 3739.94 28561.8 3750.11 28511.9 3776.77C28399.6 3836.79 28308.5 4034.34 28354.4 4161.23C28371 4207.06 28405.9 4402.5 28474.6 4402.5" stroke="black" stroke-opacity="0.21" stroke-width="3" stroke-linecap="round" stroke-linejoin="round"/>
<path d="M21925.1 4398.62C21814.3 4391.42 21756.1 4409.93 21645.7 4416.93C20998.6 4457.95 20349.8 4437.8 19704.3 4506.19C19284.2 4550.69 18864.9 4572.88 18444.1 4604.53C18152.1 4626.48 17862.2 4675.36 17570.4 4694.62C17524.8 4697.64 17414.9 4721.17 17370.8 4699.33C17366.3 4697.09 17370.5 4645.71 17370.5 4641.63C17370.5 4457.62 17354.5 4259.35 17543 4165.93C17720.3 4078.1 17891.8 4099.17 18017.4 4256.28C18046 4292.11 18073.5 4331.1 18108.3 4361.33C18110.5 4363.2 18135.4 4381.68 18135.3 4378.6C18134.6 4343.56 18105 4293.66 18091.2 4262.08C18057.5 4184.97 18040.9 4116.68 18038.3 4031.75C18035.2 3932.77 18015 3831.2 18059.9 3738.98C18124 3607.44 18251.9 3375.77 18416.9 3375.77C18570.2 3375.77 18728.3 3461.77 18781.9 3614.34C18807.9 3688.07 18809.6 3753.15 18855.8 3818.82C18874.3 3845.16 18871.5 3911.62 18897.9 3928.21C18913 3937.76 18910.3 3880.33 18910.3 3873.82C18910.3 3755.69 18886.1 3645.74 18861.5 3529.95C18808.2 3279.57 18728.9 3046.84 18728.3 2787.24C18727.6 2542.7 18943.1 2298.13 19176 2240.64C19397.6 2185.93 19686.9 2347.23 19762 2558.2C19798.5 2660.61 19818.4 2781.75 19822.8 2890.27C19827.1 2996.07 19786.4 3093.36 19746.2 3189.71L19745.3 3191.76C19692.4 3318.48 19622.4 3424.47 19617.3 3564.12C19615 3628.9 19788.8 3525.22 19822.1 3517.35C20026.7 3468.96 20363.2 3433.52 20519.6 3608.71C20579.7 3676.05 20595.5 3755.16 20632.3 3831.54C20627 3792.48 20628.8 3747.9 20628.8 3731.16C20628.8 3605.97 20635.1 3492.14 20713.2 3390.22C20812.4 3260.87 21015 3193.55 21165.8 3283.44C21244.9 3330.6 21298.5 3432.13 21339.4 3511.38C21360 3551.36 21381 3620.62 21421.3 3646.98C21441.2 3659.99 21496.5 3583.66 21509.3 3573.02C21596.1 3500.91 21701 3469.85 21812.4 3464.6C22018 3454.92 22152.4 3644.03 22191.9 3827.3C22227.1 3991.43 22228.4 4107.85 22108.1 4225.69C22064.5 4268.44 22064.3 4368.2 21994.9 4388.77C21971.8 4395.61 21949.1 4398.62 21925.1 4398.62Z" fill="#D9D9D9" stroke="black" stroke-opacity="0.21" stroke-width="3" stroke-linecap="round" stroke-linejoin="round"/>
<path d="M23215.8 992.2C23039.7 991.101 22959 1011.27 22784 984.109C22718.7 960.359 22631.6 961.608 22569.2 986.572C22501 1013.84 22424.6 1038.92 22354.4 1061.93C22300.2 1079.73 22245.9 1095.88 22191.9 1114.87C22114.5 1142.09 22036.9 1121.85 21957.5 1116.71C21818.7 1107.72 21699.3 1074.49 21705.3 907.907C21709.1 803.471 21806.6 599.679 21940.8 649.411C21957.7 655.654 22005.6 681.663 22024.6 706.803C22021.4 685.552 22018.6 656.958 22018.6 642.539C22018.6 471.997 22099.7 330.788 22259.8 260.08C22326.9 230.406 22514.9 173.809 22522.1 303.241C22525.1 358.596 22553.4 175.574 22606.7 160.039C22738.5 121.553 22845.7 149.19 22950.4 228.137C23060.8 311.391 23061.5 378.084 23061.5 513.008C23061.5 515.745 23079.3 392.693 23095.2 363.429C23134.2 291.84 23259.3 290.964 23329 306.284C23298.9 206.404 23304.8 132.549 23385.4 42.0038C23454.5 -35.7002 23596.6 9.45174 23658.7 73.5715C23723.7 140.814 23722 246.474 23732.2 333.166C23744.3 435.766 23756.7 539.235 23779.7 639.979C23795.4 708.4 23798.3 674.705 23817.2 623.7C23851.6 531.031 23898.8 422.279 23998.6 383.911C24209.3 302.887 24203.5 550.076 24213 692.717C24213.7 703.757 24293.5 554.238 24306.3 532.161C24344.5 466.383 24416.1 443.707 24489.2 445.935C24539.7 447.472 24567.4 494.657 24586 535.482C24606.9 581.405 24645.2 589.294 24671.8 626.744C24705.4 673.988 24660 784.708 24645.9 833.794C24636.2 867.714 24572.6 930.57 24607.8 932.591C24705.1 938.167 24414.3 954.909 24317.5 965.801C24139 985.88 23958.7 969.405 23779.7 980.437C23590.9 992.07 23405 993.38 23215.8 992.2Z" fill="#D9D9D9" stroke="black" stroke-opacity="0.21" stroke-width="3" stroke-linecap="round" stroke-linejoin="round"/>
<path d="M25429.9 2894.56C25429 2892.74 25428 2890.63 25427.1 2888.21C25384.7 2778.96 25347.5 2652.88 25345.7 2535.48C25344.2 2438.19 25360.9 2338.46 25401.4 2249.41C25439 2167.11 25509.4 2124.08 25588.4 2086.53C25665 2050.13 25746.9 2029.53 25832 2033.99C25907.7 2037.96 25980.5 2104.81 26030.1 2156.62C26085.3 2214.24 26113.4 2276.95 26132 2353.83C26134.7 2364.71 26151.5 2420.44 26151.5 2417.06C26151.5 2379.71 26181 2339.05 26198.5 2307.97C26235.1 2242.93 26284.6 2155.68 26366.9 2144.62C26509.4 2125.44 26631.3 2227.09 26679.3 2354.02C26720.9 2463.83 26696.4 2641.15 26555.2 2664.2C26522.6 2669.52 26545.3 2663.96 26563.6 2683.31C26603.7 2725.8 26630.7 2781.41 26635.7 2839.89C26650.2 3011.52 26514 3106.75 26349.9 3106.75C26278 3106.75 26189.9 3082.16 26124.3 3052.04C26107.6 3044.36 26085.8 3012.65 26090.9 3030.47C26128 3158.81 26178.1 3298.21 26070 3410.7C25970.2 3514.66 25729.1 3466.1 25637.2 3375.73C25584.8 3324.14 25539.1 3252.57 25499.4 3191.89C25448.9 3114.83 25305.2 2976.27 25429.9 2894.56Z" fill="#D9D9D9"/>
<path d="M25442.3 2883.51C25454.2 2896 25439.7 2920.78 25427.1 2888.21C25384.7 2778.96 25347.5 2652.88 25345.7 2535.48C25344.2 2438.19 25360.9 2338.46 25401.4 2249.41C25439 2167.11 25509.4 2124.08 25588.4 2086.53C25665 2050.13 25746.9 2029.53 25832 2033.99C25907.7 2037.96 25980.5 2104.81 26030.1 2156.62C26085.3 2214.24 26113.4 2276.95 26132 2353.83C26134.7 2364.71 26151.5 2420.44 26151.5 2417.06C26151.5 2379.71 26181 2339.05 26198.5 2307.97C26235.1 2242.93 26284.6 2155.68 26366.9 2144.62C26509.4 2125.44 26631.3 2227.09 26679.3 2354.02C26720.9 2463.83 26696.4 2641.15 26555.2 2664.2C26522.6 2669.52 26545.3 2663.96 26563.6 2683.31C26603.7 2725.8 26630.7 2781.41 26635.7 2839.89C26650.2 3011.52 26514 3106.75 26349.9 3106.75C26278 3106.75 26189.9 3082.16 26124.3 3052.04C26107.6 3044.36 26085.8 3012.65 26090.9 3030.47C26128 3158.81 26178.1 3298.21 26070 3410.7C25970.2 3514.66 25729.1 3466.1 25637.2 3375.73C25584.8 3324.14 25539.1 3252.57 25499.4 3191.89C25447.8 3113.1 25298.8 2970.05 25438.7 2889.17C25458.5 2877.71 25497.5 2870.71 25519.5 2880.46C25535.7 2887.65 25525.7 2876.93 25525.7 2857.35" stroke="black" stroke-opacity="0.21" stroke-width="3" stroke-linecap="round" stroke-linejoin="round"/>
<path d="M4557.31 4523.36C4446.59 4516.17 4388.35 4534.67 4277.95 4541.67C3630.83 4582.69 2982.01 4562.54 2336.5 4630.93C1916.41 4675.44 1497.18 4697.62 1076.36 4729.27C784.4 4751.23 494.498 4800.1 202.647 4819.37C157.009 4822.38 47.1719 4845.91 3.03645 4824.07C-1.49393 4821.83 2.72146 4770.45 2.72146 4766.37C2.72146 4582.36 -13.2103 4384.09 175.298 4290.67C352.534 4202.84 524.069 4223.91 649.652 4381.02C678.287 4416.85 705.803 4455.85 740.59 4486.07C742.744 4487.94 767.65 4506.43 767.585 4503.35C766.838 4468.3 737.25 4418.4 723.454 4386.82C689.769 4309.71 673.121 4241.42 670.52 4156.49C667.488 4057.52 647.247 3955.94 692.16 3863.72C756.221 3732.19 884.176 3500.52 1049.19 3500.52C1202.5 3500.52 1360.54 3586.52 1414.18 3739.08C1440.11 3812.82 1441.84 3877.89 1488.02 3943.56C1506.54 3969.9 1503.79 4036.36 1530.13 4052.95C1545.3 4062.5 1542.51 4005.07 1542.51 3998.56C1542.51 3880.43 1518.34 3770.48 1493.71 3654.69C1440.46 3404.32 1361.17 3171.58 1360.51 2911.99C1359.88 2667.44 1575.35 2422.88 1808.25 2365.38C2029.86 2310.67 2319.18 2471.98 2394.28 2682.94C2430.74 2785.35 2450.7 2906.49 2455.07 3015.01C2459.34 3120.82 2418.69 3218.11 2378.44 3314.45L2377.59 3316.5C2324.65 3443.22 2254.62 3549.21 2249.58 3688.86C2247.25 3753.65 2421.04 3649.97 2454.32 3642.09C2658.92 3593.7 2995.41 3558.27 3151.85 3733.45C3211.99 3800.8 3227.76 3879.9 3264.6 3956.29C3259.25 3917.22 3261.04 3872.65 3261.04 3855.9C3261.04 3730.71 3267.34 3616.88 3345.48 3514.96C3444.65 3385.61 3647.23 3318.3 3798.02 3408.18C3877.13 3455.34 3930.8 3556.88 3971.64 3636.12C3992.25 3676.1 4013.28 3745.37 4053.59 3771.72C4073.5 3784.74 4128.76 3708.4 4141.56 3697.76C4228.31 3625.66 4333.2 3594.59 4444.66 3589.34C4650.29 3579.67 4784.7 3768.78 4824.1 3952.05C4859.39 4116.17 4860.68 4232.59 4740.38 4350.43C4696.73 4393.19 4696.58 4492.94 4627.15 4513.51C4604.06 4520.35 4581.34 4523.36 4557.31 4523.36Z" fill="#D9D9D9" stroke="black" stroke-opacity="0.21" stroke-width="3" stroke-linecap="round" stroke-linejoin="round"/>
<path d="M5848.04 1116.94C5672 1115.84 5591.24 1136.01 5416.25 1108.85C5350.92 1085.1 5263.84 1086.35 5201.42 1111.31C5133.24 1138.58 5056.82 1163.66 4986.7 1186.67C4932.46 1204.47 4878.16 1220.62 4824.15 1239.61C4746.75 1266.83 4669.17 1246.59 4589.77 1241.45C4450.93 1232.46 4331.55 1199.23 4337.58 1032.65C4341.37 928.213 4438.81 724.421 4573.05 774.153C4589.9 780.396 4637.83 806.405 4656.9 831.545C4653.7 810.294 4650.82 781.7 4650.82 767.281C4650.82 596.739 4731.95 455.53 4892.01 384.822C4959.18 355.148 5147.18 298.551 5154.32 427.983C5157.37 483.338 5185.69 300.316 5238.92 284.781C5370.79 246.295 5477.96 273.932 5582.66 352.879C5693.08 436.133 5693.78 502.826 5693.78 637.75C5693.78 640.487 5711.58 517.435 5727.5 488.171C5766.46 416.582 5891.56 415.706 5961.25 431.026C5931.2 331.146 5937.02 257.291 6017.61 166.746C6086.78 89.0418 6228.88 134.194 6290.93 198.314C6356 265.556 6354.3 371.216 6364.47 457.908C6376.52 560.508 6388.94 663.977 6411.98 764.721C6427.63 833.142 6430.58 799.447 6449.48 748.442C6483.82 655.773 6531.04 547.021 6630.81 508.653C6841.52 427.629 6835.77 674.819 6845.24 817.459C6845.97 828.499 6925.77 678.98 6938.59 656.903C6976.8 591.125 7048.33 568.449 7121.48 570.678C7171.92 572.215 7199.64 619.399 7218.25 660.224C7239.19 706.147 7277.45 714.036 7304.06 751.486C7337.63 798.73 7292.22 909.45 7278.14 958.536C7268.41 992.456 7204.86 1055.31 7240.1 1057.33C7337.35 1062.91 7046.56 1079.65 6949.75 1090.54C6771.29 1110.62 6590.97 1094.15 6411.91 1105.18C6223.11 1116.81 6037.23 1118.12 5848.04 1116.94Z" fill="#D9D9D9" stroke="black" stroke-opacity="0.21" stroke-width="3" stroke-linecap="round" stroke-linejoin="round"/>
<path d="M8062.16 3019.3C8061.21 3017.48 8060.26 3015.38 8059.32 3012.95C8017 2903.7 7979.79 2777.62 7977.96 2660.22C7976.44 2562.93 7993.11 2463.2 8033.7 2374.15C8071.21 2291.85 8141.7 2248.82 8220.69 2211.27C8297.28 2174.87 8379.13 2154.27 8464.3 2158.73C8540 2162.7 8612.71 2229.55 8662.33 2281.36C8717.52 2338.98 8745.64 2401.69 8764.28 2478.57C8766.91 2489.45 8783.78 2545.18 8783.78 2541.81C8783.78 2504.45 8813.27 2463.79 8830.77 2432.71C8867.38 2367.67 8916.84 2280.43 8999.14 2269.36C9141.7 2250.19 9263.51 2351.84 9311.58 2478.76C9353.17 2588.58 9328.62 2765.89 9187.46 2788.94C9154.86 2794.26 9177.54 2788.7 9195.81 2808.05C9235.93 2850.54 9262.99 2906.15 9267.93 2964.64C9282.42 3136.27 9146.3 3231.49 8982.1 3231.49C8910.21 3231.49 8822.19 3206.9 8756.59 3176.78C8739.87 3169.1 8718.02 3137.4 8723.17 3155.21C8760.24 3283.56 8810.38 3422.95 8702.3 3535.44C8602.42 3639.4 8361.36 3590.84 8269.49 3500.48C8217.05 3448.88 8171.35 3377.31 8131.63 3316.64C8081.17 3239.57 7937.5 3101.02 8062.16 3019.3Z" fill="#D9D9D9"/>
<path d="M8074.6 3008.25C8086.49 3020.74 8071.94 3045.52 8059.32 3012.95C8017 2903.7 7979.79 2777.62 7977.96 2660.22C7976.44 2562.93 7993.11 2463.2 8033.7 2374.15C8071.21 2291.85 8141.7 2248.82 8220.69 2211.27C8297.28 2174.87 8379.13 2154.27 8464.3 2158.73C8540 2162.7 8612.71 2229.55 8662.33 2281.36C8717.52 2338.98 8745.64 2401.69 8764.28 2478.57C8766.91 2489.45 8783.78 2545.18 8783.78 2541.81C8783.78 2504.45 8813.27 2463.79 8830.77 2432.71C8867.38 2367.67 8916.84 2280.43 8999.14 2269.36C9141.7 2250.19 9263.51 2351.84 9311.58 2478.76C9353.17 2588.58 9328.62 2765.89 9187.46 2788.94C9154.86 2794.26 9177.54 2788.7 9195.81 2808.05C9235.93 2850.54 9262.99 2906.15 9267.93 2964.64C9282.42 3136.27 9146.3 3231.49 8982.1 3231.49C8910.21 3231.49 8822.19 3206.9 8756.59 3176.78C8739.87 3169.1 8718.02 3137.4 8723.17 3155.21C8760.24 3283.56 8810.38 3422.95 8702.3 3535.44C8602.42 3639.4 8361.36 3590.84 8269.49 3500.48C8217.05 3448.88 8171.35 3377.31 8131.63 3316.64C8080.05 3237.85 7931.03 3094.8 8070.92 3013.91C8090.73 3002.45 8129.79 2995.45 8151.75 3005.21C8167.92 3012.39 8157.98 3001.68 8157.98 2982.09" stroke="black" stroke-opacity="0.21" stroke-width="3" stroke-linecap="round" stroke-linejoin="round"/>
</svg>
