<svg width="2774" height="2815" viewBox="0 0 2774 2815" fill="none" xmlns="http://www.w3.org/2000/svg">
<path d="M1117.57 1505.66C1124.91 1152.39 1136.71 2918.86 1136.71 2565.51M843.721 1480.79C821.399 1492.79 825.51 1485.4 858.605 1487.03C898.78 1488.99 938.917 1491.69 979.062 1494.23M979.062 1494.23C991.247 1495 1003.43 1495.75 1015.62 1496.46C1016.69 1496.53 1017.87 1496.57 1019.14 1496.6M979.062 1494.23C992.434 1494.04 1006.06 1495.08 1019.14 1496.6M979.062 1494.23C955.832 1494.55 933.372 1498.54 915.87 1510.03M1019.14 1496.6C1043.58 1497.14 1103.19 1492.04 1119.85 1509.04C1123.99 1513.27 1060.89 1502.69 1053.25 1501.48C1042.75 1499.82 1031.18 1498 1019.14 1496.6ZM872.839 1273.52C874.286 1264.13 893.798 1211.74 873.79 1211.74C862.955 1211.74 875.463 1372.78 879.463 1415.19M879.463 1415.19C879.904 1419.87 880.242 1423.11 880.433 1424.53C882.329 1438.55 900.161 1487.47 889.599 1456.63C885.112 1443.53 881.882 1429.58 879.463 1415.19ZM879.463 1415.19C872.671 1374.82 872.26 1331.01 868.349 1292.94C867.865 1288.23 861.546 1165.52 862.275 1147.88M862.275 1147.88C862.334 1146.47 862.437 1145.73 862.591 1145.77C862.626 1145.78 862.508 1146.55 862.275 1147.88ZM862.275 1147.88C860.77 1156.48 854.481 1188.6 854.284 1190.26C848.471 1239.25 848.472 1288.42 848.473 1337.68L848.473 1339.66C848.473 1385.87 849.114 1431.91 851.22 1478.05C852.239 1500.39 851.801 1471.58 851.801 1465.01M802.118 1210.85C763.139 1214.7 865.247 1213.71 870.833 1213.71C941.42 1213.71 1015.74 1206.94 1085.86 1215.87C1087.37 1216.06 1091.48 1217.12 1096.93 1218.53M1096.93 1218.53C1114.05 1222.95 1144.37 1230.81 1148.49 1226C1149.79 1224.49 1117.96 1220.67 1096.93 1218.53ZM1096.93 1218.53C1087.98 1217.61 1080.98 1217 1079.33 1217C1027.67 1217 976.073 1215.5 924.433 1215.16C877.785 1214.85 832.128 1216.25 785.735 1220.62C759.898 1223.06 785.296 1216.67 795.462 1214.15M1110.92 1203.19C1105.07 1203.8 1102.84 1215.71 1101.66 1203.63C1096.61 1152.07 1094.09 1100.58 1092.5 1048.79C1089.92 965.235 1094.31 893.053 1105.81 811.099C1122.94 689.073 1178.51 573.435 1280.69 501.847C1330.05 467.267 1402.7 471.494 1460.09 460.508C1496.92 453.457 1535.14 449.197 1571.23 439.089C1606.83 429.117 1628.37 445.96 1662.22 447.543C1696.95 449.167 1731.14 451.765 1765.58 453.783C1793.27 455.406 1823.83 444.719 1846.8 462.534C1862.94 475.045 1906.85 500.125 1925.24 493.23M1871.27 458.284C1886.52 432.266 1888.15 425.448 1885.17 465.277C1881.77 510.68 1881.8 557.117 1883.04 603.268M1883.04 603.268C1883.71 628.276 1884.74 653.201 1885.77 677.831C1886.18 687.523 1891.36 730.347 1891.36 697.339C1891.36 616.536 1895.09 374.178 1892.26 454.932C1891.05 489.298 1886.63 546.911 1883.04 603.268ZM1883.04 603.268C1876.41 707.28 1872.61 807.017 1897.07 748.454M1876.5 740.786C1882.06 735.197 1891.58 733.586 1894.24 733.26M1894.24 733.26C1895.12 733.153 1895.25 733.185 1894.24 733.26ZM1894.24 733.26C1892.8 733.369 1889.01 733.566 1881.73 733.566C1831.53 733.566 1783.18 713.701 1732.02 713.954C1654.94 714.334 1584.09 746.839 1548.52 818.056C1511.59 892.029 1518.49 983.392 1518.49 1064.4C1518.49 1106.06 1523.09 1145.08 1526.11 1186.31C1526.54 1192.18 1528.57 1252.01 1535.25 1246.69M1505.18 1203.63C1498 1203.63 1495.55 1199.78 1504.55 1196.85C1605.66 1163.87 1727.02 1200.48 1830.39 1202.55C1860.68 1203.16 1891.03 1202.65 1921.33 1202.65C1936.69 1202.65 1890.64 1204.22 1875.29 1204.71C1845.12 1205.68 1626.54 1200.81 1626.54 1211.74M1870.8 1216.11C1870.8 1204.02 1871.95 1184.34 1871.79 1174.27M1871.79 1174.27C1871.61 1163.09 1869.83 1163.75 1863.07 1199.81C1847.48 1283.04 1841.08 1373.72 1841.08 1458.39C1841.08 1458.89 1841.05 1459.42 1840.99 1459.96M1871.79 1174.27C1871.39 1170.74 1870.7 1175.41 1869.85 1191.22C1865.37 1274.27 1870.43 1379.44 1840.99 1459.96M1871.79 1174.27C1873.69 1190.97 1869.2 1391.46 1845.48 1462.6M1840.99 1459.96C1840.13 1467.5 1833.74 1477.83 1835.88 1472.85C1837.69 1468.63 1839.39 1464.33 1840.99 1459.96ZM1503.75 1491.84C1494.5 1494.5 1465.63 1497.08 1489.37 1493.25C1528.51 1486.93 1568.45 1483.16 1608.63 1480.73M1608.63 1480.73C1675.23 1476.7 1742.52 1476.34 1808.03 1474.1C1835.78 1473.15 1863.27 1471.46 1890.86 1468.49C1911.74 1466.25 1848.83 1466.87 1827.85 1467.88C1758.84 1471.21 1676.68 1461.71 1608.63 1480.73ZM1608.63 1480.73C1602.52 1482.44 1596.51 1484.38 1590.64 1486.58M1531.45 1499.95C1531.45 1494.45 1526.22 1445.07 1526.22 1469.5C1526.22 1563.62 1520.39 1657.75 1520.39 1752.02C1520.39 1914.22 1541.03 2084.05 1523.6 2245.58C1517.79 2299.5 1524.32 2355.05 1524.32 2409.17C1524.32 2445.5 1511.84 2481.26 1511.84 2518.09C1511.84 2533.07 1501.2 2554.48 1498.65 2571.24C1498.08 2575 1497.45 2591.86 1497.45 2589.11C1497.45 2542.58 1492.85 2496.2 1490.8 2449.71M1140.52 2583.7C1123.68 2584.09 1073.31 2583.81 1090.04 2585.76C1211.37 2599.9 1339.42 2568.02 1460.56 2561.93C1465.62 2561.68 1523.92 2558.76 1500.24 2560.92C1465.8 2564.05 1429.61 2574.5 1395.68 2581.54C1342.28 2592.62 1287.93 2604.62 1233.39 2607.81C1225.14 2608.29 1179.7 2607.14 1184.97 2607.14M1111.39 2766.09C1112.26 2749.3 1166.41 2775.18 1086.15 2775.18C998.883 2775.18 935.776 2728.47 862.644 2689.81C830.902 2673.03 795.581 2664.38 763.554 2647.64C732.983 2631.67 707.872 2607.66 678.7 2589.74C561.583 2517.78 451.712 2431.9 359.36 2330.99C258.085 2220.34 188.866 2104.95 124.801 1968.95C60.2064 1831.82 37.8464 1690.67 12.5369 1543.46C-7.4132 1427.41 18.3799 1295.85 28.5699 1179.73C37.4341 1078.71 71.8235 988.608 118.191 900.744C148.715 842.902 187.951 787.965 210.691 726.632C238.021 652.92 294.248 612.306 334.281 547.875M261.658 670.897C245.105 694.653 252.275 651.202 253.694 642.836C262.756 589.408 313.81 537.107 345.62 496.528C423.562 397.101 506.465 321.342 610.04 248.267C657.365 214.877 718.742 203.49 769.003 174.429C824.963 142.074 893.721 113.735 957.147 102.191C1035.52 87.9271 1110.45 62.6402 1187.32 41.6862C1262.28 21.2524 1343.33 -20.2342 1416.75 26.5512M1286.72 42.3292C1239.38 42.3292 1380.49 27.7652 1426.02 14.8228C1495.15 -4.82759 1588.04 29.2564 1649.72 60.3218C1741.59 106.594 1850.08 111.54 1942.63 160.457C1976.59 178.409 2011.17 195.268 2045.02 213.474C2090.27 237.814 2125.4 277.574 2164.74 309.945C2206.33 344.182 2252.76 371.65 2284.8 415.89C2303.99 442.384 2321.33 470.409 2335.78 499.791C2337.48 503.233 2354.45 531.585 2354.92 528.174M1811.96 101.256C1874.97 185.641 1978.56 201.275 2071.31 237.931C2131.91 261.88 2180.77 306.405 2234.9 341.479C2286.86 375.148 2340.04 407.205 2386.21 448.934C2423.41 482.564 2452.14 519.755 2480.24 561.02C2505.89 598.696 2539.57 629.809 2562.51 669.427C2591.36 719.251 2619.87 778.055 2629.72 835.168C2641.88 905.605 2665.91 966.922 2690.82 1033.72M2388.8 448.746C2405.19 482.377 2438.2 509.138 2462.7 536.401C2510.66 589.79 2545.98 648.824 2574.27 714.648C2597.57 768.859 2631.99 818.993 2645.21 876.864C2657.53 930.751 2670.89 982.358 2686.99 1035.09C2714.94 1126.65 2732.42 1214.54 2747.04 1308.74C2754.7 1358.07 2766.89 1405.08 2766.89 1455.35C2766.89 1510.58 2747.43 1606.86 2705.68 1646.42M2758.21 1410.45C2776.7 1472.05 2766.82 1564.57 2758.21 1625.73C2745.5 1716.13 2712.61 1802.66 2677.83 1886.67C2610.79 2048.57 2508.64 2206.15 2394.5 2338.64M2727.67 1806.79C2699.27 1869.41 2670.29 1934.02 2636.07 1993.65C2586.29 2080.4 2515.92 2150.58 2458.2 2231.51C2410.94 2297.78 2358 2358.11 2296.94 2411.88C2254.27 2449.45 2210.88 2493.15 2160.77 2520.58C2120.62 2542.56 2075.26 2551.57 2035.66 2576.03M2167.59 2495.18C2172.67 2495.18 2178.68 2493.47 2182.29 2494.51M2182.29 2494.51C2184.41 2495.13 2185.7 2496.69 2185.49 2500.1M2182.29 2494.51C2224.31 2462.39 2261.59 2426.4 2301.53 2390.84C2304.31 2388.37 2309.4 2384.54 2315.04 2380.47M2182.29 2494.51C2171.52 2502.75 2160.43 2510.73 2148.91 2518.38C2066.5 2573.12 1989.35 2628.99 1903.67 2673.31M2185.49 2500.1C2185.43 2501.21 2185.2 2502.52 2184.79 2504.06C2178.09 2529.18 2136.2 2555.47 2096.68 2576.52M2185.49 2500.1C2176.36 2507.64 2167.47 2515.46 2159.03 2523.8C2139.33 2543.26 2118.29 2560.23 2096.68 2576.52M2185.49 2500.1C2217.04 2474.08 2251.52 2451.45 2280.58 2422.43C2293.12 2409.91 2302.74 2393.57 2315.04 2380.47M2096.68 2576.52C2070.66 2590.37 2045.67 2601.96 2032.41 2609.44C1990.58 2633.06 1947.4 2653.75 1903.67 2673.31M2096.68 2576.52C2076.11 2592.01 2055.03 2606.88 2034.09 2622.68C1998.6 2649.47 1964.23 2685.86 1922.69 2703.18C1874.01 2723.48 1823.6 2734.3 1772.48 2740.93M1903.67 2673.31C1885.35 2681.51 1866.93 2689.5 1848.47 2697.43C1839.36 2701.34 1830.54 2705.76 1821.91 2710.52M1903.67 2673.31C1877.35 2686.92 1850.23 2699.45 1821.91 2710.52M1821.91 2710.52C1804.98 2719.84 1788.76 2730.44 1772.48 2740.93M1821.91 2710.52C1821.22 2710.78 1820.54 2711.05 1819.86 2711.31C1749.1 2738.73 1678.8 2744.02 1606.38 2754.38M1772.48 2740.93C1755.31 2751.99 1738.06 2762.93 1719.83 2772.13C1638.44 2813.21 1526.91 2812.42 1438 2807.47C1375.8 2804.01 1315.8 2794.19 1255.85 2783.95M1772.48 2740.93C1718.13 2747.98 1662.98 2750.29 1608.25 2754.24C1607.62 2754.29 1607 2754.33 1606.38 2754.38M1255.85 2783.95C1241.79 2781.55 1227.73 2779.12 1213.64 2776.75M1255.85 2783.95C1357.11 2783.98 1460.01 2781.08 1556.34 2762.6C1573.15 2759.38 1589.82 2756.74 1606.38 2754.38M1255.85 2783.95C1208.73 2783.94 1161.96 2783.29 1116.38 2783.29C1084.81 2783.29 1060.54 2780.55 1032.31 2765.62C1028.07 2763.38 1023.79 2761.33 1019.46 2759.43M1213.64 2776.75C1180.23 2771.13 1146.68 2765.81 1112.6 2761.82C1090.95 2759.28 1039.31 2759.08 1018.95 2759.21M1213.64 2776.75C1172.55 2778.64 1131.52 2778.1 1091.39 2772.21C1067.12 2768.65 1044 2760.01 1019.46 2759.43M1213.64 2776.75C1262.92 2774.5 1312.3 2768.77 1360.32 2764.66C1442.24 2757.66 1524.4 2760.17 1606.38 2754.38M1018.95 2759.21C1009.51 2759.27 1006.79 2759.4 1016.9 2759.4C1017.76 2759.4 1018.61 2759.41 1019.46 2759.43M1018.95 2759.21C1019.12 2759.29 1019.29 2759.36 1019.46 2759.43M1018.95 2759.21C980.775 2742.61 939.457 2738.3 899.241 2727.34C832.764 2709.23 783.487 2661.24 720.065 2636.7C644.557 2607.49 567.315 2602.11 506.273 2543.94M2315.04 2380.47C2322.4 2372.63 2330.73 2365.95 2341.22 2361.96C2342.13 2361.62 2327.3 2371.62 2315.04 2380.47Z" stroke="black" stroke-width="40" stroke-linecap="round" stroke-linejoin="round"/>
</svg>
