<svg width="3191" height="3237" viewBox="0 0 3191 3237" fill="none" xmlns="http://www.w3.org/2000/svg">
<path d="M948.173 874.993C948.171 874.979 948.168 874.966 948.165 874.952M948.165 874.952C947.285 871.109 922.737 850.537 940.154 867.208C942.836 869.775 945.506 872.357 948.165 874.952ZM948.165 874.952C1023.16 948.166 1088.89 1032.3 1152.88 1114.85C1155.52 1118.26 1158.15 1121.67 1160.77 1125.1M1160.77 1125.1C1187.28 1159.76 1212.68 1195.29 1237.3 1231.44M1160.77 1125.1C1247.49 1276.02 1360.63 1465.57 1430.68 1564.87M1160.77 1125.1C1063.79 956.317 999.844 835.844 1066.15 943.912C1124.49 1039 1181.18 1135.05 1237.3 1231.44M1237.3 1231.44C1335.52 1375.65 1421.29 1529.66 1515.35 1677.07M1237.3 1231.44C1301.96 1342.48 1365.86 1453.95 1430.68 1564.87M1515.35 1677.07C1578.13 1775.47 1644.61 1870.93 1720.95 1958.59C1758.76 2002.01 1741.78 1959.67 1722.9 1935.2C1655.39 1847.71 1583.76 1763.74 1515.35 1677.07ZM1515.35 1677.07C1489.27 1644.02 1463.65 1610.58 1438.91 1576.4C1436.24 1572.71 1433.49 1568.87 1430.68 1564.87M1430.68 1564.87C1532.89 1739.79 1637.39 1913.33 1750.68 2081.63C1794.68 2146.99 1842.48 2216.21 1895.45 2274.7C1903.97 2284.11 1928.99 2305.42 1928.99 2295.72M1859.18 2220.63C1858.01 2220.63 1856.86 2220.63 1855.74 2220.63M1855.74 2220.63C1836.61 2220.61 1826.32 2220.43 1855.74 2220.63ZM1855.74 2220.63C1855.83 2220.63 1855.92 2220.63 1856.01 2220.63C1923.64 2221.09 1991.41 2223.79 2059.02 2220.11C2069.2 2219.56 2085.15 2217.31 2103.26 2214.25M2103.26 2214.25C2181.43 2201.02 2299.84 2172.58 2168.07 2199.72C2124.15 2208.76 2072.8 2206.39 2029.19 2197.71C2016.62 2195.21 2006.02 2192.96 1998.68 2191.37M2103.26 2214.25C2067.54 2207.96 2036.67 2200.33 2023.56 2197.21C2012.6 2194.61 2004.43 2192.7 1998.68 2191.37M2103.26 2214.25C2182.2 2228.13 2284.82 2235.41 2271.58 2172.74M1998.68 2191.37C1985.42 2188.48 1982.86 2187.71 1998.68 2191.37ZM2238.54 2190.63C2247.39 2193.16 2255.48 2199.26 2262.7 2206.38M2262.7 2206.38C2268.83 2212.42 2274.34 2219.19 2279.2 2225.15L2279.97 2226.1C2291.47 2240.21 2279.93 2227.07 2262.7 2206.38ZM2262.7 2206.38C2244.75 2184.82 2220.63 2155.04 2209.98 2139.34C2023.69 1864.59 1818.54 1591.61 1647.3 1304.9M1647.3 1304.9C1629.32 1274.8 1611.72 1244.54 1594.55 1214.12M1647.3 1304.9C1630.28 1274.28 1612.77 1243.97 1594.55 1214.12M1647.3 1304.9C1735.08 1462.78 1809.89 1628.95 1902.68 1784.5M1594.55 1214.12C1591.93 1209.48 1589.33 1204.85 1586.74 1200.21C1584.36 1195.96 1576 1183.41 1565.84 1168.43M1594.55 1214.12C1585.17 1198.76 1575.61 1183.53 1565.84 1168.43M1565.84 1168.43C1541.35 1132.35 1506.35 1082.16 1519.07 1099.83C1535.25 1122.33 1550.8 1145.22 1565.84 1168.43ZM1902.68 1784.5C1930.93 1831.85 1960.84 1878.22 1993.3 1923.07C2024.63 1966.37 2055.47 2009.95 2085.2 2054.34C2113.17 2096.11 2034.48 1977.9 2026.65 1966.63C1984.63 1906.05 1943.35 1845.36 1902.68 1784.5ZM1902.68 1784.5C1770.87 1587.23 1645.43 1388.06 1521.6 1184.53C1464.84 1091.23 1400.11 966.343 1324.34 887.373C1305.38 867.622 1316.73 905.144 1320.58 915.984M1002.09 836.049C985.625 789.893 967.885 863.091 1041.52 895.466C1055.16 901.463 1069.38 906.274 1084.02 910.155M1084.02 910.155C1124.58 920.91 1168.35 924.529 1211.89 926.487M1084.02 910.155C1110.37 909.379 1133.31 908.17 1140.01 908.581C1194.56 911.93 1254.63 909.36 1310.88 914.414M1084.02 910.155C1070.35 910.557 1055.76 910.843 1042.04 910.724M1211.89 926.487C1251.36 928.263 1290.65 928.674 1327.18 931.8C1354.39 934.128 1415.87 931.773 1354.62 920.289C1340.42 917.627 1325.78 915.753 1310.88 914.414M1211.89 926.487C1167.01 927.532 1122.14 924.233 1082.78 922.09C1072.35 921.522 1057.33 916.507 1042.04 910.724M1211.89 926.487C1245.66 925.701 1279.43 922.457 1310.88 914.414M1310.88 914.414C1342.63 906.29 1372.01 893.27 1396.6 872.942M1042.04 910.724C1012.6 910.471 987.167 908.356 983.459 901.543C972.293 881.024 1007.86 897.794 1042.04 910.724ZM989.914 2267.77C989.914 2290.72 990.073 2262.15 999.548 2246.98C1083.72 2112.21 1209.9 2001.38 1322.84 1891.87C1383.85 1832.72 1506.62 1743.32 1540.22 1661.43C1576.58 1572.79 1396.03 1787.7 1326.78 1853.9C1293.33 1885.87 1258.73 1917.11 1224.46 1948.77M1224.46 1948.77C1217.43 1955.26 1210.42 1961.78 1203.43 1968.31M1224.46 1948.77C1164.42 2020.11 1107.93 2094.85 1040.08 2158.91C977.423 2218.08 1002.12 2197.74 1040.47 2145.17C1087.78 2080.31 1144.65 2023.33 1203.43 1968.31M1224.46 1948.77C1231.87 1939.97 1239.33 1931.21 1246.88 1922.54M1203.43 1968.31C1213.37 1957.67 1229.59 1940.64 1246.88 1922.54M1203.43 1968.31C1200.17 1971.81 1197.59 1974.61 1195.86 1976.54M1246.88 1922.54C1265.98 1900.58 1285.61 1879.12 1306.21 1858.59C1349.54 1815.41 1294.19 1873 1246.88 1922.54ZM1788.13 1301.3C1777.54 1308.84 1766.08 1316.46 1754.4 1324.35M1754.4 1324.35C1718.63 1348.48 1680.72 1375.11 1658.86 1409.66C1636.11 1445.62 1724.52 1355.23 1754.11 1324.64C1754.21 1324.55 1754.3 1324.45 1754.4 1324.35ZM1754.4 1324.35C1842.04 1233.71 1922.73 1137.33 2001.98 1039.33C2018.43 1018.99 2036.43 990.441 2056.58 963.722M2056.58 963.722C2060.59 958.397 2064.69 953.145 2068.88 948.044M2056.58 963.722C2074 950.174 2091.55 936.676 2106.11 925.148M2056.58 963.722C2048.44 970.047 2040.33 976.383 2032.57 982.534M2068.88 948.044C2087.03 925.947 2106.85 906.702 2128.73 896.771C2154.53 885.062 2137.05 900.659 2106.11 925.148M2068.88 948.044C2056.14 958.379 2044.05 970.457 2032.57 982.534M2068.88 948.044C2080.72 938.443 2093.12 930.345 2106.11 925.148M2106.11 925.148C2108.01 924.39 2109.92 923.694 2111.84 923.063M2032.57 982.534C2014.76 996.64 1998.76 1009.77 1988.38 1019.58C1903.46 1099.81 1827.52 1188.82 1750.61 1276.75M2032.57 982.534C2019.97 995.788 2008.11 1009.04 1996.94 1019.99C1921.59 1093.84 1848.96 1169.94 1777.37 1247.41C1772.62 1252.55 1762.88 1263.24 1750.61 1276.75M1750.61 1276.75C1724.8 1306.27 1698.87 1335.67 1672.46 1364.58C1573.55 1472.82 1691.48 1341.91 1750.61 1276.75ZM750.176 249.687C750.176 271.442 580.143 373.671 558.11 394.875C377.386 568.793 267.692 759.467 196.42 999.136C134.642 1206.88 89.201 1445.08 63.6185 1660.1C51.5117 1761.86 56.0008 1870.17 59.2572 1972.51C60.5915 2014.44 93.2812 2052.66 91.0842 2092.62C87.547 2156.96 51.5534 1969.57 40.2659 1906.13C17.2356 1776.71 22.1253 1642.67 24.2282 1511.77C27.7876 1290.19 54.9704 1049.7 154.048 849.331C259.878 635.308 410.986 518.615 584.472 362.723C759.703 205.263 1013.39 97.4057 1249.77 79.5723M15.0664 1825.43C15.0664 1868.48 32.8307 1908.46 48.108 1948.14L48.3632 1948.8C98.1568 2078.11 152.257 2218.61 245.202 2323.98M245.202 2323.98C250.851 2330.39 256.644 2336.66 262.588 2342.79C323.305 2405.46 396.355 2457.29 453.343 2523.41C477.967 2551.97 508.668 2650.38 520.406 2614.54C535.07 2569.76 382.993 2395.63 358.373 2361.14C346.098 2343.94 204.869 2173.23 204.869 2212.45C204.869 2248.27 223.718 2287.67 245.202 2323.98ZM245.202 2323.98C259.692 2348.47 275.38 2371.56 287.293 2391.2C375.43 2536.49 503.192 2666.66 643.408 2762.56C767.958 2847.75 927.965 2955.55 1082.83 2958.1M980.97 3031.14C956.79 3048.17 927.908 3034.49 954.912 3013.11C993.259 2982.75 1107.57 3062.34 1141.79 3075.73C1204.69 3100.35 1267.38 3136.05 1331.75 3165.56M1331.75 3165.56C1354.26 3175.88 1376.98 3185.45 1399.98 3193.52M1331.75 3165.56C1464.8 3130.59 1854.73 3063.39 2179.54 2969.01M1331.75 3165.56C1264.25 3183.31 1262.88 3192.75 1369.68 3193.24C1379.74 3193.29 1389.84 3193.39 1399.98 3193.52M1399.98 3193.52C1436.91 3206.47 1474.57 3215.57 1513.31 3217.75C1606.9 3223.04 1717.32 3226.44 1809.19 3207.94C1937.17 3182.17 2048.43 3103.63 2170.94 3060.87C2250.43 3033.12 2298.72 2970.64 2352.98 2913.19M1399.98 3193.52C1531.88 3195.17 1669.82 3201.38 1794.15 3152.77C1899.99 3111.38 2018.99 3063.1 2118.46 3007.83C2139.52 2996.13 2159.76 2982.99 2179.54 2969.01M2352.98 2913.19C2376.9 2887.86 2401.98 2863.52 2431.4 2843.55C2495.65 2799.97 2571.31 2790.46 2634.4 2743.39C2703.24 2692.04 2605.1 2788.54 2585.72 2802.16C2529.22 2841.87 2447.85 2878.94 2352.98 2913.19ZM2352.98 2913.19C2298.86 2932.72 2240.34 2951.34 2179.54 2969.01M2179.54 2969.01C2243.42 2923.89 2302.51 2870.1 2368.8 2828.32C2436.11 2785.89 2507.99 2741.45 2568.77 2689.93C2664.3 2608.97 2745.56 2505.07 2832.04 2414.73C2909.84 2333.45 2976.29 2235.7 3031.12 2136.54M3031.12 2136.54C3037.42 2125.14 3043.57 2113.73 3049.56 2102.32C3132.67 1944.12 3128.67 1728.35 3128.67 1554.71C3128.67 1461.86 3020.4 1160.51 3111.78 1094.36C3139.92 1073.98 3172.2 1341.69 3173.42 1364.96C3182.42 1537.03 3161.75 1714.15 3143.36 1885.37C3128.99 2019.11 3055.5 2094.18 3002.38 2208.52C2987.38 2240.83 3012.02 2183.46 3031.12 2136.54ZM3031.12 2136.54C3040.22 2114.17 3048.06 2094.18 3049.74 2087.41C3093.28 1911.82 3118.73 1726.31 3118.73 1545.22C3118.73 1427.75 3064.31 1336.96 3048.23 1225.86C3032.36 1116.11 3008.58 1013.59 2968.47 909.773C2939.35 834.377 2896.88 763.606 2896.88 680.842M3065.82 1121.13C3138.34 1181.56 3083.1 1078.33 3001.13 953.196M3001.13 953.196C2980.77 922.107 2958.76 889.666 2936.64 858.045M3001.13 953.196C3021.9 1034.82 2950.45 971.794 2943.84 896.855C2942.64 883.228 2940.17 870.335 2936.64 858.045M3001.13 953.196C3000.13 949.265 2998.92 944.999 2997.47 940.383C2953.49 799.923 2848.93 669.702 2735.4 558.927M2936.64 858.045C2888.65 789.416 2840.18 724.656 2807.08 685.987C2755.89 626.19 2693.23 578.931 2637.76 523.388C2578.62 464.175 2534.06 393.548 2466.42 342.923C2403.75 296.01 2324.73 243.613 2243.29 200.25M2936.64 858.045C2911.99 772.053 2835.81 715.657 2782.66 644.737C2762.47 617.798 2748.73 588.416 2735.4 558.927M2243.29 200.25C2179.42 166.239 2114.05 137.785 2053.9 121.89C1992.52 105.671 1932.75 85.7005 1872.82 67.4694M2243.29 200.25C2360.86 256.169 2470.6 331.742 2568.61 411.573C2622.34 455.335 2679.94 504.81 2735.4 558.927M2243.29 200.25C2143.73 152.894 2038.54 119.634 1930.1 109.82C1835.86 101.293 1734.68 83.7375 1633.08 72.0219M1872.82 67.4694C1780.95 39.5237 1688.69 15.6641 1589.6 15.6641C1469.66 15.6641 1344.29 48.3986 1228.24 91.0617M1872.82 67.4694C1793.83 70.7304 1713.62 71.2831 1633.08 72.0219M1872.82 67.4694C1875.4 67.363 1877.97 67.2537 1880.55 67.1414C2165.83 54.7016 2478.52 239.547 2667.25 442.906C2699.6 477.759 2717.11 518.445 2735.4 558.927M1228.24 91.0617C1196.61 102.693 1165.66 115.062 1135.7 127.707C1127.28 131.265 1003.08 175 1003.08 161.536C1003.08 124.801 1067.92 118.288 1094.17 112.801C1138.39 103.561 1183.14 96.4929 1228.24 91.0617ZM1228.24 91.0617C1234.76 90.2771 1241.28 89.5266 1247.82 88.8087M1247.82 88.8087C1374.73 74.8586 1504.34 73.2026 1633.08 72.0219M1247.82 88.8087C1254.45 86.841 1261.13 84.9415 1267.84 83.1136C1382.09 52.0191 1507.91 57.5888 1633.08 72.0219M1247.82 88.8087C1139.22 121.011 1041.1 171.497 941.706 226.149C805.906 300.818 609.835 348.865 532.551 493.773M643.352 382.722C648.121 377.965 652.862 373.818 657.599 370.146M657.599 370.146C674.509 357.041 691.373 349.987 709.272 342.819M657.599 370.146C675.263 360.372 693.298 350.919 709.272 342.819M657.599 370.146C627.325 386.898 598.144 404.591 582.307 418.031C480.018 504.835 368.112 612.559 285.04 731.045M709.272 342.819C722.25 337.621 735.771 332.362 750.248 324.693C777.778 310.107 750.337 321.993 709.272 342.819ZM285.04 731.045C251.303 779.163 222.323 829.056 200.673 880.043C194.618 894.302 95.9173 1113.49 97.0487 1055.44C98.0841 1002.31 145.427 937.732 168.031 891.347C224.664 775.136 291.652 660.094 377.723 563.095C416.206 519.726 461.621 484.238 509.101 451.416M285.04 731.045C348.575 628.891 423.906 534.145 509.101 451.416M285.04 731.045C202.961 863.013 140.567 1007.34 102.017 1154.11M509.101 451.416C600.146 388.479 698.783 335.346 770.688 255.245C777.391 247.778 641.372 338.227 612.712 360.736C576.763 388.97 542.188 419.287 509.101 451.416Z" stroke="black" stroke-width="40" stroke-linecap="round" stroke-linejoin="round"/>
</svg>
