<svg width="727" height="412" viewBox="0 0 727 412" fill="none" xmlns="http://www.w3.org/2000/svg">
<path d="M131.559 396.734C131.559 386.342 131.009 375.789 130.612 365.33C130.442 360.854 130.098 347.423 130.098 351.902C130.098 357.626 129 363.318 129 369.087C129 377.906 131.032 386.654 131.032 395.508C131.032 398.474 130.768 407.369 130.768 404.403C130.768 397.805 135.298 390.63 139.336 385.74C140.116 384.796 146 380.724 146 379.596" stroke="#1FDE3D" stroke-opacity="0.66" stroke-width="11" stroke-linecap="round" stroke-linejoin="round"/>
<path d="M131 402.534C128.221 405.213 124.224 395.507 123.539 394.443C122.011 392.068 116.951 382.175 113.449 382.001C112.497 381.953 113.325 384.434 113.519 384.725" stroke="#1FDE3D" stroke-opacity="0.66" stroke-width="11" stroke-linecap="round" stroke-linejoin="round"/>
<path d="M106.357 404.334C105.238 404.334 106.83 393.431 106.929 392.314C106.983 391.71 107.64 382.804 107.64 387.228C107.64 392.922 106.428 399.27 107.549 404.875C108.113 407.693 105.82 404.447 104.601 403.484C102.518 401.838 100.98 399.806 99.2497 397.795C99.0582 397.572 96 394.631 96 395.261C96 397.246 99.1723 400.789 100.521 401.83C102.281 403.189 104.516 404.638 106.635 405.306C107.598 405.611 107.526 404.416 108.049 403.753C111.215 399.742 115.9 395.323 120 392.4" stroke="#1FDE3D" stroke-opacity="0.66" stroke-width="11" stroke-linecap="round" stroke-linejoin="round"/>
<path d="M156.756 398.556C155.847 398.556 156.245 382.771 156.245 381.086C156.245 377.641 155.913 383.414 155.989 384.292C156.482 389.933 157.31 395.673 157.31 401.338C157.31 403.737 155.266 400.095 154.242 399.18C153.061 398.124 145.331 392.955 144.006 395.943C143.881 396.226 145.824 396.447 146.037 396.517C148.109 397.2 150.188 398.305 151.941 399.618C153.595 400.856 155.463 402.233 156.803 403.838C157.571 404.757 157.472 401.509 157.985 400.42C159.635 396.925 162.528 393.467 165.338 390.906C166.441 389.9 168.112 389.696 169 388.893" stroke="#1FDE3D" stroke-opacity="0.66" stroke-width="11" stroke-linecap="round" stroke-linejoin="round"/>
<path d="M184.015 399C183.993 398.785 182.693 398.196 182.513 398.06C180.045 396.195 177.82 393.76 176.427 390.979C173.27 384.676 173 378.25 173 371.275C173 367.332 174.52 362.578 178.36 360.677C181.671 359.038 186.175 362.251 188.95 363.645C191.106 364.728 191.288 364.264 189.528 362.934C186.007 360.274 184.565 356.254 183.054 352.273C180.627 345.88 177.743 336.807 181.647 330.318C183.338 327.507 187.961 332.13 189.252 333.064C190.834 334.21 192.494 338.201 192.16 337.527C190.014 333.204 190.684 328.083 191.848 323.658C192.804 320.024 193.549 315.1 196.844 312.777C198.968 311.279 201.746 312.253 203.961 313.145C206.369 314.114 204.417 317.218 204.417 318.865C204.417 319.95 208.726 315.919 209.13 315.688C211.935 314.084 214.83 313.864 217.263 316.183C218.603 317.46 218.494 319.82 218.494 321.534C218.494 323.082 214.861 324.751 215.049 325.408C215.121 325.658 218.22 325.479 218.503 325.479C220.491 325.479 221.771 326.713 223.671 327.04C226.579 327.541 230.616 329.413 232.256 332.077C233.53 334.147 234.932 335.773 234.719 338.372C234.603 339.782 230.857 339.503 232.184 339.871C237.874 341.449 242.118 347.329 242.118 353.148C242.118 354.748 240.636 357.717 238.449 356.591C236.686 355.683 241.774 358.79 243.223 360.149C245.552 362.334 250.94 374.435 248.636 377.326C247.814 378.358 245.831 378.787 245.993 378.867C248.521 380.114 251.882 382.766 252.718 385.557C253.543 388.315 254 391.689 254 394.568C254 397.807 251.507 398.038 248.359 398.038" stroke="#1FDE3D" stroke-opacity="0.66" stroke-width="11" stroke-linecap="round" stroke-linejoin="round"/>
<path d="M189.184 375.65C187.831 375.65 194.343 371.259 195.886 371.048C200.445 370.427 202.207 376 207 376" stroke="#1FDE3D" stroke-opacity="0.66" stroke-width="11" stroke-linecap="round" stroke-linejoin="round"/>
<path d="M216.569 376C216.569 374.498 215.178 374.16 216.746 372.701C218.946 370.653 220.105 369.534 223.404 369.557C228.241 369.591 232.845 371.036 237 368" stroke="#1FDE3D" stroke-opacity="0.66" stroke-width="11" stroke-linecap="round" stroke-linejoin="round"/>
<path d="M211.636 358.869C211.636 360.786 212.567 360.057 211.45 358.242C209.532 355.123 207.434 352.957 203.376 352.957C201.258 352.957 198.628 353.792 196.586 353.18C193.852 352.36 188.734 350.118 189.011 347" stroke="#1FDE3D" stroke-opacity="0.66" stroke-width="11" stroke-linecap="round" stroke-linejoin="round"/>
<path d="M210.088 347C209.514 347 211.912 346.084 212.511 345.629C215.085 343.668 216.985 340.863 217.457 337.499C217.767 335.283 224.047 333.645 226 333" stroke="#1FDE3D" stroke-opacity="0.66" stroke-width="11" stroke-linecap="round" stroke-linejoin="round"/>
<path d="M186.787 235.537C186.851 234.995 186.924 234.616 187.227 234.156C193.367 224.849 197.397 213.731 202.896 204.003C214.138 184.115 227.205 165.133 239.472 145.868C251.424 127.099 263.435 108.37 276.564 90.3973C286.361 76.9862 297.079 63.7284 304.81 48.97C308.687 41.5678 313.866 34.3133 316.782 26.4549C318.812 20.9851 312.989 32.3498 312.547 33.169C303.611 49.7172 292.11 64.655 282.52 80.8013C269.251 103.144 254.101 124.319 240.788 146.664C233.514 158.873 225.083 170.141 217.345 182.013C211.357 191.201 204.248 199.489 198.325 208.692C193.256 216.571 174.193 237.341 180.533 230.445C191.236 218.806 197.03 202.215 205.215 188.86C214.45 173.791 225.397 159.943 235.162 145.241C244.073 131.823 252.468 118 260.952 104.307C274.039 83.1861 288.935 63.2576 303.645 43.2517C309.572 35.1921 315.497 26.4387 322.677 19.4086C323.682 18.4248 326.959 15.8865 328.175 15.8867" stroke="black" stroke-opacity="0.21" stroke-width="16" stroke-linecap="round" stroke-linejoin="round"/>
<path d="M324.301 12.6715C323.998 11.5792 322.471 9.83072 323.885 12.126C328.273 19.2525 332.718 26.383 337.253 33.4162C346.618 47.9401 353.649 63.7952 362.77 78.4169C371.992 93.2002 381.111 108.085 390.444 122.796C405.751 146.921 416.376 174.939 434.404 197.239C437.304 200.826 445.642 211.823 443.252 207.879C436.84 197.295 429.061 187.379 421.93 177.278" stroke="black" stroke-opacity="0.21" stroke-width="16" stroke-linecap="round" stroke-linejoin="round"/>
<path d="M370.218 98.69C366.45 92.8944 362.799 86.994 359.465 80.9351C357.406 77.1932 364.196 88.0562 366.344 91.7481C380.505 116.087 395.083 140.535 411.459 163.459C422.032 178.26 432.579 193.255 442.642 208.403C445.632 212.905 449.022 217.14 452.215 221.499C453.154 222.781 454.906 226.289 456.691 226.623" stroke="black" stroke-opacity="0.21" stroke-width="16" stroke-linecap="round" stroke-linejoin="round"/>
<path d="M179.905 241.595C179.379 241.763 176.187 241.869 176.008 242.353C175.771 242.995 181.052 242.859 181.476 242.826C188.528 242.281 195.772 238.961 202.427 236.826C214.212 233.044 225.961 229.417 238.016 226.588C262.917 220.745 287.363 213.376 311.88 206.122C315.215 205.135 322.23 204.295 324.87 201.73C327.571 199.108 317.327 202.192 313.659 203.027C294.404 207.409 276.241 216.73 256.903 220.228C256.414 220.316 247.735 221.509 250.214 219.866C255.604 216.293 262.991 214.774 269.038 212.756C289.086 206.068 309.608 201.572 329.824 195.565C332.163 194.87 336.941 194.1 338.644 192.106C339.528 191.071 333.037 192.015 332.63 192.145" stroke="black" stroke-opacity="0.21" stroke-width="16" stroke-linecap="round" stroke-linejoin="round"/>
<path d="M333.031 191.968C333.031 189.349 335.39 191.831 337.725 192.773C354.4 199.504 371.717 204.969 388.69 210.923C406.689 217.236 424.664 223.556 442.695 229.769C447.514 231.429 452.241 233.136 456.83 235.345C459.984 236.863 460.123 236.713 457.106 234.909C445.01 227.677 431.286 222.692 418.152 217.74C409.027 214.299 399.915 210.768 390.952 206.925C388.538 205.89 386.041 203.979 383.462 203.381C379.71 202.511 390.587 206.284 394.15 207.733C403.479 211.528 412.749 215.458 422.069 219.277C431.941 223.322 441.925 227.017 452 230.535C455.852 231.881 460.744 233.166 464.013 235.709" stroke="black" stroke-opacity="0.21" stroke-width="16" stroke-linecap="round" stroke-linejoin="round"/>
<path d="M217.084 208.655C211.089 213.251 220.242 194.424 220.803 193.081C223.618 186.343 226.514 174.665 232.776 170.191C236.831 167.293 235.821 174.641 235.594 176.701C234.639 185.369 231.51 193.836 229.085 202.162C227.833 206.462 226.614 210.771 225.354 215.068C225.29 215.288 224.161 219.366 224.489 219.261C229.077 217.781 233.532 207.384 235.396 203.71C242.918 188.881 249.069 173.215 255.764 157.998C259.307 149.948 262.55 138.883 268.386 132.057C268.517 131.903 266.113 143.284 265.33 145.377C261.274 156.211 256.462 166.822 251.477 177.253C250.944 178.368 242.679 195.533 244.162 195.835C256.735 198.389 265.813 166.639 268.26 159.164C273.029 144.598 276.195 129.643 278.565 114.51C279.389 109.252 280.122 103.986 281.188 98.7707C281.463 97.4245 281.647 93.4477 282.089 94.7485C282.977 97.3602 278.225 105.066 277.244 107.322C272.984 117.115 268.466 126.787 264.176 136.564C263.536 138.023 254.86 154.97 256.217 156.175C256.588 156.504 266.37 138.598 266.811 137.682C274.246 122.251 281.895 106.937 289.5 91.5904C294.951 80.589 299.939 69.0587 305.933 58.3537C306.945 56.5461 310.453 51.0625 307.651 56.1936C304.217 62.481 301.07 68.833 298.46 75.5105C298.062 76.5272 293.76 86.5967 296.29 86.2518C300.269 85.7094 303.388 79.8374 305.143 76.8368C309.681 69.0771 312.693 60.376 316.6 52.2855C318.339 48.6837 319.948 44.9911 321.833 41.4627C321.87 41.3946 323.33 39.1847 323.398 39.5042C324.141 43.011 321.903 47.9111 321.032 51.2036C319.28 57.8319 316.54 64.1699 315.101 70.883C314.876 71.9354 313.133 79.815 316.273 76.1672C320.475 71.2839 322.355 63.6941 324.852 57.8622C326.674 53.6058 328.102 47.2776 331.161 43.7035C333.875 40.5335 330.959 52.0931 330.121 56.182C328.413 64.514 326.551 72.9113 325.976 81.4182C325.857 83.1783 325.886 88.9389 328.92 85.3693C332.466 81.1962 333.704 74.8457 335.315 69.7754C335.529 69.0993 339.515 58.8415 339.973 59.6129C341.897 62.8509 340.412 70.8584 340.148 74.3659C339.61 81.5316 338.923 88.6663 339.004 95.8626C339.025 97.7613 339.177 105.045 342.587 104.745C346.11 104.434 347.587 96.1802 348.126 93.7197C349.238 88.649 349.6 83.4 350.789 78.3588C351.69 74.5397 351.464 86.1778 351.801 90.0874C353.046 104.556 354.663 120.737 361.092 133.934C365.585 143.155 369.49 124.972 370.346 121.398C370.533 120.613 372.705 112.828 373.253 114.452C375.906 122.307 375.276 132.113 376.765 140.282C379.405 154.764 384.585 168.208 390.504 181.6C392.437 185.974 396.38 197.463 402.692 197.877C408.458 198.255 408.375 188.494 407.714 184.571C405.892 173.748 398.793 164.862 393.022 155.909C391.872 154.126 376.932 132.285 374.861 133.686C369.814 137.1 390.95 166.399 392.711 169.126C399.138 179.074 405.061 189.31 411.674 199.139C411.954 199.555 418.85 208.928 419.278 207.246C420.117 203.955 415.784 198.844 414.097 196.439C409.309 189.615 403.319 183.219 397.445 177.331C390.049 169.919 381.443 163.872 373.163 157.499C371.392 156.136 365.139 151.668 364.711 156.243C363.709 166.957 375.524 176.238 382.603 182.592C383.073 183.014 387.592 186.199 386.05 185.308C382.989 183.539 380.38 181.374 377.817 178.935C373.299 174.637 366.702 167.619 363.359 176.192C362.98 177.165 359.326 185.888 359.853 186.097C361.975 186.937 364.212 186.739 360.782 185.704C352.956 183.344 343.096 183.192 335.114 184.379C320.326 186.579 303.362 188.209 289.662 194.248C283.548 196.943 277.714 200.214 271.039 201.312C265.884 202.159 261.513 200.882 256.549 199.952C253.68 199.415 251.271 199.877 249.989 202.712C249.369 204.081 248.904 206.45 251.198 205.176C260.529 199.992 269.125 187.103 273.378 177.781C274.737 174.803 282.128 160.971 272.713 164.528C263.809 167.891 255.476 176.909 250.528 184.776C248.411 188.144 248.794 188.007 250.538 184.52C253.883 177.835 256.815 170.886 259.881 164.069C261.608 160.227 263.987 151.025 268.289 149.228C271.262 147.986 270.444 158.196 270.444 159.301C270.443 166.052 269.716 172.645 268.864 179.336C268.25 184.163 266.336 192.777 268.81 197.357C271.477 202.296 280.692 177.087 281.515 175.344C287.386 162.911 287.767 181.075 287.775 185.883C287.783 190.476 285.811 196.359 292.203 192.933C297.103 190.308 300.74 185.053 306.886 185.88C309.895 186.285 312.587 187.968 315.664 188.361C319.274 188.821 322.933 188.904 326.568 188.97C330.702 189.044 335.216 189.513 339.262 188.532C343.959 187.393 348.511 185.102 353.37 184.731C363.396 183.967 368.276 189.545 373.951 196.906C379.549 204.167 386.035 206.978 394.715 209.089C397.72 209.82 422.536 214.979 422.595 209.151C422.613 207.28 421.632 206.395 420.509 204.957C416.394 199.683 412.072 194.573 408.008 189.257C392.071 168.412 376.831 146.353 363.69 123.693C357.944 113.785 353.283 102.999 350.237 91.9508C349.54 89.4212 348.719 85.5489 345.562 85.0791C344.244 84.8828 348.203 85.8126 349.238 86.6529C355.853 92.0217 360.987 102.08 365.469 109.166C373.986 122.633 381.3 136.972 390.845 149.754C398.051 159.403 405.28 169.22 412.19 179.076C413.738 181.283 431.317 210.66 433.913 209.13" stroke="black" stroke-opacity="0.21" stroke-width="16" stroke-linecap="round" stroke-linejoin="round"/>
<path d="M204.895 123.452C203.176 116.196 203.59 122.086 204.259 126.673C206.477 141.858 209.571 187.542 210.804 172.245C211.908 158.557 209.038 143.961 207.599 130.368C207.264 127.209 205.608 128.733 205.608 125.172C205.609 119.829 209.95 115.106 214.479 112.668C217.823 110.867 221.936 114.023 225.019 112.139C227.915 110.37 227.117 110.405 227.494 115.165C228.413 126.758 229.509 138.328 230.311 149.933C230.501 152.673 231.336 161.259 231.337 153.591" stroke="black" stroke-opacity="0.21" stroke-width="16" stroke-linecap="round" stroke-linejoin="round"/>
<path d="M227.767 114.317C225.246 126.543 226.783 138.681 228.896 150.928" stroke="black" stroke-opacity="0.21" stroke-width="16" stroke-linecap="round" stroke-linejoin="round"/>
<path d="M272.959 397.389C272.959 397.504 272.962 397.606 272.967 397.692M272.967 397.692C272.986 398.063 273.031 398.141 272.967 397.692ZM272.967 397.692C272.956 397.613 272.941 397.519 272.923 397.408C272.011 391.873 268.621 386.257 266.487 381.169C261.442 369.138 256.268 357.136 251.409 345.019M251.409 345.019C249.133 339.343 246.926 333.641 244.834 327.899C239.604 313.545 236.348 299.022 232.73 284.244C230.444 274.904 227.506 265.828 225.578 256.378C224.413 250.668 224.168 244.825 223.106 239.096C222.649 236.631 223.769 237.465 224.59 235.317C225.303 233.45 225.6 231.513 225.696 229.546M251.409 345.019C247.728 331.937 243.341 319.058 240.345 305.779C236.469 288.599 233.95 271.084 230.331 253.835C228.643 245.789 226.865 237.698 225.696 229.546M251.409 345.019C252.091 347.444 252.749 349.875 253.37 352.317C256.079 362.977 256.885 373.928 260.396 384.412M225.696 229.546C225.724 228.981 225.736 228.414 225.736 227.846C225.736 225.202 225.68 222.607 225.081 220.017C225.001 219.671 225.068 224.636 225.19 225.672C225.342 226.965 225.511 228.256 225.696 229.546ZM394 392C394 390.002 394.634 387.912 394.912 385.943C396.957 371.462 399.802 357.273 402.979 343.005C409.254 314.818 412.65 286.422 423.284 259.37C426.326 251.633 427.402 243.441 429.848 235.542C431.33 230.757 433.172 226.098 434.569 221.279C436.431 214.861 431.749 234.346 430.173 240.841C423.677 267.612 419.714 294.691 416.462 322.027M174.013 246.996C170.568 247.189 176.95 239.775 177.766 238.479C188.476 221.465 197.658 203.443 207.62 185.994C218.745 166.506 228.988 146.49 239.985 126.931C250.429 108.358 261.913 90.7952 273.804 73.1508C283.27 59.106 293.333 45.4966 302.104 30.9925C307.21 22.5479 312.544 14.5251 319.478 7.43974C319.795 7.11619 325.332 2.02775 323.7 4.84858C320.767 9.91615 316 14.2234 312.404 18.8081C298.093 37.0595 287.216 58.1991 276.328 78.5818M318 1C318.712 8.7455 325.443 14.7977 329.047 21.4381C337.853 37.6634 346.432 53.8962 355.694 69.871C368.426 91.8334 379.048 114.9 393.896 135.648C399.312 143.215 405.585 150.008 410.525 157.944C414.678 164.615 418.882 171.183 423.408 177.613C435.211 194.381 448.421 210.048 460 227M178.448 243.924C177.709 244.331 173.545 246.569 174.041 245.863C175.037 244.444 176.601 243.504 178.184 242.838C186.247 239.448 195.003 237.199 203.284 234.39C219.48 228.896 235.072 221.953 250.988 215.762C264.763 210.404 278.411 204.479 292.649 200.416C300.721 198.113 308.693 195.901 316.617 193.128C320.455 191.784 323.894 189.735 317.226 192.044M335.266 192.581C335.194 192.58 335.099 192.58 334.983 192.58M334.983 192.58C332.945 192.579 324.52 192.597 324.52 190.224C324.52 189.612 323.853 188.977 323.033 188.433M334.983 192.58C330.412 191.064 325.893 189.522 323.033 188.433M334.983 192.58C342.52 195.081 350.198 197.513 350.805 197.728C371.248 204.951 391.616 211.62 412.497 217.448C427.197 221.551 442.439 224.502 457 229M323.033 188.433C321.721 187.565 320.015 186.931 320.001 187.006C319.966 187.188 321.134 187.711 323.033 188.433ZM259.315 227C257.285 227.374 265.673 263.778 267 268M260 230.859C260.848 228.409 261.777 227.573 264.593 226.856C274.424 224.352 285.539 226.125 294.274 220.125C296.911 218.313 296.403 216.124 297.083 220.812L297.217 221.739C298.49 230.512 299.762 239.287 300.985 248.067C301.642 252.786 303.336 266.759 304 262.041M266.168 271C255.331 269.125 288.095 269.39 299 268M361.03 219.864C361.03 216.996 360.877 215.183 361.26 219.902C362.349 233.34 359.932 247.811 362 261M363.889 215.038C358.629 215.038 365.777 214.794 368.134 215.542C376.526 218.206 385.42 220.769 393.197 225.024C396.774 226.982 399.574 230.699 403.08 232.594M403.08 232.594C403.276 232.7 403.475 232.801 403.676 232.895C404.418 233.242 403.669 229.801 403.561 229.306L403.558 229.294C403.044 226.932 403.157 231.812 403.1 232.394C403.093 232.461 403.086 232.527 403.08 232.594ZM403.08 232.594C402.386 239.351 400.281 245.954 399.081 252.627C398.856 253.877 397.916 265.856 396.796 266M358.048 257.702C351.041 256.53 364.145 257.109 365.608 257.425C377.978 260.101 388.466 266.299 400 271M322 333.669V332.306C322 339.114 323.098 345.82 323.89 352.56C325.486 366.133 329 406.913 329 393.232M323 334.06C323 330.273 326.898 333.439 330.542 333.982C335.23 334.679 340.888 335.553 345.583 334.538C349.012 333.796 351.042 331.478 354 330M354.216 327C349.701 344.566 358.996 364.441 362 382M361.2 372.001C359.955 371.871 364.877 394.234 366 397M15.7493 411C15.1176 411 13.9662 409.961 13.298 409.741C13.0941 409.674 12.8907 409.612 12.6878 409.554M12.6878 409.554C10.5481 408.946 8.45271 408.849 6.1855 408.849C4.53049 408.849 -0.0706253 408.123 1.22791 409.11C3.07896 410.519 8.26427 410.105 12.6878 409.554ZM12.6878 409.554C15.3234 409.226 17.6887 408.849 18.9169 408.779C48.8398 407.085 78.8774 408.151 108.83 407.167C126.943 406.571 144.981 407.093 163.091 407.295C181.217 407.498 199.326 406.639 217.45 406.639C294.889 406.639 372.06 402.857 449.465 401.18C470.759 400.719 491.958 401.348 513.215 399.622C537.395 397.658 561.682 395.72 585.949 395.195C610.82 394.657 635.714 395.403 660.587 395.403C682.44 395.403 704.187 395.25 726 396.664M403.647 332.112C395.335 336.231 420.759 324.903 429.16 320.964C451.757 310.371 473.882 298.452 497 289M491.053 284.262C491.053 281.916 490.76 278.81 491.557 283.251C494.199 297.98 494.852 313.259 496.178 328.138C497.892 347.378 499.713 366.526 502.543 385.642C503.255 390.45 504.781 404.871 505 400.015M414.181 364.447C414.594 362.104 414.216 359.637 414.479 357.266C414.559 356.545 414.884 350.832 414.872 353.897C414.827 365.618 414.714 377.369 414.417 389.083C414.375 390.771 413.196 411.711 415 400.929M416.003 354C416.003 352.847 415.867 352.663 417.331 352.421C423.518 351.401 429.414 349.44 435.169 347.054C444.591 343.148 453.471 337.789 463.622 335.701C465.775 335.258 468.908 334.476 471 335.515M465.07 329.338C464.409 326.979 468.646 337.689 469.056 339.066C473.486 353.953 475.692 369.431 478.28 384.7C478.894 388.318 479.41 400.566 483 403M428.972 367.899C426.222 368.165 422.411 368.008 427.503 366.191C431.604 364.728 462 356.901 462 359.539M435.45 373.851C430.645 374.574 439.239 372.444 440.209 372.269C446.398 371.153 452.686 370 459 370M433 383C443.45 383 453.669 380 464 380M211.368 130.273C211.359 129.212 211.151 127.37 210.738 125.658M210.738 125.658C210.389 124.208 209.892 122.851 209.244 122.139C209.046 121.922 209 124.678 209 124.889C209 131.821 209.524 138.61 210.237 145.504C210.937 152.281 211.765 159.057 212.617 165.816C213.121 169.813 212.784 162.476 212.751 161.656C212.261 149.615 211.058 137.694 210.738 125.658ZM210.738 125.658C210.688 123.752 210.659 121.844 210.659 119.931C210.659 118.877 211.039 124.227 211.392 125.615C212.415 129.633 216.507 123.881 217.556 122.695C219.821 120.133 222.336 117.751 224.295 114.929C225.057 113.83 226.315 109.976 225.928 111.258C223.673 118.735 225.125 128.497 225.833 136.075M126.195 363.928C126.195 354.35 127.291 383.083 128.769 392.549C128.926 393.558 129.963 394.353 129.963 395.374C129.963 399.238 129.885 397.002 131.651 393.615C133.857 389.382 136.544 385.202 139.701 381.595C141.508 379.531 141.03 382.314 140.617 383.624C139.165 388.238 135.68 391.699 132.918 395.558C132.125 396.666 130.463 400.625 129.657 398.259C129.072 396.54 127.132 394.865 126.183 393.318C124.168 390.036 121.091 381.749 117 380.717M154.178 383.261C153.845 377.514 153.289 392.85 153.914 400.292M153.914 400.292C153.947 400.69 153.984 401.065 154.025 401.414M153.914 400.292C152.083 398.242 149.933 395.17 149.457 394.484C149.297 394.254 148.784 393.585 148.201 392.785M153.914 400.292C154.136 400.54 154.353 400.773 154.562 400.986M154.025 401.414C154.056 401.68 154.089 401.93 154.124 402.163C154.335 403.56 154.455 403.031 154.523 401.873M154.025 401.414C154.196 401.59 154.363 401.745 154.523 401.873M154.025 401.414C153.048 400.413 151.939 398.764 151.402 397.947C150.29 396.256 149.217 394.535 148.201 392.785M154.523 401.873C154.538 401.605 154.551 401.304 154.562 400.986M154.523 401.873C155.04 402.287 155.474 402.408 155.697 401.963M154.562 400.986C154.612 399.49 154.612 397.607 154.612 396.984V396.935C154.612 394.739 155.76 399.596 155.817 400.209C155.9 401.107 155.846 401.663 155.697 401.963M154.562 400.986C154.983 401.414 155.371 401.756 155.697 401.963M155.697 401.963C156.259 402.321 156.635 402.275 156.674 401.568C156.842 398.537 161.291 386.806 166 388.552M148.201 392.785C148.048 392.521 147.896 392.257 147.745 391.991C147.167 390.974 146.438 387.843 146.018 388.934C145.832 389.417 147.134 391.322 148.201 392.785ZM101.159 386.755C101.159 381.688 100.575 389.034 100.929 390.744C101.322 392.644 101.818 396.098 102.271 399.239M102.271 399.239C102.414 400.233 102.553 401.195 102.683 402.066M102.271 399.239C100.523 398.933 99.1247 398.557 97.937 397.905M102.271 399.239C102.356 399.254 102.442 399.269 102.529 399.284C103.351 399.422 106.933 399.435 107.97 400.169M102.683 402.066C103.166 405.307 103.525 407.301 103.525 405.018C103.525 403.639 103.793 402.775 102.683 402.066ZM102.683 402.066C102.542 401.977 102.38 401.89 102.193 401.804C100.504 401.037 99.1474 399.45 97.937 397.905M97.937 397.905C97.5019 397.349 97.0857 396.799 96.6797 396.294C96.3637 395.901 93.0077 391.583 94.2912 393.943C95.3638 395.915 96.4956 397.113 97.937 397.905ZM107.97 400.169C108.318 400.414 108.379 400.741 107.955 401.18C107.688 401.457 107.734 401.017 107.97 400.169ZM107.97 400.169C108.703 397.54 111.264 390.993 112 389.704M184.66 400C183.707 394.851 177.919 391.541 175.525 387.242C172.281 381.419 164.932 349.309 180.973 355.607C186.125 357.63 196.285 371.212 193.822 366.206C190.288 359.022 185.419 352.085 183.267 343.796C181.537 337.131 180.068 326.497 188.814 326.497C191.903 326.497 193.587 327.546 194.563 329.531M194.563 329.531C195.207 330.839 195.543 332.553 195.771 334.642C195.956 336.333 195.947 338.617 195.399 335.432C195.08 333.571 194.774 331.571 194.563 329.531ZM194.563 329.531C194.189 325.908 194.111 322.162 194.778 318.856C195.454 315.506 198.398 307.712 202.879 308.008C205.496 308.181 207.762 314.128 208.513 316.235C209.538 319.114 209.531 322.07 209.524 325.077M209.524 325.077C209.523 325.323 209.523 325.569 209.523 325.816C209.523 327.666 209.481 326.285 209.524 325.077ZM209.524 325.077C209.542 324.571 209.574 324.095 209.63 323.899C210.144 322.106 211.891 318.641 214.086 318.563C217.751 318.432 218.053 325.389 218.105 327.959C218.129 329.162 218.732 335.148 217.401 336.916M217.401 336.916C217.225 337.149 217.016 337.309 216.767 337.374C216.744 337.38 217.003 337.173 217.401 336.916ZM217.401 336.916C218.03 336.509 219.006 335.977 219.761 335.972C227.145 335.921 229.256 347.141 228.42 352.892C228.293 353.77 228.103 354.384 227.906 354.8M227.906 354.8C227.211 356.269 226.42 355.282 227.906 354.8ZM227.906 354.8C228.423 354.632 229.214 354.525 230.381 354.604C237.201 355.064 238.35 372.166 239.049 377.181C239.211 378.339 240.311 376.364 240.462 376.093L240.463 376.091C241.965 373.395 244.183 374.521 245.26 376.856C247.624 381.982 248 388.145 248 393.714C248 394.529 247.608 402.396 246.428 398.297M212.706 382C207.484 382 215.831 374.413 216.736 373.669C219.021 371.788 221.744 369.297 223.547 372.651C224.959 375.278 227.195 376.253 230 374.816M206.275 362C205.013 357.292 208.348 354.123 211.177 350.306C214.405 345.95 216.854 349.103 221 349.103M203 348C197.54 348 196.688 345.509 194 341M321.08 88.4166C321.08 82.9121 312.799 88.693 311.183 89.8893C297.999 99.6506 297.999 119.719 298 134.39V134.675C298 145.057 302.407 156.072 312.004 161.242C321.127 166.156 330.544 159.958 336.144 152.636C345.32 140.638 347.609 122.862 344.982 108.349C343.379 99.4881 340.065 94.4353 333.055 88.8693C328.746 85.4481 321.894 81.2532 316.181 81M323 81C321.809 82.3575 321.196 82.4035 321.096 84.6634C320.711 93.4519 322.023 102.24 322.154 111.031C322.304 121.158 322.061 131.111 320.667 141.181C319.782 147.57 317.96 154.622 319.778 161M303.168 128C303.073 127.735 301.65 127.145 302.081 126.904C305.162 125.184 310.058 125.073 313.447 123.969C319.56 121.976 325.657 119.237 332.076 118.422C336.104 117.911 340.013 117.884 344 117" stroke="black" stroke-width="2" stroke-linecap="round" stroke-linejoin="round"/>
</svg>
