<svg width="242" height="256" viewBox="0 0 242 256" fill="none" xmlns="http://www.w3.org/2000/svg">
<path d="M3.04297 75.943C3.04297 78.0032 4.5557 69.5965 4.72777 68.8845C5.00547 67.7355 5.30692 66.5862 5.63178 65.4384M5.63178 65.4384C8.08691 56.7638 11.8791 48.1693 16.8589 40.3312M5.63178 65.4384C6.15055 55.9233 10.6087 47.475 16.8589 40.3312M5.63178 65.4384C5.59272 66.1549 5.57599 66.8774 5.58251 67.6058C5.58686 68.091 5.6098 68.5896 5.64159 69.0971M16.8589 40.3312C22.1239 32.0445 28.7164 24.6032 36.46 18.8065M16.8589 40.3312C19.8713 36.8883 23.2999 33.7484 26.9044 30.9382M36.46 18.8065C38.9842 16.9169 41.6307 15.2021 44.3935 13.6897M36.46 18.8065C34.9736 20.3746 33.5373 22.167 32.0899 24.0076C30.3174 26.2619 28.587 28.5757 26.9044 30.9382M36.46 18.8065C38.8833 16.25 41.4396 14.2899 44.3935 13.6897M44.3935 13.6897C45.0072 13.3538 45.6266 13.0278 46.2516 12.7122C47.546 12.0585 64.5755 5.37739 59 11.2274C56.4021 13.9532 52.7313 15.2929 49.4316 16.9531C43.4424 19.9665 37.5917 23.492 32.0328 27.2275C30.3013 28.3911 28.5837 29.6288 26.9044 30.9382M44.3935 13.6897C46.564 13.2487 48.9493 13.5418 51.6542 14.8721M26.9044 30.9382C20.8759 39.4023 15.4596 48.4916 10.9065 57.7079C9.19561 61.1711 7.0077 65.1139 5.64159 69.0971M5.64159 69.0971C5.81308 71.8341 6.24231 74.8293 5.40325 77.3644C4.30084 80.6952 4.32863 75.457 4.40562 74.5634C4.56091 72.7612 5.01473 70.9249 5.64159 69.0971ZM54.7991 8.37414C52.5847 8.37414 59.826 12.622 60.1925 12.8859C69.2713 19.4219 76.7639 26.6542 82.9843 35.0985M82.9843 35.0985C86.5247 39.9047 89.6531 45.1035 92.4272 50.7901C95.6242 57.3433 98.9049 64.8343 100.207 72.0502C100.356 72.8777 101.482 78.6537 100.404 79.2372C99.4834 79.7361 97.9466 66.9541 97.7168 65.6338C96.792 60.3222 94.4939 55.5145 91.8232 50.8631C88.826 45.6431 85.9462 40.3455 82.9843 35.0985ZM82.9843 35.0985C81.044 31.6612 79.0684 28.2456 77.0016 24.8877C73.0589 18.4821 68.1233 12.1324 64.752 5.44262C63.524 3.00579 62.078 0.18607 64.9495 3.53699C77.0374 17.6432 86.2217 33.2489 94.7875 49.6473C95.3782 50.778 103.469 71.7067 101.095 71.9878M103.502 79.2839C101.652 79.2839 101.526 81.2967 99.509 81.4156C98.7396 81.4609 97.9752 81.569 97.2173 81.7333M97.2173 81.7333C96.6364 81.8591 96.0594 82.0179 95.4868 82.2067M97.2173 81.7333C98.6296 80.0358 100.251 78.0093 98.1133 79.9376C97.2533 80.7134 96.3744 81.4655 95.4868 82.2067M97.2173 81.7333C96.5882 82.4892 96.0006 83.1799 95.8049 83.4269C91.5227 88.8311 85.9225 92.6983 80.6092 96.9245M95.4868 82.2067C87.4641 84.852 80.3182 93.3815 75.8588 99.5697C75.7381 99.7372 75.2243 100.464 74.8671 101.11M95.4868 82.2067C92.1695 84.9773 88.7327 87.5959 85.724 90.7284C83.9911 92.5327 82.3589 94.8032 80.6092 96.9245M74.8671 101.11C74.5837 101.623 74.3989 102.085 74.5869 102.177M74.8671 101.11C74.8093 100.828 74.7299 100.693 74.6163 100.868C74.1263 101.624 72.8571 103.974 73.4745 103.318C73.8392 102.93 74.2103 102.55 74.5869 102.177M74.8671 101.11C74.9051 101.296 74.9337 101.547 74.9565 101.814M74.5869 102.177C74.6584 102.212 74.784 102.193 74.9787 102.103M74.5869 102.177C74.7095 102.055 74.8327 101.934 74.9565 101.814M74.9787 102.103C75.0757 102.058 75.1898 101.996 75.3229 101.914C77.2968 100.694 79.0026 98.8722 80.6092 96.9245M74.9787 102.103C74.9719 102.006 74.9646 101.909 74.9565 101.814M74.9787 102.103C75.0174 102.66 75.0373 103.222 75.0683 103.4C76.9587 114.21 87.5925 124.141 93.8155 132.582C100.749 141.987 108.876 149.916 117.976 157.207M80.6092 96.9245C78.6599 98.4749 76.7493 100.074 74.9565 101.814M153.798 176.839C153.798 176.819 153.811 176.788 153.827 176.758M153.827 176.758C153.861 176.697 153.908 176.638 153.887 176.674C153.869 176.704 153.85 176.732 153.827 176.758ZM153.827 176.758C152.28 178.571 138.955 170.868 138.071 170.385C132.861 167.538 127.725 164.263 122.761 160.648M122.761 160.648C111.069 152.131 100.333 141.718 91.8334 130.521C90.8971 129.287 89.523 125.057 89.3484 126.595C89.0403 129.31 94.5373 134.985 95.972 137.049C101.943 145.64 108.764 152.162 117.743 157.684C119.351 158.673 121.029 159.67 122.761 160.648ZM122.761 160.648C131.349 165.494 141.29 169.861 150.84 170.386M156.943 175.568C156.219 175.929 154.037 177.114 155.288 175.504C156.741 173.634 158.333 171.905 160.004 170.256M160.004 170.256C162.599 167.695 165.386 165.327 168.142 162.92C169.322 161.891 170.533 160.825 171.732 159.717M160.004 170.256C164.351 167.449 168.242 163.696 171.732 159.717M160.004 170.256C158.798 171.035 157.556 171.741 156.278 172.358C153.486 173.708 160.521 167.823 162.826 165.749C168.514 160.632 173.786 155.138 179.179 149.719M171.732 159.717C175.455 156.279 179.066 152.437 181.29 148.014C181.752 147.096 178.217 151.646 177.669 152.368C175.83 154.793 173.855 157.297 171.732 159.717ZM178.336 146.098C178.336 145.519 177.865 145.081 177.962 144.469C178.219 142.848 188.336 146.321 188.848 146.516C189.968 146.942 191.079 147.395 192.182 147.872M192.182 147.872C200.476 151.461 208.273 156.451 215.247 162.372M192.182 147.872C194.77 150.221 197.384 152.547 199.956 154.869C209.015 163.047 218.786 171.219 225.841 181.313M192.182 147.872C189.88 145.782 187.598 143.675 185.384 141.535C184.325 140.513 181.049 137.897 181.59 135.968C182.409 133.054 190.151 136.937 191.206 137.534C199.01 141.954 205.305 148.784 210.635 155.886C212.227 158.008 213.768 160.17 215.247 162.372M215.247 162.372C220.472 166.808 225.235 171.766 229.4 177.05C233.26 181.947 236.396 187.5 238.07 193.522C238.573 195.331 240.511 201.639 238.398 203.012C234.461 205.57 232.758 194.263 231.903 192.214C230.276 188.314 228.212 184.705 225.841 181.313M215.247 162.372C219.281 168.373 222.864 174.673 225.826 181.279C225.831 181.29 225.836 181.301 225.841 181.313M225.841 181.313C226.966 183.807 230.868 191.109 229.192 193.885M233.425 193.692C233.425 196.632 233.078 199.463 232.444 202.195M232.444 202.195C232.293 202.844 232.126 203.487 231.944 204.125M232.444 202.195C231.788 203.313 231.113 204.418 230.415 205.512M232.444 202.195C234.014 199.518 235.473 196.771 236.857 193.957C237.849 191.939 239.275 185.591 239.633 187.81C240.568 193.596 238.143 197.925 233.896 202.229C233.26 202.873 232.609 203.505 231.944 204.125M231.944 204.125C228.282 216.945 218.41 227.545 208.933 237.006C205.353 240.58 200.859 243.431 195.678 243.672C193.777 243.761 191.759 243.628 189.728 243.515M231.944 204.125C231.442 204.594 230.932 205.056 230.415 205.512M189.728 243.515C186.832 243.354 183.911 243.233 181.269 243.849C172.9 245.801 182.141 245.704 185.452 244.914C186.926 244.562 188.35 244.088 189.728 243.515ZM189.728 243.515C195.592 241.078 200.634 236.843 205.244 232.532C212.4 225.839 220.091 219.632 226.046 211.793C227.6 209.747 229.05 207.653 230.415 205.512M230.415 205.512C225.219 210.099 219.343 214.067 213.654 217.908L213.575 217.961C209.4 220.78 205.042 224.188 200.281 225.95M182.802 242.522C183.183 243.319 184.627 245.442 183.218 245.442C180.286 245.442 176.814 243.812 174.102 242.908C164.322 239.645 155.695 235.385 147.22 229.495C139.365 224.036 131.007 219.373 123.18 213.893C108.801 203.828 94.9391 192.177 82.63 179.658L82.411 179.436C77.066 174 71.6539 168.495 66.7056 162.697C61.1036 156.134 56.6733 148.698 51.1396 142.065C41.9902 131.098 33.8989 118.41 26.3391 106.174M26.3391 106.174C25.8243 105.341 25.3118 104.509 24.8017 103.681C20.2538 96.2946 16.9773 87.763 13.7537 79.7318C12.4009 76.3614 11.0499 72.761 10.4711 69.1085M26.3391 106.174C32.3415 118.956 39.0957 131.443 46.4145 143.394C59.0594 164.043 77.6302 180.57 95.316 196.807C115.234 215.094 137.515 232.819 162.07 244.492C169.501 248.024 177.41 249.999 184.983 253.092C187.718 254.209 185.507 253.296 184.096 252.822C180.486 251.606 176.691 251.067 173.077 249.884C164.05 246.93 155.431 242.441 147.144 237.852C121.188 223.477 97.0131 205.194 76.7143 183.563C55.5633 161.025 39.45 135.185 24.5946 108.254C19.1223 98.3342 12.7299 88.1458 10.1484 76.9898C9.22729 73.0093 8.91996 68.9928 8.47763 64.9691M26.3391 106.174C23.0033 99.0704 19.8997 91.8759 17.0603 84.6318C14.9945 79.3611 12.8443 74.1925 10.4711 69.1085M10.4711 69.1085C10.345 68.3129 10.2556 67.5149 10.2107 66.7163C10.0225 63.3633 6.74985 52.3205 8.07906 61.7369C8.23116 62.8144 8.35923 63.892 8.47763 64.9691M10.4711 69.1085C9.82408 67.7225 9.16055 66.3428 8.47763 64.9691M8.47763 64.9691C7.73539 63.476 6.97025 61.9899 6.17862 60.5103C5.54092 59.3185 -0.110244 50.1645 2.85448 50.041" stroke="black" stroke-width="3" stroke-linecap="round" stroke-linejoin="round"/>
</svg>
