<svg width="2006" height="1498" viewBox="0 0 2006 1498" fill="none" xmlns="http://www.w3.org/2000/svg">
<path d="M1393.45 810.643C1392.61 807.264 1390.32 803.951 1389.39 800.269C1388.62 797.194 1390.06 806.626 1391.1 809.625C1396.16 824.307 1401.96 838.694 1407.8 853.089C1417.71 877.528 1424.3 902.848 1430.18 928.496C1430.92 931.685 1430.86 939.824 1434.09 941.84C1435.74 942.864 1434.68 938.654 1434.48 938.106C1423.02 906.629 1413.05 873.666 1404.98 841.247C1400.67 823.895 1393.69 806.214 1390.37 788.763C1388.5 778.923 1388.89 813.491 1389.52 813.491" stroke="#E32D2D" stroke-opacity="0.66" stroke-width="6" stroke-linecap="round" stroke-linejoin="round"/>
<path d="M1397.27 808C1395.14 807.967 1387.86 805.89 1387.02 803.363C1386.24 801.037 1411.9 794.566 1413.41 794.198C1424.83 791.417 1436.56 789.001 1448.28 788.115C1457.31 787.431 1467.14 788.462 1475.79 785.272C1483.65 782.375 1492.57 778.558 1478.92 780.555C1468.13 782.134 1397.81 795.415 1398.57 804.615C1399.25 812.721 1440.16 798.458 1442.76 797.555C1455.7 793.07 1468.37 787.837 1481.18 783.02C1483.91 781.995 1483.73 782.636 1482.15 784.753" stroke="#E32D2D" stroke-opacity="0.66" stroke-width="6" stroke-linecap="round" stroke-linejoin="round"/>
<path d="M1487.39 786.567C1486.47 780.014 1483.91 777.54 1485.52 786.169C1491.42 817.842 1499.4 849.967 1508.63 880.789C1511.26 889.55 1513.35 898.894 1516.62 907.428C1516.71 907.671 1517.95 909.91 1517.79 909.93C1512.56 910.576 1500.23 825.509 1499.47 821.786C1496.31 806.308 1491.96 791.321 1487.98 776.076C1487.56 774.498 1485.54 761.351 1485.76 767.74C1486.09 777.179 1489.61 787.214 1492.1 796.23C1498.43 819.19 1505.1 842.049 1511.29 865.049C1511.72 866.663 1527.11 922.155 1527.98 922C1528.23 921.954 1526.38 918.011 1526.27 917.757C1525.09 915.035 1524.06 912.241 1522.95 909.491C1521.16 905.06 1519.28 900.581 1517.93 895.99" stroke="#E32D2D" stroke-opacity="0.66" stroke-width="6" stroke-linecap="round" stroke-linejoin="round"/>
<path d="M1399 810.961C1401.26 810.961 1404.56 804.885 1404.59 807.132C1404.71 818.389 1401.73 829.711 1401.73 841.103C1401.73 855.469 1408.04 829.079 1408.93 825.84C1409.57 823.53 1417.19 799.175 1415 809.813C1412.65 821.239 1411.73 833.318 1411.73 844.965C1411.73 857.452 1417.82 832.138 1418.29 829.901C1419.36 824.818 1427.21 800.075 1427.21 802.157C1427.21 818.256 1422.92 834.583 1422.82 850.933C1422.79 857.13 1422.19 889.056 1426.92 866.377C1432.37 840.238 1433.47 813.435 1443.49 788.344C1445.51 783.295 1447.46 780.527 1445.83 787.698C1443.02 800.08 1441.58 812.642 1440.31 825.259C1437.3 855.242 1433.78 885.243 1433.88 915.415C1433.89 916.867 1435.19 920.849 1436.38 917.574C1440.06 907.519 1439.75 895.264 1441.17 884.779C1443.59 866.885 1447.64 849.394 1452.57 832.028C1454.35 825.768 1456.11 819.496 1458.08 813.294C1458.53 811.886 1458.68 807.83 1459.47 809.082C1460.94 811.426 1457.85 819.784 1457.5 822.074C1454.64 840.888 1452.23 859.819 1450.1 878.727C1447.92 897.968 1446.58 917.048 1446.63 936.406C1446.64 936.88 1448.28 952.434 1450.75 948.303C1457.16 937.595 1455.21 918.074 1455.96 906.307C1457.87 876.386 1459.57 846.66 1465.49 817.182C1468.1 804.211 1472.63 791.448 1474.49 778.344C1475.43 771.706 1471.63 791.466 1470.78 798.116C1465.19 841.493 1464.6 888.152 1470.49 931.459C1470.73 933.21 1473.79 950.671 1474.43 948.275C1477.93 935.112 1476.15 919.643 1476.15 906.216C1476.15 881.987 1480.63 809.403 1479.83 833.619C1478.89 861.769 1478.31 890.027 1481.76 918.057C1482.58 924.789 1483.99 930.202 1485.13 920.155C1487.25 901.335 1487.19 882.229 1488.13 863.33C1488.21 861.732 1490.27 835.865 1490.74 836.03C1492.28 836.574 1490.92 857.272 1490.92 858.837C1490.92 862.934 1491.69 919.009 1494.44 917.868C1498.42 916.221 1497.98 896.479 1498.24 893.199C1499.16 881.605 1499.79 869.991 1500.74 858.399C1501.52 848.843 1502.61 877.49 1503.9 886.993C1505.03 895.303 1506.58 902.972 1511.44 909.951C1512.94 912.107 1512.98 911.072 1513.08 914.154C1513.28 920.347 1514.56 923.689 1517 927.719" stroke="#E32D2D" stroke-opacity="0.66" stroke-width="6" stroke-linecap="round" stroke-linejoin="round"/>
<path d="M813.904 790.177C806.732 785.987 717.02 857.404 706.779 864.223C634.493 912.351 564.398 965.227 488.794 1008.04C423.345 1045.1 372.294 1093.98 314.816 1141.08C257.678 1187.89 202.474 1235.21 147.802 1284.97C103.345 1325.43 54.2893 1368.46 20.4748 1418.67C0.532168 1448.28 -6.97887 1493 40.6937 1493C69.2614 1493 98.1944 1470.27 122.58 1450.3M122.58 1450.3C129.774 1444.4 136.572 1438.75 142.848 1433.99C143.491 1433.5 144.134 1433.01 144.777 1432.53M122.58 1450.3C131.492 1442.09 141.039 1434.24 150.524 1426.53M122.58 1450.3C114.568 1457.67 107.07 1465.33 100.59 1473.45C76.53 1503.58 104.303 1474.77 144.777 1432.53M144.777 1432.53C190.315 1398 236.236 1363.66 283.696 1331.82C375.152 1270.47 461.612 1202.33 552.204 1139.86C647.925 1073.85 744.813 1009.85 836.712 938.873C872.044 911.584 885.215 851.618 859.748 812.736C832.923 771.78 734.973 848.107 712.971 864.005C669.461 895.442 629.811 932.015 583.645 959.7C535.762 988.416 489.82 1019.05 444.154 1051.16C357.483 1112.1 272.66 1173.47 195.133 1245.71C159.869 1278.57 120.594 1307.28 89.6843 1344.6L89.4409 1344.9C71.4519 1366.62 43.5274 1400.34 42.7084 1429.96C42.3974 1441.21 48.5515 1443.76 56.6466 1442.27M144.777 1432.53C146.667 1430.55 148.584 1428.55 150.524 1426.53M56.6466 1442.27C68.2542 1440.13 83.8525 1429.69 90.1025 1424.68C129.731 1392.9 165.788 1355.51 203.031 1321.02C263.853 1264.7 328.279 1212.4 391.814 1159.18C439.894 1118.91 488.959 1076.71 539.894 1036.93M56.6466 1442.27C137.601 1334.69 255.777 1265.62 357.23 1180.45C416.714 1130.51 477.37 1082.93 539.894 1036.93M56.6466 1442.27C56.5536 1442.39 56.4607 1442.52 56.3678 1442.64C39.6588 1464.89 41.7097 1480.49 70.3947 1461.56C77.9484 1456.58 85.4272 1451.45 92.8377 1446.19M539.894 1036.93C555.577 1024.69 571.437 1012.67 587.501 1001.01M539.894 1036.93C544.068 1033.86 548.25 1030.8 552.441 1027.74C564.387 1019.03 576.043 1010.1 587.501 1001.01M587.501 1001.01C632.07 968.665 678.205 939.07 726.457 914.947C729.374 913.489 733.051 911.954 737.076 910.551M587.501 1001.01C614.999 979.207 641.358 956.507 667.865 933.772M737.076 910.551C757.925 903.279 788.119 899.504 770.439 927.9M737.076 910.551C696.255 944.158 655.877 978.234 613.676 1010.31C584.159 1032.74 555.08 1056 526.344 1079.82M737.076 910.551C758.675 892.769 780.398 875.118 802.581 857.964C804.314 856.624 820.283 842.653 825.749 835.626M770.439 927.9C769.643 929.178 768.751 930.52 767.756 931.931C763.333 938.205 758.302 944.405 752.829 950.507M770.439 927.9C770.438 927.168 770.302 926.49 770.02 925.872C755.986 895.016 673.443 967.154 665.078 973.927C619.641 1010.72 572.904 1045.18 526.344 1079.82M770.439 927.9C770.444 933.171 763.419 941.272 752.829 950.507M752.829 950.507C747.719 956.203 742.224 961.814 736.474 967.319M752.829 950.507C722.951 976.564 664.697 1011.66 655.913 1017.75C589.028 1064.1 525.536 1115.25 461.343 1165.39M736.474 967.319C713.283 989.523 685.971 1010 663.271 1027.39C647.154 1039.74 630.749 1051.72 614.146 1063.44M736.474 967.319C695.237 998.653 654.906 1031.44 614.146 1063.44M736.474 967.319C750.874 956.377 765.383 945.613 780.06 935.122C807.537 915.48 842.821 894.743 861.573 865.736C870.048 852.627 873.406 839.874 854.646 836.409C845.049 834.637 835.371 834.492 825.749 835.626M614.146 1063.44C564.191 1098.7 512.444 1131.64 461.343 1165.39M614.146 1063.44C601.215 1073.59 588.241 1083.66 575.181 1093.58C459.419 1181.51 344.864 1271.53 229.653 1360.23C228.113 1361.42 219.169 1368.22 206.429 1377.76M461.343 1165.39C435.433 1182.5 409.69 1199.82 384.431 1217.76C360.592 1234.7 336.432 1251.44 312.311 1268.29M461.343 1165.39C435.729 1185.4 410.004 1205.24 383.907 1224.56C320.869 1271.23 264.072 1324.9 206.429 1377.76M312.311 1268.29C293.02 1281.77 273.752 1295.32 254.693 1309.1M312.311 1268.29C295.558 1283.49 278.844 1298.66 262.146 1313.75C241.271 1332.6 207.092 1367.65 174.796 1401.23M312.311 1268.29C382.469 1204.62 453.297 1140.39 526.344 1079.82M254.693 1309.1C229.659 1327.2 204.985 1345.69 181.085 1364.93C155.584 1385.47 130.977 1406.47 108.484 1430.33C106.278 1432.67 98.6641 1439.46 92.8377 1446.19M254.693 1309.1C202.829 1357.65 149.857 1405.73 92.8377 1446.19M254.693 1309.1C287.757 1278.15 320.37 1247 353.294 1217.51C408.694 1167.89 467.377 1123.7 526.344 1079.82M92.8377 1446.19C88.3984 1451.32 84.9968 1456.41 85.8154 1459.48C87.1202 1464.37 134.676 1430.7 174.796 1401.23M174.796 1401.23C186.394 1392.71 197.371 1384.54 206.429 1377.76M174.796 1401.23C166.495 1409.86 158.319 1418.39 150.524 1426.53M206.429 1377.76C197.749 1385.72 189.05 1393.66 180.308 1401.56C171.046 1409.92 160.821 1418.15 150.524 1426.53M825.749 835.626C821.363 836.142 816.989 836.925 812.639 837.94M825.749 835.626C828.92 831.55 828.557 829.81 819.834 834.225C817.431 835.441 815.032 836.68 812.639 837.94M812.639 837.94C779.574 845.658 747.935 866.819 723.416 886.899C704.547 902.352 686.171 918.07 667.865 933.772M812.639 837.94C762.455 864.361 714.552 900.031 667.865 933.772M667.865 933.772C656.283 942.142 644.777 950.393 633.329 958.355C594.798 985.152 556.875 1012.78 515.914 1035.85C495.063 1047.59 509.573 1041.82 523.179 1037.37M1898.13 340C1898.13 330.624 1903 323.082 1903 313.4C1903 292.3 1879.45 264.112 1870.06 246.271C1825.42 161.553 1723 110.176 1640 70M1884.75 305.634C1884.75 297.898 1887.33 293.387 1889.21 288.709M1889.21 288.709C1891.39 283.276 1892.63 277.617 1887.75 266.421C1870.3 226.311 1836.53 190.528 1803.28 163.366C1774.18 139.602 1748.22 116.897 1713.6 101.281C1678.42 85.4127 1648.3 62.0744 1613.72 46.0627C1549.68 16.4024 1467.55 5 1397.41 5C1333.07 5 1267.98 21.9358 1212.32 54.8238C1174.73 77.0315 1141.49 106.369 1108.66 136.062M1889.21 288.709C1903.76 303.828 1917.44 319.692 1928.91 337.416C1948.92 368.328 1968.98 402.026 1986.73 434.277C2006.89 470.898 2003.18 510.021 1991.05 548.855C1989.97 552.312 1989.01 555.762 1988.16 559.207M1889.21 288.709C1865.57 264.14 1839.63 241.536 1817.15 216.103C1809.04 206.931 1800.66 198.326 1792.03 190.225M1108.66 136.062C1084.6 157.816 1060.77 179.762 1035.62 199.234C933.623 278.201 837.149 362.367 799.27 490.264C783.783 542.554 759.157 594.297 759.157 649.818C759.157 674.597 770.016 706.688 784.536 735.931M1108.66 136.062C1133.96 124.355 1159.92 113.876 1186.16 103.283L1189.14 102.082C1251.77 76.79 1311.04 46.7702 1378.81 37.8463C1402.31 34.7515 1426.49 34.4637 1450.79 35.5723M1108.66 136.062C1078.84 149.854 1049.92 165.35 1022.51 184.743C930.424 249.888 843.643 333.79 775.245 423.545C718.699 497.749 735.039 584.03 752.031 668.027C757.367 694.405 770.049 715.565 784.536 735.931M784.536 735.931C795.598 758.208 808.784 778.833 820.913 793.312C824.154 797.181 827.613 800.817 831.209 804.306M784.536 735.931C796.201 752.328 809.037 768.21 820.153 785.884C824.001 792.002 827.642 798.162 831.209 804.306M831.209 804.306C849.354 821.913 870.999 835.775 885.827 856.908C904.578 883.631 924.319 907.023 945.569 931.707C956.216 944.073 965.69 957.984 976.107 970.926M831.209 804.306C847.964 833.174 863.051 861.692 889.968 883.768C919.68 908.135 941.565 933.429 967.192 961.623C970.074 964.795 973.051 967.893 976.107 970.926M976.107 970.926C985.021 981.999 994.625 992.363 1006.24 1000.44C1020.75 1010.53 1035.61 1020.2 1050.53 1029.79M976.107 970.926C998.345 992.991 1024.85 1011.61 1050.53 1029.79M1050.53 1029.79C1068.46 1041.33 1086.48 1052.76 1104.08 1064.71C1107.41 1066.97 1110.76 1069.12 1114.13 1071.17M1050.53 1029.79C1055.79 1033.52 1061.02 1037.22 1066.17 1040.94C1081.58 1052.05 1097.6 1062.13 1114.13 1071.17M1114.13 1071.17C1150.01 1093.02 1188.69 1104.24 1227.66 1120.59C1268.93 1137.91 1306.29 1154.87 1351.83 1157.04C1393.06 1158.99 1434.7 1157.36 1475.99 1157.36C1520.74 1157.36 1574.61 1125.17 1612.37 1103.15C1660.06 1075.35 1706.27 1043.67 1752.64 1013.72C1787.9 990.957 1814.03 958.554 1844.47 929.99C1880.56 896.122 1914.05 863.042 1932.87 817.247M1114.13 1071.17C1184.99 1109.94 1265.21 1129.62 1346.64 1129.77C1449.42 1129.96 1564.03 1122.58 1654.61 1067.62C1705.24 1036.9 1751.57 996.706 1800.99 963.657C1839.62 937.828 1876.89 893.824 1905.81 857.997C1916.88 844.287 1925.76 831.048 1932.87 817.247M1932.87 817.247C1934.2 814.007 1935.45 810.703 1936.63 807.331C1939.1 800.272 1942.08 793.492 1945.38 786.889M1932.87 817.247C1937.87 807.527 1941.99 797.528 1945.38 786.889M1945.38 786.889C1959.64 758.292 1979.85 732.999 1990.58 702.676C2001.43 672.021 1991.75 645.071 1990.82 614.168C1990.26 595.732 1989.97 577.366 1988.16 559.207M1945.38 786.889C1948.25 777.839 1950.6 768.327 1952.5 758.128C1959.2 722.222 1977.52 692.434 1979.43 654.813C1981.1 621.945 1980.3 590.756 1988.16 559.207M1988.16 559.207C1986.47 542.315 1983.47 525.601 1977.71 509.174C1964.08 470.312 1937.83 438.666 1925.4 398.472C1913.43 359.752 1880.55 329.044 1858.29 295.784C1835.36 261.541 1817.4 222.781 1792.03 190.225M1792.03 190.225C1790.7 188.522 1789.35 186.837 1787.98 185.17C1760.92 152.223 1723.2 119.76 1688.61 94.9046C1648.7 66.2281 1604.7 49.4906 1555.84 44.9351C1521.73 41.7543 1486.14 37.1853 1450.79 35.5723M1792.03 190.225C1742.49 143.746 1684.45 113.806 1619.76 87.9615C1565.78 66.397 1508.75 48.3692 1450.79 35.5723M1450.79 35.5723C1404.12 25.2678 1356.84 18.3551 1310.06 15.7186M1313.75 154.819C1318.09 146.489 1346.17 116.622 1357.71 108.012M1357.71 108.012C1358.39 107.5 1359.02 107.063 1359.58 106.711M1357.71 108.012C1364.85 99.7632 1366.5 98.1236 1359.58 106.711M1357.71 108.012C1350.71 116.101 1338.43 130.547 1323.8 147.937M1359.58 106.711C1361.55 105.476 1362.69 105.272 1362.65 106.486C1361.73 133.286 1313.61 178.476 1298.99 197.92C1256.09 254.988 1216.16 313.59 1175.84 372.442C1142.01 421.81 1106.21 464.698 1066.56 508.55C1064.95 510.329 1050.86 522.857 1057.33 515.221C1083.15 484.749 1102.19 449.21 1123.6 415.55C1147.58 377.857 1171.93 339.388 1197.75 301.957M1359.58 106.711C1358.37 108.214 1356.9 110.031 1355.14 112.181C1345.09 124.505 1334.53 136.301 1323.8 147.937M1197.75 301.957C1224.48 263.205 1252.78 225.567 1283.86 191.059C1297.01 176.46 1310.53 162.32 1323.8 147.937M1197.75 301.957C1204.97 293.162 1212.09 284.329 1219.02 275.416C1241.54 246.449 1289.24 188.99 1323.8 147.937M1197.75 301.957C1159.14 348.967 1117.51 394.892 1085.65 446.26C1073.45 465.925 1062.06 488.459 1045.86 505.322C1036.85 514.705 1029.37 525.505 1022.53 536.521C1004.47 565.575 1036.03 519.192 1040.76 512.481M1042.84 537.233C1042.02 537.212 1041.23 537.191 1040.45 537.171M1040.45 537.171C981.026 535.602 1005.25 535.634 1069.95 537.121M1040.45 537.171C1019.91 537.205 999.341 537.233 978.747 537.233C973.285 537.233 916.672 536.024 939.325 536.619C976.983 537.609 1014.92 539.072 1052.48 541.885C1176.44 551.17 1301.34 559.367 1425.52 564.063C1439.26 564.583 1541.21 563.796 1621.27 564.848M1040.45 537.171C1050.29 537.155 1060.12 537.137 1069.95 537.121M1069.95 537.121C1193.97 539.973 1466.7 548.173 1584.21 560.713C1586.85 560.996 1602 562.779 1621.27 564.848M1069.95 537.121C1219.85 536.88 1368.63 536.989 1518.85 546.806C1573.12 550.353 1629.11 550.581 1682.27 563.506C1684.05 563.939 1693.71 565.754 1704.43 567.539M1621.27 564.848C1661.46 569.164 1719.6 574.723 1719.6 570.487C1719.6 570.252 1719.38 570.025 1718.96 569.807M1621.27 564.848C1656.21 565.307 1686.99 566.117 1704.43 567.539M1718.96 569.807C1717.25 568.917 1712.15 568.168 1704.43 567.539M1718.96 569.807C1714.32 569.144 1709.27 568.345 1704.43 567.539M1718.96 569.807C1728.93 571.231 1737 572.03 1737 570.922M1371.53 137.812C1371 137.652 1370.49 137.472 1369.98 137.275M1369.98 137.275C1356.68 132.065 1352.72 114.344 1348.77 101.967C1344.41 88.3137 1359.51 119.371 1369.98 137.275ZM1369.98 137.275C1371.77 140.324 1373.41 142.991 1374.81 144.991C1412.3 198.727 1452.04 252.131 1492.54 303.626C1561.31 391.047 1765.03 654.917 1702.76 562.736C1623.79 445.851 1528.21 340.82 1450.41 222.588C1442.77 210.973 1430.86 192.291 1418.47 172.848M1418.47 172.848C1389.18 126.857 1357.25 76.6038 1372.93 105.522C1385.68 129.029 1401.25 150.481 1417.54 171.64C1417.85 172.043 1418.16 172.446 1418.47 172.848ZM1418.47 172.848C1469.85 239.573 1520.7 306.606 1569.97 374.925C1617.19 440.394 1766.27 630.662 1723.32 562.298M1663.44 610.439C1663.36 602.806 1659.69 582.702 1657.27 568.302M1657.27 568.302C1654.34 550.92 1653.23 541.848 1662.4 573.044C1663.26 575.966 1664.17 579.054 1665.12 582.293M1657.27 568.302C1656.01 562.057 1654.87 555.812 1653.85 549.567C1650.63 529.697 1657 551.876 1665.12 582.293M1657.27 568.302C1667.12 617.239 1683.99 666.161 1700.35 714.546M1665.12 582.293C1683.93 646.305 1720.01 769.654 1742.44 842.702M1665.12 582.293C1672.14 608.566 1680.47 640.984 1685.06 657.761C1690.22 676.642 1695.21 695.61 1700.35 714.546M1742.44 842.702C1747.92 860.549 1752.59 875.393 1755.98 885.636M1742.44 842.702C1747.32 852.939 1752.7 863.49 1756.02 873.739M1742.44 842.702C1739.98 837.546 1737.65 832.47 1735.76 827.553C1735.24 826.176 1734.71 824.798 1734.19 823.418M1755.98 885.636C1762.72 905.951 1764.48 908.167 1757.73 879.809C1757.26 877.801 1756.68 875.776 1756.02 873.739M1755.98 885.636C1755.56 884.682 1755.08 883.556 1754.55 882.242C1746.7 862.997 1740.17 843.293 1734.19 823.418M1755.98 885.636C1761.18 897.312 1758.4 883.244 1756.02 873.739M1756.02 873.739C1755.42 871.348 1754.84 869.247 1754.43 867.916M1734.19 823.418C1720.81 787.836 1710.3 751.252 1700.35 714.546M1734.19 823.418C1731.38 814.075 1728.69 804.694 1726.05 795.305C1718.52 768.615 1709.51 741.665 1700.35 714.546M1207.46 588.342C1204.71 588.342 1202.05 586.833 1199.53 584.375M1199.53 584.375C1186.48 571.675 1177.02 533.652 1176.8 547.826C1176.54 564.546 1183.32 580.171 1189.41 595.524C1207.36 640.752 1226.03 685.738 1245.93 730.144C1272.76 790.018 1307.43 845.632 1326.35 908.845L1326.45 909.193C1328.36 915.556 1339 951.118 1339 945.375C1339 927.34 1328.34 905.763 1322.6 889.056C1303.86 834.425 1282.01 780.933 1263.43 726.232C1246.22 675.571 1222.46 630.764 1199.53 584.375ZM1199.53 584.375C1192.27 569.696 1185.1 554.858 1178.24 539.626C1172.98 527.936 1165.15 514.868 1163 502M1162 501C1162 519.212 1172.35 537.697 1178.78 554.209C1207.85 628.951 1230.77 706.1 1258.1 781.521C1276.28 831.692 1298.23 881.25 1323 928M1349.74 943.568C1343.08 929.953 1352.5 939.249 1366.81 939.249C1368.93 939.249 1371.06 939.244 1373.18 939.233M1373.18 939.233C1375.54 939.221 1377.9 939.201 1380.26 939.176M1373.18 939.233C1388.22 936.214 1403.29 933.689 1418.39 931.557M1373.18 939.233C1372.6 939.35 1372.02 939.467 1371.44 939.585C1351.33 943.673 1331.19 947.64 1311.04 951.488C1300.82 953.441 1331.79 949.331 1341.98 947.169C1354.74 944.461 1367.5 941.79 1380.26 939.176M1380.26 939.176C1460.15 938.306 1538.75 929.792 1617.82 917.709M1380.26 939.176C1392.97 936.574 1405.67 934.029 1418.39 931.557M1617.82 917.709C1618.33 917.631 1618.85 917.552 1619.37 917.472C1643.95 913.701 1692.33 911.308 1730.82 909.835M1617.82 917.709C1630.59 917.191 1643.36 916.639 1656.14 915.995C1680.94 914.744 1705.9 911.851 1730.82 909.835M1617.82 917.709C1551.11 920.419 1484.49 922.223 1418.39 931.557M1730.82 909.835C1773.51 908.2 1804.05 907.697 1776.46 907.697C1761.29 907.697 1746.06 908.602 1730.82 909.835ZM1418.39 931.557C1490.21 917.595 1562.32 905.99 1635.49 900.033C1675.46 896.779 1715.41 894.343 1755.29 890.076M1755.29 890.076C1757.08 889.885 1758.87 889.689 1760.66 889.49C1782.82 887.025 1766.28 887.899 1755.29 890.076ZM1755.29 890.076C1753.84 890.363 1752.49 890.673 1751.33 891M1419.91 823.351C1416.53 815.851 1410.24 805.939 1403.49 801.07C1402.51 800.362 1403.6 806.472 1405.51 814.918M1405.51 814.918C1408.94 830.091 1415.02 852.802 1416.56 857.075C1427.15 886.623 1452.9 975.77 1451.8 944.41C1450.94 919.598 1431.23 885.602 1423.16 862.354C1421.96 858.912 1414.23 836.421 1409.82 821.877M1405.51 814.918C1406.84 817.25 1408.32 819.584 1409.82 821.877M1405.51 814.918C1402.36 809.412 1400 803.916 1400 798.998C1400 793.797 1403.59 798.067 1406.58 799.47C1418.28 804.953 1435.31 799.585 1447.07 797.335C1458.77 795.097 1473.22 794.469 1480.9 783.869C1481.05 783.663 1483.41 780.281 1484.49 777.747M1409.82 821.877C1406.52 810.998 1405.07 804.565 1409.6 813.871C1418.38 831.893 1426.82 850.71 1432.94 869.806C1440.57 893.608 1422.92 844.442 1419.74 837.78C1417.56 833.206 1413.61 827.673 1409.82 821.877ZM1484.49 777.747C1485.08 776.349 1485.29 775.209 1484.51 775.003C1484.25 774.933 1484.26 775.937 1484.49 777.747ZM1484.49 777.747C1485.99 789.954 1497.08 838.809 1497.89 841.48C1500.71 850.752 1510.93 908.157 1525.12 908.157C1536.29 908.157 1519.84 860.943 1519.32 856.714M1569.43 782.388C1569.43 778.611 1566 751.96 1566 762.456C1566 791.003 1588.42 873.637 1588.42 845.091C1588.42 830.461 1665.61 824.897 1679.68 824.897C1695.09 824.897 1651.87 763.07 1651.87 753.615C1651.87 746.42 1594.33 765.517 1590.57 766.87C1588.74 767.529 1587.07 768.114 1585.54 768.631M1585.54 768.631C1564.72 775.666 1570.94 770.24 1585.54 768.631ZM1585.54 768.631C1587.84 768.377 1590.35 768.218 1593 768.218M1615 772.087C1615 732.658 1616.59 776.089 1620.66 792.348C1622.09 798.081 1627.76 838.66 1635.26 839.967C1640.16 840.819 1637.2 825.136 1636.14 822.954M1589.98 807.998C1564.85 807.998 1577.31 808.289 1598.19 802.533C1618.25 797.002 1638.55 791.801 1658.85 787.247C1659.88 787.017 1673.68 782.689 1670.53 786.69M1546.33 620.116C1546.33 603.494 1542.92 621.709 1542.71 629.549M1542.71 629.549C1542.71 629.785 1542.71 630.012 1542.71 630.228M1542.71 629.549C1553.15 625.115 1582.3 613.699 1587.83 611.257C1597.25 607.095 1607.52 596.663 1607.78 608.405C1608.13 623.863 1646.68 672.62 1638.98 679.152C1632.63 684.546 1610.3 681.358 1602.45 682.362C1585.48 684.53 1568.25 690.764 1557.73 704.901C1554.54 709.197 1555.19 699.858 1553.95 694.726C1549.1 674.521 1543.82 651.873 1542.73 631.116C1542.71 630.846 1542.71 630.549 1542.71 630.228M1542.71 629.549C1538.31 631.42 1537.24 632.047 1542.71 630.228M1542.71 630.228C1542.98 630.137 1543.27 630.04 1543.58 629.936M1582.94 614.908C1577.61 594.311 1573.66 625.917 1574.02 630.273C1575.04 642.646 1590 691.518 1590 688.899M1559.4 665C1542.97 661.644 1550.26 657.432 1564.59 654.332C1577.44 651.551 1626.38 629.161 1622.82 633.574M1444.06 638.66C1443.89 636.677 1440.93 627.782 1440.28 632.23C1439.9 634.827 1439.66 637.459 1439.55 640.11M1439.55 640.11C1438.96 654.226 1442.13 668.856 1448.3 681.232C1452.36 689.365 1471.87 704.46 1458.22 704.46C1428.94 704.46 1390.73 724.197 1366.79 740.895C1350.3 752.39 1343.74 670.691 1327.91 658.723C1315.41 649.26 1336.21 647.065 1343.84 645.749C1372.25 640.846 1400.87 641.123 1429.59 641.123C1429.94 641.123 1435.71 640.73 1439.55 640.11ZM1439.55 640.11C1442.04 639.708 1443.71 639.209 1442.55 638.66M1382.65 655.085C1382.65 636.987 1374.9 657.757 1377.55 670.71C1382.47 694.707 1392.34 717.335 1397.79 741.115C1400.85 754.504 1400.57 736.644 1401 731.831M1349.65 708.586C1329.55 710.835 1354.08 703.418 1365.91 698.529C1392.44 687.568 1421.12 681.943 1447.25 670.164C1451.65 668.179 1452.81 666.371 1452.98 666.05M1452.98 666.05C1453.01 665.985 1453 665.981 1452.98 666.05ZM1452.98 666.05C1452.9 666.244 1452.65 667.013 1452.65 668.603" stroke="black" stroke-width="10" stroke-linecap="round" stroke-linejoin="round"/>
<path d="M1039.73 522.02C1036.68 522.104 1030.47 524.747 1027.62 523.347C1026.58 522.838 1033.41 515.458 1033.95 514.832C1042.01 505.5 1049.32 495.646 1056.38 485.546C1123.74 389.182 1191.43 299.397 1273.73 214.839C1300.23 187.61 1329.71 163.355 1353.72 133.796C1370.27 113.424 1385.63 91.9813 1407.51 76.8175C1413.62 72.5832 1399.06 86.0674 1397.07 88.259C1375.37 112.206 1357.02 139.773 1336.31 164.622C1252.74 264.903 1156.17 353.95 1081.61 461.749C1050.22 507.133 1012.97 547.056 979.808 590.89C967.455 607.218 999.193 554.76 1010.49 537.685C1050.25 477.57 1100 426.115 1145.35 370.411C1195.31 309.04 1237.52 242.361 1293.16 185.599C1309.09 169.359 1325.88 145.303 1347.27 135.305" stroke="black" stroke-opacity="0.21" stroke-width="35" stroke-linecap="round" stroke-linejoin="round"/>
<path d="M1388.73 77.2155C1385.48 75.4185 1364.65 58.752 1365 58.752C1379.66 58.752 1415.53 115.413 1423.47 125.231C1463.15 174.298 1492 226.809 1523.01 281.405C1539.91 311.163 1559.14 328.832 1581.79 352.968C1605.88 378.645 1619.46 410.189 1637.09 440.096C1652.57 466.361 1677.27 485.661 1691.05 512.894C1708.29 546.974 1695.04 513.79 1686.06 500.162C1639.43 429.452 1587.61 364.752 1548.37 289.02C1521.37 236.9 1494.26 171.823 1452.66 129.704C1431.62 108.406 1410.47 85.9811 1399.81 57.3487C1397.24 50.4561 1402.99 71.9008 1406.45 78.39C1418.92 101.779 1433.88 123.42 1449.53 144.77C1494.6 206.256 1543.81 264.665 1585.88 328.315C1610.73 365.917 1637.24 401.69 1667.64 434.982C1686.92 456.093 1689.56 481.656 1703.83 504.745C1717.46 526.789 1737.47 542.906 1749.6 567.133C1757.76 583.449 1748.73 543.264 1748.28 536.745" stroke="black" stroke-opacity="0.21" stroke-width="35" stroke-linecap="round" stroke-linejoin="round"/>
<path d="M945.989 528.11C944.186 528.37 927.062 524.82 931.23 522.929C942.287 517.912 977.139 534.799 989.681 535.858C1047 540.696 1104.61 532.594 1161.94 531.881C1231.63 531.014 1301.38 532.353 1370.9 537.565C1465.5 544.657 1559.53 560.775 1654.24 569.121C1672.44 570.725 1691.01 568.198 1709.1 570.089C1730.81 572.359 1665.47 571.898 1643.65 572.542C1568.94 574.746 1494.24 578.81 1419.5 579.14C1336.56 579.506 1253.2 588.957 1170.32 583.079C1094.69 577.715 1017.44 585.786 942.485 573.075C937.61 572.249 869.952 559.269 895.911 551.712C964.575 531.724 1043.13 530.018 1113.91 529.515C1230.15 528.69 1346.75 529.056 1462.97 530.921C1536.63 532.103 1610.22 537.321 1683.87 538.997C1701.93 539.408 1720.01 539.149 1738.07 539.149C1747.73 539.149 1730.68 543.58 1727.73 544.978" stroke="black" stroke-opacity="0.21" stroke-width="35" stroke-linecap="round" stroke-linejoin="round"/>
<path d="M1062.82 567.084C1071.14 559.365 1042.59 466.224 1057.27 469.605C1063.01 470.926 1065.13 507.401 1066.19 512.444C1069.95 530.377 1075.08 554.443 1087.86 568.382C1100.9 582.598 1101.98 534.462 1102.04 530.515C1102.52 501.095 1101.76 468.284 1091.77 440.154C1079.96 406.887 1091.71 514.116 1109.58 544.557C1119.44 561.338 1133.94 564.028 1136.09 542.094C1139.65 505.691 1132.72 470.388 1123.88 435.289C1116.74 406.935 1123.28 446.826 1124.76 454.154C1129.59 478.1 1131.28 504.077 1139.66 527.116C1146.21 545.106 1155.9 537.876 1157.57 522.106C1161.55 484.647 1153.5 446.91 1143.53 411.024C1139.61 396.933 1127.68 357.144 1141.18 393.06C1156.69 434.352 1170.79 476.155 1184.43 518.1C1186.14 523.354 1201.82 581.509 1208.23 554.829C1219.03 509.857 1201.59 453.008 1192.75 409.172C1186.17 376.574 1155.04 284.762 1175.6 310.894C1192.55 332.435 1194 380.527 1200.4 406.178C1207.69 435.406 1213.53 493.77 1240.18 513.315C1264.89 531.435 1267.37 490.51 1267.35 476.837C1267.27 425.588 1254.22 375.167 1240.68 326.086C1238.06 316.599 1230.34 288.232 1234.22 297.276C1238.47 307.188 1241.9 317.354 1245.27 327.598C1261.35 376.593 1273.62 426.62 1288.79 475.868C1291.92 486.02 1312.22 550.017 1331.61 519.582C1353.15 485.776 1330.72 420.479 1321.51 386.656C1306.91 333.06 1248.34 177.539 1273.44 227.094C1290.9 261.574 1296.11 304.62 1305.27 341.754C1321.6 407.94 1339.91 476.207 1375.76 534.899C1389.43 557.274 1409.22 572.759 1412.64 536.64C1418.88 470.669 1388.64 397.747 1366.61 337.076C1353.43 300.786 1337.73 264.179 1328.52 226.605C1326.82 219.649 1324.78 202.565 1332.71 217.325C1354.07 257.059 1362.09 307.468 1376.67 349.961C1392.43 395.881 1408.99 470.667 1452.13 499.987C1481.42 519.897 1479.26 479.813 1475.49 461.165C1458.03 374.824 1411.42 292.498 1377.52 211.941C1370.85 196.112 1346.76 119.207 1365.84 175.433C1389.72 245.822 1418.59 316.291 1452.9 382.192C1475.53 425.674 1507.21 495.997 1556.83 516.74C1585.34 528.661 1573.56 484.478 1568.26 471.434C1533.52 385.849 1478.22 309.605 1433.96 229.019C1424.86 212.464 1395.29 166.44 1410.71 177.342C1417.87 182.401 1422.31 196.947 1426.01 204.334C1453.2 258.7 1479.66 313.85 1511.13 365.901C1542.55 417.867 1582.51 485.031 1640.76 510.718C1652.69 515.981 1674.71 523.16 1660.31 503.168C1613.13 437.677 1556.52 379.19 1509.23 313.537C1484.24 278.835 1458.08 243.804 1437.87 205.968C1437.44 205.163 1432.57 197.224 1435.27 197.009C1453.27 195.576 1475 243.37 1482.67 255.029C1523.01 316.36 1559.34 380.662 1602.08 440.364C1607.93 448.534 1631.98 487.198 1646.39 484.72C1650.16 484.069 1597.73 407.701 1594.8 403.73C1534.97 322.65 1470.73 241.546 1420.69 153.99C1414.42 143.032 1396.17 110.411 1404.81 119.617C1413.63 129.026 1418.64 142.466 1424.31 153.803C1482.69 270.693 1545.98 377.423 1642.97 465.984C1649.95 472.354 1681.84 505.451 1661.08 478.579C1610.53 413.17 1561.21 346.722 1512.81 279.717C1487.38 244.515 1462.2 209.199 1438.14 173.042C1429.06 159.388 1431.85 167.071 1436.24 177.281C1463.02 239.435 1490.79 300.935 1520.52 361.746C1540.31 402.212 1573.49 448.888 1575.67 495.389C1576.18 506.161 1570.34 474.432 1566.36 464.411C1550.83 425.341 1531.47 388.113 1510.89 351.519" stroke="black" stroke-opacity="0.21" stroke-width="35" stroke-linecap="round" stroke-linejoin="round"/>
<path d="M1422.61 210.799C1387.58 216.837 1446.43 416.529 1449.8 444.851C1450.44 450.22 1452.7 474.344 1452.69 472.539C1452.59 452.755 1451.59 432.985 1451.61 413.171C1451.65 384.047 1452.77 353.002 1460.84 324.81C1463.22 316.484 1475.85 302.578 1468.62 315.263C1458.42 333.15 1432.87 348.142 1416.76 359.779C1379.17 386.939 1337.53 411.984 1308.04 448.422C1303.56 453.966 1274.59 509.435 1266.87 507.405C1260.59 505.753 1287.67 438.034 1289.62 433.472C1313.19 378.268 1346.88 328.364 1379.39 278.18C1391.82 258.99 1404.69 239.904 1415.55 219.751C1416.24 218.461 1423.22 206.56 1419.55 207.014C1394.57 210.105 1361.29 249.378 1342.52 264.161C1298.13 299.123 1253.62 333.414 1218.17 377.912C1203.11 396.823 1183.71 440.206 1161.3 451.429C1152.17 456.002 1172.77 434.512 1178.38 425.97C1193.55 402.863 1209.18 380.08 1226.36 358.409C1279.84 290.934 1477.17 124.651 1405.66 172.529C1370.45 196.109 1340.09 232.404 1309.87 261.806C1263.9 306.546 1220.3 353.662 1192.51 412.271C1190.6 416.311 1163 486.268 1173.11 485.215C1207 481.687 1246.91 433.102 1270.71 412.32C1324.8 365.103 1378.23 317.236 1431.59 269.201C1448.2 254.255 1476.05 224.547 1463.38 263.794C1446.31 316.722 1427.27 366.38 1400.68 415.468C1380.29 453.117 1351 490.539 1335.78 530.586C1326.18 555.85 1375.67 494.082 1394.07 474.309C1437.14 428.03 1482.29 383.78 1535.61 349.354C1558.65 334.481 1567.14 332.191 1561.13 361.844C1552.57 404.124 1533.82 444.763 1519.6 485.334C1516.7 493.611 1492.35 547.493 1503.11 555.496C1514.04 563.634 1547.15 536.345 1555.44 530.876" stroke="black" stroke-opacity="0.21" stroke-width="35" stroke-linecap="round" stroke-linejoin="round"/>
</svg>
