<svg width="1347" height="830" viewBox="0 0 1347 830" fill="none" xmlns="http://www.w3.org/2000/svg">
<path d="M171.883 378.214C168.887 378.214 177.711 363.638 177.923 363.255C203.637 316.869 233.766 273.423 263.725 229.728C280.895 204.686 295.99 178.525 312.504 153.087C315.456 148.54 318.432 144.009 321.401 139.475M321.401 139.475C332.055 123.206 342.632 106.901 351.764 89.703C363.007 68.5281 372.536 46.4842 383.897 25.3869C388.729 16.4128 392.572 10.9707 387.854 24.83C379.406 49.6467 369.209 73.1932 354.071 94.741C343.45 109.86 332.479 124.708 321.401 139.475ZM321.401 139.475C296.507 172.657 271.071 205.429 247.837 239.935C233.309 261.511 219.043 283.235 205.001 305.13C199.449 313.786 191.868 323.928 190.606 334.5M385.51 7.67297C385.51 5.37581 386.265 9.5319 387.509 11.576C397.26 27.6047 405.462 44.5136 415.152 60.5959C441.243 103.898 467.666 147.154 494.864 189.852M494.864 189.852C504.797 205.445 514.833 220.964 524.994 236.383C536.878 254.416 550.663 271.042 563.682 288.24M494.864 189.852C500.495 199.651 506.095 209.416 511.533 219.174C527.641 248.08 545.965 275.971 565.892 302.396C572.746 311.485 591.603 338.679 588.921 327.615C587.068 319.975 581.808 312.402 576.621 305.52M494.864 189.852C475.144 155.535 455.037 120.808 440.151 84.5594C438.843 81.3751 437.596 77.8352 436.221 74.2946M563.682 288.24C565.906 291.178 568.109 294.134 570.275 297.116C572.195 299.758 574.401 302.576 576.621 305.52M563.682 288.24C554.475 274.916 546.1 260.894 537.94 248.544C502.318 194.63 470.053 138.099 439.93 80.9419C439.058 79.2871 437.711 76.8995 436.221 74.2946M563.682 288.24C567.809 294.212 572.103 300.043 576.621 305.52M576.621 305.52C581.661 311.632 586.979 317.302 592.652 322.235M436.221 74.2946C434.197 69.0815 431.898 63.8671 428.728 59.7852C424.98 54.9602 431.357 65.7863 436.221 74.2946ZM194.13 382.085C203.054 373.657 210.793 382.277 222.939 382.766C245.891 383.691 268.488 377.314 290.865 373.024C327.379 366.023 364.362 361.937 401.066 356.072C457.543 347.048 512.866 340.845 570.05 339.642C575.527 339.527 581.759 338.383 572.256 337.363C554.017 335.405 534.357 336.842 516.096 337.836C443.862 341.771 371.663 345.181 299.84 354.304C251.268 360.474 201.037 371.976 151.965 371.976C137.33 371.976 180.887 367.419 195.246 364.589C235.962 356.564 276.919 350.271 318.122 345.299C362.664 339.925 407.358 335.516 452.151 332.921C483.719 331.091 516.254 328.44 547.733 332.449M909.315 514.6C910.318 514.6 909.28 509.99 908.964 509.562C903.947 502.763 880.283 522.306 869.441 531.576M869.441 531.576C866.906 533.743 865.072 535.349 864.341 535.926C860.349 539.074 856.394 542.257 852.441 545.434M869.441 531.576C856.447 538.967 843.556 546.529 830.558 553.924C792.463 575.601 758.387 601.34 725.976 630.561M869.441 531.576C873.943 529.015 878.458 526.475 882.994 523.969C887.501 521.479 900.565 513.778 897.033 517.526C892.397 522.445 885.097 525.809 879.337 529.131C870.245 534.376 861.27 539.785 852.441 545.434M852.441 545.434C839.192 556.079 825.958 566.65 811.391 575.579C800.999 581.95 790.34 587.967 779.795 594.151M852.441 545.434C847.448 548.628 842.502 551.9 837.608 555.262C818.465 568.409 799.053 581.172 779.795 594.151M779.795 594.151C771.731 598.881 763.734 603.708 755.973 608.866C745.778 615.641 735.431 622.647 725.976 630.561M779.795 594.151C772.904 598.796 766.033 603.468 759.202 608.196C746.406 617.051 732.953 625.446 721.658 636.225M725.976 630.561C723.395 632.721 720.881 634.948 718.454 637.258C710.512 644.815 716.619 639.105 720.92 635.159C722.601 633.617 724.286 632.084 725.976 630.561ZM914.193 509.843C913.116 509.363 911.525 508.886 909.635 508.375M909.635 508.375C901.065 506.059 886.345 503.034 885.4 495.751C885.132 493.687 891.244 497.606 891.616 497.828C897.586 501.395 903.63 504.854 909.635 508.375ZM909.635 508.375C915.528 511.831 921.384 515.347 927.097 519.084C959.104 540.017 989.041 563.437 1021.71 583.485C1026.32 586.314 1053.5 602.693 1034.34 591.791C1005.15 575.183 975.532 559.532 947.436 541.051C939.818 536.04 932.336 530.835 924.795 525.715M924.795 525.715C921.641 523.574 918.478 521.448 915.29 519.357C909.765 515.734 911.048 514.934 915.818 518.688C918.807 521.04 921.799 523.383 924.795 525.715ZM924.795 525.715C948.169 543.911 971.8 561.496 996.196 578.437C1007.17 586.059 1018.44 593.049 1030.1 599.555C1031.09 600.104 1039.25 603.516 1039.25 604.44M750.589 631.234C761.534 631.234 745.67 629.047 742.727 628.629C741.86 628.506 740.967 628.383 740.056 628.268M740.056 628.268C735.126 627.646 729.677 627.285 725.095 628.727C718.642 630.758 733.512 629.208 734.369 629.082C736.263 628.802 738.159 628.531 740.056 628.268ZM740.056 628.268C758.75 625.671 777.563 623.806 796.374 622.002M796.374 622.002C808.311 620.858 820.248 619.738 832.153 618.472C834.397 618.234 836.639 617.985 838.88 617.727M796.374 622.002C769.281 621.501 744.547 620.216 760.891 620.216C786.981 620.216 812.898 619.183 838.88 617.727M796.374 622.002C812.42 622.299 829.293 622.32 838.949 621.636C890.175 618.008 942.978 610.901 994.445 614.21M838.88 617.727C890.314 611.815 940.923 601.153 992.628 597.062C1003.33 596.215 1014.23 596.091 1024.97 596.043C1026.52 596.036 1035.85 596.647 1029.7 598.849C1012.24 605.099 991.258 604.329 973.033 606.622C935.557 611.337 898.416 614.038 860.749 616.417C853.451 616.878 846.163 617.319 838.88 617.727ZM226.147 322.307C225.281 310.618 224.581 299.572 231.674 288.468C234.767 283.626 230.571 311.89 229.804 314.803C225.771 330.113 221.754 346.264 214.757 360.551C205.995 378.441 235.398 326.461 245.004 309.009C269.262 264.935 286.046 212.252 317.896 173.023C337.002 149.492 322.327 185.302 318.673 194.849C306.445 226.796 290.054 256.555 275.606 287.474C274.019 290.871 261.089 324.062 274.065 309.628C274.97 308.622 275.859 307.601 276.734 306.566M276.734 306.566C280.781 301.78 284.52 296.692 287.999 291.386M276.734 306.566C273.965 311.891 273.726 315.979 277.155 318.12C292.858 327.924 316.916 326.64 334.259 323.336C362.74 317.91 390.949 315.786 419.786 313.223C438.004 311.603 459.605 308.102 474.61 296.644C485.615 288.24 464.802 289.646 461.1 289.853C459.213 289.958 453.995 290.186 446.888 290.548M276.734 306.566C279.001 302.205 282.965 297.015 287.999 291.386M287.999 291.386C298.601 275.219 306.793 257.019 313.957 239.103M287.999 291.386C293.427 285.317 300.1 278.737 307.233 272.136M313.957 239.103C316.186 233.528 318.316 227.981 320.388 222.531C328.54 201.087 335.172 178.878 342.722 157.056M313.957 239.103C319.411 218.508 326.786 198.271 333.792 179.047L333.945 178.628C335.941 173.15 339.101 165.496 342.722 157.056M313.957 239.103C311.059 250.046 308.703 261.089 307.233 272.136M342.722 157.056C349.239 138.219 356.439 119.67 365.889 102.151C376.237 82.9665 356.26 125.502 342.722 157.056ZM307.233 272.136C306.164 280.17 305.564 288.206 305.564 296.205C305.564 322.427 332.642 283.209 335.72 277.066C336.587 275.335 337.478 273.486 338.39 271.528M307.233 272.136C315.347 264.627 324.057 257.09 332.21 250.245M338.39 271.528C343.326 260.935 348.872 247.175 354.548 231.936M338.39 271.528C334.375 273.675 331.378 272.029 331.473 262.149C331.511 258.124 331.764 254.157 332.21 250.245M338.39 271.528C344.696 268.157 353.509 255.434 356.791 250.57C358.034 248.727 359.258 246.873 360.464 245.009M354.548 231.936C357.388 224.312 360.26 216.319 363.104 208.166M354.548 231.936C348.573 236.749 340.693 243.123 332.21 250.245M354.548 231.936C357.249 229.761 359.56 227.904 361.363 226.441M363.104 208.166C370.626 186.606 377.954 163.932 383.974 144.05M363.104 208.166C364.709 193.623 367.177 178.622 370.495 163.695M363.104 208.166C363.093 208.268 363.082 208.37 363.071 208.472C362.781 211.119 362.002 217.874 361.363 226.441M383.974 144.05C397.582 99.1036 404.508 68.4187 391.882 97.0931C382.757 117.816 375.614 140.668 370.495 163.695M383.974 144.05C389.607 137.122 395.95 131.263 402.851 128.977M383.974 144.05C378.858 150.341 374.328 157.514 370.495 163.695M370.495 163.695C368.357 167.143 366.435 170.283 364.751 172.789C348.854 196.431 335.444 221.885 332.21 250.245M361.363 226.441C360.944 232.065 360.585 238.471 360.464 245.009M361.363 226.441C363.206 224.946 364.517 223.861 365.169 223.267C371.03 217.93 377.52 211.681 383.931 204.86M360.464 245.009C360.061 266.846 362.317 290.158 373.862 290.758C392.107 291.706 396.295 225.628 397.729 214.809C398.987 205.326 399.672 195.626 400.136 185.832M360.464 245.009C368.903 231.967 376.478 218.448 383.931 204.86M400.136 185.832C400.31 182.147 400.453 178.449 400.583 174.743M400.136 185.832C395.113 192.461 389.552 198.88 383.931 204.86M400.136 185.832C401.006 184.683 401.861 183.528 402.696 182.367M400.583 174.743C401.12 159.454 401.44 144.046 402.851 128.977M400.583 174.743C394.898 184.709 389.448 194.803 383.931 204.86M400.583 174.743C401.362 173.378 402.145 172.015 402.934 170.655M402.851 128.977C403.796 118.877 405.232 108.929 407.553 99.2698C410.677 86.2651 408.268 106.215 405.946 128.205M402.851 128.977C403.87 128.639 404.902 128.379 405.946 128.205M405.946 128.205C404.557 141.355 403.199 155.235 403.074 163.233C403.036 165.658 402.987 168.135 402.934 170.655M405.946 128.205C407.226 127.992 408.523 127.908 409.837 127.969C419.161 128.398 420.96 136.036 420.129 143.985M402.934 170.655C402.853 174.47 402.765 178.384 402.696 182.367M402.934 170.655C405.88 165.573 408.898 160.53 412.029 155.55C412.673 154.526 416.53 148.049 420.129 143.985M402.696 182.367C402.169 213.071 402.837 247.909 417.642 273.845M402.696 182.367C408.838 173.841 413.973 165.038 417.116 156.433C418.372 152.995 419.664 148.441 420.129 143.985M417.642 273.845C418.347 275.081 419.085 276.297 419.856 277.491C421.033 279.314 422.153 280.76 423.215 281.875M417.642 273.845C417.437 268.225 417.83 262.673 417.945 258.656C418.861 226.647 425.634 195.111 426.893 163.171C426.993 160.631 427.972 153.544 427.686 147.952M417.642 273.845C417.753 276.904 418.041 279.984 418.648 282.847M423.215 281.875C428.174 287.077 431.897 285.055 434.51 280.386M423.215 281.875C426.936 281.176 430.689 280.69 434.51 280.386M423.215 281.875C421.688 282.162 420.166 282.486 418.648 282.847M434.51 280.386C437.226 275.532 438.744 267.817 439.204 262.382C440.52 246.83 440.63 231.257 439.8 215.731M434.51 280.386C441.418 279.836 448.548 279.878 456.104 280.322M439.8 215.731C439.742 214.66 439.681 213.588 439.615 212.517M439.8 215.731C439.581 214.929 439.365 214.126 439.153 213.322M439.8 215.731C441.267 221.106 442.885 226.431 444.676 231.687C448.839 243.906 455.124 257.746 463.814 269.061M439.615 212.517C438.413 193.061 435.765 173.684 432.198 154.517C431.289 149.631 430.732 130.96 426.525 127.483C422.421 124.091 426.607 138.15 427.184 143.443C427.23 143.862 427.276 144.281 427.322 144.7M439.615 212.517C442.101 208.594 447.344 205.908 453.279 204.3M439.615 212.517C439.448 212.78 439.294 213.048 439.153 213.322M427.322 144.7C427.441 145.783 427.563 146.867 427.686 147.952M427.322 144.7C426.993 142.997 426.44 141.655 425.561 140.961C424.335 139.993 422.278 141.559 420.129 143.985M427.322 144.7C427.511 145.682 427.626 146.785 427.686 147.952M427.686 147.952C430.173 169.813 433.51 191.95 439.153 213.322M439.153 213.322C437.958 215.639 437.693 218.357 438.734 221.504M463.814 269.061C467.603 273.995 471.85 278.448 476.578 282.078M463.814 269.061C461.48 272.641 458.91 276.574 456.104 280.322M463.814 269.061C465.736 266.112 467.498 263.404 469.098 261.239C470.657 259.131 472.429 256.924 474.291 254.648M476.578 282.078C478.483 283.541 480.467 284.87 482.53 286.042C491.173 290.954 495.202 289.124 497.029 284.217M476.578 282.078C483.096 282.717 490.397 283.473 497.029 284.217M476.578 282.078C471.099 281.541 466.174 281.087 462.662 280.793C460.439 280.606 458.254 280.448 456.104 280.322M497.029 284.217C497.251 283.622 497.44 282.982 497.601 282.304M497.029 284.217C498.7 284.405 500.329 284.591 501.892 284.775M497.601 282.304C498.415 278.874 498.513 274.457 498.449 269.895C498.337 261.823 497.684 253.682 496.6 245.533M497.601 282.304C491.006 277.834 485.71 271.069 480.762 264.158C478.572 261.099 476.401 257.924 474.291 254.648M497.601 282.304C498.972 283.233 500.4 284.063 501.892 284.775M496.6 245.533C495.716 238.888 494.545 232.238 493.145 225.617M496.6 245.533C494.487 241.149 492.503 236.697 490.637 232.19M496.6 245.533C496.72 245.784 496.842 246.034 496.963 246.284C503.144 259 508.826 273.906 516.616 286.838M493.145 225.617C492.143 220.876 491.024 216.149 489.81 211.45M493.145 225.617C492.624 227.772 491.756 229.971 490.637 232.19M493.145 225.617C494.37 220.551 493.676 215.728 489.81 211.45M489.81 211.45C486.693 199.392 482.948 187.513 478.938 176.023M489.81 211.45C487.787 209.212 484.895 207.122 480.956 205.225M478.938 176.023C477.858 172.929 476.759 169.864 475.648 166.831C473.233 160.237 471.27 149.807 466.888 144.141C462.978 139.084 468.993 156.756 470.28 163.018C470.971 166.383 471.694 169.751 472.453 173.117M478.938 176.023C499.35 187.7 510.336 218.995 518.871 238.176C527.979 258.646 537.374 283.96 540.035 306.435C541.127 315.653 535.921 309.303 531.62 305.518C525.905 300.489 521.168 294.287 517.028 287.516M478.938 176.023C476.9 174.857 474.768 173.887 472.535 173.144C472.507 173.135 472.48 173.126 472.453 173.117M472.453 173.117C474.88 183.885 477.672 194.636 480.956 205.225M472.453 173.117C459.994 169.03 452.39 180.401 452.323 191.826C452.298 195.995 452.635 200.16 453.279 204.3M480.956 205.225C483.789 214.364 486.989 223.383 490.637 232.19M480.956 205.225C480.012 204.771 479.008 204.328 477.942 203.896C473.008 201.898 462.338 201.844 453.279 204.3M490.637 232.19C486.829 239.74 480.118 247.53 474.291 254.648M516.616 286.838C516.753 287.065 516.89 287.291 517.028 287.516M516.616 286.838C518.122 287.164 518.412 287.404 517.028 287.516M516.616 286.838C514.203 286.316 508.665 285.572 501.892 284.775M517.028 287.516C516.452 287.563 515.587 287.588 514.4 287.588C509.74 287.588 505.615 286.551 501.892 284.775M453.279 204.3C456.05 222.108 464.504 239.453 474.291 254.648M456.104 280.322C453.271 284.107 450.198 287.701 446.888 290.548M418.648 282.847C409.711 284.974 400.884 288.428 391.677 293.666C391.37 293.841 390.654 294.252 389.642 294.814M418.648 282.847C419.392 286.358 420.615 289.543 422.577 291.965M389.642 294.814C383.203 298.39 364.759 308.075 363.217 301.807C362.504 298.907 374.137 296.6 389.642 294.814ZM389.642 294.814C399.756 293.649 411.518 292.706 422.577 291.965M422.577 291.965C431.566 291.363 440.091 290.894 446.888 290.548M422.577 291.965C424.726 294.618 427.763 296.355 432.028 296.604C437.419 296.919 442.374 294.429 446.888 290.548M804.628 598.338C805.4 597.876 806.151 597.394 806.886 596.894M806.886 596.894C813.022 592.726 818.062 587.411 825.089 583.928C829.807 581.59 834.527 579.3 839.236 577.005M806.886 596.894C805.373 598.101 803.862 599.309 802.352 600.517C800.766 601.786 785.293 613.636 790.978 611.999C798.142 609.937 805.159 606.866 812.011 603.371M806.886 596.894C813.67 591.479 820.475 586.074 827.305 580.689M839.236 577.005C849.771 571.871 860.252 566.712 870.535 560.929C876.63 557.502 882.768 553.795 889.037 550.371M839.236 577.005C838.613 577.193 837.988 577.38 837.363 577.565C835.007 578.262 831.168 579.501 827.305 580.689M839.236 577.005C858.425 571.199 876.692 563.719 894.735 555.608M889.037 550.371C891.077 549.257 893.13 548.172 895.201 547.137M889.037 550.371C888.85 548.746 891.379 547.739 895.201 547.137M889.037 550.371C889.123 551.108 889.767 551.973 891.105 552.985C892.279 553.873 893.49 554.747 894.735 555.608M895.201 547.137C898.754 545.36 902.356 543.728 906.023 542.339C907.183 541.9 914.917 539.54 911.065 543.082C909.865 544.185 908.633 545.271 907.37 546.342M895.201 547.137C898.576 546.605 902.96 546.389 907.37 546.342M907.37 546.342C903.852 549.327 900.104 552.19 896.193 554.951M907.37 546.342C909.866 546.315 912.37 546.343 914.705 546.398M896.193 554.951C895.796 555.231 895.397 555.51 894.997 555.789M896.193 554.951C895.707 555.17 895.221 555.389 894.735 555.608M896.193 554.951C902.379 552.157 908.54 549.292 914.705 546.398M894.997 555.789C876.587 568.583 854.793 579.191 836.518 589.619C831.568 592.444 826.505 595.442 821.339 598.345M894.997 555.789C894.909 555.729 894.822 555.668 894.735 555.608M894.997 555.789C895.5 556.134 896.008 556.477 896.521 556.818M821.339 598.345C818.266 600.072 815.156 601.766 812.011 603.371M821.339 598.345C814.337 598.402 807.657 599.149 801.904 601.54C799.422 602.571 804.955 603.113 812.011 603.371M821.339 598.345C823.849 598.325 826.401 598.394 828.967 598.508M812.011 603.371C813.336 603.419 814.714 603.457 816.102 603.487M827.305 580.689C852.852 560.549 878.738 540.705 905.092 521.772C918.498 512.142 900.243 525.002 896.311 527.675C880.113 538.686 864.112 550.005 848.045 561.208C837.475 568.577 826.09 574.955 815.635 582.409C811.593 585.29 819.498 583.091 827.305 580.689ZM914.705 546.398C921.199 543.349 927.697 540.269 934.232 537.206C938.472 535.218 941.088 534.646 942.521 535.056M914.705 546.398C917.242 546.457 919.579 546.549 921.488 546.64M942.521 535.056C945.79 535.991 942.89 542.041 939.04 548.054M942.521 535.056C955.135 532.079 964.818 540.416 960.671 550.996M942.521 535.056C941.015 535.411 939.468 535.927 937.897 536.62C931.745 539.335 926.368 542.746 921.488 546.64M939.04 548.054C936.28 552.365 933.032 556.658 931.22 559.031C930.204 560.363 924.888 565.572 920.608 569.703M939.04 548.054C945.397 548.753 951.74 549.643 958.021 550.709C958.909 550.859 959.851 550.944 960.671 550.996M939.04 548.054C934.789 547.586 930.531 547.204 926.28 546.91C925.769 546.874 923.999 546.759 921.488 546.64M920.608 569.703C920.31 569.991 920.016 570.275 919.729 570.551M920.608 569.703C915.439 567.451 910.397 564.987 905.63 562.339M920.608 569.703C920.662 569.726 920.715 569.75 920.768 569.773M919.729 570.551C919.123 571.134 918.548 571.686 918.02 572.192M919.729 570.551C917.669 570.028 914.776 569.481 912.496 568.498C910.024 567.432 906.555 566.276 903.758 564.541M919.729 570.551C919.762 570.559 919.795 570.567 919.828 570.576M918.02 572.192C914.942 575.14 913.488 576.494 917.053 573.097C917.371 572.795 917.693 572.493 918.02 572.192ZM918.02 572.192C918.609 571.649 919.212 571.11 919.828 570.576M919.828 570.576C920.138 570.307 920.452 570.039 920.768 569.773M919.828 570.576C922.728 571.32 923.888 572.028 919.118 573.892C914.034 575.88 909.127 578.01 904.267 580.127M920.768 569.773C931.624 560.633 946.184 553.03 959.969 551.515C960.149 551.496 960.32 551.477 960.481 551.459M920.768 569.773C925.154 571.679 929.631 573.432 934.111 575.016M960.481 551.459C964.375 551.029 963.031 551.146 960.671 550.996M960.481 551.459C959.487 553.784 957.826 556.21 955.383 558.642C949.118 564.88 941.916 570.314 934.111 575.016M960.481 551.459C960.548 551.304 960.611 551.15 960.671 550.996M921.488 546.64C915.648 551.301 910.52 556.656 905.63 562.339M896.521 556.818C897.367 557.38 898.227 557.935 899.1 558.484M896.521 556.818C893.151 558.909 887.493 565.585 886.582 566.604C882.814 570.819 873.966 579.22 869.366 586.823M896.521 556.818C898.002 555.899 899.041 555.866 899.041 557.586C899.041 557.895 899.061 558.194 899.1 558.484M899.1 558.484C901.206 559.808 903.387 561.094 905.63 562.339M899.1 558.484C899.452 561.136 901.357 563.052 903.758 564.541M905.63 562.339C905.002 563.068 904.379 563.802 903.758 564.541M934.111 575.016C934.514 575.158 934.917 575.3 935.32 575.439M934.111 575.016C933.734 575.243 933.356 575.468 932.977 575.691M935.32 575.439C944.083 578.478 952.823 580.862 960.876 582.464C965.728 583.429 995.42 581.405 978.575 577.216C964.992 573.838 950.135 573.921 935.32 575.439ZM935.32 575.439C934.539 575.519 933.757 575.604 932.977 575.691M932.977 575.691C923.234 576.786 913.539 578.457 904.267 580.127M932.977 575.691C929.402 577.797 925.706 579.751 921.92 581.562M904.267 580.127C899.95 580.904 895.724 581.681 891.627 582.4C890.57 582.585 889.518 582.773 888.469 582.963M904.267 580.127C900.182 581.905 896.13 583.674 892.032 585.34M888.469 582.963C881.963 584.143 875.614 585.416 869.366 586.823M888.469 582.963C889.052 582.482 889.415 582.165 889.492 582.073C894.381 576.187 898.984 570.227 903.758 564.541M888.469 582.963C887.44 583.813 885.725 585.173 883.694 586.707M869.366 586.823C855.604 589.923 842.334 593.674 828.967 598.508M869.366 586.823C868.742 587.855 868.196 588.872 867.751 589.862M828.967 598.508C824.695 600.052 820.413 601.707 816.102 603.487M828.967 598.508C831.119 598.603 833.281 598.73 835.436 598.863M816.102 603.487C816.04 603.512 815.979 603.538 815.917 603.564C808.935 606.451 811.894 605.783 819.612 603.544M816.102 603.487C817.273 603.512 818.451 603.531 819.612 603.544M819.612 603.544C823.774 602.337 829.319 600.673 835.436 598.863M819.612 603.544C825.741 603.616 831.369 603.538 832.706 603.43C866.513 600.707 899.931 599.057 933.81 597.688C936.972 597.56 978.868 591.404 966.951 586.357C954.282 580.991 938.1 580.356 921.92 581.562M835.436 598.863C845.892 595.77 858.016 592.251 867.751 589.862M835.436 598.863C844.035 599.393 852.523 600.016 859.851 599.086C880.024 596.524 902.194 590.997 921.92 581.562M867.751 589.862C872.003 588.819 875.799 587.99 878.802 587.507C880.385 587.252 882.018 586.984 883.694 586.707M867.751 589.862C867.217 591.051 866.83 592.201 866.63 593.29M883.694 586.707C886.372 586.265 889.16 585.802 892.032 585.34M883.694 586.707C882.266 587.786 880.681 588.95 879.068 590.082M892.032 585.34C901.396 583.832 911.658 582.327 921.92 581.562M892.032 585.34C887.789 587.065 883.496 588.68 879.068 590.082M879.068 590.082C873.055 594.302 866.649 598.078 866.487 595.326C866.449 594.677 866.5 593.996 866.63 593.29M879.068 590.082C875.055 591.352 870.931 592.447 866.63 593.29M866.63 593.29C866.486 593.319 866.342 593.346 866.197 593.374" stroke="black" stroke-opacity="0.21" stroke-width="14" stroke-linecap="round" stroke-linejoin="round"/>
<path d="M645.261 455.078C645.236 454.205 644.734 449.194 644.316 452.528C643.451 459.415 641.869 466.219 640.56 473.029C639.421 478.951 635.865 492.002 639.34 497.509C642.932 503.202 648.538 488.498 649.11 487.007C649.82 485.152 657.873 463.436 661.953 468.265C664.321 471.07 663.921 476.648 664.054 479.999C664.325 486.84 664.251 493.747 664.079 500.59C664.009 503.4 661.354 519.991 666.133 520.49C671.436 521.044 678.13 515.399 682.827 513.403C703.578 504.587 700.656 540.495 698.333 551.629C696.346 561.159 693.366 575.405 685.616 582.235C679.886 587.286 672.174 581.85 667.97 577.587C662.116 571.65 656.461 564.794 651.821 557.869C650.448 555.82 647.463 546.693 643.802 550.097C641.738 552.017 630.499 568.787 636.516 569.988C640.374 570.757 642.353 560.801 643.047 558.416C643.621 556.448 646.647 543.355 646.708 551.57C646.767 559.394 646.209 567.065 645.736 574.865C645.237 583.12 643.989 593.683 649.972 600.448C658.99 610.643 671.131 593.16 679.024 590.5C692.067 586.105 683.525 614.213 682.224 618.682C679.651 627.523 676.869 636.127 673.536 644.71C671.888 648.953 671.564 650.385 675.801 647.57C692.907 636.204 702.044 620.725 708.17 601.363C711.062 592.222 713.864 582.915 716.331 573.649C717.277 570.096 718.167 566.711 718.04 563.014C717.619 550.726 714.477 588.113 717.985 599.898C719.199 603.978 721.674 609.657 723.785 602.768C726.799 592.929 728.432 582.533 730.518 572.472C731.729 566.629 735.125 559.276 734.785 553.224C734.69 551.533 723.437 560.594 722.558 561.274C715.09 567.057 708.807 573.472 703.418 581.239C699.504 586.879 698.681 584.846 698.641 578.977C698.568 568.25 700.447 557.883 703.59 547.62C706.169 539.198 710.173 527.069 717.65 521.6C722.029 518.398 731.606 514.799 737.116 515.993C738.955 516.392 736.494 507.982 736.295 507.247C733.553 497.115 728.065 492.493 720.109 486.314C714.669 482.089 710.076 476.42 705.417 471.352C701.797 467.413 701.812 462.991 701.812 457.845C701.812 444.569 707.272 431.678 707.069 418.262C706.947 410.169 695.902 419.468 694.475 421.227C687.884 429.355 682.458 439.778 681.23 450.26C680.839 453.593 681.214 462.306 687.008 459.685C692.176 457.347 695.386 449.309 698.605 444.981C701.51 441.075 704.876 437.11 708.933 434.333C709.465 433.969 711.25 432.056 711.993 432.644C714.376 434.53 714.279 444.335 714.953 447.186C719.021 464.366 726.012 479.613 720.719 497.556C718.045 506.622 714.83 517.011 703.677 517.205C697.38 517.314 695.683 512.157 694.248 506.699C691.091 494.683 688.5 481.738 690.62 469.298C692.224 459.886 694.877 450.393 699.088 441.802C700.289 439.351 702.798 436.453 703.501 433.823C705.992 424.499 698.051 439.303 697.18 441.002C692.731 449.683 688.986 458.635 688.519 468.524C688.17 475.907 690.588 489.112 698.499 492.371C703.609 494.477 709.111 493.893 714.226 496.559C719.602 499.361 722.237 503.34 723.625 509.144C726.128 519.613 723.377 533.45 714.092 540.01C695.707 552.999 686.475 516.841 684.069 505.307C682.072 495.731 681.326 463.904 664.619 477.024C656.993 483.014 638.084 503.479 645.102 514.338C652.795 526.242 671.78 518.521 681.282 527.533C692.606 538.272 682.647 559.874 675.701 569.965C672.103 575.192 667.006 586.208 659.844 587.24C651.476 588.445 647.996 576.772 644.989 571.064C642.116 565.609 638.769 560.389 636.149 554.804C634.378 551.028 633.482 546.491 631.144 543.016C629.775 540.981 627.671 541.779 626.59 543.55C621.102 552.544 625.826 568.104 627.223 577.732C627.665 580.78 631.583 598.314 634.596 587.165C635.355 584.358 635.751 581.478 636.452 578.663C637.251 575.457 636.859 585.287 637.587 588.509C640.184 600.002 647.705 608.934 659.931 608.781C666.563 608.698 672.143 602.463 677.257 598.938C682.851 595.084 688.879 592.048 695.094 589.326C697.117 588.441 703.074 585.698 705.089 587.862C708.2 591.203 706.663 599.037 705.322 602.731C702.52 610.448 696.601 617.072 691.604 623.449C686.179 630.372 678.889 635.51 673.536 642.37C670.397 646.392 668.754 650.541 669.911 655.454C671.923 663.991 681.457 648.465 682.671 646.736C691.215 634.568 696.189 624.806 697.448 609.644C698.694 594.65 699.962 580.362 704.932 566.061C706.012 562.954 707.886 558.018 711.342 556.778C714.364 555.694 717.353 557.693 720.317 557.018C724.723 556.015 725.972 545.281 726.801 541.882C728.875 533.375 729.901 524.946 729.55 516.165C729.089 504.624 724.623 493.797 723.92 482.394C723.363 473.36 721.026 466.159 718.458 457.612C716.635 451.541 717.473 445.16 715.878 439.06C715.139 436.237 719.184 430.004 720.834 435.61C726.193 453.819 732.802 472.779 733.098 491.895C733.217 499.57 730.501 513.809 739.821 517.034C746.209 519.245 751.495 511.136 756.432 512.967C763.126 515.449 746.265 524.79 745.579 525.058" stroke="#1FDE3D" stroke-opacity="0.66" stroke-width="9" stroke-linecap="round" stroke-linejoin="round"/>
<path d="M1338.03 776.125L1326.31 770.266M141.155 678.882C142.124 672.972 143.004 667.073 143.542 661.107M147.145 640.263C149.288 633.936 149.867 632.338 148.359 639.977C147.497 644.346 146.656 648.715 145.837 653.087M145.837 653.087C142.565 670.545 139.645 688.039 137.174 705.658C134.946 721.542 131.419 737.383 128.492 753.254M145.837 653.087C134.641 674.629 133.626 702.999 131.018 726.445C130.027 735.352 129.254 744.301 128.492 753.254M145.837 653.087C145.977 652.816 146.12 652.547 146.264 652.278C147.786 649.438 148.005 651.087 147.761 653.437C146.842 662.295 143.925 671.133 142.417 679.923C137.479 708.708 135.941 737.946 132.673 766.939M128.492 753.254C126.768 762.604 125.252 771.965 124.333 781.352C124.181 782.904 123.59 799.707 124.343 794.179C126.19 780.617 127.328 766.931 128.492 753.254ZM160.699 646.944C159.841 646.944 149.337 644.962 153.277 642.184C156.386 639.993 162.833 640.15 166.399 639.253C185.385 634.475 203.257 625.968 222.43 621.86C235.734 619.01 249.304 617.644 262.767 615.638M262.767 615.638C266.835 615.032 270.893 614.368 274.931 613.587C280.65 612.48 297.58 608.569 292.176 610.746C283.05 614.422 272.971 615.24 262.767 615.638ZM262.767 615.638C251.856 616.064 240.804 616.011 230.625 618.46M163.768 689.27C168.785 683.572 172.128 675.846 174.772 668.902C179.743 655.846 173.998 678.52 173.464 681.668C168.505 710.855 164.372 741.475 163.815 771.107C163.668 778.933 165.721 786.281 166.725 774.04C166.962 771.158 167.189 768.276 167.411 765.393M167.411 765.393C168.682 748.888 169.753 732.356 171.053 715.852M167.411 765.393C168.047 748.827 169.001 732.286 171.053 715.852M167.411 765.393C167.368 766.536 167.325 767.68 167.284 768.824M171.053 715.852C171.614 708.717 172.219 701.589 172.9 694.469C174.679 675.877 174.536 693.398 173.294 700.638C172.427 705.698 171.687 710.77 171.053 715.852ZM171.994 666.526C171.994 662.594 174.075 662.066 177.894 662.066C184.572 662.066 191.2 662.792 197.883 662.828C210.394 662.896 222.448 659.875 234.604 657.226C245.993 654.744 257.177 654.085 268.496 652.276C269.077 652.183 269.843 651.838 270.629 651.354M270.629 651.354C273.479 649.601 276.595 646.03 272.083 646.103C266.02 646.2 259.848 650.425 253.815 651.673C249.487 652.568 262.678 652.132 267.071 651.655C268.214 651.531 269.406 651.437 270.629 651.354ZM270.629 651.354C276.183 650.979 282.353 650.854 287.337 649.359M273.462 661.459C273.4 659.591 272.193 657.582 271.634 655.802C270.171 651.138 274.428 665.169 275.733 669.879C276.617 673.068 277.554 676.272 278.525 679.488M278.525 679.488C279.324 682.138 280.147 684.796 280.982 687.462M278.525 679.488C278.641 675.064 279.639 679.75 280.982 687.462M278.525 679.488C278.517 679.774 278.513 680.098 278.513 680.463C278.513 697.476 284.145 714.787 288.765 730.996C289.987 735.286 291.431 739.59 292.952 743.906M280.982 687.462C288.271 710.739 296.494 734.604 298.563 758.467C298.613 759.041 298.644 759.521 298.656 759.911M280.982 687.462C282.704 697.356 284.994 712.229 286.716 719.24C288.081 724.795 290.587 734.962 292.952 743.906M298.656 759.911C298.811 764.905 295.998 755.419 292.952 743.906M298.656 759.911C296.818 754.56 294.827 749.223 292.952 743.906M298.656 759.911C300.916 766.495 302.945 773.101 304.237 779.727M325.741 783.418C326.705 784.924 327.191 790.371 327.191 788.583C327.191 782.725 324.42 776.368 322.893 770.807C318.881 756.202 314.325 741.666 309.604 727.275C297.201 689.462 286.83 651.929 277.547 613.291C269.621 580.297 263.556 546.577 257.904 513.149C253.461 486.869 249.694 460.665 247.748 434.136M247.748 434.136C247.432 429.838 247.165 425.532 246.95 421.215C246.206 406.278 248.357 391.092 244.537 376.727C243.622 373.287 242.782 370.18 241.645 366.867C238.684 358.231 240.333 370.658 240.689 373.697C243.029 393.687 244.875 414.024 247.748 434.136ZM247.748 434.136C249.713 447.894 252.159 461.547 255.573 474.911C265.521 513.852 273.243 553.248 283.039 592.183C291.174 624.518 294.207 657.768 302.991 689.967C309.141 712.512 312.09 736.117 319.476 758.275M439.784 690.038C439.724 687.915 437.999 677.714 440.192 685.813C443.301 697.29 446.182 708.851 448.967 720.442M448.967 720.442C452.592 735.532 456.052 750.671 459.63 765.736C464.052 784.347 448.455 729.062 444.969 710.254C444.493 707.686 440.506 692.027 443.149 701.689C444.872 707.987 446.965 714.211 448.967 720.442ZM448.967 720.442C449.488 722.065 450.003 723.689 450.504 725.315M441.68 688.328C441.676 688.328 441.672 688.328 441.668 688.328M441.668 688.328C441.102 688.329 441.236 688.355 441.668 688.328ZM441.668 688.328C442.238 688.293 443.326 688.164 444.007 687.759C452.426 682.754 461.147 679.872 470.89 678.599C479.289 677.502 492.489 679.948 498.177 671.753C499.542 669.786 499.096 671.053 499.096 672.983C499.096 684.465 499.72 695.699 501.427 707.087C503.855 723.286 508.312 739.053 511.028 755.167C512.238 762.346 510.67 749.286 510.498 747.981M497.284 675.189C497.284 682.97 498.368 690.097 500.015 697.77C503.952 716.122 506.168 736.536 513.055 754.072M516.827 584.814C516.827 580.364 517.259 584.754 517.725 590.179M517.725 590.179C518.143 595.043 518.589 600.74 518.776 601.645C521.932 616.91 524.862 633.711 530.747 648.207C532.699 653.018 532.151 643.537 531.992 642.624C531.905 642.119 531.807 641.59 531.699 641.039M517.725 590.179C519.845 597.799 523.255 609.041 526.263 619.671M517.725 590.179C515.323 581.548 514.576 577.567 517.94 584.395C522.453 593.554 523.405 605.391 525.499 615.259C525.786 616.61 526.03 618.099 526.263 619.671M531.699 641.039C530.619 635.525 528.558 627.776 526.263 619.671M531.699 641.039C528.154 635.655 527.323 626.812 526.263 619.671M531.699 641.039C531.714 641.063 531.73 641.087 531.746 641.11M519.237 587.642C516.233 588.356 516.462 587.643 519.283 587.047C524.84 585.874 530.338 584.682 535.836 583.213C538.706 582.446 560.029 572.958 562.141 575.56C562.53 576.039 561.636 576.745 561.7 577.36C563.049 590.313 565.912 603.817 569.149 616.39C570.481 621.564 574.702 636.75 574.755 631.407C574.822 624.71 573.558 618.263 572.539 611.666M565.676 583.518C565.05 582.612 563.41 581.684 563.286 583.319C562.549 593.071 567.278 604.268 570.354 613.269C572.344 619.097 574.718 624.772 577.035 630.468M577.035 630.468C578.114 633.121 579.181 635.779 580.191 638.458C580.863 640.241 579.47 634.716 579.124 632.842C578.827 631.236 578.065 630.558 577.035 630.468ZM577.035 630.468C573.881 630.193 568.217 635.435 565.737 636.43C558.862 639.187 550.743 640.346 543.337 640.162C541.45 640.115 540.27 636.045 542.36 635.627M538.418 588.33C538.418 587.131 538.367 583.533 538.422 584.731C538.872 594.473 544.397 606.087 547.081 615.372C547.78 617.789 553.734 647.206 556.275 647.376C557.602 647.465 553.877 633.663 553.592 632.703M533.281 616.654C532.705 616.685 529.345 618.109 530.315 618.109C535.018 618.109 539.694 617.818 544.385 617.496C549.708 617.131 572.965 617.664 572.965 609.621M327.531 610.038C327.531 608.547 327.272 607.039 327.996 609.485C330.624 618.376 333.145 627.224 335.37 636.232C338.204 647.71 341.334 659.321 345.668 670.344C345.74 670.526 345.776 670.244 345.786 669.647M345.786 669.647C345.827 666.969 345.314 657.948 344.862 655.896C341.997 642.895 337.22 630.302 332.702 617.807C328.742 606.854 334.105 623.927 334.83 626.528C338.658 640.269 342.281 654.073 345.426 667.988C345.543 668.506 345.663 669.065 345.786 669.647ZM345.786 669.647C347.152 676.139 348.744 685.436 348.439 672.952M332.668 613.905C323.082 613.905 337.468 610.663 339.801 610.234C353.547 607.703 365.56 601.204 379.441 603.774C382.492 604.339 382.938 596.084 383.091 596.328C388.808 605.459 389.2 621.276 391.431 631.431C393.699 641.756 395.03 653.392 400.245 662.85C401.302 664.768 404.371 668.892 404.727 670.658C406.332 678.612 387.33 666.629 385.122 665.74C375.931 662.04 367.514 661.844 357.974 660.55C356.365 660.332 351.53 658.789 355.984 659.396M359.245 611.764C358.865 611.009 355.991 606.964 357.108 609.868C361.729 621.887 365.057 634.087 368.314 646.549C370.221 653.843 375.783 663.615 375.783 671.25C375.783 677.559 372.168 659.159 370.306 653.131M347.075 639.225C335.512 639.225 356.532 640.679 358.871 640.578C369.142 640.136 379.388 639.225 389.676 639.225C391.978 639.225 398.611 640.502 400.548 639.049M307.647 442.331C307.647 442.212 307.653 442.048 307.662 441.849M307.662 441.849C307.734 440.248 307.982 436.387 306.605 435.91C306.589 435.905 307.024 438.339 307.662 441.849ZM307.662 441.849C309.227 450.459 312.016 465.543 312.371 466.968C314.993 477.473 317.798 487.909 320.93 498.273C321.444 499.973 322.681 502.27 322.48 504.129C322.344 505.396 319.725 502.298 319.65 502.135C317.678 497.809 316.999 492.978 316.214 488.333M310.312 443.194C298.875 443.194 327.956 438.969 329.585 438.503C338.88 435.846 347.178 431.174 356.998 431.174C358.845 431.174 360.357 431.91 360.524 429.879M365.404 423.357C358.913 423.357 368.873 452.58 369.746 455.8C372.118 464.558 374.988 473.103 377.687 481.755C377.881 482.379 379.431 489.364 379.811 486.447M327.361 500.863C326.499 500.863 322.981 501.488 325.779 501.81C334.068 502.766 342.566 501.002 350.387 498.37C358.398 495.674 366.611 490.825 375.233 490.825C378.369 490.825 378.702 491.089 378.702 487.645M334.905 438.557C330.363 433.884 337.877 459.576 338.345 461.533C340.663 471.231 343.311 480.812 346.488 490.261C346.72 490.953 348.815 497.288 349.568 494.694M326.168 476.409C325.162 476.417 320.357 477.693 322.215 477.06C327.749 475.175 332.837 472.615 338.697 471.66C352.077 469.478 365.948 473.58 377.658 465.332M476.889 432.371C476.865 430.313 475.951 428.43 475.951 426.338C475.951 424.228 476.845 430.466 477.43 432.493C479.657 440.207 482.757 447.675 485.524 455.203C488.869 464.303 490.512 477.573 496.072 485.663C496.631 486.475 496.267 483.926 495.895 482.159M495.895 482.159C495.654 481.014 495.409 480.198 495.409 480.836C495.409 481.648 495.585 482.041 495.895 482.159ZM495.895 482.159C496.417 482.358 497.318 481.778 498.4 481.105C507.782 475.272 519.508 471.05 530.514 469.945C533.401 469.655 536.414 469.558 539.315 469.728C539.779 469.755 541.252 470.361 541.252 469.79M534.219 411.354C534.219 420.64 536.281 431.094 538.082 441.004C539.769 450.29 541.303 459.71 544.2 468.714C545.476 472.681 545.024 466.549 545.024 465.412M471.752 425.084C462.536 434.635 496.395 431.35 500.356 431.35C510.481 431.35 521.256 432.472 531.022 429.195C531.594 429.003 534.921 427.042 532.684 427.402M505.084 423.357C504.57 422.707 502.978 421.097 503.834 422.946C506.963 429.705 508.61 437.121 510.218 444.364L510.227 444.402C512.061 452.663 513.374 461.132 515.842 469.239C516.397 471.06 517.771 474.729 518.809 471.166M492.574 452.209C484.112 452.209 501.601 448.169 503.015 447.847C512.622 445.656 522.626 445.433 532.438 445.415C535.347 445.41 542.685 446.89 544.683 443.961M569.959 349.109C569.959 345.359 569.669 333.01 566.679 330.747C565.936 330.185 566.102 333.32 566.102 333.559C566.102 338.521 566.383 343.329 566.888 348.269C569.153 370.451 571.899 392.587 575.351 414.615C580.308 446.245 584.841 478.313 591.321 509.691C596.33 533.945 596.483 560.303 604.709 583.694C611.596 603.279 613.438 623.404 618.206 643.451C621.549 657.511 621.226 671.78 625.574 685.784C629.844 699.538 632.156 715.123 635.038 729.294C636.737 737.651 637.933 746.064 640.396 754.257C640.973 756.174 647.494 770.359 645.106 763.165M172.165 377.865C170.792 377.865 167.958 377.074 167.242 375.626C165.527 372.16 175.901 371.984 177.17 371.909C211.553 369.861 245.939 367.249 280.276 364.526C330.97 360.505 381.118 352.12 431.696 347.056C439.262 346.298 446.825 345.625 454.388 345.013M454.388 345.013C475.808 343.281 497.225 342.048 518.681 340.82M454.388 345.013C431.467 348.078 408.616 351.568 385.682 354.602M454.388 345.013C465.006 343.593 475.639 342.265 486.302 341.116C513.538 338.18 540.822 335.561 567.989 332.015C583.86 329.944 599.617 327.288 615.457 325.064C621.148 324.265 626.936 323.562 632.687 323.38C633.624 323.35 627.449 324.421 626.182 324.83M518.681 340.82C524.794 340.471 530.91 340.122 537.03 339.762C542.059 339.466 548.113 339.809 552.995 338.304C557.216 337.003 544.143 338.243 539.749 338.693C532.726 339.413 525.703 340.12 518.681 340.82ZM518.681 340.82C474.295 345.249 429.946 349.408 385.682 354.602M385.682 354.602C378.501 355.444 371.323 356.314 364.148 357.217M385.682 354.602C383.099 354.944 380.516 355.279 377.931 355.608C373.338 356.192 368.744 356.723 364.148 357.217M364.148 357.217C346.847 359.392 329.561 361.759 312.292 364.394C285.932 368.417 259.727 371.284 233.153 371.849M364.148 357.217C331.314 360.739 298.413 362.319 265.686 367.458C254.929 369.147 244.058 370.76 233.153 371.849M233.153 371.849C229.984 371.917 226.81 371.951 223.629 371.951C221.619 371.951 198.271 373.205 207.015 373.23C215.722 373.255 224.448 372.719 233.153 371.849ZM183.423 376.331C183.265 381.787 180.607 379.716 184.368 372.672C200.709 342.066 219.061 312.856 237.685 283.609C268.01 235.984 296.889 188.032 328.629 141.272C353.535 104.581 381.679 69.5719 405.352 32.1064C407.609 28.5338 417.503 2.11618 413.99 7.79733C390.585 45.6485 367.831 82.7076 341.033 118.465C297.802 176.147 258.5 235.204 220.284 296.229C207.569 316.534 196.617 337.371 185.274 358.425C182.393 363.772 175.43 380.441 176.697 374.501M424.011 69.3927C418.799 59.6155 411.44 51.1685 406.159 41.4435C403.482 36.5138 400.732 19.9042 400.732 25.5138C400.732 34.3033 406.189 43.7477 409.938 51.3518C421.174 74.1449 432.813 96.8347 445.132 119.056C461.11 147.879 477.354 176.477 494.409 204.548M494.409 204.548C504.983 221.953 515.87 239.155 527.198 256.082M494.409 204.548C504.425 222.155 515.544 239.322 527.198 256.082M494.409 204.548C485.943 189.668 478.265 174.474 471.717 158.945C467.041 147.857 462.394 136.569 457.41 125.407M527.198 256.082C538.725 273.306 550.71 290.245 563.289 306.824C570.101 315.802 576.264 326.806 584.89 334.228C587.312 336.312 575.046 320.675 573.243 318.323C557.809 298.192 542.068 277.468 527.198 256.082ZM457.41 125.407C449.168 106.95 440.004 88.8373 428.258 72.5406C424.013 66.6504 435.504 85.1291 438.863 91.5659C444.811 102.962 451.036 114.224 457.41 125.407ZM457.41 125.407C466.36 141.11 475.602 156.658 484.773 172.202C518.755 229.795 555.834 284.54 593.405 339.688M198.302 687.386C196.597 687.386 194.487 688.615 193.368 688.615C191.758 688.615 193.623 686.088 193.952 685.807C197.792 682.537 203.226 680.846 208.14 680.183C212.695 679.568 218.109 682.255 222.013 680.714C228.328 678.223 235.514 678.477 242.114 677.5M230.933 705.873C230.933 708.738 230.192 708.554 230.573 705.786C231.267 700.753 241.324 697.29 245.4 696.534C255.228 694.713 264.546 697.829 274.212 697.829M183.978 732.874C183.183 733.037 176.909 735.194 178.354 734.335C184.139 730.894 191.273 729.213 197.879 728.427C203.915 727.708 213.386 725.499 218.989 729.046M238.591 723.602C226.423 723.602 262.653 719.145 274.821 719.145M200.76 751.133C197.207 751.133 181.686 751.64 192.741 750.365C210.119 748.362 227.559 746.969 244.805 743.885C253.552 742.321 262.314 741.06 270.992 739.09M693.399 766.719C693.015 766.676 692.674 766.273 692.369 765.616M692.369 765.616C690.692 762 690.143 750.684 689.985 749.383C687.485 728.877 681.046 709.153 678.668 688.659C676.365 668.816 675.364 648.495 675.572 628.163M692.369 765.616C692.868 765.199 693.295 763.97 693.572 761.778C695.137 749.408 690.539 735.07 687.849 723.178C682.969 701.603 680.522 677.865 680.522 655.789C680.522 623.622 683.129 592.277 687.075 560.33C688.209 551.142 689.524 541.952 690.398 532.73M692.369 765.616C691.585 766.272 690.623 764.928 689.782 762.171C684.003 743.248 681.598 723.523 679.078 703.968C675.859 678.986 671.977 654.26 675.448 629.066C675.49 628.765 675.531 628.464 675.572 628.163M675.572 628.163C675.806 605.408 677.555 582.639 680.691 560.513C682.413 548.366 685.688 536.411 687.832 524.323C688.338 521.472 689.475 523.286 690.772 522.045C692.51 520.384 690.9 526.862 690.704 529.258C690.61 530.416 690.507 531.573 690.398 532.73M675.572 628.163C679.145 601.991 681.339 575.474 686.842 549.609L686.901 549.328C688.08 543.791 689.256 538.262 690.398 532.73M690.398 532.73C692.842 520.89 695.129 509.035 696.94 497.055C697.108 495.943 697.537 489.717 698.887 489.053C701.732 487.653 698.262 495.365 697.913 498.517M690.408 553.221C687.123 553.466 684.592 555.477 687.739 552.521C692.951 547.624 701.087 544.986 707.285 541.619C713.667 538.152 721.03 535.566 727.104 531.609C731.035 529.048 734.619 520.112 739.42 519.848M677.912 586.824C669.177 586.824 695.153 583.999 703.809 582.826C712.261 581.68 720.852 577.9 729.077 575.623M658.007 568.093C652.285 563.235 647.364 559.597 653.551 568.771C660.394 578.917 668.047 589.906 677.455 597.781M657.549 482.488C652.152 482.488 659.676 491.737 660.916 493.938C668.552 507.485 676.62 520.638 685.589 533.349M675.398 664.228C677.014 666.986 670.062 662.534 669.239 662.106C659.334 656.948 645.132 650.403 638.786 641.002C634.05 633.983 630.344 622.059 640.399 617.373C646.405 614.574 654.841 618.839 655.778 625.397M672.026 638.369C672.19 638.412 673.641 641.845 670.09 639.589C659.938 633.139 649.397 626.589 641.288 617.601C628.711 603.664 616.828 589.845 609.527 572.311C606.115 564.118 605.402 557.874 608.098 549.572C610.512 542.138 610.83 532.363 620.356 532.51C626.978 532.612 633.933 531.204 640.407 531.769C644.7 532.144 653.72 539.475 657.549 536.263M657.092 539.563C657.092 537.241 650.337 538.801 648.502 538.091C626.612 529.624 622.246 496.523 622.084 476.388C621.995 465.289 626.281 431.95 641.008 431.42C649.488 431.115 660.084 442.197 666.054 447.478C672.259 452.965 674.059 460.619 679.379 466.373M677.608 461.93C677.608 465.304 674.935 463.28 674.56 461.071C672.492 448.914 671.503 434.559 673.478 422.443C674.629 415.387 679.017 411.226 683.902 406.227C691.682 398.264 701.868 402.279 709.375 408.25C722.888 419.001 733.574 430.529 740.459 446.539C741.711 449.449 745.084 456.587 741.709 459.071C738.865 461.165 729.078 462.606 728.696 466.83M728.163 466.215C720.337 467.821 730.382 464.29 734.259 464.907C752.497 467.811 761.878 486.709 766.376 502.616C769.155 512.447 768.124 522.219 761.777 530.433C758.264 534.978 752.732 537.3 748.095 540.475C745.632 542.162 743.218 543.761 740.551 545.109C739.675 545.552 737.017 546.31 737.973 546.534M735.896 549.764C735.82 549.69 726.09 545.098 731.805 545.898C744.524 547.679 754.693 563.962 756.16 575.497C757.442 585.574 758.11 602.257 751.216 610.458C746.462 616.113 734.98 614.443 728.434 615.203C726.531 615.423 714.68 615.529 713.762 618.111M715.534 615.354C713.978 615.475 712.467 616.108 712.467 617.808C712.467 626.206 717.819 634.109 717.819 642.852C717.819 646.977 714.296 648.401 711.235 650.665C706.1 654.463 701.717 659.159 696.749 663.163C693.094 666.109 689.052 669.021 684.211 669.195C682.138 669.27 678.829 668.905 680.827 666.142M738.659 653.326H739.193M733.535 639.983C733.118 635.455 731.771 630.853 731.12 626.318C730.048 618.841 732.713 631.092 733.004 632.665C739.085 665.554 743.247 698.571 752.162 730.906C753.283 734.974 758.925 759.725 756.127 742.317M735.972 650.256C733.456 650.256 733.062 651.394 733.228 653.934C733.499 658.077 735.476 662.415 736.613 666.363C740.252 679.001 743.171 691.848 745.804 704.729C748.264 716.77 749.981 729.101 753.278 740.952C754.288 744.583 755.398 748.325 757.802 751.291M826.74 675.271C826.612 673.89 826.524 666.172 827.35 671.668C829.701 687.315 830.914 703.084 833.534 718.724C835.048 727.76 838.76 738.164 838.76 747.367C838.76 758.214 833.206 726.347 831.665 715.611C829.458 700.225 824.69 684.917 823.995 669.364C823.904 667.321 823.567 668.814 824.932 668.895C832.058 669.319 839.251 669.148 846.396 669.513C850.968 669.747 854.626 669.414 858.24 666.419C858.725 666.016 859.82 664.726 860.632 665.158C861.479 665.607 861.652 670.632 861.733 671.318C863.355 685.143 864.043 699.074 865.659 712.908C867.168 725.821 868.923 738.631 869.162 751.641C869.305 759.408 869.81 759.231 870.095 751.29M891.068 663.37C890.879 662.356 888.767 658.018 888.786 658.331C889.04 662.467 891.234 667.263 891.98 671.412C894.611 686.031 895.131 700.935 896.787 715.676C897.204 719.389 897.035 730.519 902.726 725.36M891.145 666.828C891.145 664.153 897.397 667.136 899.778 667.563C922.252 671.599 945.912 671.084 968.68 671.545C981.384 671.803 995.643 669.262 1008.17 671.586C1009.57 671.845 1012.26 668.024 1010.87 668.286M1011.09 672.499C1009.99 668.809 1008.03 667.989 1006.04 666.037M1006.04 666.037C1005.67 665.669 1005.3 665.262 1004.93 664.788C1004.5 664.235 1004.63 660.864 1005.26 661.414C1005.92 661.983 1006.07 663.929 1006.04 666.037ZM1006.04 666.037C1006.01 668.568 1005.73 671.334 1005.76 672.23C1006.07 681.947 1006.62 691.646 1007.07 701.357C1007.14 702.965 1006.17 725.211 1007.72 725.746M905.85 727.747C901.985 725.593 902.427 721.446 897.321 721.446C885.814 721.446 920.282 719.532 931.79 719.532C946.555 719.532 960.735 716.35 975.42 715.673C981.335 715.4 991.083 713.891 996.017 718.413C998.528 720.715 997.882 723.083 1002.29 720.375M738.506 637.068C737.738 639.303 736.202 638.47 737.821 637.826M738.583 629.24C737.229 628.732 735.951 626.469 736.049 625.041C736.222 622.532 746.754 623.195 748.202 623.186C767.869 623.067 787.488 624.512 807.144 625.093M807.144 625.093C813.394 625.278 819.649 625.376 825.91 625.308C845.669 625.095 865.347 623.4 885.131 623.411C906.776 623.422 928.48 624.44 950.112 623.426C984.009 621.835 1017.63 616.867 1051.48 614.697C1055.87 614.415 1060.32 613.68 1064.72 613.602M807.144 625.093C822.486 621.47 839.048 623.096 854.666 623.096C891.442 623.096 927.935 621.191 964.601 618.406C993.608 616.202 1022.59 614.789 1051.65 613.758C1054.65 613.651 1061.54 613.615 1064.72 613.602M807.144 625.093C803.054 626.059 799.052 627.398 795.177 629.24M1064.72 613.602C1064.97 613.598 1065.22 613.596 1065.46 613.596C1067.07 613.596 1066.43 613.596 1064.72 613.602ZM745.402 628.011C741.305 631.28 737.963 635.256 733.717 638.408C732.504 639.309 725.24 645.919 730.311 642.338C755.997 624.202 778.949 601.819 803.814 582.554C813.262 575.234 822.988 567.781 833.027 560.658M833.027 560.658C833.251 560.499 833.475 560.34 833.7 560.181M833.027 560.658C833.475 560.379 833.923 560.1 834.372 559.821M833.027 560.658C814.228 572.361 795.598 584.349 776.554 595.656C770.81 599.067 764.999 603.252 758.867 605.935C756.103 607.145 766.03 601.127 767.249 600.377C789.253 586.839 810.923 572.412 833.7 560.181M833.7 560.181C849.841 548.769 866.794 538.233 884.706 530.488M833.7 560.181C833.924 560.061 834.147 559.941 834.372 559.821M884.706 530.488C888.452 528.868 892.239 527.37 896.071 526.012C901.419 524.116 894.592 525.614 892.882 526.427C890.138 527.733 887.413 529.09 884.706 530.488ZM884.706 530.488C877.915 533.993 871.233 537.751 864.64 541.566C854.44 547.467 844.38 553.601 834.372 559.821M834.372 559.821C845.81 553.707 857.53 548.153 869.715 543.548M915.279 536.178C910.159 531.205 904.127 527.236 898.583 522.755C897.837 522.152 896.534 520.773 895.147 519.536M895.147 519.536C893.736 518.276 892.238 517.162 891.153 517.162C889.269 517.162 892.324 518.33 895.147 519.536ZM895.147 519.536C896.408 520.074 897.623 520.62 898.332 521.073C909.834 528.429 920.659 537.027 931.335 545.511C956.534 565.537 981.342 585.176 1007.69 603.524M1007.69 603.524C1009.81 605.004 1011.94 606.475 1014.09 607.937C1018.38 610.859 1022.67 613.75 1027.03 616.565C1027.41 616.811 1020.49 613.063 1018.96 611.958C1015.17 609.216 1011.41 606.401 1007.69 603.524ZM1007.69 603.524C985.047 586.033 963.698 566.231 943.393 546.38C942.784 545.784 921.604 525.054 921.811 524.875C923.746 523.197 972.543 564.41 976.032 566.956C992.429 578.917 1009.26 590.234 1027.03 600.072C1033.21 603.494 1039.83 608.761 1046.64 610.825M1047.48 628.083C1047.42 624.438 1045.88 621.087 1045.01 617.577M1045.01 617.577C1044.74 616.502 1044.53 615.411 1044.45 614.293C1044.42 613.857 1044.69 609.492 1044.79 611.052C1044.94 613.219 1045 615.395 1045.01 617.577ZM1045.01 617.577C1045.01 625.245 1044.23 632.992 1043.44 640.679M1043.44 640.679C1042.98 645.189 1042.51 649.678 1042.19 654.118C1042.17 654.402 1042.15 654.686 1042.13 654.971M1043.44 640.679C1043.29 640.297 1043.1 639.981 1042.87 639.751C1042.2 639.093 1042.02 649.841 1042.03 650.589C1042.05 652.051 1042.09 653.511 1042.13 654.971M1043.44 640.679C1044.54 643.504 1043.5 649.929 1043.5 652.016C1043.5 660.946 1043.49 669.872 1043.34 678.801M1042.13 654.971C1039.79 687.752 1038.35 720.659 1038.35 753.527C1038.35 761.537 1042.35 774.291 1044.32 759.004C1047.23 736.407 1046.08 712.196 1044.18 689.582C1043.21 678.031 1042.44 666.54 1042.13 654.971ZM1050.9 644.428C1050.88 644.426 1045.9 640.601 1047.97 641.205C1055.04 643.271 1064.57 641.838 1071.71 641.422C1077.49 641.085 1083.27 640.709 1089.05 640.324M1089.05 640.324C1106.05 639.192 1123.05 637.977 1140.07 637.404C1148.1 637.134 1156.34 636.743 1164.68 636.417M1089.05 640.324C1130.49 641.081 1171.78 643.813 1213.27 643.813C1222.47 643.813 1232.24 644.688 1241.39 643.334C1243.9 642.962 1244.99 642.147 1243.46 641.387M1089.05 640.324C1087.54 640.297 1086.03 640.272 1084.52 640.25C1071.77 640.063 1058.6 641.271 1045.94 639.513C1041.11 638.844 1054.31 638.782 1055.15 638.749C1091.68 637.282 1128.15 635.58 1164.68 636.417M1164.68 636.417C1190.5 635.408 1217.27 635.026 1241.74 640.816C1242.5 640.997 1243.07 641.19 1243.46 641.387M1164.68 636.417C1171.19 636.566 1177.7 636.796 1184.22 637.123C1203.9 638.109 1223.71 639.976 1243.46 641.387M1243.46 641.387C1253.88 642.131 1264.27 642.748 1274.63 643.042M1266.67 640.514C1266.46 639.834 1266.29 639.29 1266.15 638.865M1266.15 638.865C1265.57 636.969 1265.73 637.456 1266.15 638.865ZM1266.15 638.865C1266.38 639.633 1266.69 640.675 1266.99 641.754C1268.69 647.869 1269.67 654.204 1270.22 660.622M1270.22 660.622C1271.24 672.472 1270.81 684.607 1270.8 696.173C1270.79 711.274 1269.22 746.418 1268.5 761.623M1270.22 660.622C1270.11 661.411 1270.03 662.07 1269.96 662.463C1264.43 695.085 1269.8 728.695 1268.5 761.623M1270.22 660.622C1270.59 658.018 1271.31 654.007 1273.05 653.542C1273.83 653.332 1273.97 663.032 1273.98 663.625C1274.45 687.459 1274.86 711.279 1275.7 735.105M1268.5 761.623C1268.38 764.238 1268.28 766.264 1268.22 767.496M1268.5 761.623C1268.47 762.51 1268.43 763.396 1268.38 764.282C1268.31 765.694 1268.26 766.754 1268.22 767.496M1268.22 767.496C1268.14 769.206 1268.13 769.387 1268.22 767.496ZM1246.99 685.701C1246.95 679.017 1245.53 672.382 1247.07 665.738C1248.74 658.501 1247.91 680.574 1248.59 687.971C1250.72 710.868 1251.87 734.022 1255.7 756.696C1256.37 760.665 1256.71 763.277 1256.71 757.609C1256.71 749.203 1255.89 740.975 1254.8 732.647M1166.19 680.402C1166.19 679.851 1165.03 673.788 1165.34 673.672C1166.98 673.057 1166.41 684.832 1166.41 685.423V744.289C1166.41 746.346 1164.5 766.191 1167.18 759.65M1172.83 675.958C1165.92 675.958 1167.13 673.176 1173.35 671.921C1181.54 670.267 1190.49 671.406 1198.72 671.945C1205.84 672.411 1212.97 672.401 1220.11 672.377M1220.11 672.377C1227.9 672.351 1235.69 672.307 1243.46 672.846C1245.65 672.998 1259.9 673.083 1261.08 675.524C1261.5 676.379 1248.35 676.951 1247.22 676.943C1238.09 676.88 1229.1 674.077 1220.11 672.377ZM1220.11 672.377C1218.79 672.129 1217.48 671.905 1216.17 671.716C1206.12 670.268 1195.89 670.252 1185.79 671.043M1051.51 699.046C1051.51 693.224 1055.89 687.793 1055.89 681.696C1055.89 680.772 1055.83 679.152 1056.71 678.527C1056.83 678.445 1056.21 681.254 1056.17 681.743C1055.6 687.784 1055.89 693.941 1055.89 699.997C1055.89 712.652 1056.05 725.305 1056.05 737.96C1056.05 744.153 1055.13 751.176 1056.14 757.334C1056.25 758.042 1057.81 744.507 1057.87 741.62M1137.92 674.644C1137.62 672.323 1136.56 670.166 1136.23 667.852C1135.15 660.5 1139.87 682.31 1140.64 689.7C1142.29 705.684 1142.16 721.898 1141.37 737.934C1141.32 738.841 1140.16 748.192 1141.82 747.905M1067.76 674.344C1065.55 675.985 1061.31 675.831 1058.61 676.572C1052.29 678.31 1071.47 673.898 1077.99 673.289C1100.7 671.169 1123.47 672.888 1146.14 669.907C1158.14 668.328 1145.94 673.118 1141.37 673.959M1077.09 692.759C1072.22 690.046 1080.86 693.649 1082.55 693.867C1087.12 694.455 1091.57 694.701 1096.19 694.674C1098.57 694.66 1106.18 693.268 1106.12 693.288M1113.55 690.915C1113.45 688.888 1112.15 688.448 1114.96 688.147C1120.31 687.574 1126.14 687.084 1131.48 687.772M1075.42 713.704C1075.36 714.23 1074.58 713.95 1074.31 714.119C1070.42 716.551 1083.42 712.984 1088 712.59C1099.87 711.567 1111.64 711.473 1123.44 710.318M1076.26 734.033C1076.26 734.941 1118.22 731.719 1127.42 731.719M1186.62 688.23C1185.63 688.23 1183.69 687.301 1185.99 687.301C1190.76 687.301 1195.44 687.629 1200.2 687.881C1208.07 688.297 1217.91 684.388 1225.16 687.387M1193.14 711.245C1193.65 713.146 1215.56 704.429 1217.81 703.877C1225.33 702.033 1233.36 700.959 1241.11 700.959C1245.03 700.959 1248.55 703.116 1252.57 703.116M1192.76 727.591C1184.46 727.591 1201.95 724.559 1203.38 724.362C1213.91 722.906 1222.99 725.433 1233.2 725.433M1219.56 737.79C1219.02 739.643 1217.73 739.467 1216.84 740.661C1216.75 740.78 1223.98 741.075 1224.7 741.038C1233.96 740.571 1243.09 737.318 1252.34 737.318M2.31326 799.94C-5.28228 799.94 22.4066 799.99 25.6903 799.766C74.2384 796.463 122.293 788.874 170.768 785.037C241.278 779.456 312.521 778.851 383.205 775.373C410.78 774.017 438.388 772.54 466.008 771.201M466.008 771.201C492.221 769.93 518.445 768.783 544.663 767.981M466.008 771.201C492.084 769.443 518.368 768.499 544.663 767.981M466.008 771.201C453.799 772.024 441.635 773.025 429.538 774.244C371.617 780.082 314.176 788.589 256.118 793.315C202.593 797.671 149.491 804.54 96.3232 812.001C87.9376 813.178 8.88509 825.469 9.95661 827.78M544.663 767.981C563.142 767.415 581.617 767.021 600.083 766.875C734.599 765.813 868.981 766.995 1003.33 773.499C1009.23 773.784 1015.12 774.054 1021.01 774.31M544.663 767.981C580.431 767.276 616.218 767.358 651.523 767.253C774.835 766.886 897.883 770.332 1021.01 774.31M1021.01 774.31C1069.42 776.414 1117.85 777.625 1166.26 779.38M1021.01 774.31C1058.48 775.521 1095.96 776.781 1133.46 777.997C1144.4 778.352 1155.33 778.826 1166.26 779.38M1166.26 779.38C1217.2 781.226 1268.1 783.675 1318.87 788.398M1166.26 779.38C1217.15 781.959 1267.96 786.273 1318.87 788.398M1318.87 788.398C1321.01 788.598 1323.15 788.801 1325.3 789.008L1326.01 789.078C1331.98 789.657 1337.89 790.23 1343.89 790.23C1350.66 790.23 1330.4 788.855 1323.64 788.591C1322.05 788.529 1320.46 788.465 1318.87 788.398Z" stroke="black" stroke-width="3" stroke-linecap="round" stroke-linejoin="round"/>
<path d="M663.564 663.094C663.564 663.941 664.434 667.337 664.132 667.86C663.522 668.92 656.69 663.609 656.357 663.348C647.488 656.4 639.486 647.521 633.647 637.881C633.044 636.886 628.457 629.091 630.891 627.902C633.608 626.575 637.767 628.421 640.18 629.545C647.799 633.095 655.366 639.303 664.126 639.303C669.665 639.303 657.564 634.314 657.041 633.963C651.389 630.177 644.981 625.86 640.024 621.166C633.525 615.013 631.683 605.791 625.629 599.285C613.291 586.025 606.689 566.835 606.022 548.946C605.35 530.926 620.187 526.845 635.065 525.872C643.644 525.31 647.701 534.396 654.313 538.394C654.656 538.601 662.007 542.033 662.331 541.331C663.493 538.81 656.713 537.142 655.498 536.662C646.485 533.1 641.226 526.271 636.358 518.338C628.101 504.884 622.014 486.619 621.819 470.662C621.723 462.745 620.364 451.941 626.053 445.501C629.861 441.189 636.111 434.983 641.761 433.467C654.535 430.04 663.754 447.359 669.708 455.575C671.779 458.433 673.203 461.572 674.817 464.686C675.259 465.539 676.438 467.023 675.398 465.414C672.29 460.606 670.09 456.429 668.457 450.775C663.288 432.886 669.65 414.517 686.242 405.021C692.061 401.691 699.549 396.761 706.405 400.127C714.825 404.261 719.593 410.427 724.701 418.13C729.532 425.416 735.617 430.576 738.809 438.949C740.7 443.907 741 448.519 741 453.747C741 460.861 733.881 465.179 727.429 465.467" stroke="#1FDE3D" stroke-opacity="0.66" stroke-width="9" stroke-linecap="round" stroke-linejoin="round"/>
<path d="M726.261 470.639C726.261 466.954 745.803 480.361 747.205 481.56C754.454 487.753 766.497 497.683 766.992 508.229C767.148 511.559 765.039 513.224 763.593 516.071C761.959 519.288 761.128 522.992 758.827 525.833C755.843 529.516 750.634 531.175 747.033 534.31C742.751 538.038 765.031 546.606 755.249 551.725C750.196 554.369 743.597 557.943 737.888 558.533C736.305 558.697 731.458 558.076 731.458 560.462C731.458 562.062 735.713 564.657 736.771 565.654C740.004 568.702 743.407 571.84 745.46 575.852C748.293 581.387 748.591 587.597 747.81 593.644C746.145 606.545 739.333 618.418 726.367 623.298C719.788 625.774 713.319 627.752 706.987 624.269C702.172 621.622 715.893 632.043 716.876 637.443C718.815 648.101 708.782 654.954 704.528 663.662C702.758 667.283 701.239 669.808 696.932 669.808C695.67 669.808 688 670.466 688 669.345" stroke="#1FDE3D" stroke-opacity="0.66" stroke-width="9" stroke-linecap="round" stroke-linejoin="round"/>
<path d="M449.827 692.662C449.827 692.448 449.475 691.211 449.475 691.863C449.475 696.574 451.415 701.863 452.369 706.452C452.982 709.4 453.393 712.427 454.147 715.343C454.336 716.078 454.908 718.378 454.908 716.289C454.908 711.837 453.399 706.877 452.204 702.63C451.188 699.021 450.793 695.273 449.724 691.691C449.529 691.037 448.568 689.419 449.229 689.957C450.414 690.921 451.914 691.211 453.431 690.794C455.686 690.176 458.231 688.828 458.822 691.614C460.02 697.261 461.109 702.601 462.933 708.071C463.505 709.789 464.771 712.468 464.717 714.365C464.707 714.723 457.892 713.899 457.343 713.899C455.69 713.899 453.637 714.799 456.452 714.799" stroke="black" stroke-width="3" stroke-linecap="round" stroke-linejoin="round"/>
<path d="M456.965 692.308C456.896 691.955 456.364 690.716 455.829 690.827C455.31 690.935 456.642 695.827 456.693 696.065C457.846 701.434 458.449 707.119 460.133 712.35C460.208 712.581 461.356 714.986 460.381 713.929" stroke="black" stroke-width="3" stroke-linecap="round" stroke-linejoin="round"/>
<path d="M455.26 705.39C455.26 705.568 454.715 705.777 455.468 705.279C457.027 704.249 458.613 703.64 460.445 703.266" stroke="black" stroke-width="3" stroke-linecap="round" stroke-linejoin="round"/>
<path d="M470.895 690.436C470.895 687.632 471.614 689.613 472.539 691.733C474.314 695.803 475.29 700.316 475.919 704.697C476.113 706.044 475.997 707.998 476.705 709.224C477.908 711.309 480.171 708.453 481.38 707.734C483.115 706.702 489.352 706.533 487.337 706.644C484.38 706.807 482.562 691.155 480.998 688.021C479.53 685.078 473.569 687.492 472.991 689.986" stroke="black" stroke-width="3" stroke-linecap="round" stroke-linejoin="round"/>
<path d="M476.655 687.862C476.61 687.787 476.033 687.603 476.017 687.723C475.737 689.795 477.415 692.434 478.055 694.307C479.407 698.262 480.574 702.287 481.622 706.332C481.905 707.425 482.656 710.025 481.871 707.418" stroke="black" stroke-width="3" stroke-linecap="round" stroke-linejoin="round"/>
<path d="M477.103 700.103C476.22 700.137 476.908 699.835 477.598 699.38C479.591 698.065 482.062 697.708 484.376 697.396" stroke="black" stroke-width="3" stroke-linecap="round" stroke-linejoin="round"/>
<path d="M488.048 712.735C488.048 709.576 486.821 714.471 487.658 715.504C488.712 716.805 488.976 714.033 488.976 713.492C488.976 711.565 487.083 712.29 486.824 713.797" stroke="black" stroke-width="3" stroke-linecap="round" stroke-linejoin="round"/>
<path d="M481.872 723.98C481.872 723.64 481.577 723.023 482.113 723.841C484.305 727.186 485.201 731.739 485.956 735.573C486.067 736.139 488.112 744.616 488.112 742.738" stroke="black" stroke-width="3" stroke-linecap="round" stroke-linejoin="round"/>
<path d="M482.799 724.885C480.996 723.392 487.092 720.727 488.604 720.727C490.797 720.727 492.654 730.049 493.114 731.524C494.134 734.791 495.324 738.061 496.505 741.246C497.096 742.839 496.847 742.668 495.053 742.407C492.944 742.1 490.868 741.86 488.734 741.867C487.887 741.87 486.867 742.384 488.176 742.767" stroke="black" stroke-width="3" stroke-linecap="round" stroke-linejoin="round"/>
<path d="M488.657 724.302C487.197 722.19 487.955 728.471 488.054 728.792C489.177 732.435 490.633 736.003 491.969 739.573C492.045 739.777 493.526 743.577 493.641 742.317" stroke="black" stroke-width="3" stroke-linecap="round" stroke-linejoin="round"/>
<path d="M486.889 732.746C484.62 732.746 491.309 731.529 493.578 731.486" stroke="black" stroke-width="3" stroke-linecap="round" stroke-linejoin="round"/>
<path d="M461.597 726.625C461.597 726.258 461.341 726.738 461.341 726.992C461.341 729.625 462.909 732.566 463.739 735.019C464.683 737.804 465.094 740.478 465.237 743.282C465.32 744.894 469.441 742.101 469.665 741.993C471.037 741.334 473.125 740.895 474.454 740.895C475.548 740.895 471.328 729.874 471.035 729.191C470.323 727.525 469.863 725.903 468.968 724.324C468.502 723.503 467.475 722.689 466.774 723.601C466.076 724.512 460.68 728.317 461.765 729.169" stroke="black" stroke-width="3" stroke-linecap="round" stroke-linejoin="round"/>
<path d="M465.686 724.398C463.924 725.047 466.903 731.437 467.198 732.397C468.195 735.646 470.158 745.554 470.158 742.155" stroke="black" stroke-width="3" stroke-linecap="round" stroke-linejoin="round"/>
<path d="M464.27 735.291C464.27 736.837 472.009 732.655 472.991 732.068" stroke="black" stroke-width="3" stroke-linecap="round" stroke-linejoin="round"/>
<path d="M925.975 660.108C926.911 656.711 926.134 659.586 925.831 661.48C925.028 666.499 924.259 672.602 920.458 676.305C917.128 679.55 914.003 682.822 910.318 685.681C908.293 687.252 905.762 690.527 903.327 691.358C901.911 691.842 903.129 690.316 903.906 692.316C906.267 698.397 906.697 709.056 901.657 714.158" stroke="black" stroke-width="3" stroke-linecap="round" stroke-linejoin="round"/>
<path d="M971.553 658.094C971.043 658.094 969.973 657.879 969.495 658.098C968.368 658.615 970.058 667.893 970.186 668.935C971.237 677.519 976.501 686.976 983.643 691.921C984.083 692.225 989.645 693.379 989.256 693.796C988.105 695.027 988.508 698.513 988.523 699.95C988.576 704.826 991.78 711.077 995.518 714.231" stroke="black" stroke-width="3" stroke-linecap="round" stroke-linejoin="round"/>
<path d="M896.497 671.208C896.615 670.245 897.255 667.427 897.255 668.398" stroke="black" stroke-width="3" stroke-linecap="round" stroke-linejoin="round"/>
<path d="M897.565 667.674C897.565 667.119 897.565 666.563 897.565 666.008C897.565 664.847 896.769 666.621 896.539 666.992C894.499 670.292 891.443 674.127 890.429 677.905C889.952 679.68 895.569 675.317 895.898 675.032C898.829 672.49 902.521 667.87 906.396 666.835C908.005 666.405 904.391 674.487 904.11 675.033C902.298 678.557 899.947 681.722 897.995 685.15C896.141 688.406 907.421 674.474 906.806 678.169C905.543 685.751 897.393 690.943 897.393 699.055C897.393 700.619 901.079 696.812 901.225 698.663C901.543 702.7 899.443 706.569 899.194 710.548" stroke="black" stroke-width="3" stroke-linecap="round" stroke-linejoin="round"/>
<path d="M981.631 663.753C981.771 662.926 981.466 658.961 980.585 661.438C979.905 663.35 975.744 676.248 980.568 674.735C983.806 673.72 986.494 670.388 989.11 668.369C991.474 666.545 992.74 666.019 992.48 669.356C992.324 671.357 987.424 682.613 990.507 683.184C993.323 683.707 995.2 682.002 997.146 680.215C998.687 678.8 1000.03 677.91 999.709 680.71C999.535 682.244 994.646 694.332 997.778 693.955C999.846 693.707 1001.42 691.137 1003.41 690.44C1005.69 689.642 1004.17 694.393 1003.94 695.289C1003.46 697.243 999.62 707.704 1003.83 707.704" stroke="black" stroke-width="3" stroke-linecap="round" stroke-linejoin="round"/>
</svg>
