<svg width="2337" height="1752" viewBox="0 0 2337 1752" fill="none" xmlns="http://www.w3.org/2000/svg">
<path d="M644.624 1474.06C582.044 1474.06 769.244 1460 831.825 1460C866.633 1460 901.408 1461.77 936.223 1462.06C963.449 1462.29 992.095 1460.35 1018.95 1465.68C1052.81 1472.39 998.736 1477.44 991.408 1477.69C903.069 1480.73 637.838 1477.69 726.231 1477.69C790.08 1477.69 853.658 1477.92 917.244 1484.75C946.674 1487.91 975.545 1493.35 1005.2 1494.23C1009.08 1494.35 1039.25 1493.88 1021.37 1495" stroke="#E97777" stroke-opacity="0.66" stroke-width="9" stroke-linecap="round" stroke-linejoin="round"/>
<path d="M642.023 1502.71C642.023 1498.31 640.107 1489.54 633.275 1492.01C627.435 1494.12 643.498 1533.83 644.411 1536.65C658.838 1581.11 670.694 1626.56 684.089 1671.36C684.121 1671.46 684.152 1671.57 684.183 1671.67M684.183 1671.67C686.389 1679.1 688.147 1686.58 689.618 1694.17C689.807 1695.14 685.901 1677.94 684.865 1674.16C684.638 1673.33 684.41 1672.5 684.183 1671.67ZM684.183 1671.67C668.435 1614.18 652.974 1557.01 645.851 1497.69C645.085 1491.31 640.74 1459.5 641.053 1460.01C648.683 1472.26 650.739 1489.46 653.708 1503.2C660.711 1535.6 666.585 1568.21 673.109 1600.71C679.295 1631.52 684.586 1663.78 694.66 1693.66C698.104 1703.88 700.343 1697.53 701 1690.38M673.171 1493.07C673.309 1490.25 675.11 1486.08 676.112 1483.4C677.718 1479.11 668.429 1497.7 667.309 1500.82C645.526 1561.44 697.731 1476.45 699.059 1478.74C700.544 1481.29 689.199 1498.41 687.882 1501.52C683.059 1512.92 678.714 1524.74 675.687 1536.75C668.04 1567.08 694.797 1524.41 698.533 1517.97C702.22 1511.61 712.337 1485.28 719.923 1483.17C729.839 1480.39 712.595 1502.33 708.465 1511.72C705.053 1519.48 680.378 1590.18 689.433 1586.56C703.904 1580.77 715.437 1549.08 722.253 1536.99C731.537 1520.53 740.383 1503.84 749.603 1487.35C752.653 1481.89 759.307 1463.41 766.007 1461.01C767.357 1460.53 763.906 1472 763.714 1472.45C758.983 1483.77 753.548 1494.77 748.209 1505.8C734.675 1533.78 721.654 1562.01 709.589 1590.64C708.47 1593.3 694.079 1630.04 700.376 1630.31C712.883 1630.84 729.05 1592.06 733.723 1583.73C749.348 1555.91 762.978 1526.27 782.188 1500.64C795.384 1483.03 782.474 1508.79 779.565 1513.8C763.637 1541.18 747.992 1568.7 734.104 1597.18C724.043 1617.82 706.223 1647.5 707.611 1671.49C708.067 1679.36 736.351 1638.33 738.162 1635.24C764.113 1590.85 791.603 1547.54 822.06 1506.05C823.132 1504.59 850.116 1472.67 842.39 1486.34C826.464 1514.54 806.097 1540.64 789.373 1568.47C769.131 1602.14 748.377 1641.03 742.727 1680.38C738.721 1708.28 772.931 1659.94 775.977 1655.36C803.799 1613.56 829.327 1570.13 859.487 1529.9C870.019 1515.85 899.502 1473.71 894.509 1490.52C892.022 1498.89 883.706 1507.23 878.767 1514.2C867.423 1530.22 856.244 1546.33 845.565 1562.79C825.587 1593.6 801.32 1629.55 795.141 1666.39C791.727 1686.75 826.024 1643.63 827.997 1640.81C856.027 1600.73 881.7 1558.7 913.559 1521.41C915.453 1519.19 946.939 1490.38 943.764 1498.1C939.069 1509.52 928.593 1520.07 921.559 1530.11C909.868 1546.79 898.621 1563.79 887.678 1580.97C884.003 1586.73 845.709 1643.79 854.107 1649.04C864.927 1655.79 896.477 1604.87 900.645 1599C924.713 1565.07 949.175 1531.58 978.588 1501.99C998.979 1481.47 980.792 1505.08 974.057 1513.83L973.569 1514.46C949.773 1545.37 926.913 1577.49 908.924 1612.15C900.45 1628.48 892.011 1645.67 886.672 1663.32C885.429 1667.43 884.335 1673.96 889.91 1668.44C935.703 1623.08 950.55 1547.05 1002.56 1506.9C1014.18 1497.93 992.849 1525.04 991.808 1526.51C969.821 1557.72 947.861 1590.34 930.387 1624.29C924.144 1636.42 918.569 1657.5 935.117 1637.27C956.64 1610.95 974.435 1581.47 992.854 1553C994.382 1550.63 1019.56 1519.01 1012.87 1532.07C1001.76 1553.77 987.203 1573.94 975.078 1595.11C970.118 1603.77 951.382 1629.6 955.469 1640.64C955.772 1641.46 974.617 1613.95 976.04 1611.5C978.165 1607.85 1008.62 1561.15 1004.99 1575.67C1003.47 1581.74 971.562 1645.64 972.376 1645.67C979.713 1645.89 995.014 1612.54 998.263 1607.03C1000.19 1603.77 1017.02 1575.32 1009.02 1591.62C1000.07 1609.84 991.311 1628.17 983.826 1647.04L983.733 1647.27C981.947 1651.77 970.336 1681.02 979.272 1665.71M1024.06 1499.95C1024.07 1499.94 1024.08 1499.92 1024.08 1499.91M1024.08 1499.91C1028.92 1491.02 1030.65 1460.33 1027.17 1469.79C1025.49 1474.35 1024.59 1485.47 1024.08 1499.91ZM1024.08 1499.91C1022.55 1543.3 1024.52 1616.62 1019.27 1631.83M1019.27 1631.83C1018.66 1633.59 1017.96 1634.58 1017.14 1634.64C1009.01 1635.3 1019.01 1524.25 1020.85 1497.47M1019.27 1631.83C1019.68 1603.09 1020.44 1526.75 1020.85 1497.47M1019.27 1631.83C1019.11 1643.64 1019 1647.42 1019 1636.6M1020.85 1497.47C1021.03 1494.86 1021.13 1493.05 1021.13 1492.22C1021.13 1481.25 1021.02 1485.28 1020.85 1497.47Z" stroke="#E97777" stroke-opacity="0.66" stroke-width="9" stroke-linecap="round" stroke-linejoin="round"/>
<path d="M1688.14 851.504C1710.5 837.178 1706.45 834.85 1690.54 857.528C1677.67 875.868 1663.09 895.348 1654.84 916.329C1648.83 931.586 1676.99 895.967 1679.16 893.358C1702.09 865.778 1725.89 838.534 1754.95 817.242C1779 799.626 1775.33 809.237 1761.09 828.916C1737.61 861.354 1714.24 893.288 1694.03 927.967C1691.87 931.674 1661.23 981.265 1675.75 981.717C1693.49 982.268 1724.26 934.611 1734.03 923.329C1764.37 888.3 1798.11 846.812 1838.98 823.518C1847.72 818.54 1844.61 823.615 1840.05 828.824C1826.91 843.839 1813.27 858.406 1800.07 873.377C1762.29 916.248 1732.06 963.02 1706.88 1014.34C1706.2 1015.73 1684.32 1062.04 1690.87 1062.4C1698.65 1062.83 1708.5 1043.75 1712.04 1038.74C1729.02 1014.72 1745.27 990.176 1762.87 966.599C1799.45 917.6 1841.29 869.654 1890.43 832.863C1921.62 809.509 1895.09 840.193 1884.4 853.542C1846.29 901.153 1810.97 951.007 1775.41 1000.53C1745.51 1042.17 1709.79 1084.5 1689.07 1131.86C1681.55 1149.06 1688.84 1152.46 1702.02 1139.61C1733.66 1108.76 1758.66 1068.71 1786.12 1034.28C1834.08 974.14 1880.89 915.569 1940.66 866.635C1944.94 863.134 1986.21 828.79 1966.5 848.461C1933.74 881.14 1905.63 918.878 1875.83 954.193C1825.66 1013.66 1773.49 1072.6 1732.21 1138.81C1730.13 1142.15 1699.86 1192.68 1723.74 1183.32C1739.65 1177.09 1753.29 1153.9 1763.42 1141.33C1790.38 1107.89 1816.97 1074.2 1843.46 1040.37C1899.69 968.555 1959.09 902.948 2034.28 850.912C2055.5 836.218 2071.14 824.867 2043.49 852.007C1987.51 906.941 1931.31 961.605 1878.67 1019.8C1846.17 1055.73 1815.55 1092.75 1788.08 1132.7C1777.64 1147.88 1764.67 1165.63 1762.5 1184.57C1761.25 1195.53 1778.38 1186.98 1782.16 1184.14C1808.86 1164.14 1830.93 1136.36 1853.08 1111.67C1932.63 1022.97 2007.23 932.581 2105.79 864.121C2122.97 852.188 2141.27 841.731 2160.66 833.816C2177.38 826.988 2160.51 841.104 2155.4 845.589C2096.03 897.706 2033.32 947.13 1981.76 1007.35C1954.63 1039.04 1927.91 1071.89 1905.39 1107.07C1900.55 1114.64 1878.02 1144.41 1884.74 1155.3C1895.96 1173.49 2004.72 1035.23 2011.14 1027.32C2063.06 963.201 2118.13 900.478 2188.46 856.072C2201 848.155 2195.98 854.02 2188.36 861.395C2163.52 885.439 2139.92 910.758 2116.23 935.936C2080.85 973.544 2045.03 1011.44 2014.18 1052.95C1998.76 1073.69 1980.67 1097.58 1973.51 1123.01C1969.99 1135.51 1986.73 1121.68 1989.79 1118.99C2019.84 1092.55 2045.84 1060.75 2074.04 1032.35C2109.82 996.319 2144.95 958.322 2185.86 928.007C2203.83 914.688 2225.42 896.358 2247.61 890.414C2255.14 888.396 2229.33 916.244 2227.24 918.473C2196.72 951.164 2164.79 982.44 2133.41 1014.29C2099.67 1048.53 2064.56 1083.21 2037.36 1123.08C2036.74 1123.98 2020.93 1149.56 2027.93 1147.71C2046.55 1142.78 2066.31 1112.36 2078.18 1099C2111.56 1061.45 2144.01 1023.08 2178.25 986.302C2199.11 963.894 2220.58 938.615 2246.42 921.652C2250 919.309 2223.88 947.884 2219.16 953.085C2188.43 986.984 2156.33 1019.72 2126.14 1054.1C2106.02 1077.02 2073.76 1109.45 2066.21 1140.38C2063.14 1152.92 2078.79 1142.36 2082.62 1139.1C2108.48 1117.08 2129.7 1089.06 2152.45 1063.97C2176.11 1037.86 2200.95 1012.83 2227.24 989.371C2242.34 975.892 2241.67 976.568 2228.27 990.526C2207.72 1011.92 2187.82 1033.98 2167.47 1055.56C2147.36 1076.89 2121.28 1101.12 2110.37 1129C2096.47 1164.51 2161.85 1099.78 2166.31 1095.2C2183.52 1077.46 2200.64 1059.41 2219.01 1042.86C2221.86 1040.3 2244.93 1023.53 2234.12 1037.43C2207.08 1072.22 2168.86 1101.05 2147.88 1140.24C2142.79 1149.73 2155.98 1142.78 2159.22 1140.39C2174.42 1129.16 2188.15 1115.43 2201.75 1102.36C2216.34 1088.33 2230.49 1073.88 2245.71 1060.52C2255.84 1051.64 2267.25 1043.12 2252.59 1060.18C2237.52 1077.71 2222.32 1095.18 2208.09 1113.4C2199.76 1124.06 2182.94 1141.13 2182.05 1155.62C2181.29 1168.05 2221.51 1127.38 2224.42 1124.34C2233.74 1114.63 2243.38 1105.31 2253.45 1096.38C2257.07 1093.17 2268.86 1082.71 2259.9 1093.04C2249.01 1105.61 2232.14 1125.01 2230.92 1142.55C2230.43 1149.58 2258.4 1120.12 2260.67 1117.4C2274.58 1100.77 2265.17 1105.99 2258.79 1120.13C2254.49 1129.68 2252.78 1140.08 2252.91 1150.51C2253.03 1160.01 2270.72 1134.99 2271.68 1133.69C2301.53 1093.01 2267.75 1138.71 2267.75 1154.89" stroke="#E47D7D" stroke-opacity="0.66" stroke-width="10" stroke-linecap="round" stroke-linejoin="round"/>
<path d="M118.838 1127.24C45.7793 1227.16 224.794 903.011 289.192 797.31C411.676 596.268 540.4 394.126 683.296 207.346C692.374 195.48 709.766 149 727.159 149C732.729 149 708.885 180.2 706.528 183.61C658.44 253.205 608.454 321.103 565.163 393.919C464.693 562.911 352.858 726.422 256.31 897.516C214.623 971.389 169.128 1043.02 127.011 1116.67C121.822 1125.74 97.2752 1165.23 98.0164 1165M742.922 133.822C741.03 132.45 723.98 118.716 721.221 118.501M721.221 118.501C720.984 118.482 720.852 118.564 720.845 118.762C719.777 148.141 754.872 186.623 772.812 210.748M721.221 118.501C735.403 136.758 744.948 161.15 754.781 178.767C760.747 189.459 766.757 200.119 772.812 210.748M721.221 118.501C713.738 108.868 704.964 100.943 694.176 96.6232C687.642 94.0065 656.358 85 676.885 85M772.812 210.748C774.167 212.57 775.423 214.31 776.56 215.958C875.661 359.715 981.859 498.418 1083.46 640.327C1130.17 705.575 1174.05 772.161 1217.89 839.066M772.812 210.748C848.982 344.474 932.197 473.266 1025.05 596.123C1086.93 677.998 1153.93 757.524 1217.89 839.066M1217.89 839.066C1228.04 854.566 1238.2 870.082 1248.39 885.603C1280.6 934.683 1321.57 974.416 1348.02 1027.44C1360.32 1052.08 1403.71 1110.59 1365.77 1048.09C1321.64 975.385 1270.81 906.535 1217.89 839.066ZM124.657 1166.03C91.2945 1166.03 132.015 1160.26 156.192 1155.57M156.192 1155.57C162.274 1154.39 167.309 1153.28 169.854 1152.35C184.076 1147.13 198.131 1141.48 212.053 1135.48M156.192 1155.57C183.817 1138.22 210.869 1119.59 237.593 1101.98C317.095 1049.59 403.127 1018.53 490.841 991.247M156.192 1155.57C137.008 1167.62 117.548 1179.06 97.7295 1189.1C86.0533 1195.02 54.9702 1211.29 87.2068 1197.77C129.983 1179.82 171.028 1157.58 212.053 1135.48M212.053 1135.48C257.703 1115.82 301.921 1092.44 345.91 1068.41M212.053 1135.48C233.916 1123.7 255.773 1111.96 277.884 1100.93C300.389 1089.7 323.088 1078.92 345.91 1068.41M345.91 1068.41C393.969 1042.15 441.756 1015.1 490.841 991.247M345.91 1068.41C423.783 1032.54 503.082 999.899 580.946 963.971M490.841 991.247C510.927 981.486 531.231 972.259 551.859 963.839C592.034 947.44 631.901 934.098 673.122 922.097M490.841 991.247C520.744 981.947 550.843 973.087 580.946 963.971M673.122 922.097C679.747 920.168 686.408 918.274 693.111 916.407C716.529 909.884 739.475 894.601 763.479 891.275C800.319 886.172 728.891 913.74 724.923 915.31C677.448 934.095 629.192 949.361 580.946 963.971M673.122 922.097C643.803 935.331 614.434 948.459 585.249 961.981C583.815 962.646 582.381 963.309 580.946 963.971M673.122 922.097C696.995 911.321 720.835 900.475 744.515 889.287C761.281 881.367 746.707 889.578 740.699 894.867M827.571 873.751C814.422 873.751 808.554 867.781 825.181 877.886C922.662 937.13 1031.02 969.223 1131.85 1020.97C1206.63 1059.36 1282.62 1094.95 1359.47 1128.98C1369.12 1133.25 1413.88 1152.9 1383.56 1130.4C1285.97 1057.96 1168.78 1004.21 1053.48 968.612C996.459 951.009 837.048 868.143 892.163 891.015C1014.62 941.833 1136.46 995.024 1258.25 1047.51C1317.56 1073.06 1375.1 1102.61 1433.19 1130.77C1479 1152.98 1411.78 1110.66 1400.69 1104.72M1036.31 417.811C1036.01 399.035 1031.65 372.802 1043.44 356.227C1048.33 349.345 1043.02 373.285 1042.06 381.749C1039.27 406.465 1041.27 432.303 1041.27 457.136C1041.27 466.171 1041.3 475.206 1041.36 484.24M1041.36 484.24C1041.84 557.707 1044.04 631.157 1044.04 704.643C1044.04 738.525 1041.15 773.365 1042.77 807.452M1041.36 484.24C1036.42 502.017 1030.73 519.941 1029.69 537.951C1026.15 599.571 1037.1 740.538 1042.77 807.452M1041.36 484.24C1045.44 469.566 1049 454.992 1049 440.55C1049 429.981 1043.05 453.154 1042.42 456.076M1042.77 807.452C1043.05 813.282 1043.46 819.091 1044.04 824.87C1047.43 858.729 1045.9 844.349 1042.77 807.452ZM1064.62 396.225C1063.66 397.795 1062.49 399.029 1061.17 399.979M1061.17 399.979C1046.95 410.189 1015.53 387.686 1052.01 397.973C1054.65 398.717 1057.74 399.384 1061.17 399.979ZM1061.17 399.979C1101.72 407.024 1190.28 404.143 1157.75 403.132C1138.78 402.543 1119.74 403.789 1100.76 403.034C1096.94 402.881 1065.33 398.908 1066.93 397.708C1089.98 380.427 1162.88 383.74 1179 410M1193 378.633C1192.21 376.789 1182.73 359.836 1182.65 366.575C1182.2 407.537 1180.07 448.476 1179.2 489.441C1177.37 575.723 1188.87 832.6 1171.14 748.217C1160.3 696.599 1161.5 640.382 1156.04 587.937C1151.72 546.489 1144.63 499.948 1144.23 454.835M1144.23 454.835C1143.99 428.145 1146.09 401.954 1152.48 377.614C1159.27 351.759 1148.4 417.281 1144.23 454.835ZM1144.23 454.835C1143.61 460.371 1143.14 465.3 1142.9 469.238C1139.7 520.451 1138 571.199 1138 622.539M1500.96 841.569C1500.44 840.519 1488.23 786.585 1500.96 791.613C1505.28 793.317 1508.03 808.107 1509.78 828.152M1509.78 828.152C1513.7 873.039 1512.65 944.279 1513.18 953.958C1514.36 975.587 1515 997.215 1515.38 1018.84M1509.78 828.152C1502.33 898.429 1497.32 966.67 1500.5 1039.26C1502.61 1087.41 1503.08 1135.98 1503.36 1184.69M1509.78 828.152C1511.57 811.271 1513.5 794.273 1515.49 777.069C1517.98 755.512 1520.03 733.429 1520.13 711.697C1520.14 711.2 1519.47 701.161 1521.09 703.298C1535.2 721.963 1523.57 785.401 1523.57 806.279C1523.57 877.193 1520.06 948.043 1515.38 1018.84M1515.38 1018.84C1516.4 1077.14 1515.51 1135.43 1518.08 1193.7C1523.22 1310.37 1543.13 1659.09 1523.57 1544.03C1503.54 1426.21 1504.04 1305.01 1503.36 1184.69M1515.38 1018.84C1511.72 1074.15 1507.34 1129.44 1503.36 1184.69M1503.36 1184.69C1502 1203.57 1500.68 1222.44 1499.46 1241.31C1494.28 1321.15 1492.88 1401.36 1499.23 1481.18C1501.31 1507.37 1503.63 1543.24 1503.63 1495.25M1549.38 923C1545.18 910.406 1531.54 903.904 1519.49 900.56C1514.13 899.076 1554.4 909.053 1572.26 904.31C1574.53 903.708 1612.03 892.555 1612 892.513C1610.79 890.564 1571.36 894.799 1567.3 894.799H1521.07C1514.41 894.799 1536.81 895.088 1541.88 897.538M1501.23 1116C1480.2 1116 1518.8 1108.06 1523.1 1107.26C1531.85 1105.65 1540.78 1104.31 1549.76 1102.96M1549.76 1102.96C1573.75 1099.33 1598.07 1095.54 1620.11 1085.88C1638.48 1077.83 1599.75 1098.09 1591.68 1099.69C1582.92 1101.43 1561.03 1107.08 1549.76 1102.96ZM1549.76 1102.96C1545.54 1101.41 1542.81 1098.5 1542.81 1093.51M1622.95 802.773C1622.72 795.168 1612.92 770.353 1610.41 791.073C1609.13 801.603 1608.31 812.173 1607.89 822.773M1607.89 822.773C1606.65 853.603 1608.66 884.679 1611.9 915.707M1607.89 822.773C1606.43 819.159 1604.8 817.094 1602.98 817.003C1599.61 816.833 1605.49 867.106 1611.9 915.707M1607.89 822.773C1617.9 847.531 1620.07 944.973 1620.45 978.158M1611.9 915.707C1614.36 939.342 1617.54 962.95 1620.52 986.4M1611.9 915.707C1614.94 938.751 1618.1 961.42 1620.45 978.158M1620.52 986.4C1622.77 1004.13 1624.91 1021.77 1626.56 1039.27C1630.78 1084.22 1634 1219.62 1634 1174.49C1634 1117.78 1630.69 1060.81 1624.1 1004.47C1623.82 1002.05 1622.42 992.189 1620.45 978.158M1620.52 986.4C1620.51 984.489 1620.49 981.687 1620.45 978.158M1620.52 986.4C1620.52 987.284 1620.52 987.977 1620.52 988.463C1620.35 1051.38 1595.17 1120.77 1606.23 1183.35C1610.03 1204.88 1616.46 1180.7 1620.52 1170.26M1607.52 797.62C1624.74 787.243 1644.27 789.98 1663.89 789.98C1703.16 789.98 1742.42 789.884 1781.67 789.676M1781.67 789.676C1815.51 789.497 1849.35 789.235 1883.18 788.881M1781.67 789.676C1721.26 793.336 1661.15 799.389 1602.38 809.917L1602.29 809.934C1579.59 814 1574.28 814.953 1600.8 813.078C1641.04 810.234 1681.5 806.503 1721.62 802.326C1775.71 796.696 1829.46 792.229 1883.18 788.881M1781.67 789.676C1857.41 785.087 1933.62 784.259 2008.18 783.09C2008.34 783.088 2008.49 783.085 2008.65 783.082M1883.18 788.881C1930.16 788.39 1977.13 787.72 2024.12 786.848C2072.99 785.941 2121.89 784.841 2170.8 783.964M1883.18 788.881C1924.97 786.277 1966.74 784.351 2008.65 783.082M2170.8 783.964C2220.36 783.075 2269.92 782.414 2319.45 782.414C2380.24 782.414 2203.98 781.286 2137.3 781.23M2170.8 783.964C2164.19 782.411 2152.14 781.589 2137.3 781.23M2170.8 783.964C2178.72 785.826 2178.85 788.739 2166.63 793.17M2137.3 781.23C2135.58 781.228 2133.93 781.227 2132.36 781.227C2106.74 781.227 2081.22 781.461 2055.76 781.933M2137.3 781.23C2113.66 780.657 2082.94 781.255 2055.76 781.933M2055.76 781.933C2040.04 782.225 2024.33 782.608 2008.65 783.082M2055.76 781.933C2037.31 782.394 2020.49 782.891 2008.65 783.082M2312.05 795.083C2311.97 793.993 2311.8 792.933 2311.57 791.897M2311.57 791.897C2309.36 782.036 2301.47 774.26 2305.76 762.272C2314.03 739.179 2313.08 769.444 2311.57 791.897ZM2311.57 791.897C2310.87 802.212 2310.06 810.878 2309.97 811.964C2301.5 916.043 2302.01 1021.25 2302.01 1125.62C2302.01 1169.23 2308.87 1157.36 2308.87 1120.83C2308.87 1031.46 2302.36 946.335 2311.8 856.358C2315.01 825.851 2317.11 795.312 2319.79 764.776C2321.03 750.666 2320.04 768.014 2319.99 772.961C2318.83 874.971 2318.07 977.051 2313.27 1078.97C2311.87 1108.59 2310.86 1138.06 2310.86 1167.71C2310.86 1171.66 2319.81 1133.78 2322 1124.89M1611.67 1224.68C1583.95 1203.88 1616.06 1217.08 1641.9 1219.18M1641.9 1219.18C1644.01 1219.36 1646.07 1219.45 1648.06 1219.45C1676.24 1219.45 1704.43 1218.99 1732.61 1218.17M1641.9 1219.18C1645.36 1213.35 1691.76 1217.47 1709.98 1215.28C1767.43 1208.36 1825.65 1206.08 1883.36 1202.26C1903.82 1200.9 1924.3 1199.94 1944.8 1199.22M1641.9 1219.18C1641.25 1220.29 1642.13 1221.75 1645.04 1223.69C1661.18 1234.4 1709.15 1222.3 1732.61 1218.17M1732.61 1218.17C1855.43 1214.59 1978.18 1204.23 2100.74 1196M1732.61 1218.17C1735.33 1217.69 1737.73 1217.32 1739.7 1217.1C1807.96 1209.62 1876.29 1203.42 1944.8 1199.22M2100.74 1196C2113.83 1195.13 2126.93 1194.27 2140.01 1193.45C2174.59 1191.29 2209.21 1189.82 2243.8 1188.01M2100.74 1196C2151.35 1194.92 2201.9 1193.05 2252.25 1188.17C2252.36 1188.16 2252.49 1188.14 2252.63 1188.13M2100.74 1196C2048.77 1197.12 1996.73 1197.39 1944.8 1199.22M2243.8 1188.01C2255.41 1187.4 2267.01 1186.75 2278.6 1186.03C2308.91 1184.13 2260.63 1187.4 2252.63 1188.13M2243.8 1188.01C2234.65 1187.89 2225.62 1187.84 2216.9 1188.17C2142.55 1190.95 2068.14 1193.07 1993.82 1196.56C1977.46 1197.32 1961.13 1198.21 1944.8 1199.22M2243.8 1188.01C2246.73 1188.05 2249.68 1188.09 2252.63 1188.13M2252.63 1188.13C2274.11 1188.42 2295.98 1188.52 2316.05 1184.43C2330.7 1181.44 2286.77 1177 2271.83 1177M1785.8 910.106C1800.76 910.106 1794.6 906.046 1787.45 901.324L1787.33 901.244C1770.94 890.427 1750.36 875.8 1731.98 889.656C1713.96 903.25 1710.7 923.442 1712.4 944.914C1713.49 958.665 1738.41 968.206 1746.45 977.899C1777.68 1015.52 1791.66 1071.07 1784.03 1118.56C1780.19 1142.43 1782.21 1156.51 1755.69 1164.35C1720.33 1174.8 1692.58 1132.73 1734.62 1119.71M1906.68 1051.34C1919.13 1034.77 1916.98 1029.72 1901.04 1019.71C1886.24 1010.42 1872.92 1011.53 1862.07 1018.43M1862.07 1018.43C1848.78 1026.89 1839.2 1044.04 1835.21 1061.43C1822.05 1118.74 1870.52 1138.74 1906.81 1096.15C1944.13 1052.33 1877.43 1048.64 1862.07 1018.43ZM1862.07 1018.43C1862.01 1018.32 1861.96 1018.21 1861.91 1018.11M2018.89 915.82C2018.89 884.728 2011 880.571 2011 916.424C2011 973.607 2018.89 1030.02 2018.89 1087.13C2018.89 1105.86 2013.67 1114.28 2028 1099.33M2168.16 1048.24C2168.52 1047.79 2169.55 1046.8 2171 1045.44M2171 1045.44C2176.61 1040.14 2188.35 1029.23 2190.03 1022.71M2171 1045.44C2169.42 1034.72 2168.62 1023.6 2168.39 1012.3M2171 1045.44C2172.92 1058.45 2176 1070.87 2180.62 1082.25M2190.03 1022.71C2190.21 1022.02 2190.28 1021.37 2190.21 1020.79M2190.03 1022.71C2188.37 1040.2 2186.02 1057.22 2182.99 1073.12C2182.36 1076.42 2181.56 1079.46 2180.62 1082.25M2190.03 1022.71C2190.1 1022.07 2190.15 1021.43 2190.21 1020.79M2190.21 1020.79C2190.12 1019.99 2189.78 1019.31 2189.14 1018.77C2183.24 1013.86 2175.98 1012.06 2168.39 1012.3M2190.21 1020.79C2193.98 979.733 2193.96 936.181 2190.09 898.407C2186.67 865.054 2183.73 842.65 2178.48 890.573C2174.7 925.08 2167.53 969.885 2168.39 1012.3M2168.39 1012.3C2152.99 1012.8 2136.24 1021.76 2126.81 1030.41C2067.01 1085.24 2159.69 1144.63 2180.62 1082.25M2180.62 1082.25C2183.6 1089.57 2187.21 1096.46 2191.56 1102.81C2208.66 1127.75 2216.84 1113.71 2236 1106.5M517.725 1175.47C513.292 1160.68 520.845 1145.8 520.845 1167.9C520.845 1173.68 520.879 1179.45 520.943 1185.22M520.943 1185.22C521.395 1226.52 523.351 1267.72 525.135 1309C525.486 1317.11 523.065 1361.68 529.036 1352.85C564.311 1300.67 686.799 1313.81 740.371 1313.81C770.004 1313.81 752.293 1298.67 745.88 1272.59C743.042 1261.05 727.74 1140.69 724.31 1140.05C719.386 1139.12 701.545 1151.71 696.447 1153.36C651.661 1167.85 603.872 1175.07 557.571 1182.79C553.808 1183.42 535.959 1184.25 520.943 1185.22ZM520.943 1185.22C502.831 1186.39 488.841 1187.78 508.658 1189.27M594 1182.92C597.707 1176.02 596.409 1167.55 596.409 1159.97C596.409 1120.39 600.425 1239.06 600.425 1278.64C600.425 1283.04 603.834 1367.68 611.277 1346.65C614.662 1337.09 612.233 1320 610.965 1310.43M517.166 1265C513.288 1263.12 494.873 1257.87 498.461 1257.87C537.26 1257.87 575.301 1251.4 613.81 1247.01C662.416 1241.48 722.841 1241.45 766.938 1217.31C780.032 1210.14 764.286 1211.64 758.25 1213.72M894.413 1200.4C897.865 1192.03 901.077 1178.34 903.075 1171.57M903.075 1171.57C904.464 1166.86 905.266 1165.5 905.153 1171.59M903.075 1171.57C903.747 1171.55 904.442 1171.56 905.153 1171.59M903.075 1171.57C900.403 1171.66 898.074 1172.23 896.369 1173.58C890.262 1178.43 881.868 1185.95 894.804 1186.96M905.153 1171.59C905.114 1173.75 904.958 1176.86 904.673 1181.09C901.278 1231.43 911.335 1285.54 911.335 1332.9C911.335 1355.98 938.687 1332.88 953.087 1328.55C998.929 1314.75 1047.42 1325.62 1092.5 1311.28C1105.77 1307.06 1108.08 1305.81 1101.3 1292.27C1086.73 1263.19 1046.52 1180.64 1063.34 1147.37C1067.14 1139.86 1050.85 1152.39 1043.86 1154.65C1009.31 1165.83 965.778 1174.88 929.513 1175.49C923.435 1175.59 913.187 1171.96 905.153 1171.59ZM984.66 1190.25C973.482 1118.59 991.471 1241.43 991.502 1259C991.557 1289.4 991.502 1319.79 991.502 1350.18C991.502 1350.78 991.539 1364.94 993.002 1362.77C999.897 1352.56 1000.49 1329.27 1002 1317.38M918.335 1258C873.56 1258 933.431 1243.43 948.305 1242.61C989.003 1240.37 1028.9 1244.99 1069.41 1245.33C1076.15 1245.38 1059.51 1245.41 1056.25 1246.51M660.752 1491.53C653.802 1490.87 648.181 1479.02 648.653 1487.93M648.653 1487.93C648.67 1488.25 648.695 1488.59 648.728 1488.97C652.661 1533.86 662.71 1575.17 678.04 1617.76C680.491 1624.57 711.936 1692.95 701.991 1669.3C682.561 1623.09 675.477 1570.65 660.665 1522.89C659.866 1520.32 654.166 1502.41 648.653 1487.93ZM648.653 1487.93C646.251 1481.62 643.885 1475.97 641.976 1472.51M641.976 1472.51C640.042 1469.02 638.576 1467.78 638.016 1470.42C637.829 1471.3 639.268 1471.99 641.976 1472.51ZM641.976 1472.51C662.61 1476.53 756.908 1471.19 766.405 1471.03C823.124 1470.08 879.78 1468.4 934.22 1478.85C958.407 1483.5 988.744 1482.48 1013.81 1482.48C1016.2 1482.48 995.228 1588.24 994.071 1598.1C992.709 1609.71 993.928 1630.89 995.841 1649.88M995.841 1649.88C998.598 1677.25 1002.8 1700.08 1002.8 1683.24C1002.8 1671.54 999.901 1660.56 995.841 1649.88ZM995.841 1649.88C989.822 1634.05 981.243 1618.88 975.741 1602.96M829.25 1481.12C829.25 1431.91 828.831 1526.46 829.078 1534.79C830.355 1577.86 830.756 1620.76 837.105 1663.34C838.254 1671.05 837.969 1649.49 837.969 1647.22M877.366 1574C877.188 1568.31 863.263 1554.33 880.994 1564.76C890.606 1570.41 907.225 1561.91 884.84 1561.91M785 1570.91C785 1545.42 784 1604.9 784 1559M1194.35 1225.44C1194.28 1224.23 1194.2 1223.02 1194.11 1221.81M1194.11 1221.81C1192.15 1196.18 1185.97 1169.62 1193.72 1144.42C1200.34 1122.9 1212.06 1103.84 1219.23 1082.69C1225.75 1063.46 1206.89 1137.88 1205.81 1144.41C1201.55 1170.14 1197.73 1195.95 1194.11 1221.81ZM1194.11 1221.81C1190.9 1244.69 1187.86 1267.61 1184.81 1290.54M1184.81 1290.54C1184.42 1293.46 1184.03 1296.39 1183.64 1299.32M1184.81 1290.54C1185.46 1288.64 1186.12 1286.74 1186.77 1284.85M1184.81 1290.54C1169.06 1336.31 1154.22 1382.39 1140.43 1428.85C1120.58 1495.75 1091.2 1702.69 1094.21 1632.99M1183.64 1299.32C1171.96 1387.12 1159.94 1474.88 1138.55 1560.81M1183.64 1299.32C1181.04 1311.6 1178.56 1323.94 1176.12 1336.32C1161.41 1410.9 1150.8 1485.86 1138.55 1560.81M1183.64 1299.32C1184.66 1294.49 1185.71 1289.66 1186.77 1284.85M1138.55 1560.81C1137.95 1563.22 1137.34 1565.63 1136.73 1568.04C1134.58 1576.45 1133.31 1584.77 1132.5 1593.05M1138.55 1560.81C1138.18 1563.1 1137.8 1565.38 1137.42 1567.67C1136.03 1576.12 1134.29 1584.58 1132.5 1593.05M1132.5 1593.05C1130.44 1614.11 1131.36 1634.94 1128.42 1656.44C1127.56 1662.75 1122.63 1674.1 1122.63 1660.86C1122.63 1638.07 1127.75 1615.51 1132.5 1593.05ZM1186.77 1284.85C1200.83 1221.3 1218.88 1159.52 1251.63 1102.17L1251.98 1101.55C1252.61 1100.45 1253.3 1099.24 1254.05 1097.93M1186.77 1284.85C1201.65 1241.83 1217.33 1199.07 1233.68 1156.53C1240.51 1138.75 1246.65 1118.03 1254.05 1097.93M1254.05 1097.93C1266.67 1075.81 1294.38 1026.95 1281.8 1043.28C1270.01 1058.57 1261.41 1077.94 1254.05 1097.93ZM309.67 1120.69C309.648 1118.96 309.581 1117.3 309.477 1115.71M309.477 1115.71C307.905 1091.74 297.981 1084.67 309.477 1115.71ZM309.477 1115.71C310.352 1118.07 311.352 1120.66 312.49 1123.48C360.069 1241.26 413.332 1360.37 470.708 1473.65C504.555 1540.47 561.352 1605.68 569.771 1682.52C573.341 1715.11 534.124 1615.06 528.958 1604.85C480.487 1509.01 414.043 1417.15 366.513 1319.19M366.513 1319.19C353.205 1291.76 341.38 1263.85 331.847 1235.24C325.973 1217.61 300.353 1130.41 322.776 1195.28C337.077 1236.66 351.564 1278.01 366.513 1319.19ZM366.513 1319.19C399.668 1410.51 435.099 1501.02 475.832 1589.24C497.676 1636.55 519.182 1685.47 546.9 1729.74C568.403 1764.09 562.215 1740.69 553.764 1715.55M565.652 1718.09C567.35 1704.52 692.92 1701.31 756.427 1700.56M756.427 1700.56C776.145 1700.32 789.88 1700.32 792.065 1700.32H792.214C822.385 1700.32 847.131 1691.44 877.113 1691.44C894.29 1691.44 910.753 1687.12 926.679 1682.75M756.427 1700.56C777.999 1695.56 799.745 1691.44 821.336 1691.44C856.721 1691.44 891.716 1687.55 926.679 1682.75M756.427 1700.56C723.119 1708.27 690.223 1718.09 658.942 1718.09C630.811 1718.09 606.815 1726.98 578.979 1726.98H672.27C756.47 1726.98 846.249 1726.32 925.485 1708.71C970.335 1698.75 1032.84 1702.18 1072.08 1682.55M926.679 1682.75C943.076 1678.24 958.903 1673.67 974.352 1673.67C1002.07 1673.67 1027.55 1664.78 1054.31 1664.78H1097.75C1039.8 1664.78 983.282 1674.97 926.679 1682.75Z" stroke="black" stroke-width="10" stroke-linecap="round"/>
<path d="M20 1230C43.7993 1158.46 169.804 984.515 230.857 890.855C321.391 751.968 395.378 605.154 490.053 468.331C555.883 373.194 596.821 251.38 679.198 169.176C708.585 139.85 752.234 80.9914 698.76 150.816C584.681 299.777 485.602 460.977 396.023 625.453C324.146 757.426 241.893 884.143 166.566 1014.22C131.588 1074.63 85.8856 1131.76 56.1937 1194.93" stroke="black" stroke-opacity="0.21" stroke-width="40" stroke-linecap="round" stroke-linejoin="round"/>
<path d="M695.702 162.77C695.702 152.564 701.307 121.543 684.649 121.543C662.791 121.543 701.709 185.349 703.07 187.36C765.915 280.205 849.418 359.91 921.83 445.316C981.3 515.457 1024.29 592.821 1075.92 668.339C1107.66 714.779 1139.48 766.384 1177.11 808.097C1214.91 849.998 1257.34 886.336 1292.34 930.94C1317.92 963.536 1334.86 1003.8 1362.18 1034.59C1368.35 1041.55 1328.19 984.322 1320.64 972.053C1219.25 807.326 1101.66 651.51 1004.42 484.601C968.708 423.316 939.073 358.337 901.027 298.417C865.43 242.353 823.814 191.069 794.723 131.06C771.692 83.5535 673.027 -60.5227 743.266 79.9811C810.467 214.407 897.088 337.913 966.596 471.278C1039.05 610.289 1136.59 740.781 1226.96 868.871C1270.65 930.803 1318.73 1006.16 1344.16 1078.15C1348.71 1091.03 1346.82 1111 1363 1111" stroke="black" stroke-opacity="0.21" stroke-width="40" stroke-linecap="round" stroke-linejoin="round"/>
<path d="M48.0334 1240.8C48.0334 1250.22 37.7513 1253.17 30.7685 1257.82C0.070642 1278.27 100.323 1232.69 133.279 1216.13C279.606 1142.56 433.474 1086.16 580.724 1014.44C657.704 976.951 734.777 945.086 819.026 928.564C845.53 923.366 758.074 955.707 745.674 960.49C633.219 1003.86 520.542 1046.23 406.623 1085.68C307.47 1120.02 200.825 1143.91 109.918 1198.04C52.8139 1232.04 145.325 1189.69 159.983 1183.72" stroke="black" stroke-opacity="0.21" stroke-width="40" stroke-linecap="round" stroke-linejoin="round"/>
<path d="M1010 548C1010 542.182 1011 536.853 1011 531" stroke="black" stroke-opacity="0.21" stroke-width="40" stroke-linecap="round" stroke-linejoin="round"/>
<path d="M1008.12 528.694C1008.12 504.877 1010.13 480.884 1010.13 456.896C1010.13 439.992 1010.72 416.43 1007.44 451.232C998.13 550 999.23 649.507 989.154 748.24C987.679 762.693 982.029 884.555 984.713 831.344C990.556 715.513 1007.46 599.248 1016.29 483.472C1019.12 446.33 994.418 412.934 1035.77 407.394C1054.61 404.871 1177.41 391.616 1181.98 420.718C1182.64 424.902 1163.79 418.978 1162.32 406.738C1158.05 371.077 1153.69 427.194 1153.44 436.253C1150.79 531.452 1154.67 626.661 1148.29 721.778C1145.61 761.609 1140.59 805.784 1146.28 845.652C1152.93 892.279 1155.32 751.733 1155.24 704.63C1155.11 622.309 1144.99 540.348 1144.99 457.837C1144.99 452.768 1150.1 420.617 1146.89 438.194C1135.55 500.337 1147.9 570.505 1149.48 633.317C1151.23 702.932 1151 772.758 1148.57 842.335C1148.32 849.369 1150.91 816.538 1151.7 811.023" stroke="black" stroke-opacity="0.21" stroke-width="40" stroke-linecap="round" stroke-linejoin="round"/>
<path d="M831.186 930.4C830.531 924.147 777.263 917.358 807.218 926.321C860.655 942.312 913.823 956.471 968.159 969.422C1032.83 984.836 1093 1012.84 1157.92 1027.18C1213 1039.34 1265.69 1050.86 1319.86 1066.89C1333.15 1070.82 1406.23 1092.26 1355.66 1078.27C1206.14 1036.94 1052.07 1031.47 903.843 981.665C866.064 968.972 828.872 954.66 794.489 934.507C786.731 929.959 771.671 927.249 792.786 931.476C932.605 959.465 1067.47 1009.99 1206.05 1042.18C1262.28 1055.24 1318.24 1069.49 1374.67 1081.67C1405.6 1088.35 1389.38 1084.83 1370.44 1072.38" stroke="black" stroke-opacity="0.21" stroke-width="40" stroke-linecap="round" stroke-linejoin="round"/>
<path d="M118.438 1148.87C118.438 1154.18 122.878 1141.7 118.88 1151.54C113.807 1164.03 100.638 1208.73 121.026 1174.11C140.094 1141.72 151.616 1104.82 165.327 1070.02C171.409 1054.59 185.804 1023.69 173.764 1057.58C165.206 1081.68 156.047 1105.62 149.228 1130.29C146.921 1138.63 142.291 1155.82 151.734 1139.73C166.181 1115.11 174.291 1086.05 183.699 1059.32C191.694 1036.6 199.249 1013.72 207.508 991.089C211.074 981.318 219.001 951.801 219.296 962.197C219.937 984.845 196.707 1018.65 188.915 1039.74C179.168 1066.11 170.027 1092.82 169.383 1121.16C168.966 1139.53 183.167 1106.26 184.867 1102.62C207.292 1054.56 227.159 1005.19 246.378 955.784C259.971 920.839 271.863 885.32 285.029 850.226C289.945 837.121 294.86 817.942 304.779 807.371C324.611 786.234 287.105 862.583 276.947 889.72C255.627 946.678 235.572 1005.17 229.692 1066.03C226.709 1096.91 233.735 1093.46 244.209 1067.81C269.503 1005.86 286.85 940.112 308.025 876.684C324.312 827.896 337.524 769.256 367.264 726.086C380.668 706.629 353.545 771.318 345.546 793.546C320.824 862.255 301.185 932.676 290.329 1004.95C288.905 1014.43 284.711 1092.12 286.43 1090.41C296.426 1080.47 301.007 1060.57 305.599 1047.88C318.746 1011.54 330.723 974.74 342.554 937.96C372.149 845.945 392.301 749.236 430.255 660.168C437.591 642.953 445.699 626.052 453.624 609.103C458.685 598.28 456.732 604.42 453.301 611.657C398.245 727.815 364.552 857.512 360.101 986.139C359.299 1009.32 366.224 1015.37 378.455 992.055C406.096 939.373 420.032 878.094 437.262 821.569C467.369 722.797 494.175 622.29 531.215 525.804C540.136 502.564 550.583 479.962 559.882 456.874C560.307 455.819 568.957 431.02 568.001 431.052C560.959 431.291 551.926 455.223 549.726 459.839C535.771 489.12 523.788 519.259 513.31 549.945C477.989 653.38 457.061 759.726 434.781 866.506C424.598 915.303 405.607 972.198 411.245 1022.85C412.017 1029.78 418.648 1024.6 420.474 1021.38C432.55 1000.06 436.639 972.499 442.52 949.107C471.939 832.087 499.888 714.291 536.815 599.355C563.793 515.388 598.678 437.647 634.534 357.501C638.277 349.134 662.623 298.785 643.16 329.306C610.734 380.154 593.31 440.594 575.929 497.752C541.04 612.483 518.503 731.698 498.169 849.763C493.495 876.904 487.999 904.253 485.473 931.709C485.365 932.881 482.992 946.938 488.001 942.595C497.356 934.485 500.212 914.011 503.236 903.015C511.887 871.555 518.876 839.537 526.374 807.788C551.908 699.675 576.851 591.431 606.875 484.447C628.542 407.244 710.347 181.439 676.781 254.269C652.19 307.628 639.093 367.581 624.117 424.084C592.471 543.489 572.201 666.15 557.577 788.712C553.371 823.964 549.14 859.322 547.374 894.799C547.162 899.056 543.599 922.674 548.25 925.552C556.84 930.865 583.606 819.425 585.161 813.333C613.155 703.613 640.309 593.695 673.428 485.36C685.512 445.835 698.572 406.619 711.97 367.523C716.795 353.446 734.943 313.059 726.48 325.303C691.549 375.837 674.476 442.684 656.971 500.432C621.776 616.54 601.34 737.29 587.515 857.708C585.663 873.836 579.188 933.709 595.681 886.68C624.886 803.404 644.396 715.698 667.289 630.567C685.534 562.718 701.235 488.088 735.421 425.831C750.687 398.03 713.529 485.386 704.037 515.646C672.861 615.039 653.903 716.671 636.163 819.157C631.743 844.694 626.457 870.457 624.465 896.338C623.491 908.995 629.837 891.877 631.399 888.298C658.691 825.761 673.719 754.678 690.809 688.885C712.898 603.853 721.305 507.751 759.126 427.671C761.276 423.118 765.253 415.004 763.904 425.13C760.889 447.767 751.157 470.393 744.869 492.259C718.012 585.648 695.576 681.242 683.338 777.694C682.925 780.955 672.696 880.9 680.358 879.109C686.633 877.642 690.032 858.026 691.418 853.406C700.217 824.064 707.163 794.145 714.499 764.416C725.297 720.651 735.543 676.76 745.644 632.831C754.116 595.987 760.704 556.207 776.683 521.648C780.062 514.339 788.271 493.661 799.508 495.012C807.8 496.009 803.329 529.295 802.913 533.665C795.13 615.493 776.839 697.047 764.406 778.266C758.963 813.823 753.249 849.463 750.85 885.386C750.766 886.649 748.735 913.194 753.264 910.758C763.219 905.404 766.536 881.701 769.165 872.435C779.428 836.263 788.455 799.713 796.952 763.092C816.023 680.902 821.803 584.101 861.749 508.525C881.371 471.403 873.53 548.41 872.412 556.5C860.548 642.305 844.23 727.429 831.18 813.052C830.027 820.619 824.001 902.555 826.548 900.573C834.36 894.494 836.045 872.777 838.047 864.236C846.765 827.064 853.99 789.495 860.649 751.908C873.066 681.823 874.021 604.33 897.254 536.782C907.208 507.839 902.05 576.606 901.372 581.015C896.594 612.077 848.241 914.444 859.526 914.444C869.529 914.444 877.828 826.817 878.825 820.09C888.874 752.224 892.396 683.485 903.001 615.75C903.493 612.607 916.341 561.744 916.403 585.978C916.523 633.006 907.075 681.853 903.346 728.776C898.36 791.52 889.545 856.281 893.297 919.328C894.821 944.932 904.781 891.901 905.388 888.129C920.643 793.241 935.432 506.46 942.949 602.27C947.054 654.596 935.861 709.228 930.019 761.034C926.192 794.964 921.645 829.02 920.074 863.151C919.492 875.786 916.768 893.032 922.553 904.948C930.724 921.781 937.38 902.164 939.044 894.022C948.767 846.459 950.103 797.059 950.611 748.695C950.843 726.58 950.502 704.461 950.752 682.347C950.861 672.733 952.793 691.977 952.891 693.752C956.046 751.096 953.867 809.16 953.867 866.565C953.867 872.051 948.562 960.592 957.28 961.853C962.054 962.543 971.604 868.177 972.341 861.734C975.985 829.871 978.858 797.953 981.587 766C983.368 745.151 981.637 718.385 989.518 698.587C993.365 688.921 995.696 709.776 995.814 711.481C997.416 734.719 996.387 758.329 996.326 781.605C996.159 844.82 988.231 907.607 986.061 970.723C985.497 987.127 988.01 1008.7 992.985 979.171C1001.5 928.605 1007.58 877.682 1013.48 826.76C1014.07 821.675 1023.81 748.712 1029.08 781.522C1035.24 819.846 1031.66 860.963 1031.66 899.594C1031.66 914.412 1023.42 978.564 1038.25 989.435C1040.09 990.785 1050.37 925.849 1050.95 920.784C1055.86 878.39 1049.59 827.026 1062.38 786.413C1065.67 775.966 1068.62 796.876 1068.84 798.94C1070.97 818.714 1070.56 838.789 1070.89 858.651C1071.54 897.761 1071.3 937.954 1080.06 976.325C1081.76 983.776 1085.02 1001.65 1087.98 984.829C1094.01 950.546 1095.32 915.545 1097.68 880.883C1098.63 866.909 1101.67 829.274 1110.27 862.568C1119.72 899.143 1123.9 937.101 1132.26 973.956C1134.99 985.982 1137.83 1017.53 1150.38 1024.59C1156.38 1027.98 1156.99 992.852 1157.14 989.62C1158.23 967.061 1154.91 939.811 1161.47 917.964C1164.12 909.156 1173.36 939.036 1174.48 941.92C1183.61 965.481 1201.09 984.307 1202.8 1010.08C1204.77 1039.79 1203.92 986.865 1203.37 980.18C1201.22 954.07 1187.36 926.835 1178.03 902.827C1165.8 871.346 1154.09 832.841 1128.05 809.664C1105.88 789.935 1076 780.94 1052.61 762.586C1028.07 743.319 1009.39 714.126 983.006 697.736C975.592 693.131 964.922 692.938 958.487 687.168C951.671 681.056 967.756 680.557 970.51 681.447C999.101 690.689 1022.57 742.726 1035.96 766.335C1064.46 816.605 1083.43 873.362 1121.01 918.097C1139.71 940.345 1159.43 962.707 1179.16 984.061C1186.77 992.294 1197.24 1001.84 1197.73 984.644C1199.47 922.226 1154.14 862.504 1115.63 817.797C1083.44 780.42 1054.88 743.573 1030.6 700.502C1013.91 670.891 997.856 637.488 970.562 615.88C958.43 606.274 943.971 599.945 932.107 590.097C918.16 578.521 941.068 605.398 943.634 610.013C966.574 651.262 982.543 695.842 1007.47 736.165C1031.34 774.779 1062.95 806.442 1092.78 840.32C1115.47 866.091 1133.42 895.128 1152.57 923.484C1153.56 924.956 1173.06 951.525 1173.87 941.881C1175.45 923.262 1162.2 900.787 1154.42 884.605C1139.07 852.694 1116.65 825.378 1094.78 797.815C1035.65 723.295 996.122 631.535 920.124 571.637C891.541 549.11 867.95 525.65 847.344 495.478C826.358 464.751 812.219 426.684 787.46 398.937C776.59 386.756 762.102 379.474 752.246 366.104C741.462 351.475 737.795 332.769 734.632 315.27C733.278 307.781 729.878 298.703 732.451 311.637C735.814 328.548 747.535 345.493 757.556 359.072C776.503 384.749 799.282 407.021 819.638 431.529C859.816 479.899 888.798 535.228 920.526 589.154C947.184 634.464 977.104 674.531 1011.27 714.304C1043.92 752.3 1068.12 795.492 1094.55 837.792C1118.61 876.309 1150.84 932.759 1202.53 932.371C1211.63 932.303 1200.16 919.846 1198.35 917.7C1180.44 896.479 1161.34 876.324 1143.72 854.849C1110.47 814.334 1080.43 771.037 1045.67 731.794C1014.96 697.12 976.532 670.966 946.312 635.365C906.657 588.651 869.597 540.965 839.642 487.349C817.978 448.573 800.075 403.423 759.235 380.95C737.956 369.242 713.087 369.409 691.107 359.814C677.894 354.046 667.697 344.242 652.702 344.481C632.399 344.803 618.158 374.753 610.124 389.282C589.484 426.609 574.352 466.915 554.845 504.865C498.531 614.42 446.901 727.178 385.425 833.914C359.585 878.776 330.985 920.268 295.098 957.73C285.579 967.667 253.57 993.254 265.656 986.669C292.751 971.905 313.879 929.752 332.328 906.443C382.131 843.522 432.442 781.066 494.603 729.716C512.338 715.065 559.557 666.914 587.118 671.729C603.114 674.524 553.083 734.977 550.282 738.177C458.323 843.249 353.934 936.486 256.988 1036.7C246.728 1047.3 225.83 1063.65 250.958 1062.62C294.095 1060.83 338.505 1034.16 375.701 1014.85C441.51 980.673 504.192 939.844 573.549 912.869C628.478 891.506 686.035 879.68 743.136 865.771C762.898 860.957 795.571 845.736 816.454 850.584C819.766 851.352 768.383 882.508 763.817 884.803C648.879 942.586 545.876 1029.39 423.346 1070.83C400.64 1078.5 375.66 1083.6 351.517 1082.52C345.303 1082.24 362.824 1077.3 368.66 1075.15C385.001 1069.11 401.125 1062.65 417.092 1055.68C538.149 1002.83 648.596 932.37 774.674 890.366C816.964 876.276 859.994 863.207 900.475 844.307C902.593 843.318 936.248 826.904 927.336 824.1C884.05 810.48 823.015 831.709 788.985 793.189C755.888 755.725 758.947 690.08 758.947 643.756C758.947 573.178 767.038 505.182 773.39 435.102C774.48 423.067 786.242 364.251 762.936 365.856C732.311 367.964 704.987 429.455 692.195 451.11C654.247 515.353 621.215 582.403 593.165 651.519C572.86 701.553 544.788 755.133 532.772 808.032C523.86 847.268 569.937 736.615 586.887 700.119C628.217 611.126 671.484 518.406 734.612 442.402C754.013 419.043 787.581 389.686 782.177 439.87C774.53 510.887 744.359 582.761 725.725 651.439C722.792 662.25 686.929 780.988 709.104 782.885C722.862 784.062 734.788 765.902 742.152 756.663C764.193 729.009 784.009 699.541 804.249 670.571C824.034 642.253 861.438 562.107 904.566 566.125C933.399 568.811 918.501 668.066 916.875 684.16C911.58 736.561 897.172 798.665 906.011 851.312C910.13 875.841 941.075 872.226 959.346 869.417C986.186 865.291 1012 862.211 1039.22 862.211C1062.25 862.211 1087.44 866.822 1110.27 863.19C1113.46 862.682 1130.82 859.946 1123.14 854.568C1102.34 840.01 1085.33 818.07 1068.6 799.32C1027.4 753.133 991.33 703.241 954.483 653.597C921.407 609.034 888.23 574.684 831.16 566.711C725.513 551.949 634.907 615.522 555.577 676.203C483.153 731.601 402.668 799.995 362.167 883.798C357.583 893.282 347.442 920.495 367.299 916.509C396.534 910.64 431.377 871.556 453.237 853.353C509.864 806.2 560.386 752.378 616.987 705.287C651.785 676.335 706.208 633.212 756.021 644.868C823.604 660.683 804.753 781.219 796.361 827.276C790.673 858.496 784.83 891.83 772.679 921.339C762.928 945.02 784.455 871.494 790.661 846.65C809.241 772.266 825.59 697.051 839.942 621.749C846.54 587.137 853.258 552.41 857.539 517.419C859.765 499.231 864.502 477.031 860.48 458.714C848.761 405.337 727.57 438.875 699.453 451.825C650.978 474.152 599.714 506.858 564.032 547.192C513.705 604.079 663.959 421.232 736.311 398.021C830.204 367.898 783.306 534.646 769.453 571.187C746.63 631.391 722.006 691.516 695.186 750.055C679.077 785.214 660.616 824.455 633.255 852.599C611.986 874.476 584.003 895.72 555.016 905.596C519.285 917.77 491.899 931.471 460.467 952.422C458.273 953.885 435.775 968.742 444.432 958.656C466.592 932.838 498.053 913.839 527.805 898.178C586.317 867.378 649.541 847.437 707.306 814.643C757.261 786.283 803.307 751.702 853.094 723.267C870.84 713.132 908.336 690.102 929.02 705.902C942.183 715.958 945.645 735.445 947.615 750.879C950.291 771.83 950.01 824.295 978.49 825.926C993.535 826.788 1006.41 819.584 1021.22 818.773C1039.16 817.79 1056.12 820.735 1073.87 821.771C1115.07 824.175 1072.85 796.248 1058.33 789.639C1002.3 764.129 943.19 734.584 880.638 732.909" stroke="black" stroke-opacity="0.21" stroke-width="40" stroke-linecap="round" stroke-linejoin="round"/>
</svg>
