<svg width="3056" height="2795" viewBox="0 0 3056 2795" fill="none" xmlns="http://www.w3.org/2000/svg">
<path d="M67.1611 2179.21C67.1611 2066.9 61.7008 1954.84 57.1039 1842.73M57.1039 1842.73C54.7021 1784.15 52.5361 1725.56 51.5077 1666.92M57.1039 1842.73C57.5116 1872.02 58.0088 1901.31 58.0088 1930.61C58.0088 1944.02 66.2623 1980.7 57.1636 1970.84C52.9702 1966.3 57.0579 1939.6 57.0579 1933.92C57.0579 1887.87 56.4666 1841.87 54.6543 1795.85C52.9612 1752.86 52.0248 1709.89 51.5077 1666.92M57.1039 1842.73C56.8365 1823.52 56.6075 1804.31 56.5825 1785.09C56.3257 1587.78 59.4352 1390.7 59.4352 1193.52C59.4352 1075.58 71.4401 957.677 71.4401 840.068C71.4401 755.498 55.8688 670.134 54.2317 586.028C52.8397 514.515 65.564 435.542 80.3679 365.347C103.974 253.413 177.619 181.991 273.028 119.85M51.5077 1666.92C51.1054 1643.97 50.8772 1621.01 50.8772 1598.05V1536.71M51.5077 1666.92C50.9856 1623.53 50.8912 1580.13 50.8772 1536.71M50.8772 1536.71V1491.42C50.8772 1506.52 50.8723 1521.62 50.8772 1536.71ZM41.7266 454.415C42.9917 479.084 47.8967 405.351 52.8071 381.142C69.001 301.303 95.5695 222.458 161.321 170.327C223.093 121.35 276.589 102.243 353.01 100.585C427.081 98.9779 501.269 82.8657 574.931 75.3766C679.071 64.7888 783.624 57.8867 887.845 48.0188C967.378 40.4884 1047.62 31.7501 1127.68 31.5979M1127.68 31.5979C1155.74 31.5445 1183.78 32.5458 1211.76 35.0233C1237.64 37.3156 1315.49 36.1089 1289.69 32.9729C1247.81 27.8821 1204.96 28.0732 1162.08 28.8224M1127.68 31.5979C1139.13 30.596 1150.6 29.672 1162.08 28.8224M1127.68 31.5979C1098.14 34.1819 1068.7 37.2844 1039.39 40.9664C874.568 61.6737 1371.52 32.0623 1537.6 28.4315C1560.99 27.92 1584.39 27.7692 1607.78 27.879M1162.08 28.8224C1133.08 29.3293 1104.06 30.0916 1075.32 29.6466M1162.08 28.8224C1280.16 20.0867 1399.71 19.2154 1519.05 22.3414M1075.32 29.6466C1066.14 29.5044 1056.99 29.2391 1047.87 28.8029C930.938 23.206 813.271 8.87739 696.109 17.9222C650.236 21.4635 564.683 16.5733 523.101 40.0056C483.627 62.2494 613.484 47.999 658.794 47.999C798.235 47.999 936.628 39.8571 1075.32 29.6466ZM1075.32 29.6466C1112.28 26.9251 1149.27 24.0566 1186.31 21.1562C1298.57 12.3638 1408.67 15.9604 1519.05 22.3414M1519.05 22.3414C1548.59 24.0492 1578.15 25.9565 1607.78 27.879M1519.05 22.3414C1576.51 23.8465 1633.91 26.2781 1691.09 29.2048M1607.78 27.879C1650.92 30.6783 1694.2 33.51 1737.77 35.8058C1811.39 39.6854 1885.16 42.7247 1958.91 44.9606M1607.78 27.879C1635.55 28.0094 1663.32 28.5071 1691.09 29.2048M1958.91 44.9606C1986.02 45.7825 2013.13 46.4959 2040.22 47.1026C2064.49 47.6458 2048.88 48.1695 2034.27 47.8999C2009.17 47.4367 1984.03 46.3343 1958.91 44.9606ZM1958.91 44.9606C1934.36 43.6186 1909.83 42.0177 1885.35 40.5008C1821.09 36.5184 1756.24 32.5402 1691.09 29.2048M1691.09 29.2048C1818.23 32.3997 1945.36 39.7903 2072.39 35.3304C2252.12 29.0199 2429.71 27.1814 2608.99 43.72C2693.6 51.5245 2739.07 94.863 2812.23 131.548C2861.04 156.021 2889.38 174.735 2894.21 233.501C2901.12 317.541 2908.46 381.995 2953.23 455.395M2950.85 255.797C2953.97 254.302 2954.18 251.253 2954.18 248.13C2954.18 227.223 2957.45 289.835 2960.23 310.557C2971.11 391.779 2980.48 472.962 2988.35 554.216M2988.35 554.216C2994.73 619.996 3000.13 685.822 3004.57 751.755M2988.35 554.216C2929.19 748.557 2959.92 975.356 2977.96 1173.19C2978.96 1184.12 2979.94 1195.07 2980.9 1206.02M2988.35 554.216C2990.07 548.564 2991.87 542.939 2993.74 537.344C2996.78 528.271 3009.68 487.55 3009.68 517.766C3009.68 578.328 3008.29 638.656 3006.37 699.188C3005.81 716.723 3005.21 734.245 3004.57 751.755M3004.57 751.755C3010.42 838.641 3014.62 925.711 3017.19 1013.1C3020.12 1112.85 3024.25 1212.2 3031.01 1311.77C3034.86 1368.43 3050.75 1447.55 3030.93 1503.02C3019.05 1536.27 3009.43 1467.71 3008.49 1461.56C2995.51 1377.03 2988.44 1291.29 2980.9 1206.02M3004.57 751.755C2998.99 903.67 2990.28 1054.71 2980.9 1206.02M2980.9 1206.02C2976.7 1273.83 2972.36 1341.69 2968.11 1409.71C2963.62 1481.58 2960.44 1553.78 2956.95 1626.02M2956.95 1626.02C2950.76 1753.72 2943.56 1881.53 2926.22 2007.78C2925.34 2014.18 2910 2084.61 2908.53 2064.32C2903.57 1995.6 2906.23 1924.04 2909.25 1855.34C2914.6 1733.69 2947.52 1611.24 2947.52 1490.31C2947.52 1384.72 2951.96 1475.73 2956.95 1626.02ZM2956.95 1626.02C2962.67 1798.47 2969.13 2048.99 2970.46 2170.13C2972.14 2323.68 3016.62 2506.03 2875.37 2607.11M2848.15 2619.59C2790.25 2645.13 2735.84 2648.29 2673.19 2648.29M2817.49 2655.42C2835.87 2675.72 2840.6 2609.94 2840.66 2608.74C2840.78 2606.62 2840.95 2604.5 2841.19 2602.39M2841.19 2602.39C2848.86 2532.95 2919.97 2466.23 2955.55 2408.09C2972.48 2380.44 2944.16 2452.43 2940.96 2457.83C2911.51 2507.56 2878.57 2557 2841.19 2602.39ZM2841.19 2602.39C2816.06 2632.89 2788.92 2661.56 2759.48 2687.24C2695.16 2743.34 2648.59 2756.31 2567.32 2770.6C2457.27 2789.95 2331.57 2772.65 2221.34 2762.21C2091.45 2749.9 1958.8 2747.87 1828.29 2747.87C1648.51 2747.87 1469.58 2732.1 1290.43 2723.14M1290.43 2723.14C1251.25 2721.18 1212.07 2719.54 1172.86 2718.47M1290.43 2723.14C1199.67 2728.37 1108.92 2733.68 1018.14 2738.14C904.653 2743.72 795.302 2740.02 685.471 2728.37M1290.43 2723.14C1316.73 2721.62 1343.03 2720.11 1369.33 2718.62M1172.86 2718.47C1110.44 2716.76 1047.97 2716.47 985.399 2718.55M1172.86 2718.47C1238.35 2718.51 1303.84 2718.6 1369.33 2718.62M1172.86 2718.47C1110.37 2718.42 1047.89 2718.42 985.399 2718.55M985.399 2718.55C964.365 2719.25 943.319 2720.22 922.26 2721.5C896.373 2723.06 870.726 2723.8 845.245 2723.88M985.399 2718.55C975.442 2718.57 965.485 2718.6 955.528 2718.63C918.676 2718.74 881.959 2721.28 845.245 2723.88M845.245 2723.88C720.688 2724.27 600.106 2708.83 474.92 2696.51C436.619 2692.74 397.846 2676.9 360.034 2675.12C308.902 2672.73 460.537 2694.65 510.948 2703.53C569.704 2713.89 627.654 2722.23 685.471 2728.37M845.245 2723.88C794.469 2727.48 743.7 2731.19 692.594 2728.7C690.219 2728.59 687.845 2728.47 685.471 2728.37M685.471 2728.37C613.516 2725.09 541.829 2725.03 469.743 2724.87C402.656 2724.72 349.899 2698.75 292.455 2667.46C256.868 2648.07 211.321 2640.26 195.491 2597.98C187.176 2575.78 185.49 2552.07 175.35 2530.31C161.924 2501.51 141.625 2476.49 128.889 2447.24C113.187 2411.17 110.283 2371.07 99.2925 2333.57C87.142 2292.1 63.9936 2259.51 44.2863 2221.89C26.718 2188.35 -4.45614 2113.72 31.7398 2081.95M1369.33 2718.62C1437.62 2714.77 1505.92 2711.1 1574.23 2708.01C1632.59 2705.37 1691.02 2704.72 1749.43 2704.72C1756.78 2704.72 1797.59 2705.13 1767.93 2707.54C1643.88 2717.65 1518.28 2718.63 1393.9 2718.63C1385.71 2718.63 1377.52 2718.63 1369.33 2718.62ZM83.806 2096.84C84.0962 2096.27 84.5124 2095.41 85.0135 2094.33M85.0135 2094.33C89.6491 2084.36 101.547 2055.21 88.085 2055.21C83.297 2055.21 79.8032 2058.72 77.2307 2064.01M85.0135 2094.33C89.3016 2124.08 89.9184 2162.31 90.5481 2168.8C98.1761 2247.48 100.338 2326.45 96.8665 2405.4M85.0135 2094.33C83.1834 2081.64 80.6846 2070.49 77.2307 2064.01M77.2307 2064.01C70.5013 2077.85 70.076 2103.89 69.2785 2111.19C68.6167 2117.25 67.9918 2123.32 67.4046 2129.41M77.2307 2064.01C75.3597 2060.5 73.2084 2058.36 70.7313 2058.08C67.1949 2057.69 66.6514 2089.62 67.4046 2129.41M67.4046 2129.41C57.6153 2230.97 58.3327 2336.61 73.4519 2437.09C85.2904 2515.76 93.1997 2474.81 96.0487 2422.08C96.3493 2416.52 96.6219 2410.96 96.8665 2405.4M67.4046 2129.41C68.5783 2191.43 72.9008 2272.54 73.9537 2280.23C79.6952 2322.19 87.5169 2363.97 96.8665 2405.4M96.8665 2405.4C103.719 2435.76 111.392 2465.92 119.669 2495.82C129.422 2531.06 136.457 2582.69 176.518 2593.73M2418 419.024C2422.72 419.024 2426.27 418.694 2428.85 418.1M2428.85 418.1C2445.31 414.317 2422.74 399.816 2414.3 391.379C2410.13 387.215 2405.64 383.434 2400.9 380.001M2428.85 418.1C2430.28 418.886 2431.71 419.67 2433.14 420.45C2459.67 434.842 2495.41 449.21 2517.08 472.141M2428.85 418.1C2391.9 397.675 2360.02 375.378 2323.58 362.875M2400.9 380.001C2369.85 357.536 2327.7 349.938 2290.98 347.019C2202.42 339.978 2132.66 370.712 2067.9 430.296C2001.93 490.991 1933.99 601.553 1969.47 695.267C1976.01 712.521 1983.74 731.073 1992.83 749.658M2400.9 380.001C2449.79 397.424 2492.98 427.41 2517.08 472.141M2400.9 380.001C2376.01 371.134 2349.65 365.521 2323.58 362.875M1992.83 749.658C1992.99 749.993 1993.15 750.329 1993.32 750.664M1992.83 749.658C1992.78 749.026 1992.74 748.393 1992.7 747.76M1992.83 749.658C1997.14 813.34 2024.77 871.011 2087.83 907.723M1993.32 750.664C2026.04 817.27 2076.03 883.998 2149.61 892.606C2232.99 902.36 2363.24 872.826 2440.02 821.49M1993.32 750.664C1993.11 749.697 1992.9 748.729 1992.7 747.76M1993.32 750.664C2006.09 809.508 2037.47 863.714 2087.83 907.723M2440.02 821.49C2446.79 816.966 2453.14 812.273 2459.01 807.422C2496.96 776.045 2521.57 720.459 2533.02 661.742M2440.02 821.49C2409.24 858.682 2361.75 895.779 2310.37 920.845M2440.02 821.49C2449.65 809.869 2457.64 798.239 2463.61 786.963C2490.09 736.948 2510.68 676.996 2523.2 617.27M2533.02 661.742C2541.99 615.696 2542.87 567.724 2535.73 527.992M2533.02 661.742C2537.81 692.77 2538.26 723.772 2533.75 753.182C2523.89 817.597 2443.72 852.062 2393.76 880.066C2365.91 895.676 2338.35 909.979 2310.37 920.845M2533.02 661.742C2530.72 646.866 2527.43 631.985 2523.2 617.27M2535.73 527.992C2534.08 518.85 2532.02 510.145 2529.53 501.999C2526.29 491.395 2522.1 481.449 2517.08 472.141M2535.73 527.992C2533.81 556.813 2529.54 587.012 2523.2 617.27M2535.73 527.992C2535.88 525.756 2536.01 523.528 2536.13 521.309C2537.23 501.075 2529.44 485.216 2517.08 472.141M2323.58 362.875C2311.69 361.669 2299.86 361.079 2288.26 361.079C2242.41 361.079 2198.19 373.869 2158.54 395.639M2323.58 362.875C2302.43 355.617 2279.74 351.66 2253.64 353.284C2218.11 355.495 2186.41 372.33 2158.54 395.639M2158.54 395.639C2093.6 431.294 2040.92 491.038 2013.48 558.141C1987.31 622.133 1980.25 687.331 1992.7 747.76M2158.54 395.639C2123.46 424.97 2094.42 464.551 2071.4 498.141C2023.2 568.482 1987.6 663.263 1992.7 747.76M2087.83 907.723C2096.36 915.175 2105.43 922.335 2115.05 929.176C2167.09 966.191 2242.17 954.114 2310.37 920.845M2087.83 907.723C2101.96 915.954 2117.88 923.131 2135.71 929.087C2199.06 950.24 2255.52 942.145 2310.37 920.845M2523.2 617.27C2485.99 487.75 2376.61 371.126 2240.66 385.06M1895.13 1366.82C1913.55 1366.82 1917.29 1359.02 1913.53 1348.92M1913.53 1348.92C1911.49 1343.46 1907.26 1337.33 1901.98 1331.4C1842.26 1264.43 1737.36 1213.32 1649.55 1197.41C1616.15 1191.35 1584.58 1191.1 1554.07 1194.48M1913.53 1348.92C1941.29 1365.03 1966.63 1383.95 1983.77 1415.95C2019.67 1482.97 2068.32 1553.49 2086.44 1628.09C2127.91 1798.76 2112.41 1988.79 2049.92 2151.23C1987.01 2314.79 1817 2367.89 1663.91 2418.95M1913.53 1348.92C1883.52 1331.51 1850.68 1317.37 1822.29 1293.53C1770.73 1250.22 1716.73 1207.34 1647.36 1202.73C1617.89 1200.77 1586.23 1197.3 1554.07 1194.48M1554.07 1194.48C1458.31 1205.09 1372.88 1251.51 1273.1 1266.8C1160.21 1284.1 1058.07 1387.16 1018.59 1489.02C954.839 1653.54 931.602 1815.01 983.76 1986.47C1027.33 2129.7 1122.14 2267.04 1255.71 2341.9C1299.34 2366.34 1340.81 2391.63 1382.83 2411.52M1554.07 1194.48C1499.42 1189.69 1443.3 1186.81 1394.04 1196.5C1297.66 1215.47 1208.07 1271.22 1128.83 1327.37C1047.46 1385.03 1009.01 1460.93 973.664 1552.21C930.979 1662.46 905.083 1772.11 922.184 1891.26C936.872 1993.6 973.716 2097.23 1004.9 2195.71C1050.11 2338.5 1247.22 2400.4 1382.83 2411.52M1382.83 2411.52C1456.25 2446.28 1531.3 2464.56 1622.28 2433.04C1635.95 2428.31 1649.86 2423.64 1663.91 2418.95M1382.83 2411.52C1386.46 2411.82 1390.05 2412.08 1393.59 2412.3C1469.67 2417.15 1553.14 2401.02 1627.78 2413.79C1640.25 2415.92 1652.23 2417.63 1663.91 2418.95M1663.91 2418.95C1713.88 2424.6 1758.36 2423.17 1812.39 2417.66C1866.83 2412.11 1920.61 2388.25 1968.68 2362.98C2055.41 2317.4 2084.97 2191.62 2105.59 2103.87L2106.34 2100.67M1908.08 1651.2C1923.91 1661.63 1915.93 1640.53 1913.68 1628.1C1906.72 1589.65 1875.32 1565.82 1848.82 1540.03C1788.37 1481.18 1712.19 1390.98 1621.48 1380.61C1574.31 1375.21 1532.45 1382.31 1487.19 1394.81C1449.18 1405.31 1410.32 1405.79 1375.78 1426.51C1301.57 1471.04 1244.64 1513.24 1203.32 1589.18M1203.32 1589.18C1201.23 1593.02 1199.18 1596.95 1197.17 1600.97C1147.34 1700.55 1121.56 1848.51 1169.42 1951.33C1194.36 2004.92 1209.33 2057.41 1253.55 2099.45C1300.71 2144.29 1345.58 2186.04 1404.53 2214.63C1415.13 2219.76 1425.58 2225.1 1436.04 2230.25M1203.32 1589.18C1211.22 1579.73 1219.89 1570.55 1229.42 1561.67C1300.89 1495.06 1405.38 1420.05 1508.98 1449.4C1563.18 1464.75 1610.59 1472.28 1656.95 1506.6C1708.76 1544.96 1754.95 1554.4 1813.57 1573.73C1857.08 1588.08 1874.23 1685.68 1895.81 1723.16C1931.98 1785.95 1912.84 1863.76 1905.28 1933.07M1203.32 1589.18C1122.75 1685.57 1122.76 1810.34 1122.77 1934.11L1122.77 1937.63C1122.77 2064.74 1215.69 2177.17 1334.07 2221.7C1367.16 2234.14 1401.64 2234.71 1436.04 2230.25M1436.04 2230.25C1473.06 2248.49 1510.07 2264.39 1553.16 2260.72C1613.06 2255.63 1676.48 2225.42 1730.37 2200.17C1839.61 2148.98 1893.48 2062.28 1904.22 1943.69C1904.54 1940.18 1904.89 1936.64 1905.28 1933.07M1436.04 2230.25C1469.72 2225.89 1503.32 2216.7 1535.45 2209.12C1608.59 2191.87 1674.7 2163.96 1742.71 2132.72C1806.58 2103.39 1857.16 2073.44 1880.59 2003.56C1887.98 1981.51 1896.95 1957.7 1905.28 1933.07M1905.28 1933.07C1923.33 1879.75 1938.43 1822.59 1928.29 1771.08C1909.77 1676.95 1894.16 1580.23 1804.63 1529.66C1723.63 1483.91 1635.05 1452.07 1550.07 1414.69" stroke="black" stroke-width="40" stroke-linecap="round" stroke-linejoin="round"/>
</svg>
